<?xml version="1.0" encoding="utf-8"?>
<!-- Generator: Adobe Illustrator 26.0.3, SVG Export Plug-In . SVG Version: 6.00 Build 0)  -->
<svg version="1.1" id="Layer_1" xmlns="http://www.w3.org/2000/svg" xmlns:xlink="http://www.w3.org/1999/xlink" x="0px" y="0px"
	 viewBox="0 0 780.7 1029.3" style="enable-background:new 0 0 780.7 1029.3;" xml:space="preserve">
<style type="text/css">
	.st0{fill:#898989;}
	.st1{fill:#C1C1C1;}
	.st2{fill:#9E9E9E;}
	.st3{fill:none;}
	.st4{fill:#CFE4FF;}
	.st5{fill:#FFFFFF;}
</style>
<g>
	<path class="st0" d="M478.7,249H31.3c-0.9,0.1-1.6-0.6-1.7-1.4v-23.3c0.1-0.9,0.8-1.5,1.7-1.4H504c0.6,0,1.2,0.3,1.5,0.8
		c0.3,0.5,0.2,1.1-0.3,1.5l-25.3,23.3C479.6,248.8,479.1,249,478.7,249z M33,246.2h444.9l22.3-20.5H33V246.2z"/>
</g>
<g>
	<path class="st0" d="M31.3,249c-0.5,0-0.9-0.2-1.3-0.5c-0.5-0.5-0.6-1.3-0.1-1.8c0.1-0.1,0.2-0.2,0.3-0.2L62,224.1
		c0.7-0.5,1.7-0.4,2.4,0.2c0.5,0.5,0.6,1.3,0.1,1.8c-0.1,0.1-0.2,0.2-0.3,0.2l-31.8,22.4C32.1,248.9,31.7,249,31.3,249z"/>
</g>
<g>
	<path class="st0" d="M63.2,249c-0.4,0-0.8-0.1-1.1-0.3l-31.8-22.5c-0.6-0.4-0.8-1.1-0.4-1.7c0.1-0.1,0.1-0.2,0.2-0.3
		c0.7-0.6,1.6-0.7,2.4-0.2l31.8,22.5c0.6,0.4,0.8,1.1,0.4,1.7c-0.1,0.1-0.1,0.2-0.2,0.3C64.1,248.8,63.7,249,63.2,249z"/>
</g>
<g>
	<path class="st0" d="M62.9,249c-0.5,0-0.9-0.2-1.3-0.5c-0.5-0.5-0.6-1.3-0.1-1.8c0.1-0.1,0.2-0.2,0.3-0.2l31.8-22.4
		c0.7-0.5,1.7-0.4,2.4,0.2c0.5,0.5,0.6,1.3,0.1,1.8c-0.1,0.1-0.2,0.2-0.3,0.2L64,248.6C63.7,248.9,63.3,249,62.9,249z"/>
</g>
<g>
	<path class="st0" d="M94.7,249c-0.4,0-0.8-0.1-1.1-0.3l-31.8-22.5c-0.6-0.4-0.8-1.1-0.4-1.7c0.1-0.1,0.1-0.2,0.2-0.3
		c0.7-0.6,1.6-0.7,2.4-0.2l31.8,22.5c0.6,0.4,0.8,1.1,0.4,1.7c-0.1,0.1-0.1,0.2-0.2,0.3C95.7,248.8,95.2,249,94.7,249z"/>
</g>
<g>
	<path class="st0" d="M94.4,249c-0.5,0-0.9-0.2-1.3-0.5c-0.5-0.5-0.6-1.3-0.1-1.8c0.1-0.1,0.2-0.2,0.3-0.2l31.8-22.4
		c0.7-0.5,1.7-0.4,2.4,0.2c0.5,0.5,0.6,1.3,0.1,1.8c-0.1,0.1-0.2,0.2-0.3,0.2l-31.8,22.4C95.2,248.9,94.8,249,94.4,249z"/>
</g>
<g>
	<path class="st0" d="M126.3,249c-0.4,0-0.8-0.1-1.1-0.3l-31.8-22.5c-0.6-0.4-0.8-1.1-0.4-1.7c0.1-0.1,0.1-0.2,0.2-0.3
		c0.7-0.6,1.6-0.7,2.4-0.2l31.8,22.4c0.6,0.4,0.8,1.1,0.4,1.7c-0.1,0.1-0.1,0.2-0.2,0.3C127.2,248.8,126.8,249,126.3,249z"/>
</g>
<g>
	<path class="st0" d="M126,249c-0.5,0-0.9-0.2-1.3-0.5c-0.5-0.5-0.6-1.3-0.1-1.8c0.1-0.1,0.2-0.2,0.3-0.2l31.8-22.4
		c0.7-0.5,1.7-0.4,2.4,0.2c0.5,0.5,0.6,1.3,0.1,1.8c-0.1,0.1-0.2,0.2-0.3,0.2l-31.8,22.4C126.8,248.9,126.4,249,126,249z"/>
</g>
<g>
	<path class="st0" d="M157.8,249c-0.4,0-0.8-0.1-1.1-0.3L125,226.2c-0.6-0.4-0.8-1.1-0.4-1.7c0.1-0.1,0.1-0.2,0.2-0.3
		c0.7-0.6,1.6-0.7,2.4-0.2l31.8,22.4c0.6,0.4,0.8,1.1,0.4,1.7c-0.1,0.1-0.1,0.2-0.2,0.3C158.8,248.8,158.3,249,157.8,249z"/>
</g>
<g>
	<path class="st0" d="M157.5,249c-0.5,0-0.9-0.2-1.3-0.5c-0.5-0.5-0.6-1.3-0.1-1.8c0.1-0.1,0.2-0.2,0.3-0.2l31.8-22.4
		c0.7-0.5,1.7-0.4,2.4,0.2c0.5,0.5,0.6,1.3,0.1,1.8c-0.1,0.1-0.2,0.2-0.3,0.2l-31.8,22.4C158.3,248.9,157.9,249,157.5,249z"/>
</g>
<g>
	<path class="st0" d="M189.4,249c-0.4,0-0.8-0.1-1.1-0.3l-31.8-22.5c-0.6-0.4-0.8-1.1-0.4-1.7c0.1-0.1,0.1-0.2,0.2-0.3
		c0.7-0.6,1.6-0.7,2.4-0.2l31.8,22.4c0.6,0.4,0.8,1.1,0.4,1.7c-0.1,0.1-0.1,0.2-0.2,0.3C190.3,248.8,189.9,249,189.4,249z"/>
</g>
<g>
	<path class="st0" d="M189.1,249c-0.5,0-0.9-0.2-1.3-0.5c-0.5-0.5-0.6-1.3-0.1-1.8c0.1-0.1,0.2-0.2,0.3-0.2l31.8-22.4
		c0.7-0.5,1.7-0.4,2.4,0.2c0.5,0.5,0.6,1.3,0.1,1.8c-0.1,0.1-0.2,0.2-0.3,0.2l-31.8,22.4C189.8,248.9,189.5,249,189.1,249z"/>
</g>
<g>
	<path class="st0" d="M220.9,249c-0.4,0-0.8-0.1-1.1-0.3l-31.8-22.5c-0.6-0.4-0.8-1.1-0.4-1.7c0.1-0.1,0.1-0.2,0.2-0.3
		c0.7-0.6,1.6-0.7,2.4-0.2l31.7,22.5c0.6,0.4,0.8,1.1,0.4,1.7c-0.1,0.1-0.1,0.2-0.2,0.3C221.8,248.8,221.4,249,220.9,249z"/>
</g>
<g>
	<path class="st0" d="M220.6,249c-0.5,0-0.9-0.2-1.3-0.5c-0.5-0.5-0.6-1.3-0.1-1.8c0.1-0.1,0.2-0.2,0.3-0.2l31.8-22.4
		c0.7-0.5,1.7-0.4,2.4,0.2c0.5,0.5,0.6,1.3,0.1,1.8c-0.1,0.1-0.2,0.2-0.3,0.2l-31.8,22.4C221.4,248.9,221,249,220.6,249z"/>
</g>
<g>
	<path class="st0" d="M252.5,249c-0.4,0-0.8-0.1-1.1-0.3l-31.8-22.5c-0.6-0.4-0.8-1.1-0.4-1.7c0.1-0.1,0.1-0.2,0.2-0.3
		c0.7-0.6,1.6-0.7,2.4-0.2l31.8,22.4c0.6,0.4,0.8,1.1,0.4,1.7c-0.1,0.1-0.1,0.2-0.2,0.3C253.4,248.8,253,249,252.5,249z"/>
</g>
<g>
	<path class="st0" d="M252.2,249c-0.5,0-0.9-0.2-1.3-0.5c-0.5-0.5-0.6-1.3-0.1-1.8c0.1-0.1,0.2-0.2,0.3-0.2l31.8-22.4
		c0.7-0.5,1.7-0.4,2.4,0.2c0.5,0.5,0.6,1.3,0.1,1.8c-0.1,0.1-0.2,0.2-0.3,0.2l-31.8,22.4C252.9,248.9,252.5,249,252.2,249z"/>
</g>
<g>
	<path class="st0" d="M284,249c-0.4,0-0.8-0.1-1.1-0.3l-31.7-22.5c-0.6-0.4-0.8-1.1-0.4-1.7c0.1-0.1,0.1-0.2,0.2-0.3
		c0.7-0.6,1.6-0.7,2.4-0.2l31.8,22.4c0.6,0.4,0.8,1.1,0.4,1.7c-0.1,0.1-0.1,0.2-0.2,0.3C285,248.8,284.5,249,284,249z"/>
</g>
<g>
	<path class="st0" d="M283.7,249c-0.5,0-0.9-0.2-1.3-0.5c-0.5-0.5-0.6-1.3-0.1-1.8c0.1-0.1,0.2-0.2,0.3-0.2l31.8-22.4
		c0.7-0.5,1.7-0.4,2.4,0.2c0.5,0.5,0.6,1.3,0.1,1.8c-0.1,0.1-0.2,0.2-0.3,0.2l-31.8,22.4C284.5,248.9,284.1,249,283.7,249z"/>
</g>
<g>
	<path class="st0" d="M315.6,249c-0.4,0-0.8-0.1-1.1-0.3l-31.8-22.5c-0.6-0.4-0.8-1.1-0.4-1.7c0.1-0.1,0.1-0.2,0.2-0.3
		c0.7-0.6,1.6-0.7,2.4-0.2l31.8,22.4c0.6,0.4,0.8,1.1,0.4,1.7c-0.1,0.1-0.1,0.2-0.2,0.3C316.5,248.8,316,249,315.6,249z"/>
</g>
<g>
	<path class="st0" d="M315.2,249c-0.5,0-0.9-0.2-1.3-0.5c-0.5-0.5-0.6-1.3-0.1-1.8c0.1-0.1,0.2-0.2,0.3-0.2l31.8-22.4
		c0.7-0.5,1.7-0.4,2.4,0.2c0.5,0.5,0.6,1.3,0.1,1.8c-0.1,0.1-0.2,0.2-0.3,0.2l-31.8,22.4C316,248.9,315.6,249,315.2,249z"/>
</g>
<g>
	<path class="st0" d="M347.1,249c-0.4,0-0.8-0.1-1.1-0.3l-31.8-22.5c-0.6-0.4-0.8-1.1-0.4-1.7c0.1-0.1,0.1-0.2,0.2-0.3
		c0.7-0.6,1.6-0.7,2.4-0.2l31.8,22.5c0.6,0.4,0.8,1.1,0.4,1.7c-0.1,0.1-0.1,0.2-0.2,0.3C348.1,248.8,347.6,249,347.1,249z"/>
</g>
<g>
	<path class="st0" d="M346.8,249c-0.5,0-0.9-0.2-1.3-0.5c-0.5-0.5-0.6-1.3-0.1-1.8c0.1-0.1,0.2-0.2,0.3-0.2l31.8-22.4
		c0.7-0.5,1.7-0.4,2.4,0.2c0.5,0.5,0.6,1.3,0.1,1.8c-0.1,0.1-0.2,0.2-0.3,0.2l-31.8,22.4C347.6,248.9,347.2,249,346.8,249z"/>
</g>
<g>
	<path class="st0" d="M378.7,249c-0.4,0-0.8-0.1-1.1-0.3l-31.8-22.5c-0.6-0.4-0.8-1.1-0.4-1.7c0.1-0.1,0.1-0.2,0.2-0.3
		c0.7-0.6,1.6-0.7,2.4-0.2l31.8,22.4c0.6,0.4,0.8,1.1,0.4,1.7c-0.1,0.1-0.1,0.2-0.2,0.3C379.6,248.8,379.1,249,378.7,249z"/>
</g>
<g>
	<path class="st0" d="M378.3,249c-0.5,0-0.9-0.2-1.3-0.5c-0.5-0.5-0.6-1.3-0.1-1.8c0.1-0.1,0.2-0.2,0.3-0.2l31.8-22.4
		c0.7-0.5,1.7-0.4,2.4,0.2c0.5,0.5,0.6,1.3,0.1,1.8c-0.1,0.1-0.2,0.2-0.3,0.2l-31.8,22.4C379.1,248.9,378.7,249,378.3,249z"/>
</g>
<g>
	<path class="st0" d="M410.2,249c-0.4,0-0.8-0.1-1.1-0.3l-31.8-22.5c-0.6-0.4-0.8-1.1-0.4-1.7c0.1-0.1,0.1-0.2,0.2-0.3
		c0.7-0.6,1.6-0.7,2.4-0.2l31.8,22.5c0.6,0.4,0.8,1.1,0.4,1.7c-0.1,0.1-0.1,0.2-0.2,0.3C411.1,248.8,410.7,249,410.2,249z"/>
</g>
<g>
	<path class="st0" d="M409.9,249c-0.5,0-0.9-0.2-1.3-0.5c-0.5-0.5-0.6-1.3-0.1-1.8c0.1-0.1,0.2-0.2,0.3-0.2l31.8-22.4
		c0.7-0.5,1.7-0.4,2.4,0.2c0.5,0.5,0.6,1.3,0.1,1.8c-0.1,0.1-0.2,0.2-0.3,0.2L411,248.6C410.7,248.9,410.3,249,409.9,249z"/>
</g>
<g>
	<path class="st0" d="M441.8,249c-0.4,0-0.8-0.1-1.1-0.3l-31.8-22.5c-0.6-0.4-0.8-1.1-0.4-1.7c0.1-0.1,0.1-0.2,0.2-0.3
		c0.7-0.6,1.6-0.7,2.4-0.2l31.8,22.4c0.6,0.4,0.8,1.1,0.4,1.7c-0.1,0.1-0.1,0.2-0.2,0.3C442.7,248.8,442.2,249,441.8,249z"/>
</g>
<g>
	<path class="st0" d="M441.4,249c-0.5,0-0.9-0.2-1.3-0.5c-0.5-0.5-0.6-1.3-0.1-1.8c0.1-0.1,0.2-0.2,0.3-0.2l31.8-22.4
		c0.7-0.5,1.7-0.4,2.4,0.2c0.5,0.5,0.6,1.3,0.1,1.8c-0.1,0.1-0.2,0.2-0.3,0.2l-31.8,22.4C442.2,248.9,441.8,249,441.4,249z"/>
</g>
<g>
	<path class="st0" d="M473.3,249c-0.4,0-0.8-0.1-1.1-0.3l-31.7-22.5c-0.6-0.4-0.8-1.1-0.4-1.7c0.1-0.1,0.1-0.2,0.2-0.3
		c0.7-0.6,1.6-0.7,2.4-0.2l31.8,22.4c0.6,0.4,0.8,1.1,0.4,1.7c-0.1,0.1-0.1,0.2-0.2,0.3C474.2,248.8,473.8,249,473.3,249z"/>
</g>
<g>
	<path class="st0" d="M157.2,532.5h-32.9c-0.9,0.1-1.6-0.6-1.7-1.4V158.5c0.1-0.8,0.8-1.5,1.7-1.4h32.9c0.9-0.1,1.6,0.6,1.7,1.4
		v372.5C158.8,531.9,158.1,532.5,157.2,532.5z M126,529.7h29.5V160H126V529.7z"/>
</g>
<g>
	<path class="st0" d="M156,186.4c-0.4,0-0.9-0.1-1.2-0.4L123,159.5c-0.6-0.4-0.7-1.2-0.2-1.8c0.1-0.1,0.2-0.2,0.2-0.2
		c0.7-0.5,1.7-0.5,2.4,0l31.8,26.5c0.6,0.4,0.7,1.2,0.2,1.8c-0.1,0.1-0.2,0.2-0.2,0.2C156.9,186.3,156.4,186.4,156,186.4z"/>
</g>
<g>
	<path class="st0" d="M124.3,186.5c-0.4,0-0.9-0.1-1.2-0.4c-0.6-0.4-0.7-1.2-0.2-1.8c0.1-0.1,0.2-0.2,0.2-0.2l31.8-26.4
		c0.7-0.6,1.7-0.6,2.4,0c0.6,0.4,0.7,1.2,0.2,1.8c-0.1,0.1-0.2,0.2-0.2,0.2l-31.8,26.4C125.1,186.3,124.7,186.5,124.3,186.5z"/>
</g>
<g>
	<path class="st0" d="M156,212.7c-0.4,0-0.9-0.1-1.2-0.4L123,185.8c-0.6-0.4-0.7-1.2-0.2-1.8c0.1-0.1,0.2-0.2,0.2-0.2
		c0.7-0.5,1.7-0.5,2.4,0l31.8,26.4c0.6,0.4,0.7,1.2,0.2,1.8c-0.1,0.1-0.2,0.2-0.2,0.2C156.9,212.5,156.4,212.7,156,212.7z"/>
</g>
<g>
	<path class="st0" d="M124.3,212.8c-0.4,0-0.9-0.1-1.2-0.4c-0.6-0.4-0.7-1.2-0.2-1.8c0.1-0.1,0.2-0.2,0.2-0.2l31.8-26.4
		c0.7-0.6,1.7-0.6,2.4,0c0.6,0.4,0.7,1.2,0.3,1.7c-0.1,0.1-0.2,0.2-0.3,0.3l-31.8,26.4C125.1,212.6,124.7,212.8,124.3,212.8z"/>
</g>
<g>
	<path class="st0" d="M156,238.9c-0.4,0-0.9-0.1-1.2-0.4L123,212.1c-0.6-0.4-0.7-1.2-0.2-1.8c0.1-0.1,0.2-0.2,0.2-0.2
		c0.7-0.5,1.7-0.5,2.4,0l31.8,26.4c0.6,0.4,0.7,1.2,0.2,1.8c-0.1,0.1-0.2,0.2-0.2,0.2C156.9,238.8,156.4,238.9,156,238.9z"/>
</g>
<g>
	<path class="st0" d="M124.3,239c-0.4,0-0.9-0.1-1.2-0.4c-0.6-0.4-0.7-1.2-0.2-1.8c0.1-0.1,0.2-0.2,0.2-0.2l31.8-26.4
		c0.7-0.6,1.7-0.6,2.4,0c0.6,0.4,0.7,1.2,0.3,1.7c-0.1,0.1-0.2,0.2-0.3,0.3l-31.8,26.4C125.1,238.9,124.7,239,124.3,239z"/>
</g>
<g>
	<path class="st0" d="M156,265.2c-0.4,0-0.9-0.1-1.2-0.4L123,238.3c-0.6-0.4-0.7-1.2-0.3-1.7c0.1-0.1,0.2-0.2,0.3-0.3
		c0.7-0.5,1.7-0.5,2.4,0l31.8,26.4c0.6,0.4,0.7,1.2,0.2,1.8c-0.1,0.1-0.2,0.2-0.2,0.2C156.9,265.1,156.4,265.2,156,265.2z"/>
</g>
<g>
	<path class="st0" d="M124.3,265.3c-0.4,0-0.9-0.1-1.2-0.4c-0.6-0.4-0.7-1.2-0.2-1.8c0.1-0.1,0.2-0.2,0.2-0.2l31.8-26.4
		c0.7-0.5,1.7-0.5,2.4,0c0.6,0.4,0.7,1.2,0.2,1.8c-0.1,0.1-0.2,0.2-0.2,0.2l-31.8,26.4C125.1,265.1,124.7,265.3,124.3,265.3z"/>
</g>
<g>
	<path class="st0" d="M156,291.5c-0.4,0-0.9-0.1-1.2-0.4L123,264.6c-0.6-0.4-0.7-1.2-0.3-1.7c0.1-0.1,0.2-0.2,0.3-0.3
		c0.7-0.5,1.7-0.5,2.4,0l31.8,26.4c0.6,0.4,0.7,1.2,0.2,1.8c-0.1,0.1-0.2,0.2-0.2,0.2C156.9,291.3,156.4,291.5,156,291.5z"/>
</g>
<g>
	<path class="st0" d="M124.3,291.6c-0.4,0-0.9-0.1-1.2-0.4c-0.6-0.4-0.7-1.2-0.2-1.8c0.1-0.1,0.2-0.2,0.2-0.2l31.8-26.5
		c0.7-0.6,1.7-0.6,2.4,0c0.6,0.4,0.7,1.2,0.2,1.8c-0.1,0.1-0.2,0.2-0.2,0.2l-31.8,26.5C125.1,291.4,124.7,291.6,124.3,291.6z"/>
</g>
<g>
	<path class="st0" d="M156,317.7c-0.4,0-0.9-0.1-1.2-0.4L123,290.9c-0.6-0.4-0.7-1.2-0.3-1.7c0.1-0.1,0.2-0.2,0.3-0.3
		c0.7-0.5,1.7-0.5,2.4,0l31.8,26.4c0.6,0.4,0.7,1.2,0.2,1.8c-0.1,0.1-0.2,0.2-0.2,0.2C156.9,317.6,156.4,317.7,156,317.7z"/>
</g>
<g>
	<path class="st0" d="M124.3,317.8c-0.4,0-0.9-0.1-1.2-0.4c-0.6-0.4-0.7-1.2-0.2-1.8c0.1-0.1,0.2-0.2,0.2-0.2l31.8-26.4
		c0.7-0.5,1.7-0.5,2.4,0c0.6,0.4,0.7,1.2,0.2,1.8c-0.1,0.1-0.2,0.2-0.2,0.2l-31.8,26.5C125.1,317.7,124.7,317.8,124.3,317.8z"/>
</g>
<g>
	<path class="st0" d="M156,344c-0.4,0-0.9-0.1-1.2-0.4L123,317.1c-0.6-0.4-0.7-1.2-0.3-1.7c0.1-0.1,0.2-0.2,0.3-0.3
		c0.7-0.5,1.7-0.5,2.4,0l31.8,26.4c0.6,0.4,0.7,1.2,0.2,1.8c-0.1,0.1-0.2,0.2-0.2,0.2C156.9,343.9,156.4,344,156,344z"/>
</g>
<g>
	<path class="st0" d="M124.3,344.1c-0.4,0-0.9-0.1-1.2-0.4c-0.6-0.4-0.7-1.2-0.2-1.8c0.1-0.1,0.2-0.2,0.2-0.2l31.8-26.5
		c0.7-0.6,1.7-0.6,2.4,0c0.6,0.4,0.7,1.2,0.2,1.8c-0.1,0.1-0.2,0.2-0.2,0.2l-31.8,26.5C125.1,344,124.7,344.1,124.3,344.1z"/>
</g>
<g>
	<path class="st0" d="M156,370.3c-0.4,0-0.9-0.1-1.2-0.4L123,343.4c-0.6-0.4-0.7-1.2-0.3-1.7c0.1-0.1,0.2-0.2,0.3-0.3
		c0.7-0.6,1.7-0.6,2.4,0l31.8,26.4c0.6,0.4,0.7,1.2,0.2,1.8c-0.1,0.1-0.2,0.2-0.2,0.2C156.9,370.1,156.4,370.3,156,370.3z"/>
</g>
<g>
	<path class="st0" d="M124.3,370.4c-0.4,0-0.9-0.1-1.2-0.4c-0.6-0.4-0.7-1.2-0.2-1.8c0.1-0.1,0.2-0.2,0.2-0.2l31.8-26.5
		c0.7-0.6,1.7-0.6,2.4,0c0.6,0.4,0.7,1.2,0.2,1.8c-0.1,0.1-0.2,0.2-0.2,0.2L125.5,370C125.1,370.3,124.7,370.4,124.3,370.4z"/>
</g>
<g>
	<path class="st0" d="M156,396.5c-0.4,0-0.9-0.1-1.2-0.4L123,369.7c-0.6-0.4-0.7-1.2-0.2-1.8c0.1-0.1,0.2-0.2,0.2-0.2
		c0.7-0.5,1.7-0.5,2.4,0l31.8,26.5c0.6,0.4,0.7,1.2,0.2,1.8c-0.1,0.1-0.2,0.2-0.2,0.2C156.9,396.4,156.4,396.6,156,396.5z"/>
</g>
<g>
	<path class="st0" d="M124.3,396.6c-0.4,0-0.9-0.1-1.2-0.4c-0.6-0.4-0.7-1.2-0.3-1.7c0.1-0.1,0.2-0.2,0.3-0.3l31.8-26.5
		c0.7-0.6,1.7-0.6,2.4,0c0.6,0.4,0.7,1.2,0.2,1.8c-0.1,0.1-0.2,0.2-0.2,0.2l-31.8,26.4C125.1,396.5,124.7,396.6,124.3,396.6z"/>
</g>
<g>
	<path class="st0" d="M156,422.8c-0.4,0-0.9-0.1-1.2-0.4L123.1,396c-0.6-0.4-0.7-1.2-0.2-1.8c0.1-0.1,0.2-0.2,0.2-0.2
		c0.7-0.5,1.7-0.5,2.4,0l31.8,26.5c0.6,0.4,0.7,1.2,0.2,1.8c-0.1,0.1-0.2,0.2-0.2,0.2C156.9,422.7,156.4,422.8,156,422.8z"/>
</g>
<g>
	<path class="st0" d="M124.3,422.9c-0.4,0-0.9-0.1-1.2-0.4c-0.6-0.4-0.7-1.2-0.3-1.7c0.1-0.1,0.2-0.2,0.3-0.3l31.8-26.5
		c0.7-0.6,1.7-0.6,2.4,0c0.6,0.4,0.7,1.2,0.2,1.8c-0.1,0.1-0.2,0.2-0.2,0.2l-31.8,26.4C125.1,422.8,124.7,422.9,124.3,422.9z"/>
</g>
<g>
	<path class="st0" d="M156,449.1c-0.4,0-0.9-0.1-1.2-0.4L123,422.2c-0.6-0.4-0.7-1.2-0.2-1.8c0.1-0.1,0.2-0.2,0.2-0.2
		c0.7-0.5,1.7-0.5,2.4,0l31.8,26.5c0.6,0.4,0.7,1.2,0.3,1.7c-0.1,0.1-0.2,0.2-0.3,0.3C156.9,449,156.4,449.1,156,449.1z"/>
</g>
<g>
	<path class="st0" d="M124.3,449.2c-0.4,0-0.9-0.1-1.2-0.4c-0.6-0.4-0.7-1.2-0.2-1.8c0.1-0.1,0.2-0.2,0.2-0.2l31.8-26.4
		c0.7-0.6,1.7-0.6,2.4,0c0.6,0.4,0.7,1.2,0.2,1.8c-0.1,0.1-0.2,0.2-0.2,0.2l-31.8,26.4C125.1,449,124.7,449.2,124.3,449.2z"/>
</g>
<g>
	<path class="st0" d="M156,475.4c-0.4,0-0.9-0.1-1.2-0.4l-31.7-26.4c-0.6-0.4-0.7-1.2-0.2-1.8c0.1-0.1,0.2-0.2,0.2-0.2
		c0.7-0.5,1.7-0.5,2.4,0l31.8,26.5c0.6,0.4,0.7,1.2,0.3,1.7c-0.1,0.1-0.2,0.2-0.3,0.3C156.9,475.3,156.4,475.4,156,475.4z"/>
</g>
<g>
	<path class="st0" d="M124.3,475.4c-0.4,0-0.9-0.1-1.2-0.4c-0.6-0.4-0.7-1.2-0.2-1.8c0.1-0.1,0.2-0.2,0.2-0.2l31.8-26.4
		c0.7-0.6,1.7-0.6,2.4,0c0.6,0.4,0.7,1.2,0.2,1.8c-0.1,0.1-0.2,0.2-0.2,0.2L125.5,475C125.1,475.3,124.7,475.4,124.3,475.4z"/>
</g>
<g>
	<path class="st0" d="M156,501.6c-0.4,0-0.9-0.1-1.2-0.4L123,474.8c-0.6-0.4-0.7-1.2-0.2-1.8c0.1-0.1,0.2-0.2,0.2-0.2
		c0.7-0.5,1.7-0.5,2.4,0l31.8,26.4c0.6,0.4,0.7,1.2,0.2,1.8c-0.1,0.1-0.2,0.2-0.2,0.2C156.9,501.5,156.4,501.6,156,501.6z"/>
</g>
<g>
	<path class="st0" d="M124.3,501.7c-0.4,0-0.9-0.1-1.2-0.4c-0.6-0.4-0.7-1.2-0.2-1.8c0.1-0.1,0.2-0.2,0.2-0.2l31.8-26.4
		c0.7-0.6,1.7-0.6,2.4,0c0.6,0.4,0.7,1.2,0.2,1.8c-0.1,0.1-0.2,0.2-0.2,0.2l-31.7,26.4C125.1,501.6,124.7,501.7,124.3,501.7z"/>
</g>
<g>
	<path class="st0" d="M156,527.9c-0.4,0-0.9-0.1-1.2-0.4L123.1,501c-0.6-0.4-0.7-1.2-0.2-1.8c0.1-0.1,0.2-0.2,0.2-0.2
		c0.7-0.5,1.7-0.5,2.4,0l31.8,26.4c0.6,0.4,0.7,1.2,0.2,1.8c-0.1,0.1-0.2,0.2-0.2,0.2C156.9,527.7,156.5,527.9,156,527.9z"/>
</g>
<g>
	<path class="st0" d="M124.3,528c-0.4,0-0.9-0.1-1.2-0.4c-0.6-0.4-0.7-1.2-0.2-1.8c0.1-0.1,0.2-0.2,0.2-0.2l31.8-26.4
		c0.7-0.6,1.7-0.6,2.4,0c0.6,0.4,0.7,1.2,0.2,1.8c-0.1,0.1-0.2,0.2-0.2,0.2l-31.8,26.4C125.1,527.9,124.7,528,124.3,528z"/>
</g>
<g>
	<path class="st0" d="M166.9,189.8H118v57.8h69.2v-23.2L166.9,189.8z M131.2,224.4v-22.6h25.9l13.3,22.6L131.2,224.4z"/>
</g>
<g>
	<rect x="19.8" y="218.7" class="st0" width="54.6" height="34.5"/>
</g>
<g>
	<path class="st0" d="M42.3,206.1c0,4.3-4.1,7.7-9.2,7.7s-9.2-3.4-9.2-7.7s4.1-7.7,9.2-7.7S42.3,201.9,42.3,206.1z"/>
</g>
<g>
	<path class="st0" d="M133.5,145c0,4.2-4.1,7.7-9.2,7.7s-9.3-3.5-9.3-7.7s4.1-7.7,9.2-7.7S133.5,140.7,133.5,145z"/>
</g>
<g>
	<path class="st0" d="M513.2,216.6c0,4.3-4.1,7.7-9.2,7.7s-9.2-3.4-9.2-7.7s4.1-7.7,9.2-7.7S513.2,212.4,513.2,216.6z"/>
</g>
<g>
	<rect x="30.5" y="204" class="st0" width="5.1" height="20.4"/>
</g>
<g>
	<polygon class="st0" points="34,205.1 32,202.9 123.2,143.9 125.3,146.1 	"/>
</g>
<g>
	<polygon class="st0" points="501.1,218 123.9,146.3 124.7,143.6 501.8,215.3 	"/>
</g>
<g>
	<rect x="122.6" y="145" class="st0" width="5.1" height="13.6"/>
</g>
<g>
	<path class="st0" d="M461.8,294.3c-0.5,0-0.9-0.2-1.2-0.5l-8.7-7.8c-0.3-0.2-0.5-0.6-0.5-1v-37.4c0.1-0.8,0.8-1.5,1.7-1.4h17.4
		c0.9-0.1,1.6,0.6,1.7,1.4v37.5c0,0.4-0.2,0.7-0.5,1l-8.7,7.8C462.7,294.1,462.2,294.3,461.8,294.3z M454.8,284.5l7,6.3l7-6.3V249
		h-14L454.8,284.5z M470.5,285.1L470.5,285.1z"/>
</g>
<g>
	<rect x="425.3" y="301.9" class="st0" width="72.9" height="48"/>
</g>
<g>
	<path class="st0" d="M461.8,304.7c-0.9,0.1-1.6-0.6-1.7-1.4v-10.5c0.2-0.9,1-1.6,2-1.4c0.7,0.1,1.3,0.7,1.4,1.4v10.5
		C463.4,304.2,462.6,304.8,461.8,304.7z"/>
</g>
<g>
	<polygon class="st0" points="89.2,270.2 89.2,276.8 96.6,276.8 96.6,296.7 89.2,296.7 89.2,303.3 115,303.3 115,270.2 	"/>
</g>
<g>
	<polygon class="st0" points="92,273.4 89.9,271.2 125.2,246.5 127.4,248.6 	"/>
</g>
<g>
	<rect x="91.8" y="298.1" class="st0" width="3.4" height="218"/>
</g>
<g>
	<path class="st1" d="M255.9,125.7l-28.6-26.3c-0.5-0.4-0.6-1.1-0.3-1.7c0.4-0.6,1-1,1.7-0.9h533.9c1-0.1,1.8,0.6,1.9,1.6v26.3
		c-0.1,1-0.9,1.7-1.9,1.6H257.3C256.7,126.2,256.2,126,255.9,125.7z M760.7,99.9H233l25.1,23.1h502.5V99.9z"/>
</g>
<g>
	<path class="st1" d="M762.5,126.2c0.5,0,1.1-0.2,1.5-0.6c0.6-0.5,0.6-1.4,0.1-2c-0.1-0.1-0.2-0.2-0.3-0.2L727.9,98
		c-0.8-0.6-1.9-0.5-2.7,0.2c-0.6,0.5-0.6,1.4-0.1,2c0.1,0.1,0.2,0.2,0.3,0.3l35.9,25.4C761.7,126,762.1,126.2,762.5,126.2z"/>
</g>
<g>
	<path class="st1" d="M726.6,126.2c0.4,0,0.9-0.1,1.2-0.4l35.9-25.4c0.7-0.4,0.9-1.3,0.5-1.9c-0.1-0.1-0.1-0.2-0.2-0.3
		c-0.7-0.7-1.8-0.8-2.7-0.2l-35.9,25.4c-0.7,0.4-0.9,1.3-0.5,1.9c0.1,0.1,0.2,0.2,0.2,0.3C725.5,126,726,126.2,726.6,126.2z"/>
</g>
<g>
	<path class="st1" d="M726.9,126.2c0.5,0,1.1-0.2,1.5-0.6c0.6-0.5,0.6-1.4,0.1-2c-0.1-0.1-0.2-0.2-0.3-0.2L692.3,98
		c-0.8-0.6-1.9-0.5-2.7,0.2c-0.6,0.5-0.6,1.4-0.1,2c0.1,0.1,0.2,0.2,0.3,0.3l35.9,25.4C726,126,726.5,126.2,726.9,126.2z"/>
</g>
<g>
	<path class="st1" d="M690.9,126.2c0.4,0,0.9-0.1,1.2-0.4l35.8-25.4c0.7-0.4,0.9-1.3,0.5-1.9c-0.1-0.1-0.2-0.2-0.3-0.3
		c-0.7-0.7-1.8-0.8-2.7-0.2l-35.8,25.4c-0.7,0.4-0.9,1.3-0.5,1.9c0.1,0.1,0.2,0.2,0.3,0.3C689.9,126,690.4,126.2,690.9,126.2z"/>
</g>
<g>
	<path class="st1" d="M691.3,126.2c0.5,0,1.1-0.2,1.5-0.6c0.6-0.5,0.6-1.4,0.1-2c-0.1-0.1-0.2-0.2-0.3-0.2L656.7,98
		c-0.8-0.6-1.9-0.5-2.7,0.2c-0.6,0.5-0.6,1.4-0.1,2c0.1,0.1,0.2,0.2,0.3,0.2l35.9,25.4C690.4,126,690.8,126.2,691.3,126.2z"/>
</g>
<g>
	<path class="st1" d="M655.3,126.2c0.4,0,0.9-0.1,1.2-0.4l35.9-25.4c0.7-0.4,0.9-1.3,0.5-1.9c-0.1-0.1-0.2-0.2-0.3-0.3
		c-0.7-0.7-1.9-0.8-2.7-0.2l-35.9,25.4c-0.7,0.4-0.9,1.3-0.5,1.9c0.1,0.1,0.2,0.2,0.2,0.3C654.2,126,654.8,126.2,655.3,126.2z"/>
</g>
<g>
	<path class="st1" d="M655.7,126.2c0.5,0,1.1-0.2,1.5-0.6c0.6-0.5,0.6-1.4,0.1-2c-0.1-0.1-0.2-0.2-0.3-0.2L621,98
		c-0.8-0.6-1.9-0.5-2.7,0.2c-0.6,0.5-0.6,1.4-0.1,2c0.1,0.1,0.2,0.2,0.3,0.2l35.9,25.4C654.8,126,655.2,126.2,655.7,126.2z"/>
</g>
<g>
	<path class="st1" d="M619.7,126.2c0.4,0,0.9-0.1,1.2-0.4l35.9-25.4c0.7-0.4,0.9-1.3,0.5-1.9c-0.1-0.1-0.2-0.2-0.3-0.3
		c-0.7-0.7-1.8-0.8-2.7-0.2l-35.9,25.4c-0.7,0.4-0.9,1.3-0.5,2c0.1,0.1,0.1,0.2,0.2,0.3C618.6,126,619.1,126.2,619.7,126.2z"/>
</g>
<g>
	<path class="st1" d="M620,126.2c0.5,0,1.1-0.2,1.5-0.6c0.6-0.5,0.6-1.4,0.1-2c-0.1-0.1-0.2-0.2-0.3-0.2L585.4,98
		c-0.8-0.6-1.9-0.5-2.7,0.2c-0.6,0.5-0.6,1.4-0.1,2c0.1,0.1,0.2,0.2,0.3,0.2l35.9,25.4C619.1,126,619.6,126.2,620,126.2z"/>
</g>
<g>
	<path class="st1" d="M584,126.2c0.4,0,0.9-0.1,1.2-0.4l35.9-25.4c0.7-0.4,0.9-1.3,0.5-1.9c-0.1-0.1-0.1-0.2-0.2-0.3
		c-0.7-0.7-1.9-0.8-2.7-0.2l-35.8,25.4c-0.7,0.4-0.9,1.3-0.5,2c0.1,0.1,0.1,0.2,0.2,0.3C583,126,583.5,126.2,584,126.2z"/>
</g>
<g>
	<path class="st1" d="M584.4,126.2c0.5,0,1.1-0.2,1.5-0.6c0.6-0.5,0.6-1.4,0.1-2c-0.1-0.1-0.2-0.2-0.3-0.2L549.8,98
		c-0.8-0.6-1.9-0.5-2.7,0.2c-0.6,0.5-0.6,1.4-0.1,2c0.1,0.1,0.2,0.2,0.3,0.3l35.9,25.4C583.5,126,583.9,126.2,584.4,126.2z"/>
</g>
<g>
	<path class="st1" d="M548.4,126.2c0.4,0,0.9-0.1,1.2-0.4l35.9-25.4c0.7-0.4,0.9-1.3,0.5-1.9c-0.1-0.1-0.1-0.2-0.2-0.3
		c-0.7-0.7-1.9-0.8-2.7-0.2l-35.8,25.4c-0.7,0.4-0.9,1.3-0.5,1.9c0.1,0.1,0.2,0.2,0.2,0.3C547.3,126,547.9,126.2,548.4,126.2z"/>
</g>
<g>
	<path class="st1" d="M548.8,126.2c0.5,0,1.1-0.2,1.5-0.6c0.6-0.5,0.6-1.4,0.1-2c-0.1-0.1-0.2-0.2-0.3-0.2L514.1,98
		c-0.8-0.6-1.9-0.5-2.7,0.2c-0.6,0.5-0.6,1.4-0.1,2c0.1,0.1,0.2,0.2,0.3,0.3l35.9,25.4C547.9,126,548.3,126.2,548.8,126.2z"/>
</g>
<g>
	<path class="st1" d="M512.8,126.2c0.4,0,0.9-0.1,1.2-0.4l35.9-25.4c0.7-0.4,0.9-1.3,0.5-1.9c-0.1-0.1-0.2-0.2-0.3-0.3
		c-0.7-0.7-1.8-0.8-2.7-0.2l-35.9,25.4c-0.7,0.4-0.9,1.3-0.5,1.9c0.1,0.1,0.2,0.2,0.2,0.3C511.7,126,512.2,126.2,512.8,126.2z"/>
</g>
<g>
	<path class="st1" d="M513.1,126.2c0.5,0,1.1-0.2,1.5-0.6c0.6-0.5,0.6-1.4,0.1-2c-0.1-0.1-0.2-0.2-0.3-0.2L478.5,98
		c-0.8-0.6-1.9-0.5-2.7,0.2c-0.6,0.5-0.6,1.4-0.1,2c0.1,0.1,0.2,0.2,0.3,0.2l35.9,25.4C512.3,126,512.7,126.2,513.1,126.2z"/>
</g>
<g>
	<path class="st1" d="M477.1,126.2c0.4,0,0.9-0.1,1.2-0.4l35.9-25.4c0.7-0.4,0.9-1.3,0.5-1.9c-0.1-0.1-0.1-0.2-0.2-0.3
		c-0.7-0.7-1.8-0.8-2.7-0.2l-35.9,25.4c-0.7,0.4-0.9,1.3-0.5,2c0.1,0.1,0.1,0.2,0.2,0.3C476.1,126,476.6,126.2,477.1,126.2z"/>
</g>
<g>
	<path class="st1" d="M477.5,126.2c0.5,0,1.1-0.2,1.5-0.6c0.6-0.5,0.6-1.4,0.1-2c-0.1-0.1-0.2-0.2-0.3-0.2L442.9,98
		c-0.8-0.6-1.9-0.5-2.7,0.2c-0.6,0.5-0.6,1.4-0.1,2c0.1,0.1,0.2,0.2,0.3,0.2l35.9,25.4C476.6,126,477,126.2,477.5,126.2z"/>
</g>
<g>
	<path class="st1" d="M441.5,126.2c0.4,0,0.9-0.1,1.2-0.4l35.9-25.4c0.7-0.4,0.9-1.3,0.5-1.9c-0.1-0.1-0.1-0.2-0.2-0.3
		c-0.7-0.7-1.9-0.8-2.7-0.2l-35.9,25.4c-0.7,0.4-0.9,1.3-0.5,2c0.1,0.1,0.1,0.2,0.2,0.3C440.4,126,441,126.2,441.5,126.2z"/>
</g>
<g>
	<path class="st1" d="M441.9,126.2c0.5,0,1.1-0.2,1.5-0.6c0.6-0.5,0.6-1.4,0.1-2c-0.1-0.1-0.2-0.2-0.3-0.2L407.2,98
		c-0.8-0.6-1.9-0.5-2.7,0.2c-0.6,0.5-0.6,1.4-0.1,2c0.1,0.1,0.2,0.2,0.3,0.2l35.9,25.4C441,126,441.4,126.2,441.9,126.2z"/>
</g>
<g>
	<path class="st1" d="M405.9,126.2c0.4,0,0.9-0.1,1.2-0.4l35.9-25.4c0.7-0.4,0.9-1.3,0.5-1.9c-0.1-0.1-0.1-0.2-0.2-0.3
		c-0.7-0.7-1.9-0.8-2.7-0.2l-35.9,25.4c-0.7,0.4-0.9,1.3-0.5,2c0.1,0.1,0.1,0.2,0.2,0.3C404.8,126,405.3,126.2,405.9,126.2z"/>
</g>
<g>
	<path class="st1" d="M406.2,126.2c0.5,0,1.1-0.2,1.5-0.6c0.6-0.5,0.6-1.4,0.1-2c-0.1-0.1-0.2-0.2-0.3-0.3L371.6,98
		c-0.8-0.6-1.9-0.5-2.7,0.2c-0.6,0.5-0.6,1.4-0.1,2c0.1,0.1,0.2,0.2,0.3,0.2l35.9,25.4C405.4,126.1,405.8,126.2,406.2,126.2z"/>
</g>
<g>
	<path class="st1" d="M370.2,126.2c0.4,0,0.9-0.1,1.2-0.4l35.9-25.4c0.7-0.4,0.9-1.3,0.5-1.9c-0.1-0.1-0.2-0.2-0.3-0.3
		c-0.7-0.7-1.8-0.8-2.7-0.2L369,123.4c-0.7,0.4-0.9,1.3-0.5,1.9c0.1,0.1,0.2,0.2,0.2,0.3C369.2,126,369.7,126.2,370.2,126.2z"/>
</g>
<g>
	<path class="st1" d="M370.6,126.2c0.5,0,1.1-0.2,1.5-0.6c0.6-0.5,0.6-1.4,0.1-2c-0.1-0.1-0.2-0.2-0.3-0.2L336,98
		c-0.8-0.6-1.9-0.5-2.7,0.2c-0.6,0.5-0.6,1.4-0.1,2c0.1,0.1,0.2,0.2,0.3,0.2l35.9,25.4C369.8,126,370.2,126.2,370.6,126.2z"/>
</g>
<g>
	<path class="st1" d="M334.6,126.2c0.4,0,0.9-0.1,1.2-0.4l35.9-25.4c0.7-0.4,0.9-1.3,0.5-1.9c-0.1-0.1-0.2-0.2-0.3-0.3
		c-0.7-0.7-1.8-0.8-2.7-0.2l-35.9,25.4c-0.7,0.4-0.9,1.3-0.5,1.9c0.1,0.1,0.2,0.2,0.2,0.3C333.5,126,334.1,126.2,334.6,126.2z"/>
</g>
<g>
	<path class="st1" d="M335,126.2c0.5,0,1.1-0.2,1.5-0.6c0.6-0.5,0.6-1.4,0.1-2c-0.1-0.1-0.2-0.2-0.3-0.2L300.3,98
		c-0.8-0.6-1.9-0.5-2.7,0.2c-0.6,0.5-0.6,1.4-0.1,2c0.1,0.1,0.2,0.2,0.3,0.2l35.9,25.4C334.1,126,334.5,126.2,335,126.2z"/>
</g>
<g>
	<path class="st1" d="M299,126.2c0.4,0,0.9-0.1,1.2-0.4l35.9-25.4c0.7-0.4,0.9-1.3,0.5-1.9c-0.1-0.1-0.1-0.2-0.2-0.3
		c-0.7-0.7-1.9-0.8-2.7-0.2l-35.9,25.4c-0.7,0.4-0.9,1.3-0.5,2c0.1,0.1,0.1,0.2,0.2,0.3C297.9,126,298.5,126.2,299,126.2z"/>
</g>
<g>
	<path class="st1" d="M299.3,126.2c0.5,0,1.1-0.2,1.5-0.6c0.6-0.5,0.6-1.4,0.1-2c-0.1-0.1-0.2-0.2-0.3-0.2L264.7,98
		c-0.8-0.6-1.9-0.5-2.7,0.2c-0.6,0.5-0.6,1.4-0.1,2c0.1,0.1,0.2,0.2,0.3,0.3l35.9,25.4C298.5,126,298.9,126.2,299.3,126.2z"/>
</g>
<g>
	<path class="st1" d="M263.3,126.2c0.4,0,0.9-0.1,1.2-0.4l35.9-25.4c0.7-0.4,0.9-1.3,0.5-1.9c-0.1-0.1-0.1-0.2-0.2-0.3
		c-0.7-0.7-1.8-0.8-2.7-0.2l-35.9,25.4c-0.7,0.4-0.9,1.3-0.5,2c0.1,0.1,0.1,0.2,0.2,0.3C262.3,126,262.8,126.2,263.3,126.2z"/>
</g>
<g>
	<path class="st1" d="M618.5,444.8V24c0.1-1,0.9-1.7,1.9-1.6h37.2c1-0.1,1.8,0.6,1.9,1.6v420.8c-0.1,1-0.9,1.7-1.9,1.6h-37.2
		C619.4,446.5,618.6,445.8,618.5,444.8z M655.7,25.6h-33.4v417.6h33.4L655.7,25.6z"/>
</g>
<g>
	<path class="st1" d="M621.7,55.5c0.5,0,0.9-0.2,1.3-0.5l35.9-29.9c0.6-0.5,0.7-1.3,0.3-2c-0.1-0.1-0.2-0.2-0.3-0.3
		c-0.8-0.6-1.9-0.6-2.7,0l-35.8,29.9c-0.6,0.5-0.7,1.4-0.3,2c0.1,0.1,0.2,0.2,0.3,0.3C620.7,55.3,621.2,55.5,621.7,55.5z"/>
</g>
<g>
	<path class="st1" d="M657.6,55.6c0.5,0,1-0.2,1.3-0.5c0.6-0.5,0.7-1.3,0.3-2c-0.1-0.1-0.2-0.2-0.3-0.3L623,23
		c-0.8-0.6-1.9-0.6-2.7,0c-0.6,0.5-0.7,1.4-0.3,2c0.1,0.1,0.2,0.2,0.3,0.3l35.9,29.9C656.6,55.4,657.1,55.6,657.6,55.6z"/>
</g>
<g>
	<path class="st1" d="M621.7,85.2c0.5,0,1-0.2,1.3-0.5l35.9-29.9c0.6-0.5,0.7-1.3,0.3-2c-0.1-0.1-0.2-0.2-0.3-0.3
		c-0.8-0.6-1.9-0.6-2.7,0l-35.9,29.9c-0.6,0.5-0.7,1.4-0.3,2c0.1,0.1,0.2,0.2,0.3,0.3C620.7,85,621.2,85.2,621.7,85.2z"/>
</g>
<g>
	<path class="st1" d="M657.6,85.3c0.5,0,1-0.2,1.3-0.5c0.6-0.5,0.7-1.3,0.3-2c-0.1-0.1-0.2-0.2-0.3-0.3L623,52.7
		c-0.8-0.6-1.9-0.6-2.7,0c-0.6,0.5-0.7,1.4-0.3,2c0.1,0.1,0.2,0.2,0.3,0.3l35.9,29.9C656.6,85.1,657.1,85.3,657.6,85.3z"/>
</g>
<g>
	<path class="st1" d="M621.7,114.8c0.5,0,1-0.2,1.3-0.5l35.9-29.9c0.6-0.5,0.7-1.3,0.3-2c-0.1-0.1-0.2-0.2-0.3-0.3
		c-0.8-0.6-1.9-0.6-2.7,0l-35.9,29.9c-0.6,0.5-0.7,1.4-0.3,2c0.1,0.1,0.2,0.2,0.3,0.3C620.7,114.7,621.2,114.9,621.7,114.8z"/>
</g>
<g>
	<path class="st1" d="M657.6,115c0.5,0,1-0.2,1.3-0.5c0.6-0.5,0.7-1.3,0.3-2c-0.1-0.1-0.2-0.2-0.3-0.3L623,82.4
		c-0.8-0.6-1.9-0.6-2.7,0c-0.6,0.5-0.7,1.4-0.3,2c0.1,0.1,0.2,0.2,0.3,0.3l35.9,29.9C656.6,114.8,657,115,657.6,115z"/>
</g>
<g>
	<path class="st1" d="M621.7,144.5c0.5,0,1-0.2,1.3-0.5l35.9-29.9c0.6-0.5,0.7-1.4,0.3-2c-0.1-0.1-0.2-0.2-0.3-0.3
		c-0.8-0.6-1.9-0.6-2.7,0l-35.9,29.9c-0.6,0.5-0.7,1.4-0.3,2c0.1,0.1,0.2,0.2,0.3,0.3C620.7,144.4,621.2,144.5,621.7,144.5z"/>
</g>
<g>
	<path class="st1" d="M657.6,144.6c0.5,0,1-0.2,1.3-0.5c0.6-0.5,0.7-1.3,0.3-2c-0.1-0.1-0.2-0.2-0.3-0.3L623,112
		c-0.8-0.6-1.9-0.6-2.7,0c-0.6,0.5-0.7,1.4-0.3,2c0.1,0.1,0.2,0.2,0.3,0.3l35.9,29.9C656.6,144.4,657.1,144.6,657.6,144.6z"/>
</g>
<g>
	<path class="st1" d="M621.7,174.2c0.5,0,1-0.2,1.3-0.5l35.9-29.9c0.6-0.5,0.7-1.4,0.3-2c-0.1-0.1-0.2-0.2-0.3-0.3
		c-0.8-0.6-1.9-0.6-2.7,0l-35.9,29.9c-0.6,0.5-0.7,1.4-0.3,2c0.1,0.1,0.2,0.2,0.3,0.3C620.7,174,621.2,174.2,621.7,174.2z"/>
</g>
<g>
	<path class="st1" d="M657.6,174.3c0.5,0,1-0.2,1.3-0.5c0.6-0.5,0.7-1.4,0.3-2c-0.1-0.1-0.2-0.2-0.3-0.3L623,141.7
		c-0.8-0.6-1.9-0.6-2.7,0c-0.6,0.5-0.7,1.4-0.3,2c0.1,0.1,0.2,0.2,0.3,0.3l35.9,29.9C656.6,174.1,657.1,174.3,657.6,174.3z"/>
</g>
<g>
	<path class="st1" d="M621.7,203.9c0.5,0,1-0.2,1.3-0.5l35.9-29.9c0.6-0.5,0.7-1.4,0.3-2c-0.1-0.1-0.2-0.2-0.3-0.3
		c-0.8-0.6-1.9-0.6-2.7,0l-35.9,29.9c-0.6,0.5-0.7,1.4-0.3,2c0.1,0.1,0.2,0.2,0.3,0.3C620.7,203.7,621.2,203.9,621.7,203.9z"/>
</g>
<g>
	<path class="st1" d="M657.6,204c0.5,0,1-0.2,1.3-0.5c0.6-0.5,0.7-1.4,0.3-2c-0.1-0.1-0.2-0.2-0.3-0.3L623,171.4
		c-0.8-0.6-1.9-0.6-2.7,0c-0.6,0.5-0.7,1.4-0.3,2c0.1,0.1,0.2,0.2,0.3,0.3l35.9,29.9C656.6,203.8,657.1,204,657.6,204z"/>
</g>
<g>
	<path class="st1" d="M621.7,233.5c0.5,0,1-0.2,1.3-0.5l35.9-29.9c0.6-0.5,0.7-1.4,0.3-2c-0.1-0.1-0.2-0.2-0.3-0.3
		c-0.8-0.6-1.9-0.6-2.7,0l-35.9,29.9c-0.6,0.5-0.7,1.4-0.3,2c0.1,0.1,0.2,0.2,0.3,0.3C620.7,233.4,621.2,233.5,621.7,233.5z"/>
</g>
<g>
	<path class="st1" d="M657.6,233.6c0.5,0,1-0.2,1.3-0.5c0.6-0.5,0.7-1.4,0.3-2c-0.1-0.1-0.2-0.2-0.3-0.3L623,201.1
		c-0.8-0.6-1.9-0.6-2.7,0c-0.6,0.5-0.7,1.4-0.3,2c0.1,0.1,0.2,0.2,0.3,0.3l35.9,29.9C656.6,233.5,657.1,233.7,657.6,233.6z"/>
</g>
<g>
	<path class="st1" d="M621.7,263.2c0.5,0,1-0.2,1.3-0.5l35.9-29.9c0.6-0.5,0.7-1.3,0.3-2c-0.1-0.1-0.2-0.2-0.3-0.3
		c-0.8-0.6-1.9-0.6-2.7,0l-35.9,29.9c-0.6,0.5-0.7,1.4-0.3,2c0.1,0.1,0.2,0.2,0.3,0.3C620.7,263,621.2,263.2,621.7,263.2z"/>
</g>
<g>
	<path class="st1" d="M657.6,263.3c0.5,0,1-0.2,1.3-0.5c0.6-0.5,0.7-1.3,0.3-2c-0.1-0.1-0.2-0.2-0.3-0.3L623,230.7
		c-0.8-0.6-1.9-0.6-2.7,0c-0.6,0.5-0.7,1.4-0.3,2c0.1,0.1,0.2,0.2,0.3,0.3l35.9,29.9C656.6,263.2,657.1,263.3,657.6,263.3z"/>
</g>
<g>
	<path class="st1" d="M621.7,292.9c0.5,0,1-0.2,1.3-0.5l35.9-29.9c0.6-0.5,0.7-1.3,0.3-2c-0.1-0.1-0.2-0.2-0.3-0.3
		c-0.8-0.6-1.9-0.6-2.7,0l-35.9,29.9c-0.6,0.5-0.7,1.4-0.3,2c0.1,0.1,0.2,0.2,0.3,0.3C620.7,292.7,621.2,292.9,621.7,292.9z"/>
</g>
<g>
	<path class="st1" d="M657.6,293c0.5,0,1-0.2,1.3-0.5c0.6-0.5,0.7-1.3,0.3-2c-0.1-0.1-0.2-0.2-0.3-0.3L623,260.4
		c-0.8-0.6-1.9-0.6-2.7,0c-0.6,0.5-0.7,1.4-0.3,2c0.1,0.1,0.2,0.2,0.3,0.3l35.9,29.9C656.6,292.8,657.1,293,657.6,293z"/>
</g>
<g>
	<path class="st1" d="M621.7,322.5c0.5,0,1-0.2,1.3-0.5l35.9-29.9c0.6-0.5,0.7-1.3,0.3-2c-0.1-0.1-0.2-0.2-0.3-0.3
		c-0.8-0.6-1.9-0.6-2.7,0l-35.9,29.9c-0.6,0.5-0.7,1.4-0.3,2c0.1,0.1,0.2,0.2,0.3,0.3C620.7,322.4,621.2,322.6,621.7,322.5z"/>
</g>
<g>
	<path class="st1" d="M657.6,322.6c0.5,0,1-0.2,1.3-0.5c0.6-0.5,0.7-1.3,0.3-2c-0.1-0.1-0.2-0.2-0.3-0.3L623,290.1
		c-0.8-0.6-1.9-0.6-2.7,0c-0.6,0.5-0.7,1.4-0.3,2c0.1,0.1,0.2,0.2,0.3,0.3l35.9,29.9C656.6,322.5,657.1,322.7,657.6,322.6z"/>
</g>
<g>
	<path class="st1" d="M621.7,352.2c0.5,0,1-0.2,1.3-0.5l35.9-29.9c0.6-0.5,0.7-1.4,0.3-2c-0.1-0.1-0.2-0.2-0.3-0.3
		c-0.8-0.6-1.9-0.6-2.7,0l-35.9,29.9c-0.6,0.5-0.7,1.4-0.3,2c0.1,0.1,0.2,0.2,0.3,0.3C620.7,352.1,621.2,352.2,621.7,352.2z"/>
</g>
<g>
	<path class="st1" d="M657.6,352.3c0.5,0,1-0.2,1.3-0.5c0.6-0.5,0.7-1.4,0.3-2c-0.1-0.1-0.2-0.2-0.3-0.3L623,319.7
		c-0.8-0.6-1.9-0.6-2.7,0c-0.6,0.5-0.7,1.4-0.3,2c0.1,0.1,0.2,0.2,0.3,0.3l35.9,29.9C656.6,352.2,657.1,352.3,657.6,352.3z"/>
</g>
<g>
	<path class="st1" d="M621.7,381.9c0.5,0,1-0.2,1.3-0.5l35.9-29.9c0.6-0.5,0.7-1.4,0.3-2c-0.1-0.1-0.2-0.2-0.3-0.3
		c-0.8-0.6-1.9-0.6-2.7,0l-35.9,29.9c-0.6,0.5-0.7,1.4-0.3,2c0.1,0.1,0.2,0.2,0.3,0.3C620.7,381.7,621.2,381.9,621.7,381.9z"/>
</g>
<g>
	<path class="st1" d="M657.6,382c0.5,0,1-0.2,1.3-0.5c0.6-0.5,0.7-1.4,0.3-2c-0.1-0.1-0.2-0.2-0.3-0.3L623,349.4
		c-0.8-0.6-1.9-0.6-2.7,0c-0.6,0.5-0.7,1.4-0.3,2c0.1,0.1,0.2,0.2,0.3,0.3l35.9,29.9C656.6,381.8,657.1,382,657.6,382z"/>
</g>
<g>
	<path class="st1" d="M621.7,411.6c0.5,0,1-0.2,1.3-0.5l35.9-29.9c0.6-0.5,0.7-1.4,0.3-2c-0.1-0.1-0.2-0.2-0.3-0.3
		c-0.8-0.6-1.9-0.6-2.7,0l-35.9,29.9c-0.6,0.5-0.7,1.4-0.3,2c0.1,0.1,0.2,0.2,0.3,0.3C620.7,411.4,621.2,411.6,621.7,411.6z"/>
</g>
<g>
	<path class="st1" d="M657.6,411.7c0.5,0,1-0.2,1.3-0.5c0.6-0.5,0.7-1.4,0.3-2c-0.1-0.1-0.2-0.2-0.3-0.3L623,379.1
		c-0.8-0.6-1.9-0.6-2.7,0c-0.6,0.5-0.7,1.4-0.3,2c0.1,0.1,0.2,0.2,0.3,0.3l35.9,29.9C656.6,411.5,657.1,411.7,657.6,411.7z"/>
</g>
<g>
	<path class="st1" d="M621.7,441.2c0.5,0,1-0.2,1.3-0.5l35.9-29.9c0.6-0.5,0.7-1.3,0.3-2c-0.1-0.1-0.2-0.2-0.3-0.3
		c-0.8-0.6-1.9-0.6-2.7,0l-35.9,29.9c-0.6,0.5-0.7,1.4-0.3,2c0.1,0.1,0.2,0.2,0.3,0.3C620.7,441.1,621.2,441.2,621.7,441.2z"/>
</g>
<g>
	<path class="st1" d="M657.6,441.3c0.5,0,1-0.2,1.3-0.5c0.6-0.5,0.7-1.3,0.3-2c-0.1-0.1-0.2-0.2-0.3-0.3L623,408.8
		c-0.8-0.6-1.9-0.6-2.7,0c-0.6,0.5-0.7,1.4-0.3,2c0.1,0.1,0.2,0.2,0.3,0.3l35.9,29.9C656.6,441.2,657.1,441.4,657.6,441.3z"/>
</g>
<g>
	<path class="st1" d="M586.5,98.4v26.2h78.2V59.4h-55.3L586.5,98.4z M605.5,98.4l15-25.6h29.3v25.6H605.5z"/>
</g>
<g>
	<rect x="714" y="92" class="st1" width="61.7" height="39"/>
</g>
<g>
	<path class="st1" d="M750.2,77.8c0,4.8,4.7,8.7,10.5,8.7s10.4-3.9,10.4-8.7s-4.7-8.7-10.4-8.7S750.2,73,750.2,77.8z"/>
</g>
<g>
	<path class="st1" d="M647.1,8.7c0,4.8,4.7,8.7,10.4,8.7S668,13.5,668,8.7S663.3,0,657.6,0S647.1,3.9,647.1,8.7z"/>
</g>
<g>
	<path class="st1" d="M218.2,89.6c0,4.8,4.7,8.7,10.4,8.7s10.4-3.9,10.4-8.7s-4.7-8.7-10.4-8.7S218.2,84.8,218.2,89.6z"/>
</g>
<g>
	<rect x="757.8" y="75.4" class="st1" width="5.7" height="23"/>
</g>
<g>
	<polygon class="st1" points="759.5,76.6 761.8,74.1 658.7,7.4 656.4,9.9 	"/>
</g>
<g>
	<polygon class="st1" points="232,91.2 658,10.2 657.1,7.2 231.1,88.1 	"/>
</g>
<g>
	<rect x="653.8" y="8.7" class="st1" width="5.7" height="15.3"/>
</g>
<g>
	<path class="st1" d="M275.3,164.4l-7.6-6.8c-0.2-0.2-0.4-0.5-0.4-0.8v-32.5c0.1-0.7,0.7-1.3,1.5-1.2h15.1c0.7-0.1,1.4,0.5,1.5,1.2
		v32.6c0,0.3-0.1,0.6-0.4,0.8l-7.6,6.8c-0.3,0.3-0.7,0.4-1.1,0.4C276,164.8,275.6,164.6,275.3,164.4z M282.5,125.5h-12.2v30.9
		l6.1,5.5l6.1-5.5V125.5z M268.8,156.8L268.8,156.8z"/>
</g>
<g>
	<rect x="244.7" y="171.4" class="st1" width="63.3" height="41.6"/>
</g>
<g>
	<path class="st1" d="M276.4,173.9c0.7,0.1,1.4-0.5,1.5-1.2v-9.1c-0.2-0.8-0.9-1.3-1.7-1.2c-0.6,0.1-1.1,0.6-1.2,1.2v9.1
		C275,173.4,275.6,173.9,276.4,173.9z"/>
</g>
<g>
	<polygon class="st1" points="697.1,150.2 697.1,157.7 688.8,157.7 688.8,180.1 697.1,180.1 697.1,187.6 668,187.6 668,150.2 	"/>
</g>
<g>
	<polygon class="st1" points="694,153.8 696.5,151.4 656.5,123.4 654.1,125.8 	"/>
</g>
<g>
	<rect x="690.5" y="181.7" class="st1" width="3.8" height="246.2"/>
</g>
<g>
	<path class="st1" d="M778.1,427c-6.1-4.1-12.1-8.3-18.2-12.6l-18.2-12.6c-6.8-4.7-13.5-9.4-20.2-14.1c-1.3-1.2-3.2-1.2-4.5-0.1
		c-0.3,0.3-0.7,0.5-1.1,0.6l-21.4,15L674.9,417c-0.9,1-2.5,1.1-3.5,0.1c0,0-0.1-0.1-0.1-0.1l0,0c-0.5-0.5-0.9-0.8-1.4-1.2l-8.2-7.4
		l-16.4-14.6c-5.5-5-11.1-10-16.5-15c-3-2.7-2.7-2.7-6.4-0.3c-3.5,2.3-6.8,4.5-10.3,6.8c-0.7,0.4-1.4,0.7-2.1,0.9
		c0.3-3.3,0.8-6.2,1.1-9.1c0.5-3.9,0.9-8,1.5-12c0.5-3.6,1.1-7.1,1.5-10.8c0.3-1.4-0.2-2.9-1.2-3.9c-5-5.5-9-11.9-11.7-18.8
		c-4.1-10.3-7-21.1-8.5-32.1c-0.2-0.6-0.4-1.2-0.8-1.8c-0.3,0.8-0.6,1.7-0.8,2.6c-0.8,2.9-1.4,5.8-2.3,8.5
		c-2.7,9.4-6.2,18.4-10.6,27.1c-3.3,6.6-7.2,13-11.7,18.9c-0.9,1.1-1.3,2.5-1.1,3.9c0.3,2,0.3,4.1,0.5,6.1s0,3.8,0.2,5.8
		c0.6,7.6,1.2,15.3,1.2,23c0,0.9,0,1.8,0.2,2.7c0.8,3.8,0.3,7.6,0.5,11.5c0,1.4-0.7,2.6-1.8,3.3c-2.1,1.7-4.4,3.5-6.5,5.2l-2.7,1.9
		c-1.5-0.6-1.8-1.8-2.6-2.7c-6.7-9.7-13.3-19.5-20-29.2c-1-1.8-3-2.7-5-2.3c-1.4,0.3-2.8,0.5-4.2,0.5c-5,0.1-10.2,0-15.1,0.5
		c-5.5,0.5-10.9,0.1-16.4,0.6c-4.9,0.5-9.7,0.1-14.5,0.6c-5.6,0.5-11.4,0.2-17,0.6c-4.9,0.5-9.7,0.1-14.5,0.5
		c-6.7,0.5-13.2,0.3-19.9,0.8c-3.8,0.3-7.6-0.1-11.4,0.5c-1.7,0.2-3.3,0.2-5,0c-1.7,0-2.1-0.5-2.3-2c-0.3-3.2-0.5-6.2-0.6-9.4
		c-0.3-8.8,0-17.6-0.5-26.4c-0.6-10.2,0-20.2-0.8-30.3c0-2.2-0.4-4.4-1.2-6.5c-3-8.3-6.1-16.7-9.2-25.2c-2.6-7.1-5.1-14.1-7.9-21.1
		c-0.3-0.6-0.7-1.2-1.2-1.7c-1.7,3.8-3,7.3-4.4,10.8s-2.9,7.1-4.2,10.8s-2.7,7-4.2,10.5c-1.3,3.7-2.9,7.4-4.7,10.9
		c-0.8-1.2-1.2-1.8-1.7-2.6c-4.7-9.1-9.5-18.2-14.2-27.3c-1.5-2.7-3-5.6-4.5-8.3c-0.1-0.3-0.6-0.5-1.1-0.9c-0.7,0.8-1.3,1.7-1.8,2.6
		c-8,12.3-16.1,24.4-24.2,36.7c-0.9,1.7-1.3,3.6-1.1,5.5c0.2,2.3,0.3,4.5,0.5,7c0,0.9,0,1.8,0.1,2.7c0.3,5.5,0.8,10.9,1.1,16.4
		c0.3,4.7,0.5,9.4,0.8,14.2c0,0.2,0,0.4,0.1,0.6c0.3,4.7,0.8,9.4,1.1,14.2c0.3,5.2,0.5,10.5,0.6,15.8v0.5c0.6,6.2,1.2,12.4,1.2,18.6
		c0,1.2,0.1,2.4,0.3,3.6c0.3,2,0.2,4-0.5,5.9c-3.2-8.8-6.5-17.6-9.7-26.7c-2.6,0.5-4.9,0.6-7.3,1.1c-15.1,2.7-30.3,5.6-45.5,8.5
		c-12.7,2.4-25.5,4.7-38,7.3c-2.6,0.6-5.4,0.4-7.9-0.5l-25-9.1c-11.4-4.1-22.6-8.3-34-12.4c-12.3-4.4-24.4-8.8-36.7-13.3
		c-1.5-0.6-3.2-0.5-4.6,0.5c-3.3,2.1-6.5,4.2-9.8,6.2L77,395.8c-9.4,5.9-18.6,12-28,17.9c-4.5,2.9-9.1,5.6-13.6,8.5
		c-2.3,1.4-4.5,2.9-6.7,4.4c-0.8,0.5-1.4,1.1-1.2,2L49.7,820h710.8l20.2-388.3C780.7,429.8,779.7,428,778.1,427z"/>
</g>
<g>
	<rect x="62" y="486.5" class="st0" width="195.5" height="333.5"/>
</g>
<g>
	<polygon class="st2" points="268,467.9 51.7,467.9 62,486.5 257.5,486.5 	"/>
</g>
<g>
	<rect x="51.7" y="455.6" class="st0" width="216.3" height="12.3"/>
</g>
<g>
	<rect x="76.1" y="496.2" class="st2" width="22.8" height="323.8"/>
</g>
<g>
	<rect x="166.2" y="496.2" class="st2" width="22.9" height="323.8"/>
</g>
<g>
	<rect x="199.1" y="496.2" class="st2" width="22.9" height="323.8"/>
</g>
<g>
	<rect x="232" y="496.2" class="st2" width="15.4" height="323.8"/>
</g>
<g>
	<rect x="108.1" y="496.2" class="st2" width="38.2" height="38.1"/>
</g>
<g>
	<rect x="108.1" y="543.9" class="st2" width="38.2" height="38.1"/>
</g>
<g>
	<rect x="108.1" y="591.5" class="st2" width="38.2" height="38.1"/>
</g>
<g>
	<rect x="108.1" y="639.1" class="st2" width="38.2" height="38.1"/>
</g>
<g>
	<rect x="108.1" y="686.7" class="st2" width="38.2" height="38.1"/>
</g>
<g>
	<rect x="108.1" y="734.3" class="st2" width="38.2" height="38.1"/>
</g>
<g>
	<rect x="108.1" y="781.9" class="st2" width="38.2" height="38.1"/>
</g>
<g>
	<rect x="6.3" y="665.2" class="st2" width="56.1" height="154.8"/>
</g>
<g>
	<rect x="257.5" y="665.2" class="st2" width="50.7" height="154.8"/>
</g>
<g>
	<rect x="297.7" y="474.6" class="st0" width="7.2" height="345.3"/>
</g>
<g>
	<rect x="360.8" y="474.6" class="st0" width="3.6" height="345.3"/>
</g>
<g>
	<rect x="415.8" y="474.6" class="st0" width="16.1" height="345.3"/>
</g>
<g>
	<rect x="483.3" y="474.6" class="st0" width="3.6" height="345.3"/>
</g>
<g>
	<rect x="542.8" y="474.6" class="st0" width="7.2" height="345.3"/>
</g>
<g>
	<rect x="301.2" y="576.5" class="st0" width="245.2" height="3"/>
</g>
<g>
	<rect x="301.2" y="627.8" class="st0" width="245.2" height="3"/>
</g>
<g>
	<line class="st3" x1="301.2" y1="680.6" x2="546.3" y2="680.6"/>
</g>
<g>
	<line class="st3" x1="301.2" y1="732" x2="546.3" y2="732"/>
</g>
<g>
	<rect x="415.8" y="446.4" class="st0" width="134.2" height="39"/>
</g>
<g>
	<rect x="379.2" y="461.8" class="st0" width="36.6" height="23.6"/>
</g>
<g>
	<rect x="315.4" y="550.5" class="st0" width="27.1" height="26"/>
</g>
<g>
	<rect x="373.8" y="561.9" class="st0" width="23.7" height="14.6"/>
</g>
<g>
	<rect x="381" y="609" class="st0" width="86.9" height="18.9"/>
</g>
<g>
	<rect x="310" y="662.5" class="st0" width="20" height="16.6"/>
</g>
<g>
	<rect x="322.5" y="645.9" class="st0" width="20" height="16.6"/>
</g>
<g>
	<rect x="332.5" y="662.5" class="st0" width="20" height="16.6"/>
</g>
<g>
	<rect x="439.8" y="710" class="st0" width="23.3" height="21.1"/>
</g>
<g>
	<rect x="495.5" y="717" class="st0" width="16.9" height="14"/>
</g>
<g>
	<rect x="332.5" y="717" class="st0" width="52.1" height="14"/>
</g>
<g>
	<rect x="751.8" y="525.5" class="st0" width="6.1" height="294.5"/>
</g>
<g>
	<rect x="701.1" y="525.5" class="st0" width="3" height="294.5"/>
</g>
<g>
	<rect x="643.5" y="525.5" class="st0" width="13.7" height="294.5"/>
</g>
<g>
	<rect x="596.6" y="525.5" class="st0" width="3" height="294.5"/>
</g>
<g>
	<rect x="542.8" y="525.5" class="st0" width="6.1" height="294.5"/>
</g>
<g>
	<rect x="545.8" y="612.3" class="st0" width="209.1" height="2.5"/>
</g>
<g>
	<rect x="545.8" y="656.1" class="st0" width="209.1" height="2.5"/>
</g>
<g>
	<line class="st3" x1="754.9" y1="701.1" x2="545.8" y2="701.1"/>
</g>
<g>
	<line class="st3" x1="754.9" y1="744.9" x2="545.8" y2="744.9"/>
</g>
<g>
	<rect x="542.8" y="501.4" class="st0" width="114.4" height="33.3"/>
</g>
<g>
	<rect x="657.2" y="514.5" class="st0" width="31.2" height="20.2"/>
</g>
<g>
	<rect x="719.7" y="590.2" class="st0" width="23.1" height="22.1"/>
</g>
<g>
	<rect x="672.8" y="599.9" class="st0" width="20.2" height="12.5"/>
</g>
<g>
	<rect x="612.8" y="640" class="st0" width="74.1" height="16.1"/>
</g>
<g>
	<rect x="730.4" y="685.7" class="st0" width="17" height="14.2"/>
</g>
<g>
	<rect x="719.7" y="671.5" class="st0" width="17" height="14.2"/>
</g>
<g>
	<rect x="711.2" y="685.7" class="st0" width="17" height="14.2"/>
</g>
<g>
	<rect x="616.9" y="726.1" class="st0" width="19.8" height="18"/>
</g>
<g>
	<rect x="574.8" y="732.2" class="st0" width="14.4" height="12"/>
</g>
<g>
	<rect x="683.8" y="732.2" class="st0" width="44.4" height="12"/>
</g>
<g>
	<path class="st4" d="M131.3,521.7l426.2-198.8L399.2,878.2c-0.3,1.2-1.4,1.9-2.6,1.6c-0.5-0.1-1-0.4-1.3-0.9L131.3,521.7z"/>
</g>
<g>
	<path d="M278.6,627h-48.3c-5.3,0.1-10.4-1.8-14.3-5.4c-3.8-3.2-6-7.9-6-12.9v-108h34.3V519h14c5.3-0.1,10.4,1.8,14.3,5.4
		c3.8,3.2,6,7.9,6,12.9L278.6,627z M261,609.2V537c0-3.4-1.9-5-5.6-5h-11v82.4h11C259.2,614.3,261,612.6,261,609.2z"/>
</g>
<g>
	<path d="M327.4,627h-14c-5.3,0.1-10.4-1.8-14.3-5.4c-3.8-3.2-6-7.9-6-12.9v-108h14c5.3-0.1,10.4,1.8,14.3,5.4c3.8,3.2,6,7.9,6,12.9
		V627z"/>
</g>
<g>
	<path d="M390.3,519.1c5.3-0.1,10.4,1.8,14.3,5.4c3.8,3.2,6,7.9,6,12.9v89.8h-48.2c-5.3,0.1-10.4-1.8-14.3-5.4
		c-3.8-3.2-6-7.9-6-12.9v-89.8h17.6v90.1c0,3.4,1.9,5,5.7,5h11v-95.2h13.9L390.3,519.1z"/>
</g>
<g>
	<path d="M493.7,570.3c0,5-2.2,9.7-6,12.9c-3.9,3.5-9,5.5-14.3,5.4h-30.9c0,5,2.2,9.7,6,12.9c4,3.6,9.1,5.5,14.5,5.4h30.9v20.3
		h-48.5c-5.3,0.1-10.4-1.8-14.3-5.4c-3.8-3.2-6-7.9-6-12.9v-89.7h48.5c5.3-0.1,10.4,1.8,14.3,5.4c3.8,3.2,6,7.9,6,12.9L493.7,570.3z
		 M459.4,571.1v-34.3c0-3.4-1.9-5.2-5.7-5.2h-11.2v44.5h11.1C457.5,576.3,459.4,574.6,459.4,571.1L459.4,571.1z"/>
</g>
<g>
	<path d="M507.9,537.4c0-5,2.2-9.7,6-12.9c3.9-3.6,9.1-5.5,14.5-5.4h48.5v20.3h-30.9c-5.3-0.1-10.5,1.9-14.5,5.4
		c-3.8,3.2-6,7.9-6,12.9h30.9c5.3-0.1,10.4,1.8,14.3,5.4c3.8,3.2,6,7.9,6,12.9v32.9c0,5-2.2,9.7-6,12.9c-3.9,3.5-9,5.5-14.3,5.4
		h-48.5v-38.9h28.2c5.3,0.1,10.4-1.8,14.3-5.4c3.8-3.2,6-7.9,6-12.9h-48.5V537.4z"/>
</g>
<g>
	<path d="M228.6,427.4V479h6c2,0,3-0.9,3-2.7v-48.7h9.4V476c0,2.7-1.1,5.2-3.1,7c-2.1,1.9-4.9,2.9-7.7,2.9h-26v-48.4
		c0-2.7,1.1-5.2,3.1-7c2.1-1.9,4.9-2.9,7.7-2.9L228.6,427.4z"/>
</g>
<g>
	<path d="M292.1,455c0,2.7-1.2,5.3-3.3,7c-2.1,1.9-4.9,2.9-7.7,2.9h-16.7c0,2.7,1.2,5.3,3.3,7c2.1,1.9,4.9,2.9,7.7,2.9h16.6v11
		h-26.2c-2.8,0-5.6-1-7.7-2.9c-2.1-1.8-3.2-4.3-3.3-7v-48.5h26.2c2.8-0.1,5.6,0.9,7.7,2.9c2.1,1.7,3.3,4.3,3.3,7L292.1,455
		L292.1,455z M273.5,455.6V437c0-1.9-1-2.7-3.1-2.7h-6v24h6C272.5,458.3,273.5,457.4,273.5,455.6L273.5,455.6z"/>
</g>
<g>
	<path d="M299.6,437.3c0-2.7,1.2-5.3,3.3-7c2.1-1.9,4.9-2.9,7.7-2.9h26.2v11h-16.6c-2.8,0-5.6,1-7.7,2.9c-2.1,1.7-3.3,4.3-3.3,7H326
		c2.8,0,5.6,1,7.7,2.9c2.1,1.7,3.3,4.3,3.3,7v17.7c0,2.7-1.2,5.3-3.3,7c-2.1,1.9-4.9,2.9-7.7,2.9h-26.2v-21H315
		c2.8,0.1,5.6-0.9,7.7-2.9c2.1-1.7,3.3-4.3,3.3-7h-26.2L299.6,437.3z"/>
</g>
<g>
	<path d="M381.7,454.9h-26.2c0,2.7,1.2,5.3,3.3,7c2.1,1.9,4.9,2.9,7.7,2.9h15.3v21h-26c-2.8,0-5.6-1-7.7-2.9c-2.1-1.7-3.3-4.3-3.3-7
		l-0.1-17.7c0-2.7,1.2-5.3,3.3-7c2.1-1.9,4.9-2.9,7.7-2.9h16.7c0-2.7-1.2-5.3-3.3-7c-2.1-1.9-4.9-2.9-7.7-2.9h-16.6v-11.1h26
		c2.8,0,5.6,1,7.7,2.9c2.1,1.7,3.3,4.3,3.3,7L381.7,454.9z"/>
</g>
<g>
	<path d="M389.5,506.6v-79.2h26.2c2.8,0,5.6,1,7.7,2.9c2.1,1.7,3.3,4.3,3.3,7v48.5h-18.6v20.9L389.5,506.6z M417.1,476.2v-39.1
		c0-1.9-1-2.7-3.1-2.7h-6v44.5h6C416.1,478.9,417.1,477.9,417.1,476.2z"/>
</g>
<g>
	<path d="M434.2,427.4h26.2c2.8,0,5.6,1,7.7,2.9c2.1,1.7,3.3,4.3,3.3,7v17.6H462v-17.6c0-1.9-1-2.7-3-2.7h-6v51.3h-7.6
		c-2.8,0-5.6-1-7.7-2.9c-2.1-1.7-3.2-4.3-3.1-7L434.2,427.4z"/>
</g>
<g>
	<path d="M516.3,455c0,2.7-1.2,5.3-3.3,7c-2.1,1.9-4.9,2.9-7.7,2.9h-16.7c0,2.7,1.2,5.3,3.3,7c2.1,1.9,4.9,2.9,7.7,2.9h16.6v11H490
		c-2.8,0-5.6-1-7.7-2.9c-2.1-1.7-3.3-4.3-3.3-7v-48.5h26.2c2.8-0.1,5.6,0.9,7.7,2.9c2.1,1.7,3.3,4.3,3.3,7V455H516.3z M497.7,455.6
		V437c0-1.9-1-2.7-3.1-2.7h-6v24h6C496.7,458.3,497.7,457.4,497.7,455.6z"/>
</g>
<g>
	<path d="M561.1,485.8h-9.4V437c0-1.9-1-2.7-3-2.7h-6v51.5h-7.6c-2.8,0-5.6-1-7.7-2.9c-2.1-1.7-3.3-4.3-3.3-7v-48.6h26.2
		c2.2,0,4.3,0.6,6.2,1.7c1.9-1.1,4.1-1.7,6.3-1.7h3.2c2.8-0.1,5.6,0.9,7.7,2.9c2.1,1.7,3.2,4.3,3.2,7v48.5h-9.6V437
		c0-1.9-1-2.7-3-2.7s-3,0.9-3,2.7L561.1,485.8z"/>
</g>
<g>
	<path d="M495.4,424.1h-7c-2.6,0-5.2-0.9-7.1-2.7c-1.9-1.6-3-4-3-6.4v-6.3h7c2.6,0,5.2,0.9,7.1,2.7c1.9,1.6,3,4,3,6.4V424.1z"/>
</g>
<g>
	<path d="M247.9,671.7h-9.7v-18.2c0-1.9-1-2.9-3.1-2.9h-6.1v29.6h18.9v8.6h-18.9v33.6h-7.7c-2.9,0-5.7-1-7.9-3
		c-2.1-1.8-3.3-4.4-3.3-7.2v-68.8h26.6c2.9,0,5.7,1,7.9,3c2.1,1.8,3.3,4.4,3.3,7.2L247.9,671.7L247.9,671.7z"/>
</g>
<g>
	<path d="M293.8,691.1c0,2.8-1.2,5.4-3.3,7.2c-2.1,2-5,3-7.9,3h-17.2c0,2.8,1.2,5.4,3.3,7.2c2.2,2,5,3.1,8,3h17v11.2H267
		c-2.9,0-5.7-1-7.9-3c-2.1-1.8-3.3-4.4-3.3-7.2v-49.6h26.7c2.9,0,5.8,1.1,8,3c2.1,1.8,3.3,4.4,3.3,7.2L293.8,691.1z M274.9,691.7
		v-18.9c0-1.9-1-2.9-3.1-2.9h-6.1v24.6h6.1c1.5,0.2,2.9-0.9,3.1-2.4C274.9,692,274.9,691.9,274.9,691.7z"/>
</g>
<g>
	<path d="M301.7,673c0-2.8,1.2-5.4,3.3-7.2c2.2-2,5-3.1,8-3h26.6V674h-17c-2.9,0-5.8,1.1-8,3c-2.1,1.8-3.3,4.4-3.3,7.2h17
		c2.9,0,5.7,1,7.9,3c2.1,1.8,3.3,4.4,3.3,7.2v18.2c0,2.8-1.2,5.4-3.3,7.2c-2.1,2-5,3-7.9,3h-26.7V701h15.6c2.9,0,5.7-1,7.9-3
		c2.1-1.8,3.3-4.4,3.3-7.2h-26.8V673H301.7z"/>
</g>
<g>
	<path d="M385.3,691h-26.7c0,2.8,1.2,5.4,3.3,7.2c2.1,2,5,3,7.9,3h15.6v21.5h-26.6c-2.9,0-5.7-1-7.9-3c-2.1-1.8-3.3-4.4-3.3-7.2
		l-0.1-18.2c0-2.8,1.2-5.4,3.3-7.2c2.2-2,5-3,7.9-3h17c0-2.8-1.2-5.4-3.3-7.2c-2.2-2-5-3-7.9-3h-16.9v-11.2h26.6c2.9,0,5.7,1,7.9,3
		c2.1,1.8,3.3,4.4,3.3,7.2V691z"/>
</g>
<g>
	<path d="M431.2,712.4c0,2.8-1.2,5.4-3.3,7.2c-2.1,2-5,3-7.9,3h-26.6v-68.8c0-2.8,1.2-5.4,3.3-7.2c2.1-2,5-3,7.9-3h7.7v33.6h18.7
		v8.6h-18.7v29.5h6.1c2.1,0,3.1-0.8,3.1-2.9v-17.9h9.7L431.2,712.4z"/>
</g>
<g>
	<path d="M439.1,643.6h7.7c2.9,0,5.7,1,7.9,3c2.1,1.8,3.4,4.4,3.3,7.2v7h-7.7c-2.9,0-5.7-1-7.9-3c-2.1-1.8-3.3-4.4-3.3-7.2
		L439.1,643.6z"/>
</g>
<g>
	<path d="M549.8,643.6v7c0,2.6-0.9,5.2-2.7,7.2c-1.6,1.9-4,3-6.4,3h-6.3v-7c0-2.6,0.9-5.2,2.7-7.2c1.6-1.9,4-3,6.4-3H549.8z"/>
</g>
<g>
	<path d="M458.1,722.6h-7.7c-2.9,0-5.7-1-7.9-3c-2.1-1.8-3.3-4.4-3.3-7.2v-46.8h7.8c2.9,0,5.7,1,7.9,3c2.1,1.8,3.3,4.4,3.3,7.2
		L458.1,722.6z"/>
</g>
<g>
	<path d="M485.1,663v52.6h6c2.1,0,3.1-0.9,3.1-2.9V663h9.7v49.5c0,2.8-1.2,5.4-3.3,7.2c-2.1,2-5,3-7.9,3h-26.6v-49.5
		c0-2.8,1.2-5.4,3.3-7.2c2.1-2,5-3,7.9-3L485.1,663z"/>
</g>
<g>
	<path d="M549.8,722.6h-26.6c-2.9,0-5.7-1-7.9-3c-2.1-1.8-3.3-4.4-3.3-7.2v-18.2c0-2.8,1.2-5.4,3.3-7.2c2.2-2,5-3,7.9-3h17
		c0-2.8-1.2-5.4-3.3-7.2c-2.2-2-5-3-7.9-3h-16.9v-11.2h26.6c2.9,0,5.7,1,7.9,3c2.1,1.8,3.3,4.4,3.3,7.2L549.8,722.6z M540.1,715.4
		v-24.6h-6c-2.2,0-3.2,1-3.2,2.9v19c0,1.9,1,2.9,3.2,2.9L540.1,715.4z"/>
</g>
<g>
	<path d="M576.7,722.6H569c-2.9,0-5.7-1-7.9-3c-2.1-1.8-3.3-4.4-3.3-7.2v-68.8h7.7c2.9,0,5.7,1,7.9,3c2.1,1.8,3.3,4.4,3.3,7.2
		L576.7,722.6z"/>
</g>
<g>
	<path d="M278.6,764.5H257v-2.9c0-0.4,0.1-0.9,0.3-1.3c0.1-0.5,0.3-0.9,0.6-1.3c0.3-0.4,0.6-0.7,1-1.3s1-0.9,1.6-1.3
		c1.7-0.9,3.6-1.5,5.6-1.9c0.9-0.1,1.9-0.4,3.1-0.7c0.6-0.1,1.3-0.3,1.9-0.6c0.3-0.1,0.4-0.4,0.4-0.7c0-0.2-0.1-0.4-0.3-0.6
		c-0.3-0.1-0.7-0.3-1-0.4c-0.8-0.1-1.5-0.2-2.3-0.1c-0.6,0-1.2,0-1.9,0.1l-1.3,0.4c-0.3,0.1-0.5,0.3-0.6,0.6
		c-0.1,0.3-0.3,0.4-0.3,0.6c0,0.2,0,0.3-0.1,0.4h-6.6v-0.1c0-4.2,3.4-6.2,10-6.2h1c1.4,0,2.9,0.1,4.3,0.3c1,0.1,1.9,0.4,2.9,0.7
		c0.7,0.3,1.3,0.7,1.7,1.3c0.4,0.4,0.7,0.9,0.9,1.4c0.2,0.5,0.3,1,0.3,1.6v0.1c0.1,0.8-0.1,1.6-0.6,2.3c-0.6,0.7-1.4,1.3-2.3,1.6
		c-1.5,0.6-3.1,1-4.7,1.3l-3.7,0.6c-3,0.6-4.6,1.3-4.6,1.9h10.1v-2.1h6L278.6,764.5z"/>
</g>
<g>
	<path d="M304.2,755.5v0.7c0,0.7,0,1.3-0.1,2c-0.2,0.8-0.5,1.5-1,2.1c-0.4,0.9-1.1,1.6-2,2c-1.1,0.7-2.2,1.1-3.4,1.4
		c-1.7,0.4-3.5,0.6-5.3,0.6h-1c-1.8,0-3.6-0.2-5.3-0.6c-1.2-0.3-2.4-0.8-3.4-1.4c-0.8-0.6-1.4-1.2-2-2c-0.4-0.7-0.7-1.4-1-2.1
		c-0.1-0.7-0.1-1.3-0.3-2v-0.6c0-0.5,0-1,0.1-1.4c0-0.6,0.1-1.1,0.4-1.6c0.1-0.6,0.4-1.1,0.9-1.6c0.4-0.5,0.9-1,1.4-1.4
		c0.7-0.5,1.4-1,2.1-1.3c0.9-0.3,1.7-0.6,2.9-0.9c1.3-0.2,2.7-0.3,4-0.3h1c1.3,0,2.6,0.1,4,0.3c1,0.2,1.9,0.4,2.9,0.7
		c0.7,0.3,1.4,0.7,2,1.3c0.5,0.4,1,0.9,1.4,1.4c0.3,0.6,0.6,1,0.9,1.6s0.3,1,0.4,1.4C304.1,754.4,304.2,754.9,304.2,755.5z
		 M297.7,755.9v-0.3c0-0.4-0.1-0.9-0.3-1.3c-0.1-0.5-0.4-1-0.9-1.3c-0.5-0.4-1.1-0.8-1.7-1c-0.9-0.2-1.8-0.3-2.7-0.3
		c-1,0-1.9,0.2-2.9,0.4c-0.6,0.2-1.2,0.6-1.7,1c-0.4,0.4-0.7,0.8-0.9,1.3c-0.2,0.4-0.3,0.8-0.3,1.3v0.3c0,0.5,0.1,1,0.3,1.4
		c0.1,0.5,0.4,1,0.9,1.3c0.5,0.4,1.1,0.8,1.7,1.2c1.8,0.6,3.8,0.6,5.6,0c0.6-0.2,1.2-0.6,1.7-1c0.4-0.4,0.7-0.8,0.9-1.3
		C297.5,757.1,297.6,756.5,297.7,755.9L297.7,755.9z"/>
</g>
<g>
	<path d="M326.7,764.2h-21.6v-2.9c0-0.4,0.1-0.9,0.3-1.3c0.1-0.5,0.3-0.9,0.6-1.3c0.3-0.4,0.6-0.7,1-1.3c0.5-0.5,1-0.8,1.6-1.1
		c1.7-0.9,3.6-1.5,5.6-1.9c0.9-0.1,1.9-0.4,3.3-0.7c0.6-0.1,1.3-0.3,1.9-0.6c0.3-0.1,0.4-0.4,0.4-0.7c0-0.2-0.1-0.4-0.3-0.6
		c-0.3-0.2-0.7-0.3-1-0.4c-0.8-0.1-1.5-0.2-2.3-0.2c-0.6,0-1.2,0-1.9,0.2l-1.3,0.4c-0.3,0.1-0.5,0.3-0.6,0.6
		c-0.1,0.3-0.3,0.4-0.3,0.6c0,0.2,0,0.3-0.1,0.4h-6.7v-0.1c0-4.2,3.4-6.2,10-6.2h1c1.4,0,2.9,0.1,4.3,0.3c1,0.2,1.9,0.4,2.9,0.7
		c0.7,0.3,1.3,0.7,1.7,1.3c0.4,0.4,0.7,0.9,0.9,1.4c0.2,0.5,0.3,1,0.3,1.6v0.1c0.1,0.8-0.1,1.6-0.6,2.3c-0.6,0.7-1.4,1.3-2.3,1.6
		c-1.5,0.6-3.1,1-4.7,1.3l-3.7,0.6c-3,0.6-4.6,1.3-4.6,1.9h10.1v-2.3h6L326.7,764.2z"/>
</g>
<g>
	<path d="M339.4,764.6h-1c-1.2,0-2.5-0.1-3.7-0.3c-1-0.1-1.9-0.3-2.9-0.7c-0.7-0.2-1.3-0.6-1.9-1c-0.6-0.3-1-0.7-1.3-1.3
		c-0.3-0.4-0.6-0.8-0.7-1.3c-0.2-0.4-0.3-0.8-0.3-1.3c0-0.3-0.1-0.6-0.1-1v-0.1h6.6c0,0.2,0,0.3,0.1,0.4c0,0.1,0.1,0.3,0.3,0.6
		s0.4,0.4,0.7,0.7l1.3,0.4c0.7,0.1,1.3,0.2,2,0.1c0.7,0,1.3,0,2-0.1c0.4,0,0.9-0.1,1.3-0.3c0.3-0.1,0.5-0.3,0.7-0.4
		c0.1-0.2,0.3-0.3,0.3-0.4v-0.4c0-0.7-0.7-1.3-2-1.3h-5.7v-4h5.4c1.3,0,1.9-0.3,1.9-1l0,0c0-0.3-0.1-0.4-0.1-0.6
		c-0.4-0.3-0.8-0.4-1.3-0.4c-0.9-0.1-1.9-0.2-2.9-0.1c-0.7,0-1.3,0-2,0.1c-0.4,0.2-0.8,0.3-1.3,0.3c-0.2,0.1-0.4,0.3-0.6,0.4
		c-0.1,0.1-0.3,0.3-0.3,0.4v0.3h-6.6V751c0-0.3,0.1-0.7,0.3-1c0.2-0.4,0.4-0.7,0.7-1c0.4-0.4,0.8-0.7,1.3-1c0.6-0.3,1.3-0.6,1.9-0.8
		c0.8-0.3,1.7-0.5,2.6-0.6c1.1-0.2,2.3-0.3,3.4-0.3h1c1.6,0,3.3,0.1,4.9,0.3c1,0.1,2,0.3,3,0.7c0.6,0.2,1.2,0.6,1.7,1
		c0.4,0.3,0.7,0.8,0.9,1.3c0.1,0.4,0.2,0.8,0.1,1.3v0.2c0,0.7-0.3,1.4-0.9,1.9c-0.6,0.5-1.3,0.8-2,1c0.9,0.1,1.8,0.6,2.4,1.3
		c0.7,0.7,1.1,1.7,1,2.7v0.2C350.1,762.5,346.6,764.6,339.4,764.6z"/>
</g>
<g>
	<path d="M357.4,759.8v4.4H351v-4.4H357.4z"/>
</g>
<g>
	<path d="M390.3,755.3v0.7c0,0.7,0,1.3-0.1,2c-0.2,0.8-0.5,1.5-1,2.1c-0.4,0.9-1.1,1.6-2,2c-1.1,0.7-2.2,1.1-3.4,1.4
		c-1.7,0.4-3.5,0.6-5.3,0.6h-1c-1.8,0-3.6-0.2-5.3-0.6c-1.2-0.3-2.4-0.8-3.6-1.4c-0.7-0.6-1.4-1.3-2-2c-0.4-0.7-0.8-1.4-1-2.1
		c-0.1-0.7-0.1-1.3-0.3-2v-0.7c0-0.5,0-1,0.1-1.4c0-0.6,0.1-1.1,0.4-1.6c0.1-0.6,0.4-1.1,0.9-1.6c0.4-0.5,0.9-1,1.4-1.4
		c0.6-0.5,1.4-1,2.1-1.3c0.9-0.3,1.7-0.6,2.9-0.8c1.3-0.2,2.7-0.3,4-0.3h1c1.3,0,2.7,0.1,4,0.3c1,0.2,1.9,0.4,2.9,0.7
		c0.7,0.3,1.4,0.7,2,1.3c0.5,0.4,1,0.9,1.4,1.4c0.3,0.6,0.6,1,0.9,1.6c0.2,0.5,0.4,1,0.4,1.6C390.1,754.2,390.4,754.7,390.3,755.3z
		 M383.8,755.8v-0.3c0-0.4-0.1-0.9-0.3-1.3c-0.1-0.5-0.4-1-0.9-1.3c-0.5-0.4-1.1-0.8-1.7-1c-0.9-0.2-1.8-0.3-2.7-0.3
		c-0.9,0-1.8,0.1-2.7,0.4c-0.6,0.2-1.2,0.6-1.7,1c-0.4,0.4-0.7,0.8-0.9,1.3c-0.2,0.4-0.3,0.8-0.3,1.3v0.3c0,0.5,0.1,1,0.3,1.4
		c0.1,0.5,0.4,1,0.9,1.3c0.5,0.4,1.1,0.8,1.7,1c1.8,0.6,3.8,0.6,5.6,0c0.6-0.2,1.2-0.6,1.7-1c0.4-0.4,0.7-0.8,0.9-1.3
		C383.5,756.8,383.6,756.3,383.8,755.8z"/>
</g>
<g>
	<path d="M391.2,757.2l11.7-10.2h7v9.3h3.6v4.4h-3.6v3.3h-6.4v-3.3H391L391.2,757.2z M403.6,756.5v-5l-5.9,5H403.6z"/>
</g>
<g>
	<path d="M420.8,759.6v4.4h-6.4v-4.4H420.8z"/>
</g>
<g>
	<path d="M433,754h-4.2v-3.6c2.7-0.2,4.6-1.3,5.3-3.4h5v16.9h-6.4L433,754z"/>
</g>
<g>
	<path d="M452.7,764.2h-1c-1.2,0-2.5-0.1-3.7-0.3c-0.9-0.2-1.8-0.4-2.7-0.7c-0.7-0.2-1.3-0.6-1.9-1c-0.6-0.3-1-0.7-1.3-1.3
		c-0.3-0.4-0.6-0.8-0.7-1.3c-0.2-0.4-0.3-0.8-0.3-1.3c0-0.3-0.1-0.6-0.1-1h6.6c0,0.2,0,0.3,0.1,0.4c0,0.1,0.1,0.3,0.3,0.6
		s0.4,0.4,0.7,0.7l1.3,0.4c0.7,0.1,1.3,0.2,2,0.1c0.7,0,1.3,0,2-0.1c0.4,0,0.9-0.1,1.3-0.3c0.3-0.1,0.5-0.3,0.7-0.4
		c0.1-0.1,0.3-0.3,0.3-0.4v-0.4c0-0.7-0.7-1.3-2-1.3h-5.7v-4h5.5c1.3,0,1.9-0.3,1.9-1l0,0c0-0.3-0.1-0.4-0.1-0.6
		c-0.4-0.3-0.8-0.4-1.3-0.4c-0.9-0.1-1.9-0.2-2.9-0.1c-0.7,0-1.3,0-2,0.1c-0.4,0.2-0.8,0.3-1.3,0.3c-0.2,0.1-0.4,0.3-0.6,0.4
		c-0.1,0.2-0.3,0.3-0.3,0.4v0.3h-6.6v-1.3c0.1-0.8,0.5-1.5,1-2c0.4-0.4,0.8-0.8,1.3-1c0.6-0.3,1.3-0.6,1.9-0.9
		c0.8-0.3,1.7-0.5,2.6-0.6c1.2-0.2,2.4-0.3,3.6-0.3h1c1.6,0,3.3,0.2,4.9,0.3c1,0.1,2,0.3,3,0.7c0.6,0.2,1.2,0.6,1.7,1
		c0.4,0.3,0.7,0.8,0.9,1.3c0.1,0.4,0.2,0.9,0.1,1.3v0.1c0,0.7-0.3,1.4-0.9,1.9c-0.6,0.5-1.3,0.8-2,1c0.9,0.1,1.8,0.6,2.4,1.3
		c0.7,0.7,1.1,1.7,1,2.7v0.1C463.4,762.2,459.7,764.2,452.7,764.2z"/>
</g>
<g>
	<path d="M471.4,755h7.4v4.3h-7.4V755z"/>
</g>
<g>
	<path d="M490.9,753.9h-4.1v-3.4c2.7-0.2,4.6-1.3,5.3-3.4h5.1v16.9h-6.4L490.9,753.9z"/>
</g>
<g>
	<path d="M511,764.1h-1c-1.6,0-3.2-0.2-4.7-0.6c-1.1-0.3-2.2-0.7-3.1-1.3c-0.7-0.6-1.4-1.2-1.9-2c-0.4-0.7-0.7-1.4-0.9-2.1
		c-0.2-0.7-0.3-1.4-0.3-2.2v-0.6c0-0.6,0-1.2,0.1-1.9c0.1-0.6,0.3-1.3,0.6-1.9c0.3-0.7,0.7-1.3,1.3-1.7c0.6-0.6,1.2-1,1.9-1.4
		c0.9-0.5,1.8-0.9,2.9-1c1.3-0.3,2.7-0.4,4-0.4h1c1.4,0,2.9,0.2,4.3,0.3c1,0.3,2,0.6,2.9,0.9c0.7,0.3,1.3,0.7,1.7,1.3
		c0.4,0.4,0.7,0.9,0.9,1.4c0.2,0.5,0.3,0.9,0.3,1.4v0.1h-6.6c-0.2-0.3-0.4-0.6-0.7-0.7c-1-0.5-2.2-0.7-3.3-0.6
		c-0.8,0-1.7,0.1-2.4,0.4c-0.6,0.2-1.1,0.6-1.6,1c-0.3,0.4-0.5,0.8-0.6,1.3c-0.1,0.4-0.2,0.9-0.1,1.3v0.1c2.1-1.2,4.6-1.8,7-1.6h0.3
		c1.2,0,2.5,0.1,3.7,0.3c0.8,0.1,1.6,0.4,2.4,0.7c0.6,0.3,1.2,0.7,1.6,1.3c0.4,0.4,0.7,0.8,0.8,1.3c0.2,0.5,0.3,1,0.3,1.6v0.2
		c0,0.5,0,1.1-0.1,1.6c-0.2,0.6-0.5,1.1-0.9,1.6c-0.4,0.6-1,1.1-1.7,1.4c-0.9,0.5-1.9,0.8-3,0.9C514.4,764.1,512.7,763.9,511,764.1z
		 M506,758.3L506,758.3c0,1.3,1.4,1.7,4.6,1.7s4.4-0.6,4.4-1.7l0,0c0-0.3,0-0.4-0.2-0.6l-0.6-0.6l-1.3-0.4c-0.8-0.1-1.5-0.2-2.3-0.1
		C507.4,756.6,506,757,506,758.3L506,758.3z"/>
</g>
<g>
	<path d="M529,759.3v4.4h-6.4v-4.4H529z"/>
</g>
<g>
	<polygon points="42,1029.3 0,814.9 773.6,788.6 729.5,1023 	"/>
</g>
<g>
	<path class="st5" d="M118.3,880.6v-20.2h-12v-7.6H141v7.6h-12v20.2H118.3z"/>
	<path class="st5" d="M143.7,880.6v-27.8h10.6v9.8h17.4v-9.8h10.6v27.8h-10.6V870h-17.4v10.6H143.7z"/>
	<path class="st5" d="M196.6,852.7v27.8H186v-27.8H196.6z"/>
	<path class="st5" d="M219.3,881.1h-3.4c-11.3,0-17-3.3-17-9.9v-0.4h11.7c0.2,2.6,2.5,3.9,7,3.9h0.3c1.4,0,2.6-0.1,3.6-0.2
		c0.9-0.1,1.6-0.3,2.1-0.6c0.4-0.3,0.8-0.5,0.9-0.8c0.2-0.3,0.2-0.6,0.2-1v0c0-0.5-0.1-0.9-0.4-1.3c-0.3-0.3-0.9-0.6-1.9-0.8
		c-1-0.2-2.4-0.4-4.3-0.4l-5.2-0.1c-9.1-0.2-13.7-3-13.7-8.4v-0.3c0-1,0.1-1.9,0.4-2.6c0.3-0.8,0.8-1.6,1.5-2.3
		c0.7-0.7,1.7-1.4,2.8-1.9c1.2-0.5,2.7-0.9,4.6-1.2c1.9-0.3,4.1-0.5,6.6-0.5h3.3c11.3,0,16.9,2.9,16.9,8.8v0.3H224
		c-0.2-2-2.5-3-6.7-3h-0.4c-1.7,0-3.1,0.1-4,0.3c-0.9,0.2-1.5,0.4-1.8,0.7s-0.3,0.6-0.3,1v0c0,0.4,0.1,0.8,0.4,1
		c0.3,0.3,0.9,0.5,1.8,0.7c0.9,0.2,2.2,0.3,3.9,0.4l5,0.1c5.3,0.2,9,0.9,11.3,2.2c2.3,1.3,3.4,3.4,3.4,6.2v0.5c0,1-0.1,2-0.4,2.8
		c-0.2,0.8-0.7,1.7-1.5,2.5c-0.7,0.9-1.7,1.6-3,2.2c-1.2,0.6-2.9,1.1-5,1.4C224.6,880.9,222.1,881.1,219.3,881.1z"/>
	<path class="st5" d="M273.5,871.9h-12.6v8.7h-10.6v-27.8h23.2c8.8,0,13.2,3.1,13.2,9.2v0.6C286.7,868.7,282.3,871.9,273.5,871.9z
		 M260.9,859.7v5.2h11.3c2.3,0,3.5-0.8,3.5-2.5v-0.1c0-1.7-1.2-2.5-3.5-2.5H260.9z"/>
	<path class="st5" d="M313.1,880.6l-2.2-4.5H295l-2.1,4.5h-10.8l13.8-27.8h14.3l14.6,27.8H313.1z M307.5,869.1l-4.7-9.6l-4.6,9.6
		H307.5z"/>
	<path class="st5" d="M342,881.1h-0.9c-2.9,0-5.5-0.3-7.8-0.9c-2.3-0.6-4.1-1.4-5.4-2.3c-1.3-0.9-2.5-2-3.3-3.3
		c-0.9-1.3-1.5-2.5-1.8-3.7c-0.3-1.2-0.5-2.5-0.5-3.7v-1c0-1.3,0.1-2.6,0.4-3.8c0.3-1.2,0.9-2.4,1.8-3.7s2-2.3,3.4-3.3
		c1.4-0.9,3.3-1.7,5.7-2.2c2.4-0.6,5.2-0.9,8.3-0.9h1.5c3.2,0,6.1,0.3,8.6,0.8c2.5,0.5,4.4,1.1,5.7,1.9c1.3,0.7,2.4,1.6,3.3,2.7
		c0.8,1,1.4,2,1.6,2.8c0.2,0.8,0.4,1.7,0.4,2.6v0H352c-0.1-0.2-0.1-0.4-0.2-0.7s-0.4-0.5-0.8-0.9c-0.4-0.4-0.9-0.7-1.5-1
		c-0.6-0.3-1.5-0.5-2.6-0.7c-1.1-0.2-2.5-0.3-3.9-0.3c-6.4,0-9.6,2.3-9.6,6.9v0.4c0,2,0.8,3.6,2.4,5s4,2,7.2,2
		c1.4,0,2.6-0.1,3.7-0.3c1.1-0.2,2-0.4,2.7-0.7c0.7-0.3,1.3-0.6,1.8-0.9c0.5-0.3,0.8-0.6,1-0.9c0.2-0.3,0.3-0.5,0.3-0.7h-9.8v-5.4
		h20.6v15.7h-6.7c-0.3-1.5-0.7-2.8-1.3-3.9C352.6,879.6,348.2,881.1,342,881.1z"/>
	<path class="st5" d="M366.7,852.7h30.8v6.8h-20.3v3.5h19.9v6.8h-19.9v3.8h20.6v7h-31.1V852.7z"/>
	<path class="st5" d="M422.8,852.7v27.8h-10.6v-27.8H422.8z"/>
	<path class="st5" d="M445.5,881.1h-3.4c-11.3,0-17-3.3-17-9.9v-0.4h11.7c0.2,2.6,2.5,3.9,7,3.9h0.3c1.4,0,2.6-0.1,3.6-0.2
		c0.9-0.1,1.6-0.3,2.1-0.6s0.8-0.5,0.9-0.8c0.2-0.3,0.2-0.6,0.2-1v0c0-0.5-0.1-0.9-0.4-1.3c-0.3-0.3-0.9-0.6-1.9-0.8
		s-2.4-0.4-4.3-0.4l-5.2-0.1c-9.1-0.2-13.7-3-13.7-8.4v-0.3c0-1,0.1-1.9,0.4-2.6c0.3-0.8,0.8-1.6,1.5-2.3c0.7-0.7,1.7-1.4,2.8-1.9
		c1.2-0.5,2.7-0.9,4.6-1.2c1.9-0.3,4.1-0.5,6.6-0.5h3.3c11.3,0,16.9,2.9,16.9,8.8v0.3h-11.6c-0.2-2-2.5-3-6.7-3h-0.4
		c-1.7,0-3.1,0.1-4,0.3s-1.5,0.4-1.8,0.7s-0.3,0.6-0.3,1v0c0,0.4,0.1,0.8,0.4,1c0.3,0.3,0.9,0.5,1.8,0.7c0.9,0.2,2.2,0.3,3.9,0.4
		l5,0.1c5.3,0.2,9,0.9,11.3,2.2c2.3,1.3,3.4,3.4,3.4,6.2v0.5c0,1-0.1,2-0.4,2.8c-0.2,0.8-0.7,1.7-1.5,2.5c-0.7,0.9-1.7,1.6-3,2.2
		c-1.2,0.6-2.9,1.1-5,1.4S448.4,881.1,445.5,881.1z"/>
	<path class="st5" d="M476.3,866v-13.3h10.7v12.5c0,0.9,0.1,1.8,0.4,2.6c0.2,0.8,0.7,1.6,1.2,2.4c0.6,0.8,1.5,1.4,2.6,1.8
		c1.2,0.4,2.6,0.7,4.3,0.7c1.6,0,3.1-0.2,4.2-0.7c1.2-0.4,2.1-1.1,2.6-1.8c0.6-0.8,1-1.5,1.3-2.4s0.4-1.7,0.4-2.6v-12.5h10.6V866
		c0,1.2-0.1,2.5-0.4,3.7c-0.2,1.2-0.8,2.5-1.6,3.9c-0.8,1.4-1.8,2.7-3.1,3.7s-3.1,1.9-5.4,2.6c-2.3,0.7-4.9,1.1-7.9,1.1h-1.5
		c-3.1,0-5.8-0.4-8.1-1.1s-4.1-1.6-5.4-2.6c-1.3-1-2.3-2.3-3.1-3.7s-1.3-2.7-1.5-3.9S476.3,867.3,476.3,866z"/>
	<path class="st5" d="M517.9,852.7h11.9l16.2,15.8v-15.8h10.6v27.8h-10.6l-17.4-16.9v16.9h-10.6V852.7z"/>
	<path class="st5" d="M560.1,880.6v-27.8h19.8c3.1,0,5.8,0.2,8.2,0.7c2.4,0.5,4.3,1.2,5.8,2c1.5,0.8,2.7,1.8,3.6,3s1.6,2.4,1.9,3.6
		c0.3,1.2,0.5,2.5,0.5,3.9v1.1c0,1.4-0.2,2.7-0.5,3.9c-0.3,1.2-0.9,2.4-1.8,3.6c-0.9,1.2-2.1,2.3-3.5,3.1c-1.4,0.9-3.4,1.6-5.8,2.1
		s-5.2,0.8-8.4,0.8H560.1z M570.7,860v13.2h7.9c6.9,0,10.3-2.2,10.3-6.5v-0.2c0-4.3-3.4-6.4-10.3-6.4H570.7z"/>
	<path class="st5" d="M602.5,852.7h30.8v6.8H613v3.5h19.9v6.8H613v3.8h20.6v7h-31.1V852.7z"/>
	<path class="st5" d="M647.3,871v9.5h-10.6v-27.8H662c7.8,0,11.7,2.4,11.7,7.1v0.4c0,0.9-0.2,1.8-0.6,2.6s-0.9,1.4-1.5,1.9
		c-0.6,0.5-1.2,0.8-1.8,1.1c-0.6,0.3-1.2,0.5-1.8,0.6c1.8,0.4,3.2,1.2,4.2,2.3c1,1.1,1.5,2.6,1.5,4.3v4.1c0,1.4,0.2,2.5,0.5,3.1v0.2
		h-10.9c-0.2-0.2-0.3-0.7-0.3-1.5v-3.3c0-1.6-0.4-2.9-1.3-3.6c-0.9-0.8-2.3-1.2-4.4-1.2H647.3z M647.3,859.5v4.8h12.2
		c2.1,0,3.2-0.8,3.2-2.4v0c0-1.6-1.1-2.4-3.2-2.4H647.3z"/>
	<path class="st5" d="M180.8,926h-1.5c-3.3,0-6.1-0.3-8.6-1c-2.5-0.6-4.4-1.5-5.7-2.4c-1.4-1-2.5-2.1-3.3-3.4
		c-0.8-1.3-1.4-2.5-1.6-3.7s-0.4-2.3-0.4-3.5v-1.1c0-1.2,0.1-2.4,0.4-3.5c0.2-1.1,0.8-2.3,1.6-3.6c0.8-1.3,1.9-2.4,3.3-3.4
		s3.3-1.7,5.8-2.4c2.5-0.6,5.4-1,8.7-1h1.5c2.3,0,4.4,0.2,6.4,0.4c1.9,0.3,3.6,0.7,4.9,1.2c1.3,0.5,2.5,1,3.5,1.7
		c1,0.7,1.8,1.3,2.4,2c0.6,0.7,1,1.4,1.4,2.2c0.4,0.8,0.6,1.4,0.7,2s0.2,1.2,0.2,1.8v0.5h-11c-0.8-2.8-3.9-4.3-9.2-4.3
		c-6.2,0-9.3,2.2-9.3,6.5v0.4c0,0.8,0.1,1.6,0.4,2.4c0.3,0.7,0.8,1.5,1.4,2.2s1.6,1.3,2.9,1.7c1.3,0.4,2.8,0.6,4.6,0.6
		c1.5,0,2.9-0.1,4.1-0.4c1.2-0.3,2.1-0.6,2.7-1c0.6-0.3,1.1-0.8,1.5-1.3c0.4-0.5,0.6-0.9,0.7-1.1s0.1-0.5,0.2-0.7h11v0.6
		c0,0.8-0.1,1.7-0.4,2.6c-0.2,0.9-0.8,1.9-1.6,3s-1.9,2.1-3.3,2.9c-1.3,0.8-3.2,1.5-5.7,2.1C186.8,925.7,184,926,180.8,926z"/>
	<path class="st5" d="M222.1,897.1h1.7c2.5,0,4.7,0.2,6.8,0.5c2,0.3,3.7,0.8,5.1,1.3c1.4,0.5,2.6,1.2,3.6,2c1,0.8,1.9,1.6,2.5,2.4
		c0.6,0.8,1.1,1.7,1.4,2.6c0.4,0.9,0.6,1.8,0.7,2.6s0.2,1.6,0.2,2.4v1.1c0,0.8-0.1,1.7-0.2,2.4s-0.3,1.6-0.7,2.6
		c-0.4,1-0.8,1.8-1.4,2.7c-0.6,0.8-1.4,1.6-2.5,2.4c-1,0.8-2.3,1.5-3.6,2c-1.4,0.5-3.1,1-5.1,1.3s-4.3,0.5-6.8,0.5h-1.7
		c-2.5,0-4.8-0.2-6.8-0.5c-2-0.3-3.7-0.8-5.1-1.3s-2.6-1.2-3.6-2c-1-0.8-1.9-1.6-2.5-2.4c-0.6-0.8-1.1-1.7-1.4-2.7
		c-0.4-1-0.6-1.8-0.7-2.6s-0.2-1.6-0.2-2.4v-1.1c0-0.8,0.1-1.7,0.2-2.4s0.3-1.6,0.7-2.6c0.4-0.9,0.8-1.8,1.4-2.6
		c0.6-0.8,1.4-1.6,2.5-2.4c1-0.8,2.3-1.4,3.6-2c1.4-0.5,3.1-1,5.1-1.3C217.3,897.3,219.6,897.1,222.1,897.1z M233.1,911.7v-0.5
		c0-0.8-0.1-1.6-0.4-2.3c-0.3-0.7-0.8-1.4-1.5-2.1c-0.7-0.7-1.8-1.2-3.2-1.6c-1.4-0.4-3.1-0.6-5-0.6c-2,0-3.7,0.2-5.1,0.6
		c-1.4,0.4-2.4,0.9-3.1,1.6c-0.7,0.7-1.2,1.4-1.5,2.1c-0.3,0.7-0.4,1.5-0.4,2.3v0.4c0,0.8,0.1,1.6,0.4,2.3c0.3,0.7,0.8,1.5,1.5,2.2
		c0.7,0.7,1.8,1.3,3.2,1.7c1.4,0.4,3.1,0.6,5,0.6s3.6-0.2,5-0.6c1.4-0.4,2.5-1,3.2-1.7c0.7-0.7,1.2-1.4,1.5-2.2
		C232.9,913.3,233.1,912.5,233.1,911.7z"/>
	<path class="st5" d="M246.7,897.6h11.9l16.2,15.8v-15.8h10.6v27.8h-10.6l-17.4-16.9v16.9h-10.6V897.6z"/>
	<path class="st5" d="M308.1,926h-3.4c-11.3,0-17-3.3-17-9.9v-0.4h11.7c0.2,2.6,2.5,3.9,7,3.9h0.3c1.4,0,2.6-0.1,3.6-0.2
		c0.9-0.1,1.6-0.3,2.1-0.6c0.4-0.3,0.8-0.5,0.9-0.8c0.2-0.3,0.2-0.6,0.2-1v0c0-0.5-0.1-0.9-0.4-1.3c-0.3-0.3-0.9-0.6-1.9-0.8
		c-1-0.2-2.4-0.4-4.3-0.4l-5.2-0.1c-9.1-0.2-13.7-3-13.7-8.4v-0.3c0-1,0.1-1.9,0.4-2.6c0.3-0.8,0.8-1.6,1.5-2.3
		c0.7-0.7,1.7-1.4,2.8-1.9c1.2-0.5,2.7-0.9,4.6-1.2c1.9-0.3,4.1-0.5,6.6-0.5h3.3c11.3,0,16.9,2.9,16.9,8.8v0.3h-11.6
		c-0.2-2-2.5-3-6.7-3h-0.4c-1.7,0-3.1,0.1-4,0.3c-0.9,0.2-1.5,0.4-1.8,0.7s-0.3,0.6-0.3,1v0c0,0.4,0.1,0.8,0.4,1
		c0.3,0.3,0.9,0.5,1.8,0.7c0.9,0.2,2.2,0.3,3.9,0.4l5,0.1c5.3,0.2,9,0.9,11.3,2.2c2.3,1.3,3.4,3.4,3.4,6.2v0.5c0,1-0.1,2-0.4,2.8
		c-0.2,0.8-0.7,1.7-1.5,2.5c-0.7,0.9-1.7,1.6-3,2.2c-1.2,0.6-2.9,1.1-5,1.4C313.3,925.8,310.9,926,308.1,926z"/>
	<path class="st5" d="M338,925.5v-20.2h-12v-7.6h34.7v7.6h-12v20.2H338z"/>
	<path class="st5" d="M374,915.9v9.5h-10.6v-27.8h25.3c7.8,0,11.7,2.4,11.7,7.1v0.4c0,0.9-0.2,1.8-0.6,2.6c-0.4,0.8-0.9,1.4-1.5,1.9
		c-0.6,0.5-1.2,0.8-1.8,1.1c-0.6,0.3-1.2,0.5-1.8,0.6c1.8,0.4,3.2,1.2,4.2,2.3c1,1.1,1.5,2.6,1.5,4.3v4.1c0,1.4,0.2,2.5,0.5,3.1v0.2
		h-10.9c-0.2-0.2-0.3-0.7-0.3-1.5v-3.3c0-1.6-0.4-2.9-1.3-3.6c-0.9-0.8-2.3-1.2-4.4-1.2H374z M374,904.4v4.8h12.2
		c2.1,0,3.2-0.8,3.2-2.4v0c0-1.6-1.1-2.4-3.2-2.4H374z"/>
	<path class="st5" d="M403.1,910.9v-13.3h10.7v12.5c0,0.9,0.1,1.8,0.4,2.6c0.2,0.8,0.7,1.6,1.2,2.4c0.6,0.8,1.5,1.4,2.6,1.8
		c1.2,0.4,2.6,0.7,4.3,0.7c1.6,0,3.1-0.2,4.2-0.7c1.2-0.4,2.1-1.1,2.6-1.8c0.6-0.8,1-1.5,1.3-2.4s0.4-1.7,0.4-2.6v-12.5h10.6v13.3
		c0,1.2-0.1,2.5-0.4,3.7c-0.2,1.2-0.8,2.5-1.6,3.9c-0.8,1.4-1.8,2.7-3.1,3.7s-3.1,1.9-5.4,2.6c-2.3,0.7-4.9,1.1-7.9,1.1h-1.5
		c-3.1,0-5.8-0.4-8.1-1.1s-4.1-1.6-5.4-2.6c-1.3-1-2.3-2.3-3.1-3.7s-1.3-2.7-1.5-3.9S403.1,912.2,403.1,910.9z"/>
	<path class="st5" d="M464.9,926h-1.5c-3.3,0-6.1-0.3-8.6-1c-2.5-0.6-4.4-1.5-5.7-2.4c-1.4-1-2.5-2.1-3.3-3.4
		c-0.8-1.3-1.4-2.5-1.6-3.7c-0.2-1.1-0.4-2.3-0.4-3.5v-1.1c0-1.2,0.1-2.4,0.4-3.5c0.2-1.1,0.8-2.3,1.6-3.6c0.8-1.3,1.9-2.4,3.3-3.4
		c1.4-0.9,3.3-1.7,5.8-2.4c2.5-0.6,5.4-1,8.7-1h1.5c2.3,0,4.4,0.2,6.4,0.4c1.9,0.3,3.6,0.7,4.9,1.2c1.3,0.5,2.5,1,3.5,1.7
		s1.8,1.3,2.4,2c0.6,0.7,1,1.4,1.4,2.2c0.4,0.8,0.6,1.4,0.7,2s0.2,1.2,0.2,1.8v0.5h-11c-0.8-2.8-3.9-4.3-9.2-4.3
		c-6.2,0-9.3,2.2-9.3,6.5v0.4c0,0.8,0.1,1.6,0.4,2.4c0.3,0.7,0.8,1.5,1.4,2.2c0.7,0.7,1.6,1.3,2.9,1.7c1.3,0.4,2.8,0.6,4.6,0.6
		c1.5,0,2.9-0.1,4.1-0.4s2.1-0.6,2.7-1c0.6-0.3,1.1-0.8,1.5-1.3c0.4-0.5,0.6-0.9,0.7-1.1s0.1-0.5,0.2-0.7h11v0.6
		c0,0.8-0.1,1.7-0.4,2.6c-0.2,0.9-0.8,1.9-1.6,3c-0.8,1.1-1.9,2.1-3.3,2.9s-3.2,1.5-5.7,2.1C470.9,925.7,468.1,926,464.9,926z"/>
	<path class="st5" d="M497.5,925.5v-20.2h-12v-7.6h34.7v7.6h-12v20.2H497.5z"/>
	<path class="st5" d="M533.5,897.6v27.8h-10.6v-27.8H533.5z"/>
	<path class="st5" d="M556.5,897.1h1.7c2.5,0,4.7,0.2,6.8,0.5s3.7,0.8,5.1,1.3c1.4,0.5,2.6,1.2,3.6,2c1,0.8,1.9,1.6,2.5,2.4
		c0.6,0.8,1.1,1.7,1.4,2.6c0.4,0.9,0.6,1.8,0.7,2.6s0.2,1.6,0.2,2.4v1.1c0,0.8-0.1,1.7-0.2,2.4s-0.3,1.6-0.7,2.6
		c-0.4,1-0.8,1.8-1.4,2.7c-0.6,0.8-1.4,1.6-2.5,2.4c-1,0.8-2.3,1.5-3.6,2c-1.4,0.5-3.1,1-5.1,1.3c-2,0.3-4.3,0.5-6.8,0.5h-1.7
		c-2.5,0-4.8-0.2-6.8-0.5c-2-0.3-3.7-0.8-5.1-1.3s-2.6-1.2-3.6-2c-1-0.8-1.9-1.6-2.5-2.4c-0.6-0.8-1.1-1.7-1.4-2.7
		c-0.4-1-0.6-1.8-0.7-2.6s-0.2-1.6-0.2-2.4v-1.1c0-0.8,0.1-1.7,0.2-2.4s0.3-1.6,0.7-2.6c0.4-0.9,0.8-1.8,1.4-2.6
		c0.6-0.8,1.4-1.6,2.5-2.4c1-0.8,2.3-1.4,3.6-2c1.4-0.5,3.1-1,5.1-1.3C551.7,897.3,554,897.1,556.5,897.1z M567.5,911.7v-0.5
		c0-0.8-0.1-1.6-0.4-2.3c-0.3-0.7-0.8-1.4-1.5-2.1c-0.7-0.7-1.8-1.2-3.2-1.6c-1.4-0.4-3.1-0.6-5-0.6c-2,0-3.7,0.2-5.1,0.6
		c-1.4,0.4-2.4,0.9-3.1,1.6c-0.7,0.7-1.2,1.4-1.5,2.1c-0.3,0.7-0.4,1.5-0.4,2.3v0.4c0,0.8,0.1,1.6,0.4,2.3c0.3,0.7,0.8,1.5,1.5,2.2
		c0.7,0.7,1.8,1.3,3.2,1.7c1.4,0.4,3.1,0.6,5,0.6c1.9,0,3.6-0.2,5-0.6c1.4-0.4,2.5-1,3.2-1.7s1.2-1.4,1.5-2.2
		C567.3,913.3,567.5,912.5,567.5,911.7z"/>
	<path class="st5" d="M581.1,897.6H593l16.2,15.8v-15.8h10.6v27.8h-10.6l-17.4-16.9v16.9h-10.6V897.6z"/>
</g>
<g>
	<path class="st5" d="M254.7,968h-1.7c-1.9,0-3.6-0.2-5-0.5c-1.4-0.4-2.6-0.8-3.4-1.4c-0.8-0.5-1.4-1.2-1.9-2
		c-0.5-0.8-0.8-1.5-1-2.1c-0.1-0.7-0.2-1.4-0.2-2.1v-0.5c0-5.3,3.8-7.9,11.5-7.9h1.8c2,0,3.7,0.2,5.2,0.5c1.5,0.4,2.6,0.8,3.4,1.3
		c0.8,0.5,1.4,1.1,1.9,1.8c0.5,0.7,0.8,1.3,0.9,1.8c0.1,0.5,0.2,1,0.2,1.6v0.1h-8.1c0-0.2-0.1-0.5-0.2-0.7c-0.1-0.2-0.3-0.5-0.6-0.9
		c-0.3-0.3-0.7-0.6-1.3-0.8c-0.6-0.2-1.4-0.3-2.2-0.3h-0.1c-1.6,0-2.6,0.3-3.3,1c-0.6,0.7-1,1.6-1,2.6v0.1c0,1.1,0.3,2,1,2.8
		c0.7,0.8,1.7,1.1,3.3,1.1h0.1c0.9,0,1.6-0.1,2.2-0.3s1.1-0.5,1.3-0.9c0.3-0.4,0.5-0.7,0.6-0.9c0.1-0.2,0.2-0.5,0.2-0.7h8.1v0.1
		c0,0.4,0,0.7-0.1,1.1c0,0.3-0.2,0.8-0.3,1.3c-0.2,0.5-0.4,1-0.7,1.4c-0.3,0.4-0.8,0.9-1.4,1.3c-0.6,0.4-1.3,0.8-2.1,1.1
		c-0.8,0.3-1.8,0.6-3,0.8C257.5,967.9,256.2,968,254.7,968z"/>
	<path class="st5" d="M281.2,968h-2.2c-1.9,0-3.6-0.2-5.1-0.5c-1.5-0.4-2.6-0.8-3.4-1.3c-0.8-0.5-1.5-1.2-2.1-1.9
		c-0.5-0.8-0.9-1.5-1-2.2c-0.2-0.7-0.3-1.4-0.3-2.2v-0.5c0-0.7,0.1-1.4,0.3-2.1c0.2-0.7,0.5-1.4,1-2.1c0.5-0.7,1.2-1.4,2-1.9
		c0.8-0.5,2-1,3.4-1.3c1.5-0.3,3.2-0.5,5.1-0.5h2.2c7.9,0,11.8,2.6,11.8,7.9v0.5c0,0.8-0.1,1.5-0.2,2.1c-0.1,0.7-0.5,1.4-0.9,2.1
		s-1.1,1.4-2,1.9c-0.8,0.5-2,1-3.5,1.3C285,967.8,283.3,968,281.2,968z M280.2,955.9L280.2,955.9c-1.8,0-3.1,0.4-3.8,1.1
		c-0.7,0.7-1.1,1.6-1.1,2.6v0.1c0,1,0.4,2,1.1,2.7c0.7,0.8,2,1.1,3.8,1.1h0c1.7,0,3-0.4,3.8-1.2s1.1-1.7,1.1-2.7v-0.1
		c0-1-0.4-1.9-1.1-2.6C283.2,956.2,282,955.9,280.2,955.9z"/>
	<path class="st5" d="M302.7,967.5h-7.9v-15.6h7.9v2.8c2.1-2.1,4.7-3.1,7.8-3.1h0.2c3.1,0,5.3,1.1,6.5,3.2c2.3-2.2,5-3.2,8.2-3.2
		h0.2c1.3,0,2.5,0.2,3.5,0.6c1,0.4,1.7,0.9,2.3,1.5c0.5,0.6,0.9,1.3,1.1,1.9c0.2,0.7,0.4,1.3,0.4,2v10.1h-7.9V960
		c0-2.4-1.1-3.6-3.2-3.6c-1.2,0-2.1,0.4-2.8,1.1c-0.7,0.7-1,1.6-1,2.7v7.3h-7.9V960c0-2.4-1.1-3.6-3.2-3.6c-1.2,0-2.1,0.4-2.8,1.1
		c-0.7,0.7-1,1.6-1,2.7V967.5z"/>
	<path class="st5" d="M342.9,945.9v4.7H335v-4.7H342.9z M342.9,951.9v15.6H335v-15.6H342.9z"/>
	<path class="st5" d="M345.2,967.5v-15.6h7.9v2.8c0.3-0.3,0.5-0.5,0.7-0.6c0.2-0.1,0.5-0.4,1.1-0.8s1.1-0.7,1.6-0.9
		c0.5-0.2,1.2-0.4,2.1-0.6c0.8-0.2,1.7-0.3,2.7-0.3h0.2c1.4,0,2.6,0.2,3.7,0.6c1,0.4,1.8,0.9,2.4,1.5c0.6,0.6,1,1.2,1.2,1.9
		c0.3,0.7,0.4,1.3,0.4,2v10.1h-7.9V960c0-1.1-0.3-2-0.9-2.6c-0.6-0.6-1.6-1-2.9-1s-2.3,0.3-3.1,1c-0.7,0.7-1.1,1.6-1.1,2.8v7.3
		H345.2z"/>
	<path class="st5" d="M384.9,973.2h-2.2c-1.8,0-3.5-0.1-4.9-0.4c-1.4-0.3-2.5-0.6-3.2-1c-0.7-0.4-1.3-0.9-1.8-1.4s-0.7-1-0.9-1.4
		c-0.1-0.4-0.2-0.8-0.2-1.2v-0.1h7.9c0.2,0.9,1.6,1.3,4.1,1.3h0.1c3.2,0,4.7-1.3,4.7-4v-0.3c-1.6,1.6-4.1,2.3-7.6,2.3h-0.5
		c-3.3,0-5.8-0.7-7.4-2.1c-1.6-1.4-2.4-3.2-2.4-5.3v-0.5c0-2.1,0.7-3.8,2.2-5.2c1.5-1.4,3.8-2.1,7-2.1h0.6c3.5,0,6.1,0.8,7.9,2.3v-2
		h7.9v13c0,0.7-0.1,1.4-0.2,2.1c-0.2,0.7-0.5,1.4-1,2.2c-0.5,0.8-1.2,1.4-2,2s-1.9,1-3.4,1.4C388.4,973,386.7,973.2,384.9,973.2z
		 M383.4,956h-0.2c-1.6,0-2.8,0.3-3.5,0.9c-0.7,0.6-1.1,1.3-1.1,2.2v0.1c0,0.9,0.4,1.7,1.1,2.4c0.7,0.6,1.9,1,3.4,1h0.2
		c1.6,0,2.9-0.3,3.7-1c0.9-0.6,1.3-1.4,1.3-2.3v-0.1c0-0.9-0.4-1.7-1.3-2.3C386.3,956.3,385.1,956,383.4,956z"/>
	<path class="st5" d="M418.8,968h-1.6c-7,0-10.4-1.9-10.4-5.6v-0.2h8.1c0,0.2,0,0.4,0.1,0.6c0.1,0.2,0.2,0.4,0.4,0.6
		c0.2,0.2,0.5,0.4,1,0.6c0.5,0.1,1.1,0.2,1.7,0.2h0.1c1.3,0,2.1-0.1,2.6-0.3c0.4-0.2,0.7-0.6,0.7-1v-0.1c0-0.4-0.2-0.7-0.6-0.9
		c-0.4-0.2-1.2-0.3-2.4-0.4l-3.3-0.1c-5.4-0.2-8.1-1.8-8.1-4.9v-0.2c0-0.7,0.1-1.3,0.4-1.8s0.8-1,1.5-1.5c0.7-0.5,1.8-0.9,3.2-1.1
		s3.1-0.4,5.2-0.4h1.5c6.8,0,10.3,1.6,10.3,4.9v0.2h-7.9c0-0.3-0.1-0.5-0.2-0.6c-0.1-0.2-0.4-0.3-0.9-0.5c-0.5-0.2-1.2-0.3-2.1-0.3
		h0c-1.2,0-2,0.1-2.4,0.2s-0.6,0.4-0.6,0.8v0c0,0.3,0.2,0.6,0.6,0.8c0.4,0.2,1.2,0.3,2.3,0.3l3.3,0.1c2.3,0.1,4.1,0.3,5.4,0.7
		s2.1,0.9,2.5,1.6c0.4,0.7,0.6,1.5,0.6,2.6v0.2c0,0.6-0.1,1.2-0.2,1.7c-0.2,0.5-0.5,1-0.9,1.5c-0.5,0.5-1.1,0.9-1.9,1.2
		c-0.8,0.3-1.8,0.6-3.1,0.8C422.2,967.9,420.6,968,418.8,968z"/>
	<path class="st5" d="M444.7,968h-2.2c-1.9,0-3.6-0.2-5.1-0.5s-2.6-0.8-3.4-1.3c-0.8-0.5-1.5-1.2-2.1-1.9c-0.5-0.8-0.9-1.5-1-2.2
		c-0.2-0.7-0.3-1.4-0.3-2.2v-0.5c0-0.7,0.1-1.4,0.3-2.1s0.5-1.4,1-2.1c0.5-0.7,1.2-1.4,2-1.9c0.8-0.5,2-1,3.4-1.3
		c1.5-0.3,3.2-0.5,5.1-0.5h2.2c7.9,0,11.8,2.6,11.8,7.9v0.5c0,0.8-0.1,1.5-0.2,2.1c-0.1,0.7-0.5,1.4-0.9,2.1s-1.1,1.4-2,1.9
		c-0.8,0.5-2,1-3.5,1.3C448.4,967.8,446.7,968,444.7,968z M443.6,955.9L443.6,955.9c-1.8,0-3.1,0.4-3.8,1.1
		c-0.7,0.7-1.1,1.6-1.1,2.6v0.1c0,1,0.4,2,1.1,2.7c0.7,0.8,2,1.1,3.8,1.1h0c1.7,0,3-0.4,3.8-1.2c0.8-0.8,1.1-1.7,1.1-2.7v-0.1
		c0-1-0.4-1.9-1.1-2.6C446.6,956.2,445.4,955.9,443.6,955.9z"/>
	<path class="st5" d="M471.6,968h-2.2c-1.9,0-3.6-0.2-5.1-0.5s-2.6-0.8-3.4-1.3c-0.8-0.5-1.5-1.2-2.1-1.9c-0.5-0.8-0.9-1.5-1-2.2
		c-0.2-0.7-0.3-1.4-0.3-2.2v-0.5c0-0.7,0.1-1.4,0.3-2.1s0.5-1.4,1-2.1c0.5-0.7,1.2-1.4,2-1.9c0.8-0.5,2-1,3.4-1.3
		c1.5-0.3,3.2-0.5,5.1-0.5h2.2c7.9,0,11.8,2.6,11.8,7.9v0.5c0,0.8-0.1,1.5-0.2,2.1c-0.1,0.7-0.5,1.4-0.9,2.1s-1.1,1.4-2,1.9
		c-0.8,0.5-2,1-3.5,1.3C475.4,967.8,473.6,968,471.6,968z M470.6,955.9L470.6,955.9c-1.8,0-3.1,0.4-3.8,1.1
		c-0.7,0.7-1.1,1.6-1.1,2.6v0.1c0,1,0.4,2,1.1,2.7c0.7,0.8,2,1.1,3.8,1.1h0c1.7,0,3-0.4,3.8-1.2c0.8-0.8,1.1-1.7,1.1-2.7v-0.1
		c0-1-0.4-1.9-1.1-2.6C473.6,956.2,472.3,955.9,470.6,955.9z"/>
	<path class="st5" d="M485.2,967.5v-15.6h7.9v2.8c0.3-0.3,0.5-0.5,0.7-0.6c0.2-0.1,0.5-0.4,1.1-0.8s1.1-0.7,1.6-0.9
		c0.5-0.2,1.2-0.4,2.1-0.6c0.8-0.2,1.7-0.3,2.7-0.3h0.2c1.4,0,2.6,0.2,3.7,0.6c1,0.4,1.8,0.9,2.4,1.5c0.6,0.6,1,1.2,1.2,1.9
		c0.3,0.7,0.4,1.3,0.4,2v10.1H501V960c0-1.1-0.3-2-0.9-2.6c-0.6-0.6-1.6-1-2.9-1c-1.3,0-2.3,0.3-3.1,1c-0.7,0.7-1.1,1.6-1.1,2.8v7.3
		H485.2z"/>
	<path class="st5" d="M519.2,961.8v5.7H511v-5.7H519.2z"/>
	<path class="st5" d="M529.2,961.8v5.7H521v-5.7H529.2z"/>
	<path class="st5" d="M539.2,961.8v5.7H531v-5.7H539.2z"/>
</g>
</svg>
