<svg xmlns="http://www.w3.org/2000/svg" viewBox="0 0 42.29 36.46"><g id="Layer_2" data-name="Layer 2"><g id="Layer_1-2" data-name="Layer 1"><polygon points="0.65 35.8 0.65 33.48 2.13 33.48 2.13 33.81 1.02 33.81 1.02 34.45 2.03 34.45 2.03 34.79 1.02 34.79 1.02 35.46 2.13 35.46 2.13 35.8 0.65 35.8"/><path d="M3.62,35.51h0a.52.52,0,0,1-.06.13l-.09.1a.35.35,0,0,1-.15.07H3.13a.54.54,0,0,1-.41-.17.69.69,0,0,1-.14-.5V34h.36v1.05c0,.27.11.41.33.41H3.4l.12,0,.09-.1a.29.29,0,0,0,0-.13V34.06H4v1.73H3.61Z"/><path d="M4.51,35.8V34.07h.37v.33h0A.51.51,0,0,1,5,34.17a.48.48,0,0,1,.33-.1h.12v.35H5.33a.52.52,0,0,0-.32.07.22.22,0,0,0-.12.2V35.8Z"/><path d="M6.51,35.84a.78.78,0,0,1-.33-.07.72.72,0,0,1-.25-.18.78.78,0,0,1-.16-.28,1.21,1.21,0,0,1-.06-.38,1.19,1.19,0,0,1,.06-.37.92.92,0,0,1,.16-.29.72.72,0,0,1,.27-.15.94.94,0,0,1,.66,0,.61.61,0,0,1,.24.18.64.64,0,0,1,.16.29.8.8,0,0,1,.06.37.82.82,0,0,1-.06.38.66.66,0,0,1-.16.28.61.61,0,0,1-.24.18.78.78,0,0,1-.33.07m0-.31a.38.38,0,0,0,.3-.11.48.48,0,0,0,.11-.34v-.29a.45.45,0,0,0-.11-.34.44.44,0,0,0-.6,0,.45.45,0,0,0-.11.34v.29a.47.47,0,0,0,.11.34.38.38,0,0,0,.3.11m0-1.67-.23-.1.3-.61.32.16Z"/><path d="M7.74,34.07H8.1v.28h0a.45.45,0,0,1,.19-.24A.6.6,0,0,1,8.58,34a.62.62,0,0,1,.51.23,1.34,1.34,0,0,1,0,1.34.6.6,0,0,1-.51.24.5.5,0,0,1-.29-.09.41.41,0,0,1-.19-.24h0v1H7.74Zm.72,1.45a.43.43,0,0,0,.31-.12.47.47,0,0,0,.1-.32v-.3a.48.48,0,0,0-.1-.33.41.41,0,0,0-.31-.11.4.4,0,0,0-.28.08.24.24,0,0,0-.11.21v.59a.24.24,0,0,0,.11.21.47.47,0,0,0,.28.09"/><path d="M11,35.8a.35.35,0,0,1-.22-.08.43.43,0,0,1-.09-.21h0a.4.4,0,0,1-.18.24.62.62,0,0,1-.32.09.56.56,0,0,1-.42-.15.46.46,0,0,1-.14-.37.44.44,0,0,1,.19-.39.92.92,0,0,1,.54-.13h.31v-.14a.33.33,0,0,0-.08-.25.38.38,0,0,0-.27-.09.38.38,0,0,0-.25.08.61.61,0,0,0-.16.16l-.22-.19a.62.62,0,0,1,.24-.24.87.87,0,0,1,.42-.1.74.74,0,0,1,.51.16.57.57,0,0,1,.18.45v.86h.18v.3Zm-.72-.24a.39.39,0,0,0,.27-.08.21.21,0,0,0,.11-.19V35h-.3c-.25,0-.38.08-.38.24v.06a.25.25,0,0,0,.08.18.33.33,0,0,0,.22.05"/><polygon points="13.16 34.72 12.84 35.08 12.84 35.8 12.47 35.8 12.47 33.48 12.84 33.48 12.84 34.66 12.86 34.66 13.19 34.24 13.82 33.48 14.26 33.48 13.43 34.45 14.32 35.8 13.87 35.8 13.16 34.72"/><path d="M15.64,35.51h0l-.06.13-.1.1a.37.37,0,0,1-.14.07h-.19a.49.49,0,0,1-.41-.17.74.74,0,0,1-.15-.5V34H15v1.05c0,.27.11.41.33.41h.14l.12,0a.39.39,0,0,0,.08-.1.15.15,0,0,0,0-.13V34.06H16v1.73h-.35Z"/><path d="M16.92,35.8a.33.33,0,0,1-.37-.28.11.11,0,0,1,0-.08v-2.1h.36v2.17h.24v.3Z"/><path d="M18,35.8a.37.37,0,0,1-.28-.1.36.36,0,0,1-.1-.28V34.37H17.3v-.3h.15a.22.22,0,0,0,.13,0,.29.29,0,0,0,0-.13v-.3h.32v.47h.37v.3H17.9V35.5h.34v.3Z"/><path d="M19.74,35.51h0l-.06.13-.1.1a.37.37,0,0,1-.14.07h-.19a.49.49,0,0,1-.41-.17.69.69,0,0,1-.15-.5V34h.36v1.05c0,.27.11.41.33.41h.14l.12,0a.39.39,0,0,0,.08-.1.29.29,0,0,0,0-.13V34.06h.36v1.73h-.36Z"/><path d="M20.63,35.8V34.07H21v.33h0a.46.46,0,0,1,.16-.23.46.46,0,0,1,.32-.1h.1v.35h-.13a.52.52,0,0,0-.32.07.22.22,0,0,0-.12.2V35.8Z"/><path d="M23.23,35.8a.35.35,0,0,1-.22-.08.36.36,0,0,1-.09-.21h0a.41.41,0,0,1-.19.24.62.62,0,0,1-.32.09.56.56,0,0,1-.42-.15.49.49,0,0,1-.14-.37.44.44,0,0,1,.19-.39,1,1,0,0,1,.55-.13h.3v-.14a.33.33,0,0,0-.08-.25.44.44,0,0,0-.27-.09.38.38,0,0,0-.25.08.49.49,0,0,0-.16.16l-.22-.19a.57.57,0,0,1,.26-.25.71.71,0,0,1,.41-.09.73.73,0,0,1,.51.15.57.57,0,0,1,.18.45v.86h.18v.3Zm-.73-.24a.44.44,0,0,0,.29-.08.23.23,0,0,0,.1-.19V35h-.3c-.25,0-.38.08-.38.24v.06a.25.25,0,0,0,.08.18.31.31,0,0,0,.21.05m.11-1.69-.22-.11.29-.61.32.16Z"/><path d="M24.16,35.8a.38.38,0,0,1-.27-.1.39.39,0,0,1-.09-.26v-2.1h.36v2.17h.24v.3Z"/><path d="M25,33.76a.22.22,0,0,1-.17,0,.24.24,0,0,1-.05-.14v0a.24.24,0,0,1,.05-.14.22.22,0,0,1,.17-.05.19.19,0,0,1,.16.05.24.24,0,0,1,.05.14v0a.24.24,0,0,1-.05.14.18.18,0,0,1-.16,0m-.19.31h.36V35.8h-.36Z"/><path d="M26.22,35.84a.78.78,0,0,1-.42-.09,1,1,0,0,1-.29-.24l.24-.21a.91.91,0,0,0,.21.18.66.66,0,0,0,.27.06.34.34,0,0,0,.24-.06.21.21,0,0,0,.08-.17.2.2,0,0,0-.06-.14.29.29,0,0,0-.18-.07h-.16a.89.89,0,0,1-.42-.15.46.46,0,0,1-.15-.37.57.57,0,0,1,0-.22,1.09,1.09,0,0,1,.13-.17.68.68,0,0,1,.21-.1.75.75,0,0,1,.26,0,.77.77,0,0,1,.64.28l-.22.21a.75.75,0,0,0-.17-.14.57.57,0,0,0-.25-.06.4.4,0,0,0-.22.06.2.2,0,0,0-.07.16.17.17,0,0,0,.06.15.38.38,0,0,0,.21.07h.16a.71.71,0,0,1,.41.17.42.42,0,0,1,.13.33.46.46,0,0,1,0,.23.49.49,0,0,1-.14.18,1,1,0,0,1-.21.11.9.9,0,0,1-.28,0"/><polygon points="28.22 35.8 28.22 33.48 29.66 33.48 29.66 33.81 28.59 33.81 28.59 34.45 29.55 34.45 29.55 34.79 28.59 34.79 28.59 35.8 28.22 35.8"/><path d="M30.78,35.84a.71.71,0,0,1-.32-.07.68.68,0,0,1-.26-.18,1,1,0,0,1-.16-.28,1.21,1.21,0,0,1-.06-.38,1,1,0,0,1,.22-.66.68.68,0,0,1,.26-.18.87.87,0,0,1,.32-.06,1,1,0,0,1,.33.06.72.72,0,0,1,.25.18.83.83,0,0,1,.16.29,1,1,0,0,1,.05.37.91.91,0,0,1-.21.66.72.72,0,0,1-.25.18.75.75,0,0,1-.33.07m-.27-2-.2-.1.3-.6.3.15Zm.27,1.67a.38.38,0,0,0,.3-.11.48.48,0,0,0,.11-.34v-.29a.45.45,0,0,0-.11-.34.42.42,0,0,0-.71.34v.29a.44.44,0,0,0,.12.34.34.34,0,0,0,.29.11m.33-1.67-.2-.1.29-.6.3.15Z"/><polygon points="32.37 35.8 31.78 34.07 32.14 34.07 32.4 34.86 32.58 35.46 32.6 35.46 32.77 34.86 33.04 34.07 33.39 34.07 32.79 35.8 32.37 35.8"/><path d="M35,35.8a.32.32,0,0,1-.21-.08.45.45,0,0,1-.1-.21h0a.4.4,0,0,1-.18.24.63.63,0,0,1-.33.09.56.56,0,0,1-.41-.15.53.53,0,0,1,0-.76,1.08,1.08,0,0,1,.56-.13h.31v-.14a.38.38,0,0,0-.09-.25.37.37,0,0,0-.27-.09.35.35,0,0,0-.24.08.44.44,0,0,0-.17.16l-.21-.19a.56.56,0,0,1,.24-.24.7.7,0,0,1,.4-.1.75.75,0,0,1,.52.16.54.54,0,0,1,.18.45v.86h.18v.3Zm-.72-.24a.38.38,0,0,0,.27-.08.21.21,0,0,0,.11-.19V35h-.3c-.26,0-.38.08-.38.24v.06a.25.25,0,0,0,.08.18.34.34,0,0,0,.22.05m.1-1.69-.22-.11.3-.61.31.16Z"/><path d="M35.57,35.8V34.07h.37v.33h0a.39.39,0,0,1,.15-.23.46.46,0,0,1,.32-.1h.1v.35h-.15a.52.52,0,0,0-.32.07.22.22,0,0,0-.12.2V35.8Z"/><path d="M37.57,35.84a.8.8,0,0,1-.34-.07.61.61,0,0,1-.24-.18.66.66,0,0,1-.16-.28,1.21,1.21,0,0,1-.06-.38,1.19,1.19,0,0,1,.06-.37.69.69,0,0,1,.16-.29.61.61,0,0,1,.24-.18,1,1,0,0,1,.34-.06.87.87,0,0,1,.32.06.64.64,0,0,1,.25.18.69.69,0,0,1,.16.29,1.19,1.19,0,0,1,.06.37,1.21,1.21,0,0,1-.06.38.78.78,0,0,1-.16.28.64.64,0,0,1-.25.18.71.71,0,0,1-.32.07m0-.31a.38.38,0,0,0,.3-.11.47.47,0,0,0,.1-.34v-.29a.45.45,0,0,0-.1-.34.42.42,0,0,0-.3-.12.45.45,0,0,0-.31.12.45.45,0,0,0-.11.34v.29a.48.48,0,0,0,.11.34.39.39,0,0,0,.31.11"/><path d="M39.33,35.84a1,1,0,0,1-.41-.09,1,1,0,0,1-.29-.24l.24-.21a.57.57,0,0,0,.48.24.34.34,0,0,0,.24-.06.18.18,0,0,0,.07-.17.16.16,0,0,0,0-.14.32.32,0,0,0-.19-.07h-.16a.93.93,0,0,1-.42-.15.54.54,0,0,1-.1-.59.55.55,0,0,1,.13-.17.51.51,0,0,1,.21-.1.75.75,0,0,1,.26,0,.84.84,0,0,1,.38.08.63.63,0,0,1,.26.2l-.22.21a.56.56,0,0,0-.42-.2.46.46,0,0,0-.23.06.24.24,0,0,0-.07.16.18.18,0,0,0,.07.15.48.48,0,0,0,.2.07h.16a.71.71,0,0,1,.41.17.42.42,0,0,1,.13.33.59.59,0,0,1,0,.23.62.62,0,0,1-.14.18,1.13,1.13,0,0,1-.22.11.86.86,0,0,1-.28,0"/><path d="M41.76,35.8a.35.35,0,0,1-.22-.08.43.43,0,0,1-.09-.21h0a.41.41,0,0,1-.19.24.59.59,0,0,1-.32.09.53.53,0,0,1-.41-.15.5.5,0,0,1-.15-.37.47.47,0,0,1,.19-.39,1,1,0,0,1,.55-.13h.32v-.14a.32.32,0,0,0-.36-.34.38.38,0,0,0-.25.08.49.49,0,0,0-.16.16l-.22-.19a.53.53,0,0,1,.25-.24.7.7,0,0,1,.4-.1.75.75,0,0,1,.52.16.57.57,0,0,1,.18.45v.86H42v.3ZM41,35.56a.4.4,0,0,0,.28-.08.21.21,0,0,0,.11-.19V35h-.31c-.25,0-.37.08-.37.24v.06a.19.19,0,0,0,.08.18.3.3,0,0,0,.21.05"/><polygon points="2.14 29.58 0 23.06 1.09 23.06 2.13 26.28 2.76 28.55 2.79 28.55 3.42 26.28 4.46 23.06 5.53 23.06 3.36 29.58 2.14 29.58"/><polygon points="6.66 29.58 6.66 23.06 10.83 23.06 10.83 24 7.72 24 7.72 25.8 10.55 25.8 10.55 26.74 7.72 26.74 7.72 28.64 10.83 28.64 10.83 29.58 6.66 29.58"/><path d="M12.29,23.06H15.2a1.7,1.7,0,0,1,1.27.46,1.89,1.89,0,0,1,.36,1.84,1.29,1.29,0,0,1-.26.42.91.91,0,0,1-.37.24,1.32,1.32,0,0,1-.39.1v.06a1.34,1.34,0,0,1,.43.1,1.1,1.1,0,0,1,.44.26A1.32,1.32,0,0,1,17,27a1.48,1.48,0,0,1,.15.69,2.18,2.18,0,0,1-.13.72,1.58,1.58,0,0,1-.35.6,1.54,1.54,0,0,1-1.2.54H12.31Zm1.06,2.75H15a.9.9,0,0,0,.61-.2A.72.72,0,0,0,15.8,25v-.3a.75.75,0,0,0-.21-.58A.84.84,0,0,0,15,24H13.35Zm0,2.86h1.81a.93.93,0,0,0,.64-.21.84.84,0,0,0,.24-.62v-.32a.81.81,0,0,0-.24-.61.9.9,0,0,0-.64-.22H13.35Z"/><path d="M25.36,29.58H20.94v-1L23,26.71a4.46,4.46,0,0,0,.76-.86A1.49,1.49,0,0,0,24,25v-.13a1,1,0,0,0-.28-.72,1,1,0,0,0-.77-.27,1.09,1.09,0,0,0-.47.08,1,1,0,0,0-.35.22,1.31,1.31,0,0,0-.25.32,2.78,2.78,0,0,0-.16.4l-.92-.35a2.91,2.91,0,0,1,.28-.59,2,2,0,0,1,.45-.52,2.22,2.22,0,0,1,.64-.35,2.82,2.82,0,0,1,.87-.13,2.62,2.62,0,0,1,.88.14,1.88,1.88,0,0,1,.66.41,1.69,1.69,0,0,1,.41.61,2.28,2.28,0,0,1,.14.77,2.24,2.24,0,0,1-.13.73,2.59,2.59,0,0,1-.33.64,4.44,4.44,0,0,1-.5.56c-.19.19-.39.37-.6.56L22.07,28.7h3.29Z"/><path d="M28.74,29.69a2.28,2.28,0,0,1-1.06-.23A1.9,1.9,0,0,1,27,28.8a3.11,3.11,0,0,1-.43-1.05,7.59,7.59,0,0,1,0-2.85A3.08,3.08,0,0,1,27,23.84a1.9,1.9,0,0,1,.72-.66A2.28,2.28,0,0,1,28.74,23a2,2,0,0,1,1.79.89,5.68,5.68,0,0,1,0,5,2,2,0,0,1-1.79.89m0-.9a1.17,1.17,0,0,0,.58-.13,1.09,1.09,0,0,0,.38-.39,1.89,1.89,0,0,0,.22-.6,3.46,3.46,0,0,0,.06-.79V25.75a3.42,3.42,0,0,0-.06-.78,1.8,1.8,0,0,0-.22-.6,1.09,1.09,0,0,0-.38-.39,1.31,1.31,0,0,0-1.16,0,1,1,0,0,0-.38.39,1.8,1.8,0,0,0-.22.6,4.1,4.1,0,0,0-.06.78v1.11a4.14,4.14,0,0,0,.06.79,1.89,1.89,0,0,0,.22.6,1,1,0,0,0,.38.38,1.08,1.08,0,0,0,.58.14"/><path d="M36.68,29.58H32.26v-1l2.08-1.86a4.46,4.46,0,0,0,.76-.86,1.58,1.58,0,0,0,.27-.84v-.13a1,1,0,0,0-.29-.72,1,1,0,0,0-.77-.27,1.09,1.09,0,0,0-.47.08,1,1,0,0,0-.35.22,1.31,1.31,0,0,0-.25.32,1.93,1.93,0,0,0-.15.4l-.93-.35a2.91,2.91,0,0,1,.28-.59,2.25,2.25,0,0,1,.45-.52,2.35,2.35,0,0,1,.64-.35A2.82,2.82,0,0,1,34.4,23a2.62,2.62,0,0,1,.88.14,1.88,1.88,0,0,1,.66.41,1.69,1.69,0,0,1,.41.61,2.28,2.28,0,0,1,.14.77,2,2,0,0,1-.13.73,2.59,2.59,0,0,1-.33.64,4.44,4.44,0,0,1-.5.56c-.19.19-.39.37-.6.56L33.4,28.7h3.28Z"/><path d="M39.88,25.74a1.4,1.4,0,0,0,.9-.26.88.88,0,0,0,.29-.66v-.06a.84.84,0,0,0-.29-.68,1,1,0,0,0-.72-.24,1.36,1.36,0,0,0-.79.21,1.64,1.64,0,0,0-.56.58L38,24a4.23,4.23,0,0,1,.33-.41,1.9,1.9,0,0,1,.45-.34,2.13,2.13,0,0,1,.56-.23,3,3,0,0,1,.73-.09,3.54,3.54,0,0,1,.85.11,2.1,2.1,0,0,1,.67.33,1.86,1.86,0,0,1,.44.53,1.69,1.69,0,0,1,.16.73,1.55,1.55,0,0,1-.11.56,1.5,1.5,0,0,1-.26.44,1.52,1.52,0,0,1-.4.32,1.78,1.78,0,0,1-.49.17h0a2.55,2.55,0,0,1,.53.18,1.51,1.51,0,0,1,.83,1.44,1.72,1.72,0,0,1-.16.77,1.63,1.63,0,0,1-.47.6,2.09,2.09,0,0,1-.73.4,3.4,3.4,0,0,1-1,.13,3.21,3.21,0,0,1-.81-.1,2.49,2.49,0,0,1-.61-.26,2.07,2.07,0,0,1-.46-.38,3.62,3.62,0,0,1-.36-.42l.78-.61c.08.12.17.25.26.36a1.48,1.48,0,0,0,.73.46,2.07,2.07,0,0,0,.5.06,1.35,1.35,0,0,0,.91-.28,1,1,0,0,0,.32-.79v-.07a.9.9,0,0,0-.34-.76,1.52,1.52,0,0,0-1-.26h-.69v-.9Z"/><rect x="20.07" y="4.02" width="9.32" height="1.68" rx="0.75" transform="translate(10.77 25.83) rotate(-67.48)"/><rect x="11.18" y="5.56" width="1.68" height="8.19" rx="0.75" transform="translate(-1.51 17.06) rotate(-67.5)"/><rect x="26.25" y="8.81" width="8.16" height="1.68" rx="0.75" transform="translate(-1.39 12.31) rotate(-22.44)"/><rect x="15.67" y="-0.44" width="1.67" height="13.92" rx="0.74" transform="translate(-1.24 6.8) rotate(-22.44)"/></g></g></svg>