<svg xmlns="http://www.w3.org/2000/svg" viewBox="0 0 64.31 28.9"><g id="Layer_2" data-name="Layer 2"><g id="Layer_1-2" data-name="Layer 1"><g id="Layer_2-2" data-name="Layer 2"><g id="Layer_1-2-2" data-name="Layer 1-2"><path d="M.31,19.75a.35.35,0,0,1,.35-.35H4.15a3.37,3.37,0,0,1,2.41.83,2,2,0,0,1,.6,1.45h0a2.29,2.29,0,0,1-1.58,2.21c1.12.29,2.1.93,2.1,2.22h0c0,1.55-1.33,2.5-3.33,2.5H.66a.35.35,0,0,1-.35-.34Zm3.76,3.94c1.39,0,2.39-.67,2.39-1.87h0c0-1.09-.83-1.79-2.32-1.79H1v3.64Zm.3,4.38C6,28.07,7,27.35,7,26.2H7c0-1.15-1-1.81-2.83-1.81H1v3.75Z"/><path d="M9.49,24.08h0A4.66,4.66,0,0,1,14,19.28h.14a4.63,4.63,0,0,1,4.66,4.61v.17h0a4.67,4.67,0,1,1-9.34.34,1.93,1.93,0,0,1,0-.34Zm8.63,0h0a4,4,0,0,0-3.87-4.18h-.11a4,4,0,0,0-3.94,4,.66.66,0,0,0,0,.14h0a4,4,0,0,0,3.85,4.18h.11a4,4,0,0,0,4-4v-.18Z"/><path d="M20.77,24.08h0a4.67,4.67,0,0,1,4.54-4.8h.15a4.63,4.63,0,0,1,4.66,4.6v.18h0a4.68,4.68,0,1,1-9.35,0h0Zm8.63,0h0a4,4,0,0,0-3.85-4.18h-.12a4,4,0,0,0-3.94,4v.15h0a4,4,0,0,0,3.85,4.18h.12a4,4,0,0,0,4-4,.86.86,0,0,0,0-.16Z"/><path d="M32.47,19.7a.35.35,0,0,1,.35-.34.34.34,0,0,1,.34.34v5.81L39,19.46a.35.35,0,0,1,.24-.1.37.37,0,0,1,.34.34.35.35,0,0,1-.1.24L36,23.51l3.75,4.63a.36.36,0,0,1,0,.51.35.35,0,0,1-.29.12.4.4,0,0,1-.27-.14L35.44,24l-2.27,2.33v2.07a.37.37,0,0,1-.35.35.35.35,0,0,1-.34-.35Z"/><path d="M42.05,19.7a.36.36,0,0,1,.4-.3.35.35,0,0,1,.3.3v8.71a.35.35,0,0,1-.7.09V19.7Z"/><path d="M45.6,19.71a.35.35,0,0,1,.35-.34h.1a.46.46,0,0,1,.35.2l6.26,8V19.69a.33.33,0,0,1,.66,0h0v8.76a.29.29,0,0,1-.28.29h0a.47.47,0,0,1-.35-.23l-6.37-8.09v8a.34.34,0,0,1-.34.34.34.34,0,0,1-.33-.34Z"/><path d="M55.7,24.08h0a4.64,4.64,0,0,1,4.47-4.8h.12a4.84,4.84,0,0,1,3.17,1,.32.32,0,0,1,.13.28.34.34,0,0,1-.34.34h0a.33.33,0,0,1-.21-.09,4.18,4.18,0,0,0-2.79-.94,3.94,3.94,0,0,0-3.83,4.15h0a3.87,3.87,0,0,0,4,4.19,4.76,4.76,0,0,0,3-1.06V24.52H60.45a.31.31,0,0,1-.25-.38.32.32,0,0,1,.25-.25h3.21a.35.35,0,0,1,.34.35v3a.55.55,0,0,1-.24.4,5.48,5.48,0,0,1-3.41,1.19A4.52,4.52,0,0,1,55.7,24.08Z"/><polygon points="18.19 17.78 18.19 0.31 18.14 0.31 12.3 9 18.19 17.78"/><polygon points="12.6 0.31 6.28 0.31 9.43 5.32 12.6 0.31"/><polygon points="0.61 0.31 0.31 0.31 0.31 18.09 0.36 18.09 6.46 9.05 0.61 0.31"/><rect x="23.11" y="0.31" width="8.51" height="13.46"/><polygon points="43.54 0.31 36.22 0.31 43.54 9.71 43.54 0.31"/><rect x="48.42" y="4.63" width="5.28" height="13.46"/><polygon points="5.89 18.09 12.73 18.09 9.32 12.73 5.89 18.09"/><polyline points="63.96 4.63 58.62 4.63 58.62 18.09 64 18.09"/><polygon points="36.5 18.09 44.1 18.09 36.5 8.34 36.5 18.09"/><path d="M64.31,18.4H0V0H64.31ZM.63,17.78H63.69V.63H.63Z"/></g></g></g></g></svg>