<?xml version="1.0" encoding="utf-8"?>
<!-- Generator: Adobe Illustrator 26.0.3, SVG Export Plug-In . SVG Version: 6.00 Build 0)  -->
<svg version="1.1" id="Layer_1" xmlns="http://www.w3.org/2000/svg" xmlns:xlink="http://www.w3.org/1999/xlink" x="0px" y="0px"
	 viewBox="0 0 524.4 628" style="enable-background:new 0 0 524.4 628;" xml:space="preserve">
<style type="text/css">
	.st0{fill:#FFFFFF;}
	.st1{fill:#CFE4FF;}
</style>
<polygon class="st0" points="0,31.7 524.4,31.7 419.1,659.7 0,659.7 "/>
<path class="st1" d="M70.4,265.4l298-139L257.7,514.7c-0.2,0.8-1.1,1.3-1.9,1.1c-0.3-0.1-0.6-0.3-0.8-0.6L70.4,265.4z"/>
<path d="M173.4,339.1h-33.8c-3.7,0.1-7.3-1.3-10-3.8c-2.7-2.2-4.2-5.5-4.2-9v-75.5h24v12.8h9.8c3.7-0.1,7.3,1.3,10,3.8
	c2.7,2.2,4.2,5.5,4.2,9L173.4,339.1z M161.1,326.6v-50.5c0-2.4-1.3-3.5-3.9-3.5h-7.7v57.6h7.7C159.8,330.2,161.1,329,161.1,326.6z"
	/>
<path d="M207.5,339.1h-9.8c-3.7,0.1-7.3-1.3-10-3.8c-2.7-2.2-4.2-5.5-4.2-9v-75.5h9.8c3.7-0.1,7.3,1.3,10,3.8c2.7,2.2,4.2,5.5,4.2,9
	V339.1z"/>
<path d="M251.5,263.6c3.7-0.1,7.3,1.3,10,3.8c2.7,2.2,4.2,5.5,4.2,9v62.8H232c-3.7,0.1-7.3-1.3-10-3.8c-2.7-2.2-4.2-5.5-4.2-9v-62.8
	h12.3v63c0,2.4,1.3,3.5,4,3.5h7.7v-66.6H251.5z"/>
<path d="M323.8,299.4c0,3.5-1.5,6.8-4.2,9c-2.7,2.5-6.3,3.8-10,3.8H288c0,3.5,1.5,6.8,4.2,9c2.7,2.5,6.3,3.8,10.1,3.8h21.6v14.2
	h-33.9c-3.7,0.1-7.3-1.3-10-3.8c-2.7-2.2-4.2-5.5-4.2-9v-62.7h33.9c3.7-0.1,7.3,1.3,10,3.8c2.7,2.2,4.2,5.5,4.2,9L323.8,299.4z
	 M299.8,300v-24c0-2.4-1.3-3.6-4-3.6H288v31.1h7.8C298.5,303.6,299.8,302.4,299.8,300L299.8,300z"/>
<path d="M333.7,276.4c0-3.5,1.5-6.8,4.2-9c2.8-2.5,6.4-3.9,10.1-3.8h33.9v14.2h-21.6c-3.7-0.1-7.3,1.3-10.1,3.8
	c-2.7,2.2-4.2,5.5-4.2,9h21.6c3.7-0.1,7.3,1.3,10,3.8c2.7,2.2,4.2,5.5,4.2,9v23c0,3.5-1.5,6.8-4.2,9c-2.7,2.5-6.3,3.8-10,3.8h-33.9
	v-27.2h19.7c3.7,0.1,7.3-1.3,10-3.8c2.7-2.2,4.2-5.5,4.2-9h-33.9V276.4z"/>
<path d="M138.4,199.5v36.1h4.2c1.4,0,2.1-0.6,2.1-1.9v-34.1h6.6v33.9c0,1.9-0.8,3.7-2.2,4.9c-1.5,1.3-3.4,2-5.4,2h-18.2v-33.9
	c0-1.9,0.8-3.7,2.2-4.9c1.5-1.3,3.4-2.1,5.4-2L138.4,199.5z"/>
<path d="M182.8,218.8c0,1.9-0.8,3.7-2.3,4.9c-1.5,1.3-3.4,2-5.4,2h-11.7c0,1.9,0.8,3.7,2.3,4.9c1.5,1.3,3.4,2,5.4,2h11.6v7.7h-18.3
	c-2,0-3.9-0.7-5.4-2c-1.4-1.2-2.3-3-2.3-4.9v-33.9h18.3c2-0.1,3.9,0.7,5.4,2c1.4,1.2,2.3,3,2.3,4.9V218.8z M169.8,219.2v-13
	c0-1.3-0.7-1.9-2.2-1.9h-4.2v16.8h4.2C169.1,221.1,169.8,220.5,169.8,219.2L169.8,219.2z"/>
<path d="M188.1,206.4c0-1.9,0.8-3.7,2.3-4.9c1.5-1.3,3.4-2.1,5.4-2h18.3v7.7h-11.6c-2,0-3.9,0.7-5.4,2c-1.4,1.2-2.3,3-2.3,4.9h11.7
	c2,0,3.9,0.7,5.4,2c1.4,1.2,2.3,3,2.3,4.9v12.4c0,1.9-0.8,3.7-2.3,4.9c-1.5,1.3-3.4,2-5.4,2h-18.3v-14.7h10.6c2,0.1,3.9-0.7,5.4-2
	c1.4-1.2,2.3-3,2.3-4.9h-18.3V206.4z"/>
<path d="M245.5,218.7h-18.3c0,1.9,0.8,3.7,2.3,4.9c1.5,1.3,3.4,2.1,5.4,2h10.7v14.7h-18.2c-2,0-3.9-0.7-5.4-2
	c-1.4-1.2-2.3-3-2.3-4.9l-0.1-12.4c0-1.9,0.8-3.7,2.3-4.9c1.5-1.3,3.4-2,5.4-2h11.7c0-1.9-0.8-3.7-2.3-4.9c-1.5-1.3-3.4-2-5.4-2
	h-11.6v-7.8h18.2c2,0,3.9,0.7,5.4,2c1.4,1.2,2.3,3,2.3,4.9L245.5,218.7z"/>
<path d="M250.9,254.9v-55.4h18.3c2,0,3.9,0.7,5.4,2c1.4,1.2,2.3,3,2.3,4.9v33.9h-13v14.6L250.9,254.9z M270.2,233.6v-27.3
	c0-1.3-0.7-1.9-2.2-1.9h-4.2v31.1h4.2C269.5,235.5,270.2,234.8,270.2,233.6z"/>
<path d="M282.2,199.5h18.3c2,0,3.9,0.7,5.4,2c1.4,1.2,2.3,3,2.3,4.9v12.3h-6.6v-12.3c0-1.3-0.7-1.9-2.1-1.9h-4.2v35.9H290
	c-2,0-3.9-0.7-5.4-2c-1.4-1.2-2.3-3-2.2-4.9L282.2,199.5z"/>
<path d="M339.6,218.8c0,1.9-0.8,3.7-2.3,4.9c-1.5,1.3-3.4,2-5.4,2h-11.7c0,1.9,0.8,3.7,2.3,4.9c1.5,1.3,3.4,2,5.4,2h11.6v7.7h-18.3
	c-2,0-3.9-0.7-5.4-2c-1.4-1.2-2.3-3-2.3-4.9v-33.9h18.3c2-0.1,3.9,0.7,5.4,2c1.4,1.2,2.3,3,2.3,4.9V218.8z M326.6,219.2v-13
	c0-1.3-0.7-1.9-2.2-1.9h-4.2v16.8h4.2C325.9,221.1,326.6,220.5,326.6,219.2z"/>
<path d="M370.9,240.3h-6.6v-34.1c0-1.3-0.7-1.9-2.1-1.9H358v36h-5.3c-2,0-3.9-0.7-5.4-2c-1.4-1.2-2.3-3-2.3-4.9v-34h18.3
	c1.5,0,3,0.4,4.3,1.2c1.3-0.8,2.8-1.2,4.4-1.2h2.2c2-0.1,3.9,0.7,5.4,2c1.4,1.2,2.3,3,2.2,4.9v33.9h-6.7v-34c0-1.3-0.7-1.9-2.1-1.9
	s-2.1,0.6-2.1,1.9V240.3z"/>
<path d="M325,197.2h-4.9c-1.8,0-3.6-0.6-5-1.9c-1.3-1.1-2.1-2.8-2.1-4.5v-4.4h4.9c1.8,0,3.6,0.6,5,1.9c1.3,1.1,2.1,2.8,2.1,4.5
	L325,197.2z"/>
<path d="M151.9,372.3h-6.8v-12.7c0-1.3-0.7-2-2.2-2h-4.3v20.7h13.2v6h-13.2v23.5h-5.4c-2,0-4-0.7-5.5-2.1c-1.5-1.2-2.3-3.1-2.3-5
	v-48.1h18.6c2,0,4,0.7,5.5,2.1c1.5,1.2,2.3,3.1,2.3,5V372.3z"/>
<path d="M184,385.9c0,1.9-0.8,3.8-2.3,5c-1.5,1.4-3.5,2.1-5.5,2.1h-12c0,1.9,0.8,3.8,2.3,5c1.5,1.4,3.5,2.1,5.6,2.1H184v7.8h-18.7
	c-2,0-4-0.7-5.5-2.1c-1.5-1.2-2.3-3.1-2.3-5v-34.7h18.7c2,0,4,0.7,5.6,2.1c1.5,1.2,2.3,3.1,2.3,5L184,385.9z M170.8,386.3v-13.2
	c0-1.3-0.7-2-2.2-2h-4.3v17.2h4.3C170,388.3,170.7,387.6,170.8,386.3L170.8,386.3z"/>
<path d="M189.5,373.2c0-1.9,0.8-3.8,2.3-5c1.5-1.4,3.5-2.1,5.6-2.1H216v7.8h-11.9c-2,0-4,0.7-5.6,2.1c-1.5,1.2-2.3,3.1-2.3,5h11.9
	c2,0,4,0.7,5.5,2.1c1.5,1.2,2.3,3.1,2.3,5v12.7c0,1.9-0.8,3.8-2.3,5c-1.5,1.4-3.5,2.1-5.5,2.1h-18.7v-15.1h10.9c2,0,4-0.7,5.5-2.1
	c1.5-1.2,2.3-3.1,2.3-5h-18.7V373.2z"/>
<path d="M248,385.8h-18.7c0,1.9,0.8,3.8,2.3,5c1.5,1.4,3.5,2.1,5.5,2.1H248v15h-18.6c-2,0-4-0.7-5.5-2.1c-1.5-1.2-2.3-3.1-2.3-5
	l-0.1-12.7c0-1.9,0.8-3.8,2.3-5c1.5-1.4,3.5-2.1,5.5-2.1h11.9c0-1.9-0.8-3.8-2.3-5c-1.5-1.4-3.5-2.1-5.5-2.1h-11.8v-7.8h18.6
	c2,0,4,0.7,5.5,2.1c1.5,1.2,2.3,3.1,2.3,5L248,385.8z"/>
<path d="M280.1,400.8c0,1.9-0.8,3.8-2.3,5c-1.5,1.4-3.5,2.1-5.5,2.1h-18.6v-48.1c0-1.9,0.8-3.8,2.3-5c1.5-1.4,3.5-2.1,5.5-2.1h5.4
	v23.5H280v6h-13.1v20.6h4.3c1.5,0,2.2-0.6,2.2-2v-12.5h6.8L280.1,400.8z"/>
<path d="M285.6,352.7h5.4c2,0,4,0.7,5.5,2.1c1.5,1.2,2.3,3.1,2.3,5v4.9h-5.4c-2,0-4-0.7-5.5-2.1c-1.5-1.2-2.3-3.1-2.3-5L285.6,352.7
	z"/>
<path d="M363,352.7v4.9c0,1.8-0.6,3.6-1.9,5c-1.1,1.3-2.8,2.1-4.5,2.1h-4.4v-4.9c0-1.8,0.6-3.6,1.9-5c1.1-1.3,2.8-2.1,4.5-2.1
	L363,352.7z"/>
<path d="M298.9,407.9h-5.4c-2,0-4-0.7-5.5-2.1c-1.5-1.2-2.3-3.1-2.3-5v-32.7h5.4c2,0,4,0.7,5.5,2.1c1.5,1.2,2.3,3.1,2.3,5
	L298.9,407.9z"/>
<path d="M317.8,366.2V403h4.2c1.5,0,2.2-0.6,2.2-2v-34.8h6.8v34.6c0,1.9-0.8,3.8-2.3,5c-1.5,1.4-3.5,2.1-5.5,2.1h-18.6v-34.6
	c0-1.9,0.8-3.8,2.3-5c1.5-1.4,3.5-2.1,5.5-2.1L317.8,366.2z"/>
<path d="M363,407.9h-18.6c-2,0-4-0.7-5.5-2.1c-1.5-1.2-2.3-3.1-2.3-5v-12.7c0-1.9,0.8-3.8,2.3-5c1.5-1.4,3.5-2.1,5.5-2.1h11.9
	c0-1.9-0.8-3.8-2.3-5c-1.5-1.4-3.5-2.1-5.5-2.1h-11.8v-7.8h18.6c2,0,4,0.7,5.5,2.1c1.5,1.2,2.3,3.1,2.3,5L363,407.9z M356.2,402.9
	v-17.2H352c-1.5,0-2.2,0.7-2.2,2V401c0,1.3,0.7,2,2.2,2L356.2,402.9z"/>
<path d="M381.8,407.9h-5.4c-2,0-4-0.7-5.5-2.1c-1.5-1.2-2.3-3.1-2.3-5v-48.1h5.4c2,0,4,0.7,5.5,2.1c1.5,1.2,2.3,3.1,2.3,5
	L381.8,407.9z"/>
<polygon points="372,430.7 145.8,430.7 127,471 355.1,471 "/>
<g>
	<path class="st0" d="M161.3,464l-4,0l-4-7.8l3.4,0l2.6,5.4l2.5-5.4l3.1,0L161.3,464z"/>
	<path class="st0" d="M165.3,456.2l8.6,0l0,1.9l-5.7,0l0,1l5.6,0l0,1.9l-5.6,0l0,1.1l5.8,0l0,2l-8.7,0L165.3,456.2z"/>
	<path class="st0" d="M180.3,464.1l-1,0c-3.2,0-4.8-0.9-4.8-2.8l0-0.1l3.3,0c0.1,0.7,0.7,1.1,2,1.1l0.1,0c0.4,0,0.7,0,1-0.1
		c0.3,0,0.5-0.1,0.6-0.2c0.1-0.1,0.2-0.2,0.3-0.2c0-0.1,0.1-0.2,0.1-0.3l0,0c0-0.1,0-0.3-0.1-0.4c-0.1-0.1-0.2-0.2-0.5-0.2
		c-0.3-0.1-0.7-0.1-1.2-0.1l-1.4,0c-2.6-0.1-3.8-0.8-3.8-2.3l0-0.1c0-0.3,0-0.5,0.1-0.7s0.2-0.4,0.4-0.6c0.2-0.2,0.5-0.4,0.8-0.5
		c0.3-0.1,0.8-0.3,1.3-0.3c0.5-0.1,1.2-0.1,1.9-0.1l0.9,0c3.2,0,4.7,0.8,4.7,2.5l0,0.1l-3.2,0c-0.1-0.6-0.7-0.8-1.9-0.8l-0.1,0
		c-0.5,0-0.9,0-1.1,0.1c-0.3,0.1-0.4,0.1-0.5,0.2c-0.1,0.1-0.1,0.2-0.1,0.3l0,0c0,0.1,0,0.2,0.1,0.3c0.1,0.1,0.2,0.1,0.5,0.2
		c0.3,0.1,0.6,0.1,1.1,0.1l1.4,0c1.5,0,2.5,0.2,3.2,0.6c0.6,0.4,1,0.9,1,1.7l0,0.1c0,0.3,0,0.5-0.1,0.8c-0.1,0.2-0.2,0.5-0.4,0.7
		c-0.2,0.2-0.5,0.4-0.8,0.6c-0.3,0.2-0.8,0.3-1.4,0.4C181.8,464,181.1,464.1,180.3,464.1z"/>
	<path class="st0" d="M185.5,456.1l9.3,0l0,1.6l-5.1,4.1l5.2,0l0,2.1l-9.4,0l0-1.6l5-4.2l-4.9,0L185.5,456.1z"/>
	<path class="st0" d="M202.2,461.4l-3.5,0l0,2.4l-3,0l0-7.8l6.5,0c2.5,0,3.7,0.9,3.7,2.6l0,0.2C205.9,460.5,204.7,461.4,202.2,461.4
		z M198.7,458l0,1.5l3.2,0c0.7,0,1-0.2,1-0.7l0,0c0-0.5-0.3-0.7-1-0.7L198.7,458z"/>
	<path class="st0" d="M209.5,461.2l0,2.7l-3,0l0-7.8l7.1,0c2.2,0,3.3,0.7,3.3,2l0,0.1c0,0.3-0.1,0.5-0.2,0.7
		c-0.1,0.2-0.2,0.4-0.4,0.5c-0.2,0.1-0.3,0.2-0.5,0.3c-0.2,0.1-0.3,0.1-0.5,0.2c0.5,0.1,0.9,0.3,1.2,0.6c0.3,0.3,0.4,0.7,0.4,1.2
		l0,1.2c0,0.4,0.1,0.7,0.1,0.9l0,0.1l-3,0c-0.1-0.1-0.1-0.2-0.1-0.4l0-0.9c0-0.5-0.1-0.8-0.4-1c-0.2-0.2-0.6-0.3-1.2-0.3
		L209.5,461.2z M209.5,457.9l0,1.3l3.4,0c0.6,0,0.9-0.2,0.9-0.7l0,0c0-0.4-0.3-0.7-0.9-0.7L209.5,457.9z"/>
	<path class="st0" d="M217.8,456l8.6,0l0,1.9l-5.7,0l0,1l5.6,0l0,1.9l-5.6,0l0,1.1l5.8,0l0,2l-8.7,0L217.8,456z M220.7,455.5
		l0.8-1.6l2.9,0l-1.1,1.6L220.7,455.5z"/>
	<path class="st0" d="M227.4,463.8l0-7.8l4.1,0l2.4,4.4l2.4-4.4l3.9,0l0,7.8l-2.9,0l0-4.9l-2.7,4.9l-1.5,0l-2.7-4.9l0,4.9
		L227.4,463.8z"/>
	<path class="st0" d="M243.4,464.9l-1.5,0c0.2-0.4,0.4-0.8,0.4-1.2l-1.2,0l0-2l3,0l0,1.7C244,463.8,243.8,464.3,243.4,464.9z"/>
	<path class="st0" d="M248,463.8l0-7.8l3,0l0,2.8l4.9,0l0-2.8l3,0l0,7.8l-3,0l0-3l-4.9,0l0,3L248,463.8z"/>
	<path class="st0" d="M267.9,463.7l-0.6-1.3l-4.5,0l-0.6,1.3l-3,0l3.8-7.8l4,0l4.1,7.8L267.9,463.7z M266.3,460.5l-1.3-2.7l-1.3,2.7
		L266.3,460.5z"/>
	<path class="st0" d="M271.4,455.9l3.3,0l4.5,4.4l0-4.4l3,0l0,7.8l-3,0l-4.9-4.7l0,4.7l-3,0L271.4,455.9z"/>
	<path class="st0" d="M288.5,463.8l-0.2,0c-0.8,0-1.5-0.1-2.2-0.3c-0.6-0.2-1.1-0.4-1.5-0.6c-0.4-0.3-0.7-0.6-0.9-0.9
		c-0.2-0.4-0.4-0.7-0.5-1c-0.1-0.3-0.1-0.7-0.1-1l0-0.3c0-0.4,0-0.7,0.1-1.1c0.1-0.3,0.2-0.7,0.5-1c0.2-0.4,0.6-0.7,1-0.9
		c0.4-0.3,0.9-0.5,1.6-0.6c0.7-0.2,1.5-0.3,2.3-0.3l0.4,0c0.9,0,1.7,0.1,2.4,0.2c0.7,0.1,1.2,0.3,1.6,0.5c0.4,0.2,0.7,0.5,0.9,0.7
		s0.4,0.6,0.5,0.8c0.1,0.2,0.1,0.5,0.1,0.7l0,0l-3.1,0c0-0.1,0-0.1-0.1-0.2c0-0.1-0.1-0.1-0.2-0.2c-0.1-0.1-0.3-0.2-0.4-0.3
		c-0.2-0.1-0.4-0.1-0.7-0.2c-0.3-0.1-0.7-0.1-1.1-0.1c-1.8,0-2.7,0.6-2.7,1.9l0,0.1c0,0.6,0.2,1,0.7,1.4c0.4,0.4,1.1,0.6,2,0.6
		c0.4,0,0.7,0,1-0.1c0.3-0.1,0.6-0.1,0.8-0.2c0.2-0.1,0.4-0.2,0.5-0.3c0.1-0.1,0.2-0.2,0.3-0.3c0.1-0.1,0.1-0.1,0.1-0.2l-2.7,0
		l0-1.5l5.8,0l0,4.4l-1.9,0c-0.1-0.4-0.2-0.8-0.4-1.1C291.5,463.4,290.3,463.8,288.5,463.8z"/>
	<path class="st0" d="M302,463.6l-4,0l-4-7.8l3.4,0l2.6,5.4l2.5-5.4l3.1,0L302,463.6z"/>
	<path class="st0" d="M309,455.8l0,7.8l-3,0l0-7.8L309,455.8z"/>
	<path class="st0" d="M310,455.8l3,0l0,5.6l5.4,0l0,2.2l-8.4,0L310,455.8z"/>
	<path class="st0" d="M319.2,455.8l3,0l0,5.6l5.4,0l0,2.2l-8.4,0L319.2,455.8z"/>
	<path class="st0" d="M336.5,463.5l-0.6-1.3l-4.5,0l-0.6,1.3l-3,0l3.8-7.8l4,0l4.1,7.8L336.5,463.5z M334.9,460.3l-1.3-2.7l-1.3,2.7
		L334.9,460.3z"/>
</g>
<g>
	<path class="st0" d="M177.8,450.7l-14.8,0l0-1.3c0-0.3,0-0.5,0-0.7c0-0.2,0.1-0.5,0.2-0.8c0.1-0.3,0.2-0.6,0.4-0.9s0.4-0.5,0.7-0.9
		c0.3-0.3,0.7-0.6,1.1-0.9c0.4-0.2,1-0.5,1.6-0.7c0.7-0.2,1.4-0.5,2.2-0.6c0.6-0.1,1.3-0.3,2.2-0.5c0.7-0.1,1.1-0.3,1.3-0.4
		c0.2-0.1,0.3-0.3,0.3-0.5c0-0.2-0.1-0.3-0.2-0.4c-0.1-0.1-0.4-0.2-0.7-0.3c-0.4-0.1-0.9-0.1-1.6-0.1c-0.5,0-0.9,0-1.3,0.1
		c-0.4,0.1-0.6,0.2-0.8,0.3c-0.2,0.1-0.3,0.2-0.4,0.4c-0.1,0.2-0.2,0.3-0.2,0.4c0,0.1,0,0.2-0.1,0.3l-4.5,0l0-0.1
		c0-2.8,2.3-4.2,6.8-4.2l0.7,0c1.1,0,2.1,0.1,2.9,0.2c0.8,0.1,1.5,0.3,2,0.5c0.5,0.2,0.9,0.5,1.2,0.8c0.3,0.3,0.5,0.6,0.6,1
		c0.1,0.3,0.2,0.7,0.2,1.1l0,0.1c0,0.7-0.1,1.2-0.4,1.6c-0.3,0.4-0.8,0.8-1.6,1.1c-0.8,0.3-1.8,0.6-3.2,0.8l-2.5,0.4
		c-2.1,0.4-3.1,0.8-3.1,1.3l6.9,0l0-1.4l4.1,0L177.8,450.7z"/>
	<path class="st0" d="M195.3,444.6l0,0.5c0,0.5,0,1-0.1,1.4c-0.1,0.5-0.3,1-0.7,1.5c-0.3,0.6-0.8,1-1.4,1.4c-0.6,0.4-1.3,0.7-2.4,1
		c-1,0.3-2.2,0.4-3.6,0.4l-0.7,0c-1.4,0-2.5-0.1-3.6-0.4c-1-0.3-1.8-0.6-2.4-1c-0.6-0.4-1-0.9-1.4-1.4c-0.3-0.6-0.6-1.1-0.7-1.5
		c-0.1-0.5-0.1-0.9-0.2-1.4l0-0.5c0-0.3,0-0.7,0.1-1c0-0.3,0.1-0.7,0.3-1.1c0.1-0.4,0.3-0.8,0.6-1.1c0.2-0.3,0.6-0.7,1-1
		c0.4-0.3,0.9-0.6,1.5-0.8c0.6-0.2,1.2-0.4,2-0.6c0.8-0.1,1.7-0.2,2.7-0.2l0.7,0c1,0,1.9,0.1,2.7,0.2c0.8,0.1,1.5,0.3,2,0.5
		c0.5,0.2,1,0.5,1.4,0.8c0.4,0.3,0.7,0.7,1,1c0.2,0.3,0.4,0.7,0.6,1.1c0.2,0.4,0.2,0.7,0.3,1.1C195.3,444,195.3,444.3,195.3,444.6z
		 M190.8,444.9l0-0.2c0-0.3-0.1-0.6-0.2-0.9c-0.1-0.3-0.3-0.6-0.6-0.9c-0.3-0.3-0.7-0.5-1.2-0.7c-0.5-0.2-1.2-0.2-1.9-0.2
		c-0.8,0-1.4,0.1-1.9,0.3c-0.5,0.2-0.9,0.4-1.2,0.7c-0.3,0.3-0.5,0.6-0.6,0.9c-0.1,0.3-0.2,0.6-0.2,0.9l0,0.2c0,0.3,0.1,0.6,0.2,1
		c0.1,0.3,0.3,0.6,0.6,0.9c0.3,0.3,0.7,0.5,1.2,0.7c0.5,0.2,1.2,0.3,1.9,0.3s1.4-0.1,1.9-0.3c0.5-0.2,0.9-0.4,1.2-0.7
		c0.3-0.3,0.5-0.6,0.6-0.9C190.7,445.6,190.8,445.3,190.8,444.9z"/>
	<path class="st0" d="M210.6,450.6l-14.8,0l0-1.3c0-0.3,0-0.5,0-0.7c0-0.2,0.1-0.5,0.2-0.8c0.1-0.3,0.2-0.6,0.4-0.9s0.4-0.5,0.7-0.9
		c0.3-0.3,0.7-0.6,1.1-0.9c0.4-0.2,1-0.5,1.6-0.7c0.7-0.2,1.4-0.5,2.2-0.6c0.6-0.1,1.3-0.3,2.2-0.5c0.7-0.1,1.1-0.3,1.3-0.4
		c0.2-0.1,0.3-0.3,0.3-0.5c0-0.2-0.1-0.3-0.2-0.4c-0.1-0.1-0.4-0.2-0.7-0.3c-0.4-0.1-0.9-0.1-1.6-0.1c-0.5,0-0.9,0-1.3,0.1
		c-0.4,0.1-0.6,0.2-0.8,0.3c-0.2,0.1-0.3,0.2-0.4,0.4s-0.2,0.3-0.2,0.4c0,0.1,0,0.2-0.1,0.3l-4.5,0l0-0.1c0-2.8,2.3-4.2,6.8-4.2
		l0.7,0c1.1,0,2.1,0.1,2.9,0.2c0.8,0.1,1.5,0.3,2,0.5c0.5,0.2,0.9,0.5,1.2,0.8c0.3,0.3,0.5,0.6,0.6,1c0.1,0.3,0.2,0.7,0.2,1.1l0,0.1
		c0,0.7-0.1,1.2-0.4,1.6c-0.3,0.4-0.8,0.8-1.6,1.1c-0.8,0.3-1.8,0.6-3.2,0.8l-2.5,0.4c-2.1,0.4-3.1,0.8-3.1,1.3l6.9,0l0-1.4l4.1,0
		L210.6,450.6z"/>
	<path class="st0" d="M219.3,450.8l-0.7,0c-0.9,0-1.7-0.1-2.5-0.2c-0.7-0.1-1.4-0.3-1.9-0.5s-0.9-0.4-1.3-0.7
		c-0.4-0.3-0.7-0.5-0.9-0.8c-0.2-0.3-0.4-0.5-0.5-0.8c-0.1-0.3-0.2-0.6-0.2-0.8c0-0.2-0.1-0.4-0.1-0.7l0-0.1l4.5,0
		c0,0.1,0,0.2,0.1,0.3c0,0.1,0.1,0.2,0.2,0.4s0.3,0.3,0.5,0.5c0.2,0.1,0.5,0.2,0.9,0.3c0.4,0.1,0.9,0.1,1.4,0.1c0.6,0,1,0,1.4-0.1
		c0.4-0.1,0.7-0.1,0.9-0.2c0.2-0.1,0.4-0.2,0.5-0.3c0.1-0.1,0.2-0.2,0.2-0.3c0-0.1,0-0.2,0-0.3c0-0.5-0.5-0.8-1.4-0.8l-3.9,0l0-2.8
		l3.7,0c0.9,0,1.3-0.2,1.3-0.7l0,0c0-0.2-0.1-0.3-0.1-0.4c-0.1-0.1-0.4-0.2-0.9-0.3c-0.5-0.1-1.2-0.1-2-0.1c-0.5,0-1,0-1.4,0.1
		c-0.4,0.1-0.7,0.2-0.9,0.2c-0.2,0.1-0.3,0.2-0.4,0.3c-0.1,0.1-0.2,0.2-0.2,0.3c0,0.1,0,0.1,0,0.2l-4.5,0l0-0.2c0-0.2,0-0.4,0-0.6
		c0-0.2,0.1-0.4,0.2-0.7c0.1-0.3,0.3-0.5,0.5-0.7c0.2-0.2,0.5-0.5,0.8-0.7c0.4-0.2,0.8-0.4,1.3-0.6c0.5-0.2,1.1-0.3,1.8-0.4
		c0.7-0.1,1.5-0.2,2.4-0.2l0.7,0c1.3,0,2.4,0.1,3.3,0.2c0.9,0.1,1.6,0.3,2.1,0.5c0.5,0.2,0.9,0.4,1.2,0.7c0.3,0.3,0.5,0.5,0.6,0.8
		s0.1,0.5,0.1,0.8l0,0.1c0,0.5-0.2,1-0.6,1.3c-0.4,0.3-0.9,0.6-1.4,0.7c0.7,0.1,1.2,0.4,1.7,0.9c0.5,0.5,0.7,1.1,0.7,1.9l0,0.1
		C226.7,449.4,224.2,450.8,219.3,450.8z"/>
	<path class="st0" d="M231.7,447.5l0,3l-4.4,0l0-3L231.7,447.5z"/>
	<path class="st0" d="M254.1,444.5l0,0.5c0,0.5,0,1-0.1,1.4c-0.1,0.5-0.3,1-0.7,1.5c-0.3,0.6-0.8,1-1.4,1.4c-0.6,0.4-1.3,0.7-2.4,1
		c-1,0.3-2.2,0.4-3.6,0.4l-0.7,0c-1.4,0-2.5-0.1-3.6-0.4c-1-0.3-1.8-0.6-2.4-1c-0.6-0.4-1-0.9-1.4-1.4s-0.6-1.1-0.7-1.5
		c-0.1-0.5-0.1-0.9-0.2-1.4l0-0.5c0-0.3,0-0.7,0.1-1c0-0.3,0.1-0.7,0.3-1.1c0.1-0.4,0.3-0.8,0.6-1.1c0.2-0.3,0.6-0.7,1-1
		c0.4-0.3,0.9-0.6,1.5-0.8c0.6-0.2,1.2-0.4,2-0.6s1.7-0.2,2.7-0.2l0.7,0c1,0,1.9,0.1,2.7,0.2c0.8,0.1,1.5,0.3,2,0.5
		c0.5,0.2,1,0.5,1.4,0.8c0.4,0.3,0.7,0.7,1,1c0.2,0.3,0.4,0.7,0.6,1.1c0.2,0.4,0.2,0.7,0.3,1.1C254.1,443.8,254.1,444.1,254.1,444.5
		z M249.6,444.8l0-0.2c0-0.3-0.1-0.6-0.2-0.9c-0.1-0.3-0.3-0.6-0.6-0.9c-0.3-0.3-0.7-0.5-1.2-0.7c-0.5-0.2-1.2-0.2-1.9-0.2
		c-0.8,0-1.4,0.1-1.9,0.3c-0.5,0.2-0.9,0.4-1.2,0.7c-0.3,0.3-0.5,0.6-0.6,0.9c-0.1,0.3-0.2,0.6-0.2,0.9l0,0.2c0,0.3,0.1,0.6,0.2,1
		c0.1,0.3,0.3,0.6,0.6,0.9c0.3,0.3,0.7,0.5,1.2,0.7c0.5,0.2,1.2,0.3,1.9,0.3c0.7,0,1.4-0.1,1.9-0.3c0.5-0.2,0.9-0.4,1.2-0.7
		c0.3-0.3,0.5-0.6,0.6-0.9C249.5,445.4,249.6,445.1,249.6,444.8z"/>
	<path class="st0" d="M254.7,445.8l8-6.9l4.8,0l0,6.4l2.4,0l0,3l-2.4,0l0,2.2l-4.4,0l0-2.2l-8.5,0L254.7,445.8z M263.2,445.3l0-3.4
		l-4,3.4L263.2,445.3z"/>
	<path class="st0" d="M275,447.4l0,3l-4.4,0l0-3L275,447.4z"/>
	<path class="st0" d="M283.3,443.6l-2.8,0l0-2.4c1.9-0.1,3.1-0.9,3.6-2.3l3.5,0l0,11.5l-4.4,0L283.3,443.6z"/>
	<path class="st0" d="M296.7,450.6l-0.7,0c-0.9,0-1.7-0.1-2.5-0.2c-0.7-0.1-1.4-0.3-1.9-0.5c-0.5-0.2-0.9-0.4-1.3-0.7
		c-0.4-0.3-0.7-0.5-0.9-0.8c-0.2-0.3-0.4-0.5-0.5-0.8c-0.1-0.3-0.2-0.6-0.2-0.8c0-0.2-0.1-0.4-0.1-0.7l0-0.1l4.5,0
		c0,0.1,0,0.2,0.1,0.3c0,0.1,0.1,0.2,0.2,0.4c0.1,0.2,0.3,0.3,0.5,0.5c0.2,0.1,0.5,0.2,0.9,0.3c0.4,0.1,0.9,0.1,1.4,0.1
		c0.6,0,1,0,1.4-0.1c0.4-0.1,0.7-0.1,0.9-0.2c0.2-0.1,0.4-0.2,0.5-0.3c0.1-0.1,0.2-0.2,0.2-0.3c0-0.1,0-0.2,0-0.3
		c0-0.5-0.5-0.8-1.4-0.8l-3.9,0l0-2.8l3.7,0c0.9,0,1.3-0.2,1.3-0.7l0,0c0-0.2-0.1-0.3-0.1-0.4c-0.1-0.1-0.4-0.2-0.9-0.3
		c-0.5-0.1-1.2-0.1-2-0.1c-0.5,0-1,0-1.4,0.1s-0.7,0.2-0.9,0.2c-0.2,0.1-0.3,0.2-0.4,0.3c-0.1,0.1-0.2,0.2-0.2,0.3
		c0,0.1,0,0.1,0,0.2l-4.5,0l0-0.2c0-0.2,0-0.4,0-0.6c0-0.2,0.1-0.4,0.2-0.7c0.1-0.3,0.3-0.5,0.5-0.7s0.5-0.5,0.8-0.7
		c0.4-0.2,0.8-0.4,1.3-0.6c0.5-0.2,1.1-0.3,1.8-0.4c0.7-0.1,1.5-0.2,2.4-0.2l0.7,0c1.3,0,2.4,0.1,3.3,0.2c0.9,0.1,1.6,0.3,2.1,0.5
		c0.5,0.2,0.9,0.4,1.2,0.7c0.3,0.3,0.5,0.5,0.6,0.8c0.1,0.2,0.1,0.5,0.1,0.8l0,0.1c0,0.5-0.2,1-0.6,1.3c-0.4,0.3-0.9,0.6-1.4,0.7
		c0.7,0.1,1.2,0.4,1.7,0.9c0.5,0.5,0.7,1.1,0.7,1.9l0,0.1C304.1,449.2,301.6,450.6,296.7,450.6z"/>
	<path class="st0" d="M309.6,444.3l5.1,0l0,2.9l-5.1,0L309.6,444.3z"/>
	<path class="st0" d="M322.9,443.5l-2.8,0l0-2.4c1.9-0.1,3.1-0.9,3.6-2.3l3.5,0l0,11.5l-4.4,0L322.9,443.5z"/>
	<path class="st0" d="M336.7,450.5l-0.7,0c-1.2,0-2.3-0.1-3.2-0.4c-0.9-0.3-1.7-0.6-2.2-0.9c-0.5-0.4-1-0.8-1.3-1.4
		c-0.3-0.5-0.5-1.1-0.6-1.5c-0.1-0.5-0.2-1-0.2-1.5l0-0.4c0-0.4,0-0.9,0.1-1.3c0.1-0.4,0.2-0.8,0.4-1.3c0.2-0.5,0.5-0.9,0.8-1.2
		c0.4-0.4,0.8-0.7,1.3-1c0.5-0.3,1.2-0.6,2-0.7c0.8-0.2,1.7-0.3,2.7-0.3l0.7,0c1.1,0,2,0.1,2.9,0.2c0.8,0.2,1.5,0.4,2,0.6
		c0.5,0.2,0.9,0.5,1.2,0.9c0.3,0.3,0.5,0.7,0.6,1c0.1,0.3,0.2,0.6,0.2,1l0,0.1l-4.5,0c-0.1-0.2-0.3-0.4-0.5-0.5
		c-0.5-0.3-1.2-0.4-2.2-0.4c-0.7,0-1.3,0.1-1.7,0.3c-0.5,0.2-0.8,0.4-1.1,0.7c-0.2,0.3-0.4,0.5-0.4,0.8c-0.1,0.2-0.1,0.5-0.1,0.8
		l0,0.1c1-0.7,2.6-1.1,4.8-1.1l0.2,0c0.9,0,1.8,0.1,2.5,0.2c0.7,0.1,1.3,0.3,1.7,0.5c0.4,0.2,0.8,0.5,1.1,0.8
		c0.3,0.3,0.5,0.6,0.6,0.9c0.1,0.3,0.2,0.7,0.2,1.1l0,0.1c0,0.4,0,0.8-0.1,1.1c-0.1,0.3-0.3,0.7-0.6,1.1c-0.3,0.4-0.7,0.7-1.2,1
		c-0.5,0.3-1.2,0.5-2.1,0.6C339,450.4,337.9,450.5,336.7,450.5z M333.3,446.5L333.3,446.5c0,0.8,1,1.2,3.1,1.2c2,0,3-0.4,3-1.2l0,0
		c0-0.2,0-0.3-0.1-0.4c-0.1-0.1-0.2-0.2-0.4-0.4c-0.2-0.1-0.5-0.2-0.9-0.3c-0.4-0.1-0.9-0.1-1.6-0.1
		C334.3,445.4,333.3,445.7,333.3,446.5z"/>
	<path class="st0" d="M349,447.2l0,3l-4.4,0l0-3L349,447.2z"/>
</g>
<g>
	<g>
		<polygon points="16.3,613.7 16.3,611.3 17.8,611.3 17.8,611.7 16.7,611.7 16.7,612.3 17.7,612.3 17.7,612.6 16.7,612.6 
			16.7,613.3 17.8,613.3 17.8,613.7 		"/>
		<path d="M19.2,613.4L19.2,613.4c0,0,0,0.1-0.1,0.1c0,0-0.1,0.1-0.1,0.1c0,0-0.1,0.1-0.1,0.1c-0.1,0-0.1,0-0.2,0
			c-0.2,0-0.3-0.1-0.4-0.2c-0.1-0.1-0.2-0.3-0.1-0.5v-1.1h0.4v1.1c0,0.3,0.1,0.4,0.3,0.4c0,0,0.1,0,0.1,0c0,0,0.1,0,0.1-0.1
			c0,0,0.1-0.1,0.1-0.1c0,0,0-0.1,0-0.1v-1.2h0.4v1.7h-0.4L19.2,613.4z"/>
		<path d="M20.1,613.7v-1.7h0.4v0.3l0,0c0-0.1,0.1-0.2,0.2-0.2c0.1-0.1,0.2-0.1,0.3-0.1h0.1v0.3H21c-0.1,0-0.2,0-0.3,0.1
			c-0.1,0-0.1,0.1-0.1,0.2v1.1L20.1,613.7z"/>
		<path d="M22.1,613.7c-0.1,0-0.2,0-0.3-0.1c-0.1,0-0.2-0.1-0.3-0.2c-0.1-0.1-0.1-0.2-0.2-0.3c0-0.1-0.1-0.2-0.1-0.4
			c0-0.1,0-0.3,0.1-0.4c0-0.1,0.1-0.2,0.2-0.3c0.1-0.1,0.2-0.1,0.3-0.2c0.1,0,0.2-0.1,0.3-0.1c0.1,0,0.2,0,0.3,0.1
			c0.1,0,0.2,0.1,0.2,0.2c0.1,0.1,0.1,0.2,0.2,0.3c0,0.1,0.1,0.2,0.1,0.4c0,0.1,0,0.3-0.1,0.4c0,0.1-0.1,0.2-0.2,0.3
			c-0.1,0.1-0.2,0.1-0.2,0.2C22.4,613.7,22.3,613.7,22.1,613.7 M22.2,613.4c0.1,0,0.2,0,0.3-0.1c0.1-0.1,0.1-0.2,0.1-0.3v-0.3
			c0-0.1,0-0.2-0.1-0.3c-0.2-0.2-0.4-0.2-0.6,0c-0.1,0.1-0.1,0.2-0.1,0.3v0.3c0,0.1,0,0.2,0.1,0.3C21.9,613.4,22,613.4,22.2,613.4
			 M22.2,611.8l-0.2-0.1l0.3-0.6l0.3,0.2L22.2,611.8z"/>
		<path d="M23.4,611.9h0.4v0.3l0,0c0-0.1,0.1-0.2,0.2-0.2c0.1-0.1,0.2-0.1,0.3-0.1c0.2,0,0.4,0.1,0.5,0.2c0.2,0.4,0.2,0.9,0,1.3
			c-0.1,0.2-0.3,0.2-0.5,0.2c-0.1,0-0.2,0-0.3-0.1c-0.1-0.1-0.2-0.1-0.2-0.2l0,0v1h-0.4V611.9z M24.1,613.4c0.1,0,0.2,0,0.3-0.1
			c0.1-0.1,0.1-0.2,0.1-0.3v-0.3c0-0.1,0-0.2-0.1-0.3c-0.1-0.1-0.2-0.1-0.3-0.1c-0.1,0-0.2,0-0.3,0.1c-0.1,0-0.1,0.1-0.1,0.2v0.6
			c0,0.1,0,0.2,0.1,0.2C23.9,613.3,24,613.4,24.1,613.4"/>
		<path d="M26.6,613.7c-0.1,0-0.2,0-0.2-0.1c-0.1-0.1-0.1-0.1-0.1-0.2l0,0c0,0.1-0.1,0.2-0.2,0.2c-0.1,0.1-0.2,0.1-0.3,0.1
			c-0.2,0-0.3,0-0.4-0.1c-0.1-0.1-0.2-0.2-0.1-0.4c0-0.2,0.1-0.3,0.2-0.4c0.2-0.1,0.4-0.1,0.5-0.1h0.3v-0.1c0-0.1,0-0.2-0.1-0.2
			c-0.1-0.1-0.2-0.1-0.3-0.1c-0.1,0-0.2,0-0.2,0.1c-0.1,0-0.1,0.1-0.2,0.2l-0.2-0.2c0.1-0.1,0.1-0.2,0.2-0.2
			c0.1-0.1,0.3-0.1,0.4-0.1c0.2,0,0.4,0,0.5,0.2c0.1,0.1,0.2,0.3,0.2,0.4v0.9h0.2v0.3H26.6z M25.9,613.4c0.1,0,0.2,0,0.3-0.1
			c0.1,0,0.1-0.1,0.1-0.2v-0.3H26c-0.2,0-0.4,0.1-0.4,0.2v0.1c0,0.1,0,0.1,0.1,0.2C25.8,613.4,25.8,613.4,25.9,613.4"/>
		<polygon points="28.8,612.6 28.5,612.9 28.5,613.7 28.1,613.7 28.1,611.3 28.5,611.3 28.5,612.5 28.5,612.5 28.8,612.1 
			29.4,611.3 29.9,611.3 29.1,612.3 30,613.7 29.5,613.7 		"/>
		<path d="M31.3,613.4L31.3,613.4c0,0,0,0.1-0.1,0.1c0,0-0.1,0.1-0.1,0.1c0,0-0.1,0.1-0.1,0.1c-0.1,0-0.1,0-0.2,0
			c-0.2,0-0.3-0.1-0.4-0.2c-0.1-0.1-0.2-0.3-0.1-0.5v-1.1h0.4v1.1c0,0.3,0.1,0.4,0.3,0.4c0,0,0.1,0,0.1,0l0.1-0.1
			c0,0,0.1-0.1,0.1-0.1c0,0,0-0.1,0-0.1v-1.2h0.4v1.7h-0.3V613.4z"/>
		<path d="M32.5,613.7c-0.2,0-0.3-0.1-0.4-0.3c0,0,0-0.1,0-0.1v-2.1h0.4v2.2h0.2v0.3L32.5,613.7z"/>
		<path d="M33.6,613.7c-0.1,0-0.2,0-0.3-0.1c-0.1-0.1-0.1-0.2-0.1-0.3v-1.1h-0.3v-0.3h0.1c0,0,0.1,0,0.1,0c0,0,0-0.1,0-0.1v-0.3h0.3
			v0.5h0.4v0.3h-0.4v1.1h0.3v0.3L33.6,613.7z"/>
		<path d="M35.4,613.4L35.4,613.4c0,0,0,0.1-0.1,0.1c0,0-0.1,0.1-0.1,0.1c0,0-0.1,0.1-0.1,0.1c-0.1,0-0.1,0-0.2,0
			c-0.2,0-0.3-0.1-0.4-0.2c-0.1-0.1-0.2-0.3-0.2-0.5v-1.1h0.4v1.1c0,0.3,0.1,0.4,0.3,0.4c0,0,0.1,0,0.1,0l0.1-0.1
			c0,0,0.1-0.1,0.1-0.1c0,0,0-0.1,0-0.1v-1.2h0.4v1.7h-0.4L35.4,613.4z"/>
		<path d="M36.3,613.7v-1.7h0.4v0.3l0,0c0-0.1,0.1-0.2,0.2-0.2c0.1-0.1,0.2-0.1,0.3-0.1h0.1v0.3h-0.1c-0.1,0-0.2,0-0.3,0.1
			c-0.1,0-0.1,0.1-0.1,0.2v1.1L36.3,613.7z"/>
		<path d="M38.9,613.7c-0.1,0-0.2,0-0.2-0.1c-0.1-0.1-0.1-0.1-0.1-0.2l0,0c0,0.1-0.1,0.2-0.2,0.2c-0.1,0.1-0.2,0.1-0.3,0.1
			c-0.2,0-0.3,0-0.4-0.1c-0.1-0.1-0.2-0.2-0.1-0.4c0-0.2,0.1-0.3,0.2-0.4c0.2-0.1,0.4-0.1,0.6-0.1h0.3v-0.1c0-0.1,0-0.2-0.1-0.2
			c-0.1-0.1-0.2-0.1-0.3-0.1c-0.1,0-0.2,0-0.3,0.1c-0.1,0-0.1,0.1-0.2,0.2l-0.2-0.2c0.1-0.1,0.2-0.2,0.3-0.2
			c0.1-0.1,0.3-0.1,0.4-0.1c0.2,0,0.4,0,0.5,0.2c0.1,0.1,0.2,0.3,0.2,0.4v0.9h0.2v0.3L38.9,613.7z M38.1,613.4c0.1,0,0.2,0,0.3-0.1
			c0.1,0,0.1-0.1,0.1-0.2v-0.3h-0.3c-0.3,0-0.4,0.1-0.4,0.2v0.1c0,0.1,0,0.1,0.1,0.2C38,613.4,38.1,613.4,38.1,613.4 M38.2,611.7
			l-0.2-0.1l0.3-0.6l0.3,0.2L38.2,611.7z"/>
		<path d="M39.8,613.7c-0.1,0-0.2,0-0.3-0.1c-0.1-0.1-0.1-0.2-0.1-0.3v-2.1h0.4v2.2H40v0.3L39.8,613.7z"/>
		<path d="M40.6,611.6c-0.1,0-0.1,0-0.2-0.1c0,0-0.1-0.1-0.1-0.1v-0.1c0-0.1,0-0.1,0.1-0.1c0,0,0.1-0.1,0.2-0.1c0.1,0,0.1,0,0.2,0.1
			c0,0,0.1,0.1,0.1,0.1v0.1c0,0.1,0,0.1-0.1,0.1C40.7,611.6,40.6,611.6,40.6,611.6 M40.4,611.9h0.4v1.7h-0.4V611.9z"/>
		<path d="M41.8,613.7c-0.1,0-0.3,0-0.4-0.1c-0.1-0.1-0.2-0.1-0.3-0.2l0.2-0.2c0.1,0.1,0.1,0.1,0.2,0.2c0.1,0,0.2,0.1,0.3,0.1
			c0.1,0,0.2,0,0.2-0.1c0.1,0,0.1-0.1,0.1-0.2c0-0.1,0-0.1-0.1-0.1c-0.1,0-0.1-0.1-0.2-0.1h-0.2c-0.1,0-0.3-0.1-0.4-0.2
			c-0.1-0.1-0.2-0.2-0.2-0.4c0-0.1,0-0.2,0-0.2c0-0.1,0.1-0.1,0.1-0.2c0.1,0,0.1-0.1,0.2-0.1c0.1,0,0.2,0,0.3,0
			c0.2,0,0.5,0.1,0.6,0.3l-0.2,0.2c0-0.1-0.1-0.1-0.2-0.1c-0.1,0-0.2-0.1-0.2-0.1c-0.1,0-0.2,0-0.2,0.1c0,0-0.1,0.1-0.1,0.2
			c0,0.1,0,0.1,0.1,0.1c0.1,0,0.1,0.1,0.2,0.1H42c0.2,0,0.3,0.1,0.4,0.2c0.1,0.1,0.1,0.2,0.1,0.3c0,0.1,0,0.2-0.1,0.2
			c0,0.1-0.1,0.1-0.1,0.2c-0.1,0-0.1,0.1-0.2,0.1C42,613.7,41.9,613.7,41.8,613.7"/>
		<polygon points="43.8,613.7 43.8,611.3 45.3,611.3 45.3,611.7 44.2,611.7 44.2,612.3 45.2,612.3 45.2,612.6 44.2,612.6 
			44.2,613.7 		"/>
		<path d="M46.4,613.7c-0.1,0-0.2,0-0.3-0.1c-0.1,0-0.2-0.1-0.3-0.2c-0.1-0.1-0.1-0.2-0.2-0.3c0-0.1-0.1-0.2-0.1-0.4
			c0-0.1,0-0.3,0.1-0.4c0-0.1,0.1-0.2,0.2-0.3c0.1-0.1,0.2-0.1,0.3-0.2c0.1,0,0.2-0.1,0.3-0.1c0.1,0,0.2,0,0.3,0.1
			c0.1,0,0.2,0.1,0.2,0.2c0.1,0.1,0.1,0.2,0.2,0.3c0,0.1,0.1,0.2,0.1,0.4c0,0.1,0,0.3-0.1,0.4c0,0.1-0.1,0.2-0.2,0.3
			c-0.1,0.1-0.2,0.1-0.2,0.2C46.6,613.7,46.5,613.7,46.4,613.7 M46.1,611.7l-0.2-0.1l0.3-0.6l0.3,0.1L46.1,611.7z M46.4,613.4
			c0.1,0,0.2,0,0.3-0.1c0.1-0.1,0.1-0.2,0.1-0.3v-0.3c0-0.1,0-0.2-0.1-0.3c-0.2-0.2-0.4-0.2-0.6,0c-0.1,0.1-0.1,0.2-0.1,0.3v0.3
			c0,0.1,0,0.2,0.1,0.3C46.2,613.4,46.3,613.4,46.4,613.4 M46.7,611.7l-0.2-0.1l0.3-0.6l0.3,0.1L46.7,611.7z"/>
		<polygon points="48,613.7 47.4,611.9 47.8,611.9 48,612.7 48.2,613.3 48.2,613.3 48.4,612.7 48.7,611.9 49,611.9 48.4,613.7 		"/>
		<path d="M50.6,613.7c-0.1,0-0.2,0-0.2-0.1c-0.1-0.1-0.1-0.1-0.1-0.2l0,0c0,0.1-0.1,0.2-0.2,0.2c-0.1,0.1-0.2,0.1-0.3,0.1
			c-0.2,0-0.3,0-0.4-0.1c-0.1-0.1-0.2-0.2-0.1-0.4c0-0.2,0.1-0.3,0.2-0.4c0.2-0.1,0.4-0.1,0.6-0.1h0.3v-0.1c0-0.1,0-0.2-0.1-0.2
			c-0.1-0.1-0.2-0.1-0.3-0.1c-0.1,0-0.2,0-0.2,0.1c-0.1,0-0.1,0.1-0.2,0.2l-0.2-0.2c0.1-0.1,0.1-0.2,0.2-0.2
			c0.1-0.1,0.3-0.1,0.4-0.1c0.2,0,0.4,0,0.5,0.2c0.1,0.1,0.2,0.3,0.2,0.4v0.9h0.2v0.3H50.6z M49.9,613.4c0.1,0,0.2,0,0.3-0.1
			c0.1,0,0.1-0.1,0.1-0.2v-0.3H50c-0.3,0-0.4,0.1-0.4,0.2v0.1c0,0.1,0,0.1,0.1,0.2C49.7,613.4,49.8,613.4,49.9,613.4 M50,611.7
			l-0.2-0.1l0.3-0.6l0.3,0.2L50,611.7z"/>
		<path d="M51.2,613.7v-1.7h0.4v0.3l0,0c0-0.1,0.1-0.2,0.2-0.2c0.1-0.1,0.2-0.1,0.3-0.1h0.1v0.3H52c-0.1,0-0.2,0-0.3,0.1
			c-0.1,0-0.1,0.1-0.1,0.2v1.1L51.2,613.7z"/>
		<path d="M53.2,613.7c-0.1,0-0.2,0-0.3-0.1c-0.1,0-0.2-0.1-0.2-0.2c-0.1-0.1-0.1-0.2-0.2-0.3c0-0.1-0.1-0.2-0.1-0.4
			c0-0.1,0-0.3,0.1-0.4c0-0.1,0.1-0.2,0.2-0.3c0.1-0.1,0.2-0.1,0.2-0.2c0.1,0,0.2-0.1,0.3-0.1c0.1,0,0.2,0,0.3,0.1
			c0.1,0,0.2,0.1,0.2,0.2c0.1,0.1,0.1,0.2,0.2,0.3c0,0.1,0.1,0.2,0.1,0.4c0,0.1,0,0.3-0.1,0.4c0,0.1-0.1,0.2-0.2,0.3
			c-0.1,0.1-0.2,0.1-0.2,0.2C53.4,613.7,53.3,613.7,53.2,613.7 M53.2,613.4c0.1,0,0.2,0,0.3-0.1c0.1-0.1,0.1-0.2,0.1-0.3v-0.3
			c0-0.1,0-0.2-0.1-0.3c-0.1-0.1-0.2-0.1-0.3-0.1c-0.1,0-0.2,0-0.3,0.1c-0.1,0.1-0.1,0.2-0.1,0.3v0.3c0,0.1,0,0.2,0.1,0.3
			C53,613.4,53.1,613.4,53.2,613.4"/>
		<path d="M55,613.7c-0.1,0-0.3,0-0.4-0.1c-0.1-0.1-0.2-0.1-0.3-0.2l0.2-0.2c0.1,0.1,0.1,0.1,0.2,0.2c0.1,0,0.2,0.1,0.3,0.1
			c0.1,0,0.2,0,0.2-0.1c0,0,0.1-0.1,0.1-0.2c0-0.1,0-0.1-0.1-0.1c-0.1,0-0.1-0.1-0.2-0.1h-0.2c-0.1,0-0.3-0.1-0.4-0.2
			c-0.2-0.2-0.2-0.4-0.1-0.6c0-0.1,0.1-0.1,0.1-0.2c0.1,0,0.1-0.1,0.2-0.1c0.1,0,0.2,0,0.3,0c0.1,0,0.3,0,0.4,0.1
			c0.1,0,0.2,0.1,0.3,0.2l-0.2,0.2c-0.1-0.1-0.3-0.2-0.4-0.2c-0.1,0-0.2,0-0.2,0.1c0,0-0.1,0.1-0.1,0.2c0,0.1,0,0.1,0.1,0.1
			c0.1,0,0.1,0.1,0.2,0.1h0.2c0.2,0,0.3,0.1,0.4,0.2c0.1,0.1,0.1,0.2,0.1,0.3c0,0.1,0,0.2,0,0.2c0,0.1-0.1,0.1-0.1,0.2
			c-0.1,0-0.1,0.1-0.2,0.1C55.2,613.7,55.1,613.7,55,613.7"/>
		<path d="M57.4,613.7c-0.1,0-0.2,0-0.2-0.1c-0.1-0.1-0.1-0.1-0.1-0.2l0,0c0,0.1-0.1,0.2-0.2,0.2c-0.1,0.1-0.2,0.1-0.3,0.1
			c-0.2,0-0.3,0-0.4-0.1c-0.1-0.1-0.2-0.2-0.1-0.4c0-0.2,0.1-0.3,0.2-0.4c0.2-0.1,0.4-0.1,0.6-0.1h0.3v-0.1c0-0.1,0-0.2-0.1-0.2
			c-0.1-0.1-0.2-0.1-0.3-0.1c-0.1,0-0.2,0-0.3,0.1c-0.1,0-0.1,0.1-0.2,0.2l-0.2-0.2c0.1-0.1,0.1-0.2,0.2-0.2
			c0.1-0.1,0.3-0.1,0.4-0.1c0.2,0,0.4,0,0.5,0.2c0.1,0.1,0.2,0.3,0.2,0.4v0.9h0.2v0.3H57.4z M56.7,613.4c0.1,0,0.2,0,0.3-0.1
			c0.1,0,0.1-0.1,0.1-0.2v-0.3h-0.3c-0.3,0-0.4,0.1-0.4,0.2v0.1c0,0.1,0,0.1,0.1,0.2C56.5,613.4,56.6,613.4,56.7,613.4"/>
		<polygon points="17.8,607.4 15.6,600.9 16.7,600.9 17.8,604.1 18.4,606.4 18.4,606.4 19.1,604.1 20.1,600.9 21.2,600.9 19,607.4 
					"/>
		<polygon points="22.3,607.4 22.3,600.9 26.5,600.9 26.5,601.9 23.3,601.9 23.3,603.7 26.2,603.7 26.2,604.6 23.3,604.6 
			23.3,606.5 26.5,606.5 26.5,607.4 		"/>
		<path d="M27.9,600.9h2.9c0.5,0,0.9,0.1,1.3,0.5c0.3,0.3,0.5,0.8,0.5,1.2c0,0.2,0,0.4-0.1,0.6c-0.1,0.2-0.1,0.3-0.3,0.4
			c-0.1,0.1-0.2,0.2-0.4,0.2c-0.1,0.1-0.3,0.1-0.4,0.1v0.1c0.1,0,0.3,0,0.4,0.1c0.2,0.1,0.3,0.1,0.4,0.3c0.1,0.1,0.3,0.3,0.3,0.5
			c0.1,0.2,0.2,0.5,0.1,0.7c0,0.2,0,0.5-0.1,0.7c-0.1,0.2-0.2,0.4-0.3,0.6c-0.1,0.2-0.3,0.3-0.5,0.4c-0.2,0.1-0.4,0.1-0.7,0.1h-3.2
			L27.9,600.9z M29,603.7h1.6c0.2,0,0.4-0.1,0.6-0.2c0.2-0.2,0.2-0.4,0.2-0.6v-0.3c0-0.2-0.1-0.4-0.2-0.6c-0.2-0.1-0.4-0.2-0.6-0.2
			H29V603.7z M29,606.5h1.8c0.2,0,0.5-0.1,0.6-0.2c0.2-0.2,0.3-0.4,0.2-0.6v-0.3c0-0.2-0.1-0.5-0.2-0.6c-0.2-0.2-0.4-0.2-0.6-0.2H29
			V606.5z"/>
		<path d="M41,607.4h-4.4v-1l2.1-1.9c0.3-0.3,0.5-0.5,0.8-0.9c0.2-0.3,0.3-0.5,0.3-0.8v-0.1c0-0.3-0.1-0.5-0.3-0.7
			c-0.2-0.2-0.5-0.3-0.8-0.3c-0.2,0-0.3,0-0.5,0.1c-0.1,0-0.2,0.1-0.3,0.2c-0.1,0.1-0.2,0.2-0.2,0.3c-0.1,0.1-0.1,0.3-0.2,0.4
			l-0.9-0.4c0.1-0.2,0.2-0.4,0.3-0.6c0.1-0.2,0.3-0.4,0.4-0.5c0.2-0.2,0.4-0.3,0.6-0.3c0.3-0.1,0.6-0.1,0.9-0.1c0.3,0,0.6,0,0.9,0.1
			c0.2,0.1,0.5,0.2,0.7,0.4c0.2,0.2,0.3,0.4,0.4,0.6c0.1,0.2,0.1,0.5,0.1,0.8c0,0.2,0,0.5-0.1,0.7c-0.1,0.2-0.2,0.4-0.3,0.6
			c-0.2,0.2-0.3,0.4-0.5,0.6c-0.2,0.2-0.4,0.4-0.6,0.6l-1.5,1.3H41V607.4z"/>
		<path d="M44.4,607.5c-0.4,0-0.7-0.1-1.1-0.2c-0.3-0.2-0.5-0.4-0.7-0.7c-0.2-0.3-0.4-0.7-0.4-1.1c-0.2-0.9-0.2-1.9,0-2.9
			c0.1-0.4,0.2-0.7,0.4-1.1c0.2-0.3,0.4-0.5,0.7-0.7c0.3-0.2,0.7-0.2,1.1-0.2c0.7-0.1,1.4,0.3,1.8,0.9c0.8,1.6,0.8,3.4,0,5
			C45.8,607.3,45.1,607.6,44.4,607.5 M44.4,606.7c0.2,0,0.4,0,0.6-0.1c0.2-0.1,0.3-0.2,0.4-0.4c0.1-0.2,0.2-0.4,0.2-0.6
			c0-0.3,0.1-0.5,0.1-0.8v-1.1c0-0.3,0-0.5-0.1-0.8c0-0.2-0.1-0.4-0.2-0.6c-0.1-0.2-0.2-0.3-0.4-0.4c-0.4-0.2-0.8-0.2-1.2,0
			c-0.2,0.1-0.3,0.2-0.4,0.4c-0.1,0.2-0.2,0.4-0.2,0.6c0,0.3-0.1,0.5-0.1,0.8v1.1c0,0.3,0,0.5,0.1,0.8c0,0.2,0.1,0.4,0.2,0.6
			c0.1,0.2,0.2,0.3,0.4,0.4C44,606.6,44.2,606.6,44.4,606.7"/>
		<path d="M52.3,607.4h-4.4v-1l2.1-1.9c0.3-0.3,0.5-0.5,0.8-0.9c0.2-0.3,0.3-0.5,0.3-0.8v-0.1c0-0.3-0.1-0.5-0.3-0.7
			c-0.2-0.2-0.5-0.3-0.8-0.3c-0.2,0-0.3,0-0.5,0.1c-0.1,0-0.2,0.1-0.3,0.2c-0.1,0.1-0.2,0.2-0.2,0.3c-0.1,0.1-0.1,0.3-0.2,0.4
			l-0.9-0.4c0.1-0.2,0.2-0.4,0.3-0.6c0.1-0.2,0.3-0.4,0.4-0.5c0.2-0.2,0.4-0.3,0.6-0.3c0.3-0.1,0.6-0.1,0.9-0.1c0.3,0,0.6,0,0.9,0.1
			c0.2,0.1,0.5,0.2,0.7,0.4c0.2,0.2,0.3,0.4,0.4,0.6c0.1,0.2,0.1,0.5,0.1,0.8c0,0.2,0,0.5-0.1,0.7c-0.1,0.2-0.2,0.4-0.3,0.6
			c-0.2,0.2-0.3,0.4-0.5,0.6c-0.2,0.2-0.4,0.4-0.6,0.6l-1.5,1.3h3.3V607.4z"/>
		<path d="M55.5,603.6c0.3,0,0.6-0.1,0.9-0.3c0.2-0.2,0.3-0.4,0.3-0.7v-0.1c0-0.3-0.1-0.5-0.3-0.7c-0.2-0.2-0.5-0.2-0.7-0.2
			c-0.3,0-0.6,0.1-0.8,0.2c-0.2,0.1-0.4,0.3-0.6,0.6l-0.7-0.6c0.1-0.1,0.2-0.3,0.3-0.4c0.1-0.1,0.3-0.2,0.4-0.3
			c0.2-0.1,0.4-0.2,0.6-0.2c0.2-0.1,0.5-0.1,0.7-0.1c0.3,0,0.6,0,0.8,0.1c0.2,0.1,0.5,0.2,0.7,0.3c0.2,0.1,0.3,0.3,0.4,0.5
			c0.1,0.2,0.2,0.5,0.2,0.7c0,0.2,0,0.4-0.1,0.6c-0.1,0.2-0.2,0.3-0.3,0.4c-0.1,0.1-0.2,0.2-0.4,0.3c-0.2,0.1-0.3,0.1-0.5,0.2v0
			c0.2,0,0.4,0.1,0.5,0.2c0.2,0.1,0.3,0.2,0.4,0.3c0.1,0.1,0.2,0.3,0.3,0.5c0.1,0.2,0.1,0.4,0.1,0.6c0,0.3-0.1,0.5-0.2,0.8
			c-0.1,0.2-0.3,0.4-0.5,0.6c-0.2,0.2-0.5,0.3-0.7,0.4c-0.3,0.1-0.6,0.1-1,0.1c-0.3,0-0.5,0-0.8-0.1c-0.2-0.1-0.4-0.1-0.6-0.3
			c-0.2-0.1-0.3-0.2-0.5-0.4c-0.1-0.1-0.2-0.3-0.4-0.4l0.8-0.6c0.1,0.1,0.2,0.2,0.3,0.4c0.2,0.2,0.4,0.4,0.7,0.5
			c0.2,0,0.3,0.1,0.5,0.1c0.3,0,0.7-0.1,0.9-0.3c0.2-0.2,0.3-0.5,0.3-0.8v-0.1c0-0.3-0.1-0.6-0.3-0.8c-0.3-0.2-0.6-0.3-1-0.3h-0.7
			v-0.9L55.5,603.6z"/>
		<path d="M38.1,586l3-7.2c0.2-0.4,0.6-0.6,1-0.4l0.2,0.1c0.4,0.2,0.6,0.6,0.4,1l-3,7.2c-0.2,0.4-0.6,0.6-1,0.4l-0.2-0.1
			C38.1,586.8,37.9,586.4,38.1,586z"/>
		<path d="M23.8,586l0.1-0.2c0.2-0.4,0.6-0.6,1-0.4l6.2,2.6c0.4,0.2,0.6,0.6,0.4,1l-0.1,0.2c-0.2,0.4-0.6,0.6-1,0.4l-6.2-2.6
			C23.8,586.9,23.7,586.4,23.8,586z"/>
		<path d="M42.6,588l6.2-2.5c0.4-0.2,0.8,0,1,0.4l0.1,0.2c0.2,0.4,0,0.8-0.4,1l-6.2,2.5c-0.4,0.2-0.8,0-1-0.4l-0.1-0.2
			C42,588.6,42.2,588.2,42.6,588z"/>
		<path d="M29.4,578l0.2-0.1c0.4-0.2,0.8,0,1,0.4l4.7,11.5c0.2,0.4,0,0.8-0.4,1l-0.2,0.1c-0.4,0.2-0.8,0-1-0.4L29,579
			C28.8,578.6,29,578.1,29.4,578z"/>
	</g>
	<g>
		<path d="M74.1,602.4v-0.8c0-6.5,0-13.1,0-19.6c0-0.4,0-0.4,0.4-0.4h28.7v8.8l-0.4-0.2c-0.7-0.3-1.4-0.5-2.1-0.6
			c-0.9-0.2-1.9-0.2-2.8-0.2c-0.9,0.1-1.7,0.2-2.6,0.5c-0.4,0.1-0.8,0.3-1.2,0.5c-0.4,0.2-0.8,0.5-1.2,0.8c-0.5,0.3-0.9,0.7-1.3,1.1
			c-0.3,0.3-0.6,0.7-0.8,1c-0.1,0.1-0.2,0.3-0.3,0.4c-0.2,0.4-0.5,0.7-0.7,1.1c-0.2,0.4-0.6,0.9-0.8,1.3c-0.4,0.6-0.7,1.2-1.1,1.8
			c-0.2,0.3-0.4,0.6-0.7,0.9c-0.2,0.3-0.4,0.6-0.7,0.9c-0.4,0.4-0.8,0.8-1.4,1c-0.6,0.3-1.3,0.2-1.9-0.1c-0.5-0.2-0.9-0.5-1.3-0.7
			s-1-0.4-1.5-0.6c-0.1-0.1-0.3-0.1-0.5-0.1c-0.6,0-1.2,0-1.7,0.1c-0.4,0.1-0.8,0.2-1.2,0.4c-0.1,0-0.2,0.1-0.3,0.2
			c-0.3,0.3-0.7,0.5-1,0.8c-0.3,0.3-0.6,0.5-0.9,0.8c-0.2,0.2-0.3,0.5-0.5,0.7c-0.1,0.1-0.2,0.2-0.3,0.3L74.1,602.4z"/>
		<path d="M74.1,610.5c0.4,0,0.7-0.1,1.1-0.1l2.3-0.2c0.6,0,1.3-0.1,1.9-0.1c1.1,0,2.2-0.1,3.4-0.1c0.7,0,1.5,0.1,2.3,0.1
			s1.6,0,2.3,0c0.9,0,1.9-0.1,2.8-0.2c0.6-0.1,1.3-0.1,1.9-0.2c1-0.1,2-0.2,2.9-0.4c0.2,0,0.3,0,0.5,0c0.5,0,1.1-0.1,1.6-0.1
			c0.7,0,1.3-0.1,2-0.1c1.3,0,2.5-0.1,3.8-0.1c0.1,0,0.2,0,0.2,0c0,0.4,0,0.9,0,1.3c0,0.1-0.1,0.1-0.2,0.1H87.7h-4.5h-4.2h-4.7h-0.2
			L74.1,610.5z"/>
		<path d="M103.2,601c-0.4,0-0.7-0.1-1.1-0.1c-0.9,0-1.8-0.1-2.7-0.1c-0.5,0-0.9,0-1.4,0.1c-0.3,0-0.5,0.1-0.8,0.2
			c-0.4,0.1-0.8,0.2-1.1,0.3c-0.4,0.1-0.9,0.3-1.3,0.4c-0.7,0.3-1.3,0.6-1.9,0.9c-0.1,0.1-0.2,0.2-0.3,0.2l-1.5,0.9
			c-0.6,0.3-1.1,0.7-1.7,1c-1,0.6-2.1,1-3.2,1.1c-0.9,0.1-1.8-0.1-2.6-0.3c-0.7-0.2-1.4-0.4-2.1-0.4c-0.3,0-0.7-0.1-1,0
			c-0.6,0-1.2,0.1-1.8,0.2c-0.8,0.1-1.5,0.4-2.3,0.7c-0.3,0.2-0.7,0.3-1,0.4l-0.1-0.1c0.1-0.1,0.1-0.1,0.2-0.2
			c0.4-0.2,0.8-0.5,1.3-0.7c0.9-0.4,1.8-0.7,2.8-0.9c0.7-0.1,1.5-0.1,2.2,0.1c0.5,0.1,1,0.2,1.5,0.4c0.9,0.3,1.8,0.5,2.7,0.4
			c0.3,0,0.5,0,0.8-0.1l-0.1-0.1c1.1-0.3,2.1-0.8,3-1.5c0.6-0.4,1.2-0.9,1.8-1.4c0.8-0.6,1.7-1.2,2.5-1.8c0.5-0.3,1-0.6,1.6-0.7
			c0.4-0.1,0.7-0.3,1.1-0.4c0.7-0.2,1.4-0.3,2.2-0.4c0.9-0.1,1.8-0.1,2.7,0c0.5,0.1,1,0.1,1.6,0.2c0.2,0,0.2,0.1,0.2,0.2
			C103.2,600.4,103.2,600.7,103.2,601z"/>
		<path d="M75.4,604.7c0.3-0.2,0.6-0.5,0.9-0.7c0.7-0.5,1.4-0.8,2.3-1c0.6-0.2,1.3-0.2,2-0.1c0.6,0.1,1.2,0.3,1.7,0.4
			c0.1,0,0.3,0.1,0.2,0.3c0.3-0.1,0.6,0.1,0.8,0.2c1,0.4,2.1,0.5,3.1,0.1c0.8-0.3,1.4-0.7,2-1.3c0.3-0.3,0.7-0.7,1.1-1
			c0.3-0.4,0.7-0.8,1.1-1.2c0.3-0.3,0.7-0.6,1-1c0.5-0.6,1-1.1,1.7-1.6c0.6-0.4,1.2-0.8,1.9-1.1c0.9-0.4,1.8-0.7,2.8-0.8
			c0.8-0.1,1.6-0.1,2.4-0.1c0.7,0.1,1.5,0.2,2.2,0.3c0.2,0,0.4,0.1,0.6,0.2c0.1,0.1,0.2,0.3,0.2,0.4c0,0.3,0,0.5-0.1,0.8
			c-0.2-0.1-0.4-0.1-0.7-0.2c-1.2-0.2-2.4-0.3-3.6-0.2c-0.5,0-1.1,0.1-1.6,0.3c-0.7,0.2-1.3,0.3-2,0.5c-0.4,0.1-0.7,0.3-1.1,0.5
			c-0.8,0.4-1.5,0.9-2.2,1.5c-0.1,0.1-0.2,0.2-0.4,0.3c-0.1,0-0.2,0.1-0.2,0.1c-0.1,0-0.1,0.1-0.1,0.1c-0.1,0.3-0.4,0.4-0.6,0.6
			l-0.9,0.8c-0.2,0.2-0.4,0.4-0.7,0.7c-0.4,0.3-0.8,0.7-1.2,1c-0.5,0.4-1.1,0.6-1.7,0.8c-0.6,0.1-1.2,0.2-1.7,0.1
			c-0.4-0.1-0.8-0.2-1.2-0.4c-0.6-0.2-1.2-0.4-1.8-0.5c-0.6-0.1-1.3-0.2-1.9-0.1c-0.7,0.1-1.5,0.3-2.2,0.5c-0.3,0.1-0.6,0.2-0.8,0.4
			l-0.8,0.5C75.6,604.7,75.6,604.7,75.4,604.7L75.4,604.7z"/>
		<path d="M75,605.9c0.3-0.3,0.6-0.5,1-0.7c0.5-0.3,1.1-0.6,1.7-0.9c0.4-0.2,0.9-0.3,1.4-0.4c0.5-0.1,1-0.1,1.5-0.1
			c0.5,0,1,0.1,1.4,0.3c0.3,0.1,0.6,0.2,0.9,0.3c0.3,0.1,0.4,0.2,0.7,0.3c0.2,0.1,0.5,0.1,0.7,0.2c1,0.2,2.1,0.1,3.1-0.3
			c0.7-0.4,1.3-0.8,1.9-1.3c0.3-0.2,0.5-0.4,0.7-0.6c0.2-0.2,0.5-0.5,0.8-0.7c0.3-0.2,0.7-0.7,1.1-1c0.6-0.5,1.3-1.1,1.9-1.5
			c0.8-0.5,1.6-0.9,2.5-1.2c1.9-0.6,3.9-0.7,5.8-0.4c0.3,0,0.6,0.1,0.9,0.2c0.1,0,0.2,0.1,0.2,0.2c0,0.3,0,0.7,0,1
			c-0.4-0.1-0.9-0.1-1.3-0.2c-0.8-0.1-1.6-0.2-2.4-0.1c-0.7,0-1.5,0.1-2.2,0.3c-0.8,0.2-1.5,0.4-2.3,0.7c-0.7,0.3-1.4,0.6-2,1
			c-0.4,0.2-0.8,0.5-1.1,0.8c-0.3,0.2-0.6,0.5-0.9,0.7c-0.5,0.3-0.9,0.7-1.4,1c-0.5,0.3-1.1,0.7-1.7,1.1c-0.4,0.2-0.9,0.4-1.4,0.6
			c-0.9,0.2-1.8,0.2-2.6-0.1c-0.6-0.2-1.2-0.4-1.8-0.6c-0.2-0.1-0.5-0.1-0.7-0.1c-0.6,0-1.1,0-1.7,0c-0.4,0-0.9,0.1-1.3,0.2
			c-0.5,0.1-1,0.3-1.5,0.5c-0.3,0.1-0.6,0.3-0.8,0.4c-0.3,0.1-0.5,0.3-0.8,0.4L75,605.9L75,605.9z"/>
		<path d="M103.1,603.5c0,0.4,0,0.7,0,1.1c0,0.2-0.1,0.3-0.2,0.3c-0.6,0-1.2-0.1-1.7-0.1c-0.9,0-1.7,0-2.6,0.1
			c-0.6,0-1.1,0.2-1.7,0.2c-0.3,0-0.6,0-0.9,0.1c-0.1,0-0.3,0.1-0.4,0.1c-0.5,0.1-0.9,0.2-1.4,0.4c-0.6,0.2-1.2,0.4-1.8,0.6
			s-1.3,0.5-1.9,0.7l-0.4,0.1c-0.7,0.2-1.3,0.4-2,0.6c-0.6,0.1-1.2,0.2-1.8,0.2c-0.5,0-1,0-1.5,0c-0.3,0-0.6-0.1-0.9-0.2
			c-0.3,0-0.6-0.1-1-0.1c-0.6,0-1.2-0.1-1.8-0.1c-0.6,0-1.3,0-1.9,0c-0.6,0-1.2,0.2-1.8,0.3c-0.6,0.1-1,0.2-1.5,0.3
			c-0.3,0.1-0.5,0.2-0.8,0.2c-0.1,0-0.3,0.1-0.4,0.1v-0.1c0.3-0.1,0.6-0.3,0.9-0.4c0.5-0.2,1.1-0.4,1.7-0.5c0.7-0.2,1.5-0.3,2.2-0.4
			c0.5-0.1,1-0.1,1.5-0.1c0.9,0,1.7,0.1,2.5,0.4c0.9,0.3,1.8,0.4,2.8,0.3c0.7-0.1,1.3-0.2,1.9-0.4c0.9-0.3,1.7-0.6,2.5-1
			c0.5-0.2,1-0.5,1.5-0.7c0.5-0.2,1.2-0.6,1.8-0.8c0.8-0.3,1.6-0.5,2.4-0.7c0.6-0.2,1.3-0.3,1.9-0.4c0.9-0.1,1.7-0.1,2.6-0.1
			C101.8,603.4,102.5,603.4,103.1,603.5z"/>
		<path d="M75.9,607.2c0-0.1,0-0.2,0.1-0.3c0.7-0.4,1.4-0.6,2.2-0.8c0.4-0.1,0.7-0.2,1.1-0.2c0.8-0.1,1.5-0.1,2.3,0
			c0.6,0.1,1.1,0.2,1.7,0.4c0.8,0.2,1.6,0.4,2.4,0.4c0.7,0,1.4-0.2,2-0.4c0.2-0.1,0.4-0.1,0.6-0.2c0.1,0,0.1-0.1,0.2-0.1
			c0.5-0.2,0.9-0.5,1.4-0.7s0.8-0.5,1.2-0.8c0.1-0.1,0.3-0.1,0.4-0.2c0.1-0.1,0.2-0.2,0.3-0.3c0.8-0.6,1.7-1,2.6-1.5
			c0.3-0.1,0.5-0.2,0.8-0.3c0.2-0.1,0.4-0.2,0.7-0.3c0.7-0.2,1.5-0.3,2.2-0.5c0.3-0.1,0.5-0.1,0.8-0.1c0.4,0.1,0.7-0.1,1.1-0.1
			c0.4,0,0.8,0,1.2,0c0.4,0,0.8,0.1,1.3,0.2c0.2,0,0.4,0,0.6,0v1.3l-1.3-0.1c-0.3,0-0.5-0.1-0.8-0.1c-0.7,0-1.4,0-2.1,0.1
			c-0.5,0.1-1.1,0.2-1.6,0.3c-0.5,0.1-1.2,0.2-1.8,0.3c-0.4,0.1-0.8,0.2-1.2,0.4c-0.6,0.2-1.2,0.4-1.7,0.7c-0.6,0.3-1.2,0.6-1.8,0.9
			c-0.6,0.3-1.2,0.6-1.8,0.8c-0.1,0.1-0.3,0-0.4,0l0.1,0.2c0,0,0,0,0,0c-0.6,0.2-1.2,0.4-1.8,0.5c-0.7,0.1-1.4,0.1-2.1,0
			c-0.7-0.1-1.5-0.3-2.2-0.4c-0.6-0.1-1.3-0.1-1.9-0.1c-0.8,0-1.7,0.2-2.5,0.2c-0.1,0-0.3,0-0.4,0c-0.1,0.2-0.2,0.1-0.4,0.1
			c-0.3,0.1-0.7,0.2-1,0.3L75.9,607.2L75.9,607.2L75.9,607.2z"/>
		<path d="M77,608.7l0.1,0l-2.6,0.5v0c0.1-0.1,0.2-0.1,0.3-0.1c0.7-0.2,1.3-0.4,2-0.6c0.9-0.2,1.7-0.4,2.6-0.4c0.5,0,1-0.1,1.5-0.1
			c0.7,0,1.5,0.1,2.1,0.2c0.7,0.1,1.3,0.2,2,0.3c0.5,0.1,1,0.1,1.5,0c0.8-0.1,1.6-0.2,2.4-0.4c1.3-0.4,2.5-0.8,3.8-1.2
			c0.8-0.3,1.6-0.5,2.4-0.7c0.5-0.2,1.1-0.3,1.6-0.4c0.7-0.1,1.3-0.2,2-0.2c1.4-0.1,2.7-0.1,4.1-0.1c0.2,0,0.2,0.1,0.2,0.2
			c0,0.3,0,0.7,0,1c0,0.1-0.1,0.2-0.2,0.2c-0.4,0-0.8,0-1.2,0c-0.7,0-1.5,0-2.2,0c-0.6,0-1.2,0.1-1.7,0.2c-0.4,0-0.9,0.1-1.3,0.1
			c-0.7,0.1-1.3,0.2-2,0.4c-0.4,0.1-0.8,0.1-1.2,0.2l-1.4,0.3c-0.5,0.1-1.1,0.2-1.6,0.4c-0.4,0.1-0.8,0.2-1.2,0.2s-0.9,0.1-1.3,0.2
			c-0.7,0.1-1.5,0.1-2.2,0.1c-0.6,0-1.2-0.1-1.8-0.2l-0.7-0.1c-0.4-0.1-0.9-0.1-1.3-0.1c-0.3,0-0.5,0.1-0.7,0.1c-0.4,0-0.9,0-1.3,0
			c-0.7,0-1.4,0.1-2.1,0.2C77.5,608.7,77.2,608.7,77,608.7L77,608.7z"/>
		<path d="M74.4,609.9c0.4-0.1,0.7-0.2,1.1-0.2c0.6-0.1,1.2-0.2,1.8-0.3c0.5-0.1,0.9-0.1,1.4-0.2c0.7,0,1.5-0.1,2.3-0.1s1.5,0,2.3,0
			c0.8,0,1.5,0.2,2.2,0.2c0.7,0,1.2,0,1.9,0c0.2,0,0.4,0,0.6,0c0.9-0.1,1.8-0.3,2.7-0.5c0.7-0.1,1.4-0.3,2.1-0.5
			c0.8-0.2,1.7-0.4,2.6-0.5c0.8-0.2,1.6-0.3,2.4-0.4c0.5-0.1,1.1-0.1,1.6-0.1c1,0,2-0.1,2.9-0.1c0.3,0,0.6,0,0.9,0.1
			c0,0.4,0,0.7,0,1.1c0,0.2-0.1,0.3-0.3,0.3c-1.3,0-2.6,0-3.9,0c-0.1,0-0.3,0-0.4-0.1c-0.1,0-0.2,0-0.2,0c-0.1,0.2-0.3,0.1-0.4,0.1
			c-0.8,0-1.5,0.1-2.3,0.1c-0.9,0.1-1.8,0.2-2.8,0.3c-0.7,0.1-1.4,0.2-2.1,0.3c-0.7,0.1-1.3,0.1-1.9,0.2c-1.1,0.1-2.3,0.1-3.4,0.1
			c-0.6,0-1.3-0.1-1.9-0.1c-1.6,0-3.1,0-4.7,0c-0.1,0-0.1,0-0.2-0.1c-0.1,0-0.2,0.1-0.3,0.1c-0.8,0-1.6,0.1-2.4,0.1
			c-0.5,0-0.9,0.1-1.4,0.2L74.4,609.9L74.4,609.9z"/>
		<path d="M82.8,601.9l0.3,0.1c0.8,0.3,1.7,0.4,2.5,0.1c0.3-0.1,0.5-0.2,0.8-0.3c0.1-0.1,0.2-0.2,0.3-0.3c0.9-0.7,1.6-1.5,2.2-2.4
			c0.4-0.6,0.9-1.2,1.3-1.9c0.7-1,1.4-2,2.3-2.9c0.4-0.4,0.8-0.7,1.2-0.9c0.6-0.4,1.2-0.7,1.9-1c0.2-0.1,0.5-0.1,0.8-0.2
			c0.5-0.2,1-0.3,1.5-0.3c0.5-0.1,1.1-0.1,1.6-0.1c0.4,0,0.8,0,1.2,0.1c0.6,0.1,1.3,0.3,1.9,0.5c0.1,0,0.2,0.1,0.3,0.1
			c0.2,0,0.3,0.2,0.3,0.4c0,0.3,0,0.5,0,0.8l-0.3-0.1c-0.5-0.1-1-0.3-1.5-0.4c-1-0.2-2-0.3-3-0.2c-0.6,0.1-1.3,0.2-1.9,0.3
			c-0.5,0.1-0.9,0.2-1.4,0.4c-0.5,0.2-1,0.4-1.5,0.7c-0.4,0.3-0.8,0.5-1.2,0.8c-0.6,0.5-1.2,1.1-1.8,1.8c-0.4,0.5-0.8,1.1-1.3,1.6
			c-0.3,0.3-0.6,0.6-0.8,0.9c-0.4,0.5-0.8,1-1.3,1.5c-0.3,0.2-0.5,0.5-0.8,0.7c-0.6,0.4-1.3,0.7-2,0.6c-0.5,0-0.9-0.1-1.3-0.4
			C83.1,602.1,83,602,82.8,601.9L82.8,601.9z"/>
		<path d="M82.8,602.7l0.9,0.3c0.8,0.3,1.6,0.2,2.4-0.1c0.6-0.2,1.2-0.6,1.6-1c0.7-0.7,1.4-1.4,2-2.2c0.5-0.6,1-1.3,1.5-1.9
			c0.5-0.6,0.9-1,1.3-1.5c0.6-0.6,1.4-1.1,2.2-1.5c0.5-0.3,1.1-0.5,1.7-0.6c1.1-0.4,2.2-0.5,3.3-0.5c0.8,0,1.5,0.1,2.3,0.3
			c0.3,0.1,0.7,0.2,1,0.3c0.3,0.1,0.3,0.2,0.3,0.5c0,0.1,0,0.3,0,0.4c0,0.2-0.1,0.3-0.3,0.3c0,0,0,0-0.1,0c-0.3-0.1-0.6-0.2-1-0.2
			c-0.3-0.1-0.8-0.1-1.2-0.1c-0.4-0.1-0.9-0.1-1.3-0.1c-0.9,0-1.7,0.1-2.5,0.3c-0.7,0.2-1.4,0.4-2,0.6c-0.6,0.3-1.3,0.7-1.9,1.1
			c-0.8,0.6-1.5,1.2-2.1,1.9c-0.3,0.3-0.5,0.6-0.7,0.9c-0.2,0.3-0.5,0.5-0.7,0.7s-0.6,0.6-0.8,0.9c-0.3,0.3-0.7,0.7-1,1
			c-0.6,0.5-1.2,0.8-1.9,1c-0.4,0.1-0.9,0.1-1.3,0c-0.3-0.1-0.6-0.2-0.9-0.3c-0.2-0.1-0.4-0.2-0.6-0.3
			C82.8,602.9,82.8,602.8,82.8,602.7L82.8,602.7z"/>
		<path d="M86.8,600.4c0-0.1,0-0.2,0.1-0.2c0.4-0.6,0.9-1.2,1.4-1.7c0-0.1,0.1-0.1,0.2-0.1c0-0.1,0-0.2,0.1-0.2
			c0.4-0.6,0.7-1.2,1.1-1.7c0.4-0.6,0.7-1.2,1.1-1.7c0.5-0.8,1.1-1.6,1.8-2.3c0.6-0.6,1.3-1,2-1.4c0.5-0.3,1-0.5,1.6-0.6
			c0.6-0.2,1.3-0.3,2-0.3c0.2,0,0.5-0.1,0.7-0.1c0.6,0,1.2,0.1,1.7,0.2c0.5,0.1,1,0.2,1.5,0.4c0.3,0.1,0.7,0.3,1,0.5
			c0.1,0.1,0.1,0.1,0.2,0.2c0,0.2,0,0.4,0,0.6c0,0.2-0.1,0.3-0.3,0.2c-0.7-0.3-1.4-0.5-2.1-0.6c-0.4,0-0.8-0.1-1.2-0.1
			c-0.1,0-0.3-0.1-0.5-0.1c-0.6,0-1.2,0.1-1.8,0.2c-0.4,0.1-0.8,0.1-1.2,0.2c-0.2,0-0.3,0.1-0.5,0.2c-0.4,0.2-0.9,0.3-1.3,0.5
			c-0.4,0.2-0.8,0.4-1.1,0.7c-0.7,0.5-1.3,1.1-1.9,1.7c-0.2,0.2-0.4,0.4-0.5,0.6c-0.2,0.3-0.4,0.6-0.6,0.8l-0.8,1.1
			c-0.3,0.4-0.6,0.9-0.9,1.3s-0.7,0.9-1,1.4c-0.1,0.1-0.2,0.3-0.4,0.4C87.1,600.4,87,600.4,86.8,600.4L86.8,600.4z"/>
		<path d="M148.8,605h-5.4v0.4c0,1.6,0,3.1,0,4.7c0,0.4-0.1,0.5-0.5,0.5c-0.2,0-0.5,0-0.7,0s-0.5-0.1-0.5-0.5c0-0.6,0-1.2,0-1.8
			c0-2.5,0-5.1,0-7.6c0-0.7,0.2-1.4,0.5-2.1c0.4-0.6,1-1.1,1.8-1.2c1.1-0.2,2.2-0.2,3.3-0.1c0.8,0,1.5,0.2,2.1,0.7
			c0.5,0.5,0.8,1.1,0.9,1.7c0.1,0.4,0.1,0.8,0.1,1.2v9.1c0,0.5,0,0.5-0.5,0.5h-0.6c-0.5,0-0.6-0.1-0.6-0.6L148.8,605L148.8,605z
			 M148.8,603.4c0-1.1,0.1-2.1,0-3.1c-0.1-1-0.4-1.5-1.3-1.5c-0.9-0.1-1.8-0.1-2.7,0c-0.6,0-1.1,0.5-1.2,1.1
			c-0.1,0.7-0.1,1.5-0.2,2.1c0,0.5,0,1,0,1.5L148.8,603.4z"/>
		<path d="M126.2,589.3h-5.4v0.4c0,1.6,0,3.2,0,4.8c0,0.3-0.2,0.4-0.4,0.4c-1.2,0-1.3,0.1-1.3-1.2c0-2.9,0-5.7,0-8.6
			c0-0.6,0.1-1.2,0.3-1.8c0.3-0.9,1.1-1.6,2.1-1.7c0.8-0.1,1.7-0.2,2.5-0.1c0.7,0,1.4,0.2,2,0.4c0.9,0.3,1.6,1.2,1.7,2.2
			c0.1,0.5,0.1,1,0.1,1.6c0,2.9,0,5.8,0,8.7c0,0.5-0.1,0.6-0.6,0.6c-1.1,0-1.1,0-1.1-1.1L126.2,589.3L126.2,589.3z M120.7,587.8h5.4
			c0-1.1,0.1-2.1,0-3.2c0.1-0.8-0.6-1.5-1.4-1.6c-0.1,0-0.2,0-0.3,0c-0.7,0-1.3,0-2,0c-0.9,0.1-1.5,0.3-1.5,1.2
			C120.8,585.4,120.8,586.6,120.7,587.8z"/>
		<path d="M108.7,587.1h6v-5c0-0.4,0.1-0.5,0.5-0.5h0.7c0.2,0,0.4,0.2,0.4,0.4c0,0,0,0,0,0c0,0.1,0,0.1,0,0.2v12
			c0,0.5-0.1,0.6-0.6,0.7c-1.1,0-1.1-0.1-1.1-1c0-1.6,0-3.2,0-4.8v-0.4h-6v5.7c0,0.4-0.1,0.6-0.5,0.6c-1.1,0-1.2,0.1-1.1-1.1
			c0-3.8,0-7.7,0-11.5c0-0.6,0.1-0.7,0.7-0.7c1.2,0,1,0,1,1c0,1.4,0,2.7,0,4.1L108.7,587.1z"/>
		<path d="M132.2,583v11.3c0,0.4-0.1,0.6-0.6,0.6H131c-0.3,0-0.4-0.2-0.4-0.4c0-4.1,0-8.2,0-12.2c0-0.3,0.2-0.5,0.4-0.5
			c0,0,0,0,0.1,0c0.5-0.1,1-0.1,1.5-0.2c0.9,0,1.9-0.1,2.8-0.1c0.9,0,1.9,0.2,2.7,0.7c0.8,0.5,1.3,1.3,1.5,2.2
			c0.1,0.6,0.2,1.3,0.2,1.9c0,2.7,0,5.4,0,8c0,0.5-0.1,0.6-0.6,0.6h-0.7c-0.2,0-0.4-0.1-0.4-0.4c0,0,0-0.1,0-0.1c0-0.3,0-0.6,0-1
			c0-2.5,0-5,0-7.5c0.1-0.8-0.2-1.5-0.6-2.1c-0.3-0.3-0.6-0.6-1-0.7c-0.4-0.1-0.8-0.2-1.2-0.2C134.2,583,133.3,583,132.2,583z"/>
		<path d="M150.5,591.4c0,0.9,0,1.7,0,2.6c0,0.9-0.1,0.8-0.8,0.9c-1.2,0.1-2.5,0.2-3.7,0.1c-1.6-0.1-3-1.1-3.5-2.6
			c-0.4-1-0.5-2-0.5-3c0-0.9,0-1.8,0-2.7c0-1.2,0.3-2.3,1-3.3c0.6-0.9,1.6-1.5,2.6-1.7c1.1-0.2,2.2-0.2,3.3,0c0.4,0,0.9,0.1,1.3,0.2
			c0.1,0,0.3,0.1,0.3,0.2c0,0.4,0,0.7,0,1.1c0,0-0.2,0.1-0.3,0.1c-0.7,0-1.3-0.1-2-0.1c-0.9-0.1-1.8,0-2.7,0.2
			c-1,0.4-1.6,1.3-1.7,2.4c-0.2,1.4-0.2,2.9-0.1,4.4c0,0.8,0.2,1.5,0.6,2.2c0.4,0.7,1.1,1.2,1.9,1.3c0.8,0.1,1.6,0,2.4,0
			c0.3,0,0.3-0.2,0.3-0.4c0-1.5,0-3,0-4.6c0-0.4,0.1-0.6,0.5-0.6c1.2,0,1.2,0,1.1,1.1C150.5,589.9,150.5,590.6,150.5,591.4z"/>
		<path d="M107.6,597.3c0.8,0,0.8-0.2,1,0.7c0.5,1.8,1,3.6,1.5,5.3l1.3,4.9c0,0.2,0.1,0.4,0.2,0.6c0.1,0.1,0.2,0.3,0.3,0.4
			c0.1-0.1,0.3-0.2,0.3-0.3c0.2-0.6,0.3-1.2,0.5-1.7c0.4-1.5,0.8-3,1.2-4.4c0.4-1.6,0.9-3.3,1.3-4.9c0.1-0.3,0.2-0.5,0.6-0.5
			c0.3,0,0.5,0,0.8,0c0.3,0,0.4,0.1,0.4,0.4c-0.1,0.4-0.2,0.8-0.3,1.2c-0.6,2.2-1.2,4.4-1.9,6.5c-0.4,1.3-0.7,2.6-1.1,4
			c-0.3,0.9-1.3,1.4-2.2,1.2c-1-0.2-1.4-0.8-1.6-1.7c-0.4-1.5-0.8-2.9-1.2-4.4c-0.6-2.2-1.3-4.5-1.9-6.7c-0.1-0.5,0-0.6,0.5-0.6
			L107.6,597.3z"/>
		<path d="M124.4,602.8v-5c0-0.4,0-0.5,0.5-0.5c0.2,0,0.5,0,0.7,0c0.2,0,0.4,0.1,0.5,0.4c0,0.1,0,0.2,0,0.3v9.7
			c-0.1,0.7,0.4,1.2,1.1,1.3c0.1,0,0.1,0,0.2,0c1.4,0.1,2.8,0.1,4.1,0.1c0.4,0,0.5,0.1,0.4,0.5c0,0.9,0,1-1,1c-1,0-2.1,0.1-3.2,0.1
			c-0.6,0-1.2-0.2-1.8-0.4c-0.9-0.4-1.5-1.3-1.5-2.3C124.4,606.2,124.4,604.5,124.4,602.8z"/>
		<path d="M134.5,602.6c0,1.5,0,3,0,4.5c0,0.3,0,0.6,0.1,0.9c0.1,0.4,0.4,0.8,0.8,0.9c0.3,0.1,0.6,0.1,1,0.2c1.2,0,2.4,0,3.6,0
			c0.3,0,0.4,0.1,0.4,0.3c0,0.2,0,0.5,0,0.7c0,0.2-0.1,0.3-0.3,0.3c-0.3,0-0.7,0.1-1,0.1c-0.9,0-1.7,0.1-2.6,0.1
			c-0.7,0-1.4-0.1-2-0.4c-0.7-0.3-1.3-1-1.4-1.8c-0.1-0.6-0.2-1.2-0.2-1.9c0-2.9,0-5.9,0-8.8c0-0.5,0-0.6,0.6-0.6c0.2,0,0.4,0,0.7,0
			s0.5,0.1,0.5,0.4C134.4,599.4,134.5,601,134.5,602.6z"/>
		<path d="M119.1,603.9v-6.1c0-0.4,0-0.5,0.5-0.5c0.2,0,0.5,0,0.7,0c0.2,0,0.5,0.1,0.5,0.5c0,0.4,0,0.8,0,1.2v10.9
			c0,0.6,0,0.6-0.6,0.6h-0.6c-0.4,0-0.5-0.1-0.5-0.5L119.1,603.9L119.1,603.9z"/>
		<path d="M82.8,602.7L82.8,602.7c-0.1,0-0.3,0-0.4,0c-0.4-0.1-0.9-0.3-1.3-0.4c-0.8-0.2-1.6-0.2-2.3,0c-1,0.2-1.9,0.6-2.7,1.1
			c-0.2,0.2-0.4,0.3-0.7,0.4l-0.1-0.1c0.2-0.2,0.5-0.4,0.7-0.6c0.7-0.6,1.5-1,2.3-1.2c0.6-0.1,1.1-0.2,1.7-0.2
			c0.8,0.1,1.6,0.3,2.4,0.7C82.5,602.6,82.7,602.7,82.8,602.7z M80.3,602L80.3,602h-0.6l0,0H80.3z"/>
		<path d="M75.4,602.7c0.3-0.3,0.6-0.6,1-0.8c0.5-0.3,0.9-0.6,1.5-0.8c0.6-0.3,1.2-0.4,1.9-0.4c0.7,0,1.5,0.2,2.1,0.6
			c0.2,0.1,0.4,0.2,0.6,0.3v0.1c-0.1,0-0.3,0-0.4-0.1c-0.7-0.3-1.5-0.4-2.3-0.4c-0.8,0-1.6,0.2-2.3,0.5c-0.4,0.2-0.9,0.5-1.3,0.8
			c-0.2,0.1-0.3,0.2-0.5,0.3C75.6,602.8,75.6,602.8,75.4,602.7L75.4,602.7z"/>
		<path d="M75.8,601.5c0-0.1,0-0.1,0.1-0.2c0.4-0.3,0.7-0.6,1.1-0.9c0.3-0.2,0.5-0.3,0.8-0.5c0.4-0.1,0.8-0.2,1.2-0.3
			c0.6,0,1.2,0.1,1.7,0.3c0.4,0.2,0.9,0.4,1.3,0.7v0.1c-0.1,0-0.1,0-0.2,0c-0.2-0.1-0.3-0.1-0.5-0.2c-0.9-0.4-1.9-0.5-2.9-0.3
			c-0.5,0.1-0.9,0.2-1.3,0.4c-0.4,0.2-0.8,0.5-1.2,0.8C76,601.5,75.9,601.5,75.8,601.5L75.8,601.5z"/>
		<path d="M86.8,600.4L86.8,600.4c0.1,0.2-0.1,0.4-0.4,0.4c0,0.3-0.3,0.4-0.4,0.5c-0.5,0.3-1.1,0.5-1.7,0.5c-0.4,0-0.7-0.1-1-0.3
			c-0.2-0.1-0.4-0.2-0.7-0.3c0,0-0.1-0.1-0.1-0.1V601c0.1,0,0.2,0,0.3,0.1c0.8,0.4,1.7,0.5,2.5,0.1c0.4-0.2,0.8-0.4,1.1-0.7
			C86.6,600.4,86.7,600.4,86.8,600.4z"/>
		<path d="M75.8,607.3l-0.9,0.4C75,607.4,75.4,607.2,75.8,607.3z"/>
		<path d="M75.8,601.5c0.1,0.2-0.2,0.2-0.3,0.3C75.5,601.7,75.6,601.5,75.8,601.5C75.8,601.5,75.8,601.5,75.8,601.5L75.8,601.5z"/>
		<path d="M75.9,607.2L75.9,607.2L75.9,607.2L75.9,607.2L75.9,607.2z"/>
		<ellipse cx="80" cy="602" rx="0.4" ry="0"/>
	</g>
	<g id="Layer_2_00000026132626050739955280000003664742836416849305_">
		<g id="Layer_1-2">
			<path d="M167.7,601.4c0-0.2,0.2-0.3,0.3-0.4h3.5c0.9-0.1,1.7,0.2,2.4,0.8c0.4,0.4,0.6,0.9,0.6,1.5l0,0c0,1-0.6,1.9-1.6,2.2
				c1.1,0.3,2.1,0.9,2.1,2.2l0,0c0,1.6-1.3,2.5-3.3,2.5h-3.7c-0.2,0-0.3-0.2-0.3-0.3V601.4z M171.5,605.3c1.4,0,2.4-0.7,2.4-1.9l0,0
				c0-1.1-0.8-1.8-2.3-1.8h-3.1v3.6L171.5,605.3z M171.8,609.7c1.6,0,2.6-0.7,2.6-1.9l0,0c0-1.1-1-1.8-2.8-1.8h-3.1v3.8L171.8,609.7
				z"/>
			<path d="M176.9,605.7L176.9,605.7c-0.1-2.6,2-4.7,4.5-4.8c0,0,0.1,0,0.1,0c2.6,0,4.6,2,4.7,4.6c0,0.1,0,0.1,0,0.2l0,0
				c0.1,2.6-1.9,4.7-4.5,4.8c-2.6,0.1-4.7-1.9-4.8-4.5C176.9,605.9,176.9,605.8,176.9,605.7L176.9,605.7z M185.5,605.7L185.5,605.7
				c0.1-2.2-1.6-4.1-3.9-4.2c0,0-0.1,0-0.1,0c-2.2,0-4,1.8-3.9,4c0,0,0,0.1,0,0.1l0,0c-0.1,2.2,1.6,4.1,3.9,4.2c0,0,0.1,0,0.1,0
				c2.2,0,4-1.8,4-4C185.6,605.8,185.6,605.8,185.5,605.7L185.5,605.7z"/>
			<path d="M188.2,605.7L188.2,605.7c-0.1-2.6,2-4.7,4.5-4.8c0,0,0.1,0,0.1,0c2.6,0,4.6,2,4.7,4.6c0,0.1,0,0.1,0,0.2l0,0
				c0,2.6-2.1,4.7-4.7,4.7C190.3,610.4,188.2,608.3,188.2,605.7C188.2,605.7,188.2,605.7,188.2,605.7L188.2,605.7z M196.8,605.7
				L196.8,605.7c0.1-2.2-1.6-4.1-3.9-4.2c0,0-0.1,0-0.1,0c-2.2,0-4,1.8-3.9,4c0,0,0,0.1,0,0.1l0,0c-0.1,2.2,1.6,4.1,3.9,4.2
				c0,0,0.1,0,0.1,0c2.2,0,4-1.8,4-4C196.8,605.8,196.8,605.8,196.8,605.7L196.8,605.7z"/>
			<path d="M199.9,601.3c0-0.2,0.2-0.3,0.3-0.3c0.2,0,0.3,0.2,0.3,0.3v5.8l5.9-6.1c0.1-0.1,0.2-0.1,0.2-0.1c0.2,0,0.3,0.2,0.3,0.3
				c0,0.1,0,0.2-0.1,0.2l-3.5,3.6l3.8,4.6c0.1,0.1,0.2,0.4,0,0.5c-0.1,0.1-0.2,0.1-0.3,0.1c-0.1,0-0.2-0.1-0.3-0.1l-3.8-4.6
				l-2.3,2.3v2.1c0,0.2-0.2,0.3-0.3,0.4c-0.2,0-0.3-0.2-0.3-0.4L199.9,601.3z"/>
			<path d="M209.5,601.3c0-0.2,0.2-0.3,0.4-0.3c0.2,0,0.3,0.1,0.3,0.3v8.7c0,0.2-0.1,0.4-0.3,0.4c-0.2,0-0.4-0.1-0.4-0.3
				c0,0,0-0.1,0-0.1V601.3z"/>
			<path d="M213,601.4c0-0.2,0.2-0.3,0.3-0.3l0,0h0.1c0.1,0,0.3,0.1,0.3,0.2l6.3,7.9v-7.8c0-0.2,0.1-0.3,0.3-0.3
				c0.2,0,0.3,0.1,0.3,0.3c0,0,0,0,0,0v8.8c0,0.2-0.1,0.3-0.3,0.3c0,0,0,0,0,0h-0.1c-0.1,0-0.3-0.1-0.3-0.2l-6.4-8.1v8
				c0,0.2-0.1,0.3-0.3,0.3c-0.2,0-0.3-0.1-0.3-0.3V601.4z"/>
			<path d="M223.1,605.7L223.1,605.7c-0.1-2.6,1.9-4.7,4.5-4.8c0,0,0.1,0,0.1,0c1.1,0,2.3,0.3,3.2,1c0.1,0.1,0.1,0.2,0.1,0.3
				c0,0.2-0.2,0.3-0.3,0.3l0,0c-0.1,0-0.2,0-0.2-0.1c-0.8-0.6-1.8-1-2.8-0.9c-2.3,0-3.8,1.9-3.8,4.1l0,0c0,2.4,1.5,4.2,4,4.2
				c1.1,0,2.1-0.4,3-1.1v-2.7h-2.9c-0.2,0-0.3-0.2-0.2-0.4c0-0.1,0.1-0.2,0.2-0.2h3.2c0.2,0,0.3,0.2,0.3,0.3v3
				c0,0.2-0.1,0.3-0.2,0.4c-1,0.8-2.2,1.2-3.4,1.2C224.8,610.5,223.1,608.3,223.1,605.7z"/>
			<polygon points="185.6,599.4 185.6,582 185.6,582 179.7,590.6 			"/>
			<polygon points="180,582 173.7,582 176.9,587 			"/>
			<polygon points="168,582 167.7,582 167.7,599.7 167.8,599.7 173.9,590.7 			"/>
			<rect x="190.5" y="582" width="8.5" height="13.5"/>
			<polygon points="211,582 203.7,582 211,591.4 			"/>
			<rect x="215.8" y="586.3" width="5.3" height="13.5"/>
			<polygon points="173.3,599.7 180.2,599.7 176.8,594.4 			"/>
			<polyline points="231.4,586.3 226.1,586.3 226.1,599.7 231.4,599.7 			"/>
			<polygon points="203.9,599.7 211.5,599.7 203.9,590 			"/>
			<path d="M231.7,600h-64.3v-18.4h64.3V600z M168.1,599.4h63.1v-17.2h-63.1V599.4z"/>
		</g>
	</g>
</g>
</svg>
