<?xml version="1.0" encoding="utf-8"?>
<!-- Generator: Adobe Illustrator 26.0.3, SVG Export Plug-In . SVG Version: 6.00 Build 0)  -->
<svg version="1.1" id="Layer_1" xmlns="http://www.w3.org/2000/svg" xmlns:xlink="http://www.w3.org/1999/xlink" x="0px" y="0px"
	 viewBox="0 0 524.4 628" style="enable-background:new 0 0 524.4 628;" xml:space="preserve">
<style type="text/css">
	.st0{fill:#FFFFFF;}
	.st1{fill:#CFE4FF;}
</style>
<polygon class="st0" points="-2.1,31.7 522.3,31.7 417,659.7 -2.1,659.7 "/>
<g>
	<path class="st1" d="M70.4,265.4l298-139L257.7,514.7c-0.2,0.8-1.1,1.3-1.9,1.1c-0.3-0.1-0.6-0.3-0.8-0.6L70.4,265.4z"/>
	<path d="M173.4,339.1h-33.8c-3.7,0.1-7.3-1.3-10-3.8c-2.7-2.2-4.2-5.5-4.2-9v-75.5h24v12.8h9.8c3.7-0.1,7.3,1.3,10,3.8
		c2.7,2.2,4.2,5.5,4.2,9V339.1z M161.1,326.6v-50.5c0-2.4-1.3-3.5-3.9-3.5h-7.7v57.6h7.7C159.8,330.2,161.1,329,161.1,326.6z"/>
	<path d="M207.5,339.1h-9.8c-3.7,0.1-7.3-1.3-10-3.8c-2.7-2.2-4.2-5.5-4.2-9v-75.5h9.8c3.7-0.1,7.3,1.3,10,3.8
		c2.7,2.2,4.2,5.5,4.2,9V339.1z"/>
	<path d="M251.5,263.6c3.7-0.1,7.3,1.3,10,3.8c2.7,2.2,4.2,5.5,4.2,9v62.8H232c-3.7,0.1-7.3-1.3-10-3.8c-2.7-2.2-4.2-5.5-4.2-9
		v-62.8h12.3v63c0,2.4,1.3,3.5,4,3.5h7.7v-66.6h9.7V263.6z"/>
	<path d="M323.8,299.4c0,3.5-1.5,6.8-4.2,9c-2.7,2.5-6.3,3.8-10,3.8H288c0,3.5,1.5,6.8,4.2,9c2.7,2.5,6.3,3.8,10.1,3.8h21.6v14.2
		H290c-3.7,0.1-7.3-1.3-10-3.8c-2.7-2.2-4.2-5.5-4.2-9v-62.7h33.9c3.7-0.1,7.3,1.3,10,3.8c2.7,2.2,4.2,5.5,4.2,9L323.8,299.4z
		 M299.8,300v-24c0-2.4-1.3-3.6-4-3.6H288v31.1h7.8C298.5,303.6,299.8,302.4,299.8,300L299.8,300z"/>
	<path d="M333.7,276.4c0-3.5,1.5-6.8,4.2-9c2.8-2.5,6.4-3.9,10.1-3.8h33.9v14.2h-21.6c-3.7-0.1-7.3,1.3-10.1,3.8
		c-2.7,2.2-4.2,5.5-4.2,9h21.6c3.7-0.1,7.3,1.3,10,3.8c2.7,2.2,4.2,5.5,4.2,9v23c0,3.5-1.5,6.8-4.2,9c-2.7,2.5-6.3,3.8-10,3.8h-33.9
		V312h19.7c3.7,0.1,7.3-1.3,10-3.8c2.7-2.2,4.2-5.5,4.2-9h-33.9L333.7,276.4L333.7,276.4z"/>
	<path d="M138.4,199.5v36.1h4.2c1.4,0,2.1-0.6,2.1-1.9v-34.1h6.6v33.9c0,1.9-0.8,3.7-2.2,4.9c-1.5,1.3-3.4,2-5.4,2h-18.2v-33.9
		c0-1.9,0.8-3.7,2.2-4.9c1.5-1.3,3.4-2.1,5.4-2L138.4,199.5z"/>
	<path d="M182.8,218.8c0,1.9-0.8,3.7-2.3,4.9c-1.5,1.3-3.4,2-5.4,2h-11.7c0,1.9,0.8,3.7,2.3,4.9c1.5,1.3,3.4,2,5.4,2h11.6v7.7h-18.3
		c-2,0-3.9-0.7-5.4-2c-1.4-1.2-2.3-3-2.3-4.9v-33.9H175c2-0.1,3.9,0.7,5.4,2c1.4,1.2,2.3,3,2.3,4.9L182.8,218.8L182.8,218.8z
		 M169.8,219.2v-13c0-1.3-0.7-1.9-2.2-1.9h-4.2v16.8h4.2C169.1,221.1,169.8,220.5,169.8,219.2L169.8,219.2z"/>
	<path d="M188.1,206.4c0-1.9,0.8-3.7,2.3-4.9c1.5-1.3,3.4-2.1,5.4-2h18.3v7.7h-11.6c-2,0-3.9,0.7-5.4,2c-1.4,1.2-2.3,3-2.3,4.9h11.7
		c2,0,3.9,0.7,5.4,2c1.4,1.2,2.3,3,2.3,4.9v12.4c0,1.9-0.8,3.7-2.3,4.9c-1.5,1.3-3.4,2-5.4,2h-18.3v-14.7h10.6c2,0.1,3.9-0.7,5.4-2
		c1.4-1.2,2.3-3,2.3-4.9h-18.3L188.1,206.4L188.1,206.4z"/>
	<path d="M245.5,218.7h-18.3c0,1.9,0.8,3.7,2.3,4.9c1.5,1.3,3.4,2.1,5.4,2h10.7v14.7h-18.2c-2,0-3.9-0.7-5.4-2
		c-1.4-1.2-2.3-3-2.3-4.9l-0.1-12.4c0-1.9,0.8-3.7,2.3-4.9c1.5-1.3,3.4-2,5.4-2H239c0-1.9-0.8-3.7-2.3-4.9c-1.5-1.3-3.4-2-5.4-2
		h-11.6v-7.8h18.2c2,0,3.9,0.7,5.4,2c1.4,1.2,2.3,3,2.3,4.9L245.5,218.7z"/>
	<path d="M250.9,254.9v-55.4h18.3c2,0,3.9,0.7,5.4,2c1.4,1.2,2.3,3,2.3,4.9v33.9h-13v14.6H250.9z M270.2,233.6v-27.3
		c0-1.3-0.7-1.9-2.2-1.9h-4.2v31.1h4.2C269.5,235.5,270.2,234.8,270.2,233.6z"/>
	<path d="M282.2,199.5h18.3c2,0,3.9,0.7,5.4,2c1.4,1.2,2.3,3,2.3,4.9v12.3h-6.6v-12.3c0-1.3-0.7-1.9-2.1-1.9h-4.2v35.9H290
		c-2,0-3.9-0.7-5.4-2c-1.4-1.2-2.3-3-2.2-4.9L282.2,199.5z"/>
	<path d="M339.6,218.8c0,1.9-0.8,3.7-2.3,4.9c-1.5,1.3-3.4,2-5.4,2h-11.7c0,1.9,0.8,3.7,2.3,4.9c1.5,1.3,3.4,2,5.4,2h11.6v7.7h-18.3
		c-2,0-3.9-0.7-5.4-2c-1.4-1.2-2.3-3-2.3-4.9v-33.9h18.3c2-0.1,3.9,0.7,5.4,2c1.4,1.2,2.3,3,2.3,4.9v12.4L339.6,218.8L339.6,218.8z
		 M326.6,219.2v-13c0-1.3-0.7-1.9-2.2-1.9h-4.2v16.8h4.2C325.9,221.1,326.6,220.5,326.6,219.2z"/>
	<path d="M370.9,240.3h-6.6v-34.1c0-1.3-0.7-1.9-2.1-1.9H358v36h-5.3c-2,0-3.9-0.7-5.4-2c-1.4-1.2-2.3-3-2.3-4.9v-34h18.3
		c1.5,0,3,0.4,4.3,1.2c1.3-0.8,2.8-1.2,4.4-1.2h2.2c2-0.1,3.9,0.7,5.4,2c1.4,1.2,2.3,3,2.2,4.9v33.9h-6.7v-34c0-1.3-0.7-1.9-2.1-1.9
		s-2.1,0.6-2.1,1.9V240.3z"/>
	<path d="M325,197.2h-4.9c-1.8,0-3.6-0.6-5-1.9c-1.3-1.1-2.1-2.8-2.1-4.5v-4.4h4.9c1.8,0,3.6,0.6,5,1.9c1.3,1.1,2.1,2.8,2.1,4.5
		V197.2z"/>
	<g>
		<path d="M151.9,370.3h-6.8v-12.7c0-1.3-0.7-2-2.2-2h-4.3v20.7h13.2v6h-13.2v23.5h-5.4c-2,0-4-0.7-5.5-2.1c-1.5-1.2-2.3-3.1-2.3-5
			v-48.1H144c2,0,4,0.7,5.5,2.1c1.5,1.2,2.3,3.1,2.3,5L151.9,370.3L151.9,370.3z"/>
		<path d="M184,383.9c0,1.9-0.8,3.8-2.3,5c-1.5,1.4-3.5,2.1-5.5,2.1h-12c0,1.9,0.8,3.8,2.3,5c1.5,1.4,3.5,2.1,5.6,2.1H184v7.8h-18.7
			c-2,0-4-0.7-5.5-2.1c-1.5-1.2-2.3-3.1-2.3-5v-34.7h18.7c2,0,4,0.7,5.6,2.1c1.5,1.2,2.3,3.1,2.3,5L184,383.9z M170.8,384.3v-13.2
			c0-1.3-0.7-2-2.2-2h-4.3v17.2h4.3C170,386.3,170.7,385.6,170.8,384.3L170.8,384.3z"/>
		<path d="M189.5,371.2c0-1.9,0.8-3.8,2.3-5c1.5-1.4,3.5-2.1,5.6-2.1H216v7.8h-11.9c-2,0-4,0.7-5.6,2.1c-1.5,1.2-2.3,3.1-2.3,5h11.9
			c2,0,4,0.7,5.5,2.1c1.5,1.2,2.3,3.1,2.3,5v12.7c0,1.9-0.8,3.8-2.3,5c-1.5,1.4-3.5,2.1-5.5,2.1h-18.7v-15.1h10.9c2,0,4-0.7,5.5-2.1
			c1.5-1.2,2.3-3.1,2.3-5h-18.7v-12.5H189.5z"/>
		<path d="M248,383.8h-18.7c0,1.9,0.8,3.8,2.3,5c1.5,1.4,3.5,2.1,5.5,2.1H248v15h-18.6c-2,0-4-0.7-5.5-2.1c-1.5-1.2-2.3-3.1-2.3-5
			l-0.1-12.7c0-1.9,0.8-3.8,2.3-5c1.5-1.4,3.5-2.1,5.5-2.1h11.9c0-1.9-0.8-3.8-2.3-5c-1.5-1.4-3.5-2.1-5.5-2.1h-11.8v-7.8h18.6
			c2,0,4,0.7,5.5,2.1c1.5,1.2,2.3,3.1,2.3,5L248,383.8z"/>
		<path d="M280.1,398.8c0,1.9-0.8,3.8-2.3,5c-1.5,1.4-3.5,2.1-5.5,2.1h-18.6v-48.1c0-1.9,0.8-3.8,2.3-5c1.5-1.4,3.5-2.1,5.5-2.1h5.4
			v23.5H280v6h-13.1v20.6h4.3c1.5,0,2.2-0.6,2.2-2v-12.5h6.8L280.1,398.8z"/>
		<path d="M285.6,350.7h5.4c2,0,4,0.7,5.5,2.1c1.5,1.2,2.3,3.1,2.3,5v4.9h-5.4c-2,0-4-0.7-5.5-2.1c-1.5-1.2-2.3-3.1-2.3-5V350.7z"/>
		<path d="M363,350.7v4.9c0,1.8-0.6,3.6-1.9,5c-1.1,1.3-2.8,2.1-4.5,2.1h-4.4v-4.9c0-1.8,0.6-3.6,1.9-5c1.1-1.3,2.8-2.1,4.5-2.1H363
			z"/>
		<path d="M298.9,405.9h-5.4c-2,0-4-0.7-5.5-2.1c-1.5-1.2-2.3-3.1-2.3-5v-32.7h5.4c2,0,4,0.7,5.5,2.1c1.5,1.2,2.3,3.1,2.3,5V405.9z"
			/>
		<path d="M317.8,364.2V401h4.2c1.5,0,2.2-0.6,2.2-2v-34.8h6.8v34.6c0,1.9-0.8,3.8-2.3,5c-1.5,1.4-3.5,2.1-5.5,2.1h-18.6v-34.6
			c0-1.9,0.8-3.8,2.3-5c1.5-1.4,3.5-2.1,5.5-2.1H317.8z"/>
		<path d="M363,405.9h-18.6c-2,0-4-0.7-5.5-2.1c-1.5-1.2-2.3-3.1-2.3-5v-12.7c0-1.9,0.8-3.8,2.3-5c1.5-1.4,3.5-2.1,5.5-2.1h11.9
			c0-1.9-0.8-3.8-2.3-5c-1.5-1.4-3.5-2.1-5.5-2.1h-11.8v-7.8h18.6c2,0,4,0.7,5.5,2.1c1.5,1.2,2.3,3.1,2.3,5L363,405.9z M356.2,400.9
			v-17.2H352c-1.5,0-2.2,0.7-2.2,2V399c0,1.3,0.7,2,2.2,2L356.2,400.9z"/>
		<path d="M381.8,405.9h-5.4c-2,0-4-0.7-5.5-2.1c-1.5-1.2-2.3-3.1-2.3-5v-48.1h5.4c2,0,4,0.7,5.5,2.1c1.5,1.2,2.3,3.1,2.3,5V405.9z"
			/>
	</g>
</g>
<path d="M173.4,435.2h-15.1v-2c0-0.3,0.1-0.6,0.2-0.9c0.1-0.3,0.2-0.6,0.4-0.9s0.4-0.5,0.7-0.9c0.4-0.3,0.7-0.6,1.1-0.9
	c1.2-0.6,2.5-1.1,3.9-1.3c0.6-0.1,1.3-0.3,2.2-0.5c0.5-0.1,0.9-0.2,1.3-0.4c0.2-0.1,0.3-0.3,0.3-0.5s-0.1-0.3-0.2-0.4
	c-0.2-0.1-0.5-0.2-0.7-0.3c-0.5-0.1-1.1-0.1-1.6-0.1c-0.4,0-0.9,0-1.3,0.1c-0.3,0.1-0.6,0.2-0.9,0.3c-0.2,0.1-0.3,0.2-0.4,0.4
	c-0.1,0.2-0.2,0.3-0.2,0.4s0,0.2-0.1,0.3h-4.6v-0.1c0-2.9,2.4-4.3,7-4.3h0.7c1,0,2,0.1,3,0.2c0.7,0.1,1.4,0.3,2,0.5
	c0.5,0.2,0.9,0.5,1.2,0.9c0.3,0.3,0.5,0.6,0.6,1s0.2,0.7,0.2,1.1v0.1c0.1,0.6-0.1,1.2-0.4,1.6c-0.4,0.5-1,0.9-1.6,1.1
	c-1.1,0.4-2.2,0.7-3.3,0.9l-2.6,0.4c-2.1,0.4-3.2,0.9-3.2,1.3h7.1v-1.5h4.2L173.4,435.2z"/>
<path d="M191.3,428.9v0.5c0,0.5,0,1-0.1,1.4c-0.1,0.6-0.4,1.1-0.7,1.5c-0.3,0.6-0.8,1.1-1.4,1.4c-0.8,0.5-1.6,0.8-2.4,1
	c-1.2,0.3-2.4,0.4-3.7,0.4h-0.7c-1.2,0-2.5-0.1-3.7-0.4c-0.9-0.2-1.7-0.6-2.4-1c-0.6-0.4-1-0.9-1.4-1.4c-0.3-0.5-0.5-1-0.7-1.5
	c-0.1-0.5-0.1-0.9-0.2-1.4V429c0-0.3,0-0.7,0.1-1c0-0.4,0.1-0.8,0.3-1.1c0.1-0.4,0.3-0.8,0.6-1.1c0.3-0.4,0.6-0.7,1-1
	c0.5-0.4,1-0.7,1.5-0.9c0.6-0.2,1.2-0.4,2-0.6c0.9-0.1,1.8-0.2,2.8-0.2h0.7c0.9,0,1.8,0.1,2.8,0.2c0.7,0.1,1.4,0.3,2,0.5
	c0.5,0.2,1,0.5,1.4,0.9c0.4,0.3,0.7,0.7,1,1c0.2,0.4,0.4,0.7,0.6,1.1c0.1,0.3,0.2,0.7,0.3,1C191.2,428.1,191.3,428.5,191.3,428.9z
	 M186.7,429.2V429c0-0.3-0.1-0.6-0.2-0.9c-0.1-0.4-0.3-0.7-0.6-0.9c-0.4-0.3-0.8-0.6-1.2-0.7c-0.6-0.2-1.3-0.2-1.9-0.2
	c-0.7,0-1.3,0.1-2,0.3c-0.5,0.2-0.9,0.4-1.2,0.7c-0.3,0.3-0.5,0.6-0.6,0.9s-0.2,0.6-0.2,0.9v0.2c0,0.3,0.1,0.7,0.2,1
	c0.1,0.4,0.3,0.7,0.6,0.9c0.4,0.3,0.8,0.6,1.2,0.8c1.3,0.4,2.6,0.4,3.9,0c0.5-0.2,0.9-0.4,1.2-0.7c0.3-0.3,0.5-0.6,0.6-0.9
	C186.6,430,186.7,429.6,186.7,429.2L186.7,429.2z"/>
<path d="M207,435h-15.1v-2c0-0.3,0.1-0.6,0.2-0.9c0.1-0.3,0.2-0.6,0.4-0.9s0.4-0.5,0.7-0.9c0.3-0.3,0.7-0.6,1.1-0.8
	c1.2-0.6,2.5-1.1,3.9-1.3c0.6-0.1,1.3-0.3,2.3-0.5c0.5-0.1,0.9-0.2,1.3-0.4c0.2-0.1,0.3-0.3,0.3-0.5s-0.1-0.3-0.2-0.4
	c-0.2-0.1-0.5-0.2-0.7-0.3c-0.5-0.1-1.1-0.1-1.6-0.1c-0.4,0-0.9,0-1.3,0.1c-0.3,0.1-0.6,0.2-0.9,0.3c-0.2,0.1-0.3,0.2-0.4,0.4
	c-0.1,0.2-0.2,0.3-0.2,0.4s0,0.2-0.1,0.3H192v-0.1c0-2.9,2.4-4.3,7-4.3h0.7c1,0,2,0.1,3,0.2c0.7,0.1,1.4,0.3,2,0.5
	c0.5,0.2,0.9,0.5,1.2,0.9c0.3,0.3,0.5,0.6,0.6,1s0.2,0.7,0.2,1.1v0.1c0.1,0.6-0.1,1.2-0.4,1.6c-0.4,0.5-1,0.9-1.6,1.1
	c-1.1,0.4-2.2,0.7-3.3,0.9l-2.6,0.4c-2.1,0.4-3.2,0.9-3.2,1.3h7.1v-1.6h4.2L207,435z"/>
<path d="M215.9,435.3h-0.7c-0.9,0-1.7-0.1-2.6-0.2c-0.7-0.1-1.3-0.2-2-0.5c-0.5-0.2-0.9-0.4-1.3-0.7c-0.4-0.2-0.7-0.5-0.9-0.9
	c-0.2-0.3-0.4-0.5-0.5-0.9c-0.1-0.3-0.2-0.6-0.2-0.9c0-0.2-0.1-0.4-0.1-0.7v-0.1h4.6c0,0.1,0,0.2,0.1,0.3c0,0.1,0.1,0.2,0.2,0.4
	c0.1,0.2,0.3,0.3,0.5,0.5c0.3,0.1,0.6,0.2,0.9,0.3c0.5,0.1,1,0.1,1.4,0.1c0.5,0,1,0,1.4-0.1c0.3,0,0.6-0.1,0.9-0.2
	c0.2-0.1,0.4-0.2,0.5-0.3c0.1-0.1,0.2-0.2,0.2-0.3v-0.3c0-0.5-0.5-0.9-1.4-0.9h-4v-2.8h3.8c0.9,0,1.3-0.2,1.3-0.7l0,0
	c0-0.2-0.1-0.3-0.1-0.4c-0.3-0.2-0.6-0.3-0.9-0.3c-0.7-0.1-1.4-0.1-2-0.1c-0.5,0-1,0-1.4,0.1c-0.3,0.1-0.6,0.2-0.9,0.2
	c-0.2,0.1-0.3,0.2-0.4,0.3c-0.1,0.1-0.2,0.2-0.2,0.3v0.2h-4.6v-0.9c0-0.2,0.1-0.5,0.2-0.7c0.1-0.3,0.3-0.5,0.5-0.7
	c0.3-0.3,0.5-0.5,0.9-0.7s0.9-0.4,1.3-0.6c0.6-0.2,1.2-0.3,1.8-0.4c0.8-0.1,1.6-0.2,2.4-0.2h0.7c1.1,0,2.3,0.1,3.4,0.2
	c0.7,0.1,1.5,0.2,2.1,0.5c0.5,0.2,0.9,0.4,1.2,0.7c0.3,0.2,0.5,0.5,0.6,0.9c0.1,0.3,0.1,0.6,0.1,0.9v0.1c0,0.5-0.2,1-0.6,1.3
	c-0.4,0.3-0.9,0.6-1.4,0.7c0.7,0.1,1.3,0.4,1.7,0.9c0.5,0.5,0.8,1.2,0.7,1.9v0.1C223.4,433.8,220.9,435.3,215.9,435.3z"/>
<path d="M228.5,431.9v3.1H224v-3.1H228.5z"/>
<path d="M251.5,428.8v0.5c0,0.5,0,1-0.1,1.4c-0.1,0.6-0.4,1.1-0.7,1.5c-0.3,0.6-0.8,1.1-1.4,1.4c-0.8,0.5-1.6,0.8-2.4,1
	c-1.2,0.3-2.4,0.4-3.7,0.4h-0.7c-1.2,0-2.5-0.1-3.7-0.4c-0.9-0.2-1.7-0.6-2.5-1c-0.5-0.4-1-0.9-1.4-1.4c-0.3-0.5-0.6-1-0.7-1.5
	c-0.1-0.5-0.1-0.9-0.2-1.4v-0.5c0-0.3,0-0.7,0.1-1c0-0.4,0.1-0.8,0.3-1.1c0.1-0.4,0.3-0.8,0.6-1.1c0.3-0.4,0.6-0.7,1-1
	c0.5-0.4,1-0.7,1.5-0.9c0.6-0.2,1.2-0.4,2-0.6c0.9-0.2,1.8-0.2,2.8-0.2h0.7c0.9,0,1.8,0.1,2.8,0.2c0.7,0.1,1.4,0.3,2,0.5
	c0.5,0.2,1,0.5,1.4,0.9c0.4,0.3,0.7,0.7,1,1c0.2,0.4,0.4,0.7,0.6,1.1c0.1,0.4,0.3,0.7,0.3,1.1C251.4,428,251.5,428.4,251.5,428.8z
	 M246.9,429.1v-0.2c0-0.3-0.1-0.6-0.2-0.9c-0.1-0.4-0.3-0.7-0.6-0.9c-0.4-0.3-0.8-0.6-1.2-0.7c-0.6-0.2-1.3-0.2-1.9-0.2
	c-0.7,0-1.3,0.1-1.9,0.3c-0.5,0.2-0.9,0.4-1.2,0.7c-0.3,0.3-0.5,0.6-0.6,0.9s-0.2,0.6-0.2,0.9v0.2c0,0.3,0.1,0.7,0.2,1
	c0.1,0.4,0.3,0.7,0.6,0.9c0.4,0.3,0.8,0.6,1.2,0.7c1.3,0.4,2.6,0.4,3.9,0c0.5-0.2,0.9-0.4,1.2-0.7c0.3-0.3,0.5-0.6,0.6-0.9
	C246.7,429.9,246.8,429.5,246.9,429.1z"/>
<path d="M252.1,430.1l8.2-7.1h4.9v6.5h2.5v3.1h-2.5v2.3h-4.5v-2.3H252L252.1,430.1z M260.8,429.6v-3.5l-4.1,3.5H260.8z"/>
<path d="M272.8,431.8v3.1h-4.5v-3.1H272.8z"/>
<path d="M281.3,427.9h-2.9v-2.5c1.9-0.1,3.2-0.9,3.7-2.4h3.5v11.8h-4.5L281.3,427.9z"/>
<path d="M295.1,435h-0.7c-0.9,0-1.7-0.1-2.6-0.2c-0.7-0.1-1.3-0.3-1.9-0.5c-0.5-0.2-0.9-0.4-1.3-0.7c-0.4-0.2-0.7-0.5-0.9-0.9
	c-0.2-0.3-0.4-0.5-0.5-0.9c-0.1-0.3-0.2-0.6-0.2-0.9c0-0.2-0.1-0.4-0.1-0.7l0,0h4.6c0,0.1,0,0.2,0.1,0.3c0,0.1,0.1,0.2,0.2,0.4
	s0.3,0.3,0.5,0.5c0.3,0.1,0.6,0.2,0.9,0.3c0.5,0.1,1,0.1,1.4,0.1c0.5,0,1,0,1.4-0.1c0.3,0,0.6-0.1,0.9-0.2c0.2-0.1,0.4-0.2,0.5-0.3
	c0.1-0.1,0.2-0.2,0.2-0.3v-0.3c0-0.5-0.5-0.9-1.4-0.9h-4v-2.8h3.8c0.9,0,1.3-0.2,1.3-0.7l0,0c0-0.2-0.1-0.3-0.1-0.4
	c-0.3-0.2-0.6-0.3-0.9-0.3c-0.7-0.1-1.3-0.1-2-0.1c-0.5,0-1,0-1.4,0.1c-0.3,0.1-0.6,0.2-0.9,0.2c-0.2,0.1-0.3,0.2-0.4,0.3
	c-0.1,0.1-0.2,0.2-0.2,0.3v0.2h-4.6v-0.9c0-0.2,0.1-0.5,0.2-0.7c0.1-0.3,0.3-0.5,0.5-0.7c0.3-0.3,0.5-0.5,0.9-0.7s0.9-0.4,1.3-0.6
	c0.6-0.2,1.2-0.3,1.8-0.4c0.8-0.1,1.6-0.2,2.5-0.2h0.7c1.1,0,2.3,0.1,3.4,0.2c0.7,0.1,1.5,0.2,2.1,0.5c0.5,0.2,0.9,0.4,1.2,0.7
	c0.3,0.2,0.5,0.5,0.6,0.9c0.1,0.3,0.1,0.6,0.1,0.9v0.1c0,0.5-0.2,1-0.6,1.3s-0.9,0.6-1.4,0.7c0.7,0.1,1.3,0.4,1.7,0.9
	c0.5,0.5,0.8,1.2,0.7,1.9v0.1C302.6,433.6,300,435,295.1,435z"/>
<path d="M308.2,428.6h5.2v3h-5.2V428.6z"/>
<path d="M321.8,427.8h-2.9v-2.4c1.9-0.1,3.2-0.9,3.7-2.4h3.6v11.8h-4.5L321.8,427.8z"/>
<path d="M335.9,434.9h-0.7c-1.1,0-2.2-0.1-3.3-0.4c-0.8-0.2-1.5-0.5-2.2-0.9c-0.5-0.4-1-0.9-1.3-1.4s-0.5-1-0.6-1.5s-0.2-1-0.2-1.5
	v-0.4c0-0.4,0-0.9,0.1-1.3c0.1-0.5,0.2-0.9,0.4-1.3c0.2-0.5,0.5-0.9,0.9-1.2c0.4-0.4,0.8-0.7,1.3-1c0.6-0.4,1.3-0.6,2-0.7
	c0.9-0.2,1.8-0.3,2.8-0.3h0.7c1,0,2,0.1,3,0.2c0.7,0.2,1.4,0.4,2,0.6c0.5,0.2,0.9,0.5,1.2,0.9c0.3,0.3,0.5,0.6,0.6,1
	c0.1,0.3,0.2,0.7,0.2,1v0.1h-4.6c-0.1-0.2-0.3-0.4-0.5-0.5c-0.7-0.3-1.5-0.5-2.3-0.4c-0.6,0-1.2,0.1-1.7,0.3
	c-0.4,0.2-0.8,0.4-1.1,0.7c-0.2,0.3-0.4,0.5-0.4,0.9c-0.1,0.3-0.1,0.6-0.1,0.9v0.1c1.5-0.9,3.2-1.2,4.9-1.1h0.2
	c0.9,0,1.7,0.1,2.6,0.2c0.6,0.1,1.2,0.3,1.7,0.5c0.4,0.2,0.8,0.5,1.1,0.9c0.3,0.3,0.5,0.6,0.6,0.9c0.1,0.4,0.2,0.7,0.2,1.1v0.1
	c0,0.4,0,0.8-0.1,1.1c-0.1,0.4-0.4,0.8-0.6,1.1c-0.3,0.4-0.7,0.8-1.2,1c-0.7,0.4-1.4,0.6-2.1,0.6
	C338.3,434.8,337.2,434.9,335.9,434.9z M332.4,430.9L332.4,430.9c0,0.9,1,1.2,3.2,1.2c2.1,0,3.1-0.4,3.1-1.2l0,0
	c0-0.2,0-0.3-0.1-0.4l-0.4-0.4c-0.3-0.1-0.6-0.2-0.9-0.3c-0.5-0.1-1.1-0.1-1.6-0.1C333.4,429.7,332.4,430,332.4,430.9L332.4,430.9z"
	/>
<path d="M348.5,431.6v3.1H344v-3.1H348.5z"/>
</svg>
