<svg xmlns="http://www.w3.org/2000/svg" viewBox="0 0 668.41 668.41"><defs><style>.cls-1{fill:#fff;}.cls-2{fill:#cfe4ff;}</style></defs><g id="Layer_2" data-name="Layer 2"><g id="Layer_2-2" data-name="Layer 2"><rect class="cls-1" width="668.41" height="668.41"/><path class="cls-2" d="M41,255.46,517.91,33,340.76,654.42a2.55,2.55,0,0,1-3,1.76,2.49,2.49,0,0,1-1.28-1Z"/><path d="M205.85,373.41H151.76a22.76,22.76,0,0,1-16-6.09,18.46,18.46,0,0,1-6.72-14.4V232.1h38.4v20.48h15.69a22.75,22.75,0,0,1,16,6.08,18.46,18.46,0,0,1,6.72,14.41Zm-19.68-20V272.58c0-3.84-2.08-5.6-6.24-5.6H167.6v92.18h12.33Q186.17,359.16,186.17,353.4Z"/><path d="M260.42,373.41H244.74a22.76,22.76,0,0,1-16-6.09,18.46,18.46,0,0,1-6.73-14.4V232.1H237.7a22.75,22.75,0,0,1,16,6.08,18.46,18.46,0,0,1,6.72,14.4Z"/><path d="M330.84,252.58a22.75,22.75,0,0,1,16,6.08,18.46,18.46,0,0,1,6.72,14.41v100.5H299.63a22.76,22.76,0,0,1-16-6.09,18.46,18.46,0,0,1-6.72-14.4V252.58h19.68V353.4c0,3.84,2.08,5.6,6.4,5.6h12.32V252.42h15.53Z"/><path d="M446.54,309.87a18.49,18.49,0,0,1-6.72,14.41,23.48,23.48,0,0,1-16,6.08H389.25a18.46,18.46,0,0,0,6.72,14.4,23.59,23.59,0,0,0,16.16,6.08H446.7v22.73H392.45a22.76,22.76,0,0,1-16-6.09,18.43,18.43,0,0,1-6.73-14.4V252.74H424a22.75,22.75,0,0,1,16,6.08,18.46,18.46,0,0,1,6.72,14.41Zm-38.41,1V272.42c0-3.84-2.08-5.76-6.4-5.76H389.25v49.77h12.48c4.32.16,6.4-1.76,6.4-5.6Z"/><path d="M462.38,273.07a18.46,18.46,0,0,1,6.72-14.41,23.45,23.45,0,0,1,16.17-6.08h54.25v22.73H505a23.41,23.41,0,0,0-16.16,6.08,18.46,18.46,0,0,0-6.72,14.4h34.56a22.77,22.77,0,0,1,16,6.08,18.46,18.46,0,0,1,6.72,14.4v36.81a18.46,18.46,0,0,1-6.72,14.4,23.51,23.51,0,0,1-16,6.09H462.38V330h31.53a22.75,22.75,0,0,0,16-6.08,18.49,18.49,0,0,0,6.72-14.41H462.38V273.07Z"/><path d="M149.84,150v57.77h6.72c2.24,0,3.36-1,3.36-3V150.16h10.56v54.25a10.31,10.31,0,0,1-3.52,7.84,13.12,13.12,0,0,1-8.64,3.2H129.2V161.2a10.31,10.31,0,0,1,3.52-7.84,12.34,12.34,0,0,1,8.64-3.2Z"/><path d="M220.89,180.89a9.94,9.94,0,0,1-3.68,7.84,13.12,13.12,0,0,1-8.64,3.2H189.85a9.94,9.94,0,0,0,3.68,7.84,13.12,13.12,0,0,0,8.64,3.2h18.56v12.32H191.45a13.12,13.12,0,0,1-8.64-3.2,10.46,10.46,0,0,1-3.68-7.84V150h29.28a12.34,12.34,0,0,1,8.64,3.2,10.46,10.46,0,0,1,3.68,7.84l.16,19.85Zm-20.8.64V160.72c0-2.08-1.12-3-3.52-3h-6.72v26.89h6.72c2.4,0,3.52-1,3.52-3Z"/><path d="M229.38,161a9.94,9.94,0,0,1,3.68-7.84,12.34,12.34,0,0,1,8.64-3.2H271v12.32H252.42a13.12,13.12,0,0,0-8.64,3.2,10.46,10.46,0,0,0-3.68,7.85h18.72a13.12,13.12,0,0,1,8.64,3.2,10.46,10.46,0,0,1,3.68,7.84v19.84a9.94,9.94,0,0,1-3.68,7.84,13.12,13.12,0,0,1-8.64,3.2H229.54V191.77h17a12.34,12.34,0,0,0,8.64-3.2,10.46,10.46,0,0,0,3.68-7.84H229.54L229.38,161Z"/><path d="M321.23,180.73H292a9.94,9.94,0,0,0,3.68,7.84,12.34,12.34,0,0,0,8.64,3.2h17.12v23.52H292.27a13.12,13.12,0,0,1-8.64-3.2,10.46,10.46,0,0,1-3.68-7.84l-.16-19.84a9.94,9.94,0,0,1,3.68-7.84,13.12,13.12,0,0,1,8.64-3.2h18.72a9.94,9.94,0,0,0-3.68-7.85,13.12,13.12,0,0,0-8.64-3.2H280V149.84h29.12a13.12,13.12,0,0,1,8.64,3.2,10.46,10.46,0,0,1,3.68,7.84Z"/><path d="M329.88,238.66V150h29.28a13.12,13.12,0,0,1,8.64,3.2,10.46,10.46,0,0,1,3.68,7.84v54.25h-20.8v23.37Zm30.88-34.09V160.88c0-2.08-1.12-3-3.52-3h-6.72v49.77h6.72C359.64,207.61,360.76,206.49,360.76,204.57Z"/><path d="M380,150h29.28a13.12,13.12,0,0,1,8.64,3.2,10.46,10.46,0,0,1,3.68,7.84v19.69H411V161c0-2.08-1.12-3-3.36-3h-6.72v57.45h-8.48a13.12,13.12,0,0,1-8.64-3.2,9.79,9.79,0,0,1-3.52-7.84Z"/><path d="M471.82,180.89a9.94,9.94,0,0,1-3.68,7.84,13.12,13.12,0,0,1-8.64,3.2H440.78a9.94,9.94,0,0,0,3.68,7.84,13.12,13.12,0,0,0,8.64,3.2h18.56v12.32H442.38a13.12,13.12,0,0,1-8.64-3.2,10.46,10.46,0,0,1-3.68-7.84V150h29.28a12.34,12.34,0,0,1,8.64,3.2,10.46,10.46,0,0,1,3.68,7.84v19.85Zm-20.8.64V160.72c0-2.08-1.12-3-3.52-3h-6.72v26.89h6.72C449.9,184.57,451,183.61,451,181.53Z"/><path d="M521.91,215.29H511.35V160.72c0-2.08-1.12-3-3.36-3h-6.72v57.61h-8.48a13.12,13.12,0,0,1-8.64-3.2,10.46,10.46,0,0,1-3.68-7.84V149.84h29.28a13.14,13.14,0,0,1,6.88,1.92,13.29,13.29,0,0,1,7-1.92h3.53a12.34,12.34,0,0,1,8.64,3.2,9.79,9.79,0,0,1,3.52,7.84v54.25H528.64V160.72c0-2.08-1.12-3-3.36-3s-3.37,1-3.37,3Z"/><path d="M448.46,146.32h-7.84a11.65,11.65,0,0,1-8-3,9.62,9.62,0,0,1-3.36-7.2v-7h7.84a11.65,11.65,0,0,1,8,3,9.62,9.62,0,0,1,3.36,7.2Z"/><path d="M171.44,423.33H160.56V403c0-2.08-1.12-3.2-3.52-3.2h-6.88v33.13h21.12v9.6H150.16v37.61h-8.64a12.88,12.88,0,0,1-8.8-3.36,10.28,10.28,0,0,1-3.68-8v-77H158.8a12.88,12.88,0,0,1,8.8,3.36,10.26,10.26,0,0,1,3.68,8l.16,20.16Z"/><path d="M222.82,445.1a10.27,10.27,0,0,1-3.69,8,12.88,12.88,0,0,1-8.8,3.36h-19.2a10.26,10.26,0,0,0,3.68,8,13,13,0,0,0,9,3.36h19v12.49H192.89a12.88,12.88,0,0,1-8.8-3.36,10.28,10.28,0,0,1-3.68-8V413.41h29.92a13.58,13.58,0,0,1,9,3.36,10.27,10.27,0,0,1,3.69,8Zm-21.13.64V424.62c0-2.09-1.12-3.21-3.52-3.21h-6.88v27.53h6.88c2.24,0,3.36-1.12,3.52-3.2Z"/><path d="M231.62,424.78a10.26,10.26,0,0,1,3.68-8,13,13,0,0,1,9-3.36H274V425.9H255a13.58,13.58,0,0,0-9,3.36,10.26,10.26,0,0,0-3.68,8h19a12.88,12.88,0,0,1,8.8,3.36,10.27,10.27,0,0,1,3.69,8v20.32a10.29,10.29,0,0,1-3.69,8,12.88,12.88,0,0,1-8.8,3.36H231.46V456.14H248.9a12.88,12.88,0,0,0,8.8-3.36,10.26,10.26,0,0,0,3.68-8H231.46v-20Z"/><path d="M325.24,444.94H295.31a10.26,10.26,0,0,0,3.68,8,12.88,12.88,0,0,0,8.8,3.36h17.45v24H295.47a12.88,12.88,0,0,1-8.8-3.36,10.28,10.28,0,0,1-3.68-8l-.16-20.32a10.26,10.26,0,0,1,3.68-8,12.88,12.88,0,0,1,8.8-3.36h19a10.26,10.26,0,0,0-3.68-8,12.88,12.88,0,0,0-8.8-3.36H283V413.41h29.76a12.88,12.88,0,0,1,8.8,3.36,10.24,10.24,0,0,1,3.69,8Z"/><path d="M376.61,468.94a10.25,10.25,0,0,1-3.69,8,12.88,12.88,0,0,1-8.8,3.36H334.36v-77a10.26,10.26,0,0,1,3.68-8,12.88,12.88,0,0,1,8.8-3.36h8.64v37.61h21v9.6h-21v33h6.88c2.4,0,3.52-1,3.52-3.2v-20h10.89Z"/><path d="M385.41,392h8.64a12.88,12.88,0,0,1,8.8,3.36,10.26,10.26,0,0,1,3.68,8v7.84h-8.64a12.88,12.88,0,0,1-8.8-3.36,10.26,10.26,0,0,1-3.68-8Z"/><path d="M509.27,392v7.84a11.65,11.65,0,0,1-3,8,9.62,9.62,0,0,1-7.2,3.36h-7v-7.84a11.65,11.65,0,0,1,3-8,9.62,9.62,0,0,1,7.2-3.36Z"/><path d="M406.69,480.31h-8.64a12.88,12.88,0,0,1-8.8-3.36,10.28,10.28,0,0,1-3.68-8V416.61h8.64A12.88,12.88,0,0,1,403,420a10.28,10.28,0,0,1,3.68,8Z"/><path d="M436.94,413.57v58.89h6.72c2.4,0,3.52-1,3.52-3.2V413.57h10.88v55.37a10.28,10.28,0,0,1-3.68,8,12.88,12.88,0,0,1-8.8,3.36H415.81V424.94a10.26,10.26,0,0,1,3.68-8,12.91,12.91,0,0,1,8.81-3.36Z"/><path d="M509.27,480.31H479.51A12.91,12.91,0,0,1,470.7,477a10.28,10.28,0,0,1-3.68-8V448.62a10.26,10.26,0,0,1,3.68-8,12.91,12.91,0,0,1,8.81-3.36h19a10.26,10.26,0,0,0-3.68-8,12.88,12.88,0,0,0-8.8-3.36H467.18V413.41H497a12.88,12.88,0,0,1,8.8,3.36,10.26,10.26,0,0,1,3.68,8Zm-10.88-8V444.78h-6.72c-2.4,0-3.52,1.12-3.52,3.2v21.28c0,2.08,1.12,3.2,3.52,3.2Z"/><path d="M539.36,480.31h-8.64a12.93,12.93,0,0,1-8.81-3.36,10.28,10.28,0,0,1-3.68-8V392h8.65a12.88,12.88,0,0,1,8.8,3.36,10.26,10.26,0,0,1,3.68,8Z"/><path d="M205.85,527.2H181.69V524a4.67,4.67,0,0,1,.32-1.45,5.68,5.68,0,0,1,.64-1.44c.32-.48.64-.8,1.12-1.44.64-.48,1.12-1,1.76-1.44a20.49,20.49,0,0,1,6.24-2.08c1-.16,2.08-.48,3.52-.8a7.92,7.92,0,0,0,2.08-.64.88.88,0,0,0,.48-.8.83.83,0,0,0-.32-.64c-.32-.16-.8-.32-1.12-.48a13.76,13.76,0,0,0-2.56-.16,9.12,9.12,0,0,0-2.08.16l-1.44.48a1.25,1.25,0,0,0-.64.64c-.16.32-.32.48-.32.64a.59.59,0,0,1-.16.48h-7.36v-.16c0-4.64,3.84-6.88,11.2-6.88h1.12c1.6,0,3.2.16,4.8.32a18.71,18.71,0,0,1,3.2.8,4.37,4.37,0,0,1,1.92,1.44,3.32,3.32,0,0,1,1,1.6,6.8,6.8,0,0,1,.32,1.76v.16a3.45,3.45,0,0,1-.64,2.56,5.69,5.69,0,0,1-2.56,1.76,32.39,32.39,0,0,1-5.28,1.44l-4.16.64c-3.36.64-5.12,1.44-5.12,2.08H199v-2.4h6.72Z"/><path d="M234.5,517.11v.8a9.84,9.84,0,0,1-.16,2.24,5.57,5.57,0,0,1-1.12,2.4A5.08,5.08,0,0,1,231,524.8a13.09,13.09,0,0,1-3.84,1.6,24,24,0,0,1-5.93.64h-1.12a24.85,24.85,0,0,1-5.92-.64,13.85,13.85,0,0,1-3.84-1.6,10,10,0,0,1-2.24-2.25,16.15,16.15,0,0,1-1.12-2.4c-.16-.8-.16-1.44-.32-2.24v-.64a5.44,5.44,0,0,1,.16-1.6,3.23,3.23,0,0,1,.48-1.76,3.81,3.81,0,0,1,1-1.76,7.58,7.58,0,0,1,1.6-1.6,9.55,9.55,0,0,1,2.4-1.44c1-.32,1.92-.64,3.2-1a39.33,39.33,0,0,1,4.48-.32h1.12c1.45,0,2.89.16,4.49.32a18.71,18.71,0,0,1,3.2.8,6.71,6.71,0,0,1,2.24,1.44,15.09,15.09,0,0,1,1.6,1.6c.32.64.64,1.12,1,1.76.16.48.32,1.12.48,1.6A3.23,3.23,0,0,1,234.5,517.11Zm-7.36.48v-.32a4.67,4.67,0,0,0-.32-1.44,2.33,2.33,0,0,0-1-1.44,6,6,0,0,0-1.92-1.12,9.91,9.91,0,0,0-3.05-.32,11.09,11.09,0,0,0-3.2.48,5.53,5.53,0,0,0-1.92,1.12,3.78,3.78,0,0,0-1,1.44,4.67,4.67,0,0,0-.32,1.44v.32a5.68,5.68,0,0,0,.32,1.6,2.33,2.33,0,0,0,1,1.44,13.35,13.35,0,0,0,1.92,1.28,10.41,10.41,0,0,0,6.25,0,5.53,5.53,0,0,0,1.92-1.12,3.78,3.78,0,0,0,1-1.44,8,8,0,0,0,.32-1.92Z"/><path d="M259.62,526.88H235.46v-3.21a4.67,4.67,0,0,1,.32-1.44,5.68,5.68,0,0,1,.64-1.44c.32-.48.64-.8,1.12-1.44a7.1,7.1,0,0,1,1.76-1.28,20.49,20.49,0,0,1,6.24-2.08c1-.16,2.08-.48,3.68-.8a7.92,7.92,0,0,0,2.08-.64.88.88,0,0,0,.48-.8.83.83,0,0,0-.32-.64c-.32-.16-.8-.32-1.12-.48a13.76,13.76,0,0,0-2.56-.16,9.12,9.12,0,0,0-2.08.16l-1.44.48a1.25,1.25,0,0,0-.64.64c-.16.32-.32.48-.32.64a.59.59,0,0,1-.16.48h-7.52v-.16c0-4.64,3.84-6.88,11.2-6.88h1.12c1.6,0,3.2.16,4.8.32a18.71,18.71,0,0,1,3.2.8,4.37,4.37,0,0,1,1.92,1.44,3.32,3.32,0,0,1,1,1.6,6.8,6.8,0,0,1,.32,1.76v.16a3.45,3.45,0,0,1-.64,2.56,5.69,5.69,0,0,1-2.56,1.76,32.39,32.39,0,0,1-5.28,1.44l-4.16.64c-3.36.64-5.12,1.44-5.12,2.08h11.36v-2.56h6.72Z"/><path d="M273.87,527.36h-1.12a36.4,36.4,0,0,1-4.17-.32,11.74,11.74,0,0,1-3.2-.8,8.62,8.62,0,0,1-2.08-1.12,3.11,3.11,0,0,1-1.44-1.45,4.2,4.2,0,0,1-.8-1.44,4.67,4.67,0,0,1-.32-1.44c0-.32-.16-.64-.16-1.12v-.16h7.36a.59.59,0,0,0,.16.48c0,.16.16.32.32.64s.48.48.8.8l1.44.48a11.38,11.38,0,0,0,2.25.16,9.84,9.84,0,0,0,2.24-.16,4.67,4.67,0,0,0,1.44-.32,3.5,3.5,0,0,0,.8-.48c.16-.16.32-.32.32-.48v-.48c0-.8-.8-1.44-2.24-1.44h-6.41v-4.48h6.09c1.44,0,2.08-.32,2.08-1.12h0c0-.32-.16-.48-.16-.64a2.58,2.58,0,0,0-1.44-.48,22.6,22.6,0,0,0-3.21-.16,9.84,9.84,0,0,0-2.24.16,4.67,4.67,0,0,1-1.44.32,2.21,2.21,0,0,0-.64.48c-.16.16-.32.32-.32.48v.32h-7.36v-1.44a3,3,0,0,1,.32-1.12,2.87,2.87,0,0,1,.8-1.12,5,5,0,0,1,1.44-1.12c.64-.32,1.44-.64,2.08-1a18.6,18.6,0,0,1,2.88-.64,31.07,31.07,0,0,1,3.84-.32h1.13c1.76,0,3.68.16,5.44.32a11.48,11.48,0,0,1,3.36.8,5.53,5.53,0,0,1,1.92,1.12,2.33,2.33,0,0,1,1,1.44,4.43,4.43,0,0,1,.16,1.44v.16a2.58,2.58,0,0,1-1,2.08,5.91,5.91,0,0,1-2.24,1.12,4.14,4.14,0,0,1,2.72,1.44,3.65,3.65,0,0,1,1.12,3V520C285.87,525,281.87,527.36,273.87,527.36Z"/><path d="M294,521.91v5h-7.2v-5Z"/><path d="M330.84,517v.8a9.84,9.84,0,0,1-.16,2.24,5.57,5.57,0,0,1-1.12,2.4,5.08,5.08,0,0,1-2.24,2.25,13.09,13.09,0,0,1-3.84,1.6,24.13,24.13,0,0,1-5.93.64h-1.12a24.85,24.85,0,0,1-5.92-.64,17.42,17.42,0,0,1-4-1.6,15.37,15.37,0,0,1-2.24-2.25,8.11,8.11,0,0,1-1.12-2.4c-.16-.8-.16-1.44-.32-2.24V517a5.44,5.44,0,0,1,.16-1.6,3.23,3.23,0,0,1,.48-1.76,3.81,3.81,0,0,1,1-1.76,7.58,7.58,0,0,1,1.6-1.6,9.55,9.55,0,0,1,2.4-1.44c1-.32,1.92-.64,3.2-1a20.39,20.39,0,0,1,4.48-.32h1.12c1.44,0,2.88.16,4.48.32a18.6,18.6,0,0,1,3.21.8,6.71,6.71,0,0,1,2.24,1.44,15.09,15.09,0,0,1,1.6,1.6c.32.64.64,1.12,1,1.76a7.21,7.21,0,0,1,.48,1.76A2.41,2.41,0,0,1,330.84,517Zm-7.36.48v-.32a4.67,4.67,0,0,0-.32-1.44,2.34,2.34,0,0,0-1-1.44,6,6,0,0,0-1.92-1.12,9.85,9.85,0,0,0-3-.32,9.32,9.32,0,0,0-3,.48,5.53,5.53,0,0,0-1.92,1.12,3.78,3.78,0,0,0-1,1.44,4.67,4.67,0,0,0-.32,1.44v.32a5.68,5.68,0,0,0,.32,1.6,2.33,2.33,0,0,0,1,1.44,6,6,0,0,0,1.92,1.12,10.38,10.38,0,0,0,6.24,0,5.53,5.53,0,0,0,1.92-1.12,3.7,3.7,0,0,0,1-1.44A3.46,3.46,0,0,1,323.48,517.43Z"/><path d="M331.8,519l13.12-11.36h7.84v10.4h4v5h-4v3.69h-7.2V523H331.64Zm13.92-.8v-5.6l-6.56,5.6Z"/><path d="M364.92,521.75v5h-7.2v-5Z"/><path d="M378.53,515.51h-4.64v-4c3-.16,5.12-1.44,5.92-3.84h5.6v18.89h-7.2Z"/><path d="M400.61,526.88h-1.12a36.4,36.4,0,0,1-4.16-.32,16.88,16.88,0,0,1-3-.8,8.62,8.62,0,0,1-2.08-1.12,3.16,3.16,0,0,1-1.44-1.45,4.2,4.2,0,0,1-.8-1.44,4.67,4.67,0,0,1-.32-1.44c0-.32-.16-.64-.16-1.12h7.36a.59.59,0,0,0,.16.48c0,.16.16.32.32.64s.48.48.8.8l1.44.48a11.33,11.33,0,0,0,2.24.16,9.84,9.84,0,0,0,2.24-.16,4.67,4.67,0,0,0,1.44-.32,3.5,3.5,0,0,0,.8-.48c.16-.16.32-.32.32-.48v-.48c0-.8-.8-1.44-2.24-1.44H396v-4.48h6.08c1.44,0,2.08-.32,2.08-1.12h0c0-.32-.16-.48-.16-.64a2.58,2.58,0,0,0-1.44-.48,21.44,21.44,0,0,0-3.2-.16,9.84,9.84,0,0,0-2.24.16,4.67,4.67,0,0,1-1.44.32,2.21,2.21,0,0,0-.64.48c-.16.16-.32.32-.32.48v.32h-7.36v-1.44a3,3,0,0,1,.32-1.12,2.87,2.87,0,0,1,.8-1.12,5,5,0,0,1,1.44-1.12c.64-.32,1.44-.64,2.08-1a18.6,18.6,0,0,1,2.88-.64,31.17,31.17,0,0,1,4-.32H400c1.76,0,3.68.16,5.44.32a11.48,11.48,0,0,1,3.36.8,5.53,5.53,0,0,1,1.92,1.12,2.33,2.33,0,0,1,1,1.44,4.43,4.43,0,0,1,.16,1.44v.16a2.58,2.58,0,0,1-1,2.08,5.91,5.91,0,0,1-2.24,1.12,4.14,4.14,0,0,1,2.72,1.44,3.65,3.65,0,0,1,1.12,3v.16C412.61,524.64,408.45,526.88,400.61,526.88Z"/><path d="M421.57,516.63h8.33v4.8h-8.33Z"/><path d="M443.34,515.35H438.7v-3.84c3-.16,5.12-1.44,5.92-3.84h5.76v18.89h-7.2Z"/><path d="M465.9,526.72h-1.12a19.88,19.88,0,0,1-5.28-.64,13.58,13.58,0,0,1-3.52-1.44,9.17,9.17,0,0,1-2.08-2.25,7.54,7.54,0,0,1-1-2.4,12.35,12.35,0,0,1-.32-2.4V517a9.12,9.12,0,0,1,.16-2.08,7.92,7.92,0,0,1,.64-2.08,4.37,4.37,0,0,1,1.44-1.92,10.27,10.27,0,0,1,2.08-1.6,7.67,7.67,0,0,1,3.2-1.12,20.24,20.24,0,0,1,4.48-.48h1.12c1.6,0,3.2.16,4.8.32,1.12.32,2.24.64,3.2,1a4.34,4.34,0,0,1,1.93,1.44,3.32,3.32,0,0,1,1,1.6,5.68,5.68,0,0,1,.32,1.6v.16h-7.37a1.93,1.93,0,0,0-.8-.8,7.19,7.19,0,0,0-3.68-.64,7.47,7.47,0,0,0-2.72.48,6.61,6.61,0,0,0-1.76,1.12,2.38,2.38,0,0,0-.64,1.44,4.43,4.43,0,0,0-.16,1.44V517a13.5,13.5,0,0,1,7.84-1.76H468a36.4,36.4,0,0,1,4.16.32,13.61,13.61,0,0,1,2.73.8,5,5,0,0,1,1.76,1.44,3.78,3.78,0,0,1,1,1.44,6.8,6.8,0,0,1,.32,1.76v.16a6,6,0,0,1-.16,1.76,6.27,6.27,0,0,1-1,1.77,4.7,4.7,0,0,1-1.92,1.6,6.76,6.76,0,0,1-3.37,1C469.74,526.56,468,526.72,465.9,526.72Zm-5.6-6.41h0c0,1.44,1.6,1.92,5.12,1.92,3.36,0,5-.64,5-1.92h0c0-.32,0-.48-.16-.64l-.64-.64-1.44-.48a13.76,13.76,0,0,0-2.56-.16c-3.68,0-5.28.48-5.28,1.92Z"/><path d="M486.07,521.43v5h-7.2v-5Z"/></g></g></svg>