<svg xmlns="http://www.w3.org/2000/svg" viewBox="0 0 498.5 623.23"><defs><style>.cls-1{fill:#cfe4ff;}</style></defs><g id="Layer_2" data-name="Layer 2"><g id="Layer_2-2" data-name="Layer 2"><path class="cls-1" d="M0,222.44,476.89,0,299.74,621.4a2.55,2.55,0,0,1-3,1.76,2.49,2.49,0,0,1-1.28-1Z"/><path d="M164.83,340.39H110.74a22.75,22.75,0,0,1-16-6.08A18.48,18.48,0,0,1,88,319.9V199.08h38.41v20.48h15.68a22.75,22.75,0,0,1,16,6.08,18.49,18.49,0,0,1,6.72,14.41Zm-19.68-20V239.57c0-3.84-2.08-5.6-6.24-5.6H126.59v92.17h12.32Q145.15,326.14,145.15,320.38Z"/><path d="M219.4,340.39H203.72a22.75,22.75,0,0,1-16-6.08A18.48,18.48,0,0,1,181,319.9V199.08h15.68a22.75,22.75,0,0,1,16,6.08,18.46,18.46,0,0,1,6.72,14.4Z"/><path d="M289.82,219.56a22.75,22.75,0,0,1,16,6.08,18.49,18.49,0,0,1,6.72,14.41v100.5H258.61a22.75,22.75,0,0,1-16-6.08,18.48,18.48,0,0,1-6.72-14.41V219.56h19.68V320.38c0,3.84,2.08,5.6,6.4,5.6h12.32V219.4h15.53Z"/><path d="M405.52,276.86a18.46,18.46,0,0,1-6.72,14.4,23.48,23.48,0,0,1-16,6.08H348.23a18.46,18.46,0,0,0,6.72,14.4,23.59,23.59,0,0,0,16.16,6.08h34.57v22.73H351.43a22.75,22.75,0,0,1-16-6.08,18.48,18.48,0,0,1-6.72-14.41V219.72H383a22.75,22.75,0,0,1,16,6.08,18.49,18.49,0,0,1,6.72,14.41Zm-38.41,1V239.41c0-3.84-2.08-5.76-6.4-5.76H348.23v49.77h12.48c4.32.16,6.4-1.76,6.4-5.6Z"/><path d="M421.36,240.05a18.47,18.47,0,0,1,6.73-14.41,23.41,23.41,0,0,1,16.16-6.08H498.5v22.73H463.93a23.41,23.41,0,0,0-16.16,6.08,18.46,18.46,0,0,0-6.72,14.4h34.56a22.75,22.75,0,0,1,16,6.08,18.48,18.48,0,0,1,6.72,14.41v36.8a18.48,18.48,0,0,1-6.72,14.41,23.49,23.49,0,0,1-16,6.08H421.36V297h31.53a22.75,22.75,0,0,0,16-6.08,18.46,18.46,0,0,0,6.72-14.4H421.36V240.05Z"/><path d="M108.82,117v57.77h6.72c2.24,0,3.36-1,3.36-3V117.14h10.57v54.25a10.33,10.33,0,0,1-3.52,7.85,13.16,13.16,0,0,1-8.65,3.2H88.18V128.19a10.31,10.31,0,0,1,3.52-7.85,12.34,12.34,0,0,1,8.64-3.2Z"/><path d="M179.88,147.87a9.94,9.94,0,0,1-3.68,7.84,13.16,13.16,0,0,1-8.65,3.2H148.83a9.94,9.94,0,0,0,3.68,7.84,13.12,13.12,0,0,0,8.64,3.2h18.57v12.33H150.43a13.12,13.12,0,0,1-8.64-3.2,10.48,10.48,0,0,1-3.68-7.85V117h29.28a12.38,12.38,0,0,1,8.65,3.2,10.46,10.46,0,0,1,3.68,7.85l.16,19.84Zm-20.81.64v-20.8c0-2.09-1.12-3-3.52-3h-6.72v26.89h6.72c2.4,0,3.52-1,3.52-3Z"/><path d="M188.36,128a9.94,9.94,0,0,1,3.68-7.85,12.34,12.34,0,0,1,8.64-3.2H230v12.33H211.4a13.12,13.12,0,0,0-8.64,3.2,10.46,10.46,0,0,0-3.68,7.84H217.8a13.16,13.16,0,0,1,8.65,3.2,10.46,10.46,0,0,1,3.68,7.84v19.84a10,10,0,0,1-3.68,7.85,13.16,13.16,0,0,1-8.65,3.2H188.52V158.75h17a12.34,12.34,0,0,0,8.64-3.2,10.46,10.46,0,0,0,3.68-7.84H188.52L188.36,128Z"/><path d="M280.22,147.71H250.93a9.94,9.94,0,0,0,3.68,7.84,12.34,12.34,0,0,0,8.64,3.2h17.13v23.53H251.25a13.12,13.12,0,0,1-8.64-3.2,10.48,10.48,0,0,1-3.68-7.85l-.16-19.84a9.94,9.94,0,0,1,3.68-7.84,13.12,13.12,0,0,1,8.64-3.2h18.72a9.94,9.94,0,0,0-3.68-7.84,13.12,13.12,0,0,0-8.64-3.2H238.93V116.82h29.12a13.16,13.16,0,0,1,8.65,3.2,10.46,10.46,0,0,1,3.68,7.85Z"/><path d="M288.86,205.64V117h29.28a13.12,13.12,0,0,1,8.64,3.2,10.44,10.44,0,0,1,3.69,7.85v54.25H309.66v23.36Zm30.88-34.09V127.87c0-2.08-1.12-3.05-3.52-3.05H309.5v49.77h6.72C318.62,174.59,319.74,173.47,319.74,171.55Z"/><path d="M339,117h29.28a13.12,13.12,0,0,1,8.64,3.2,10.44,10.44,0,0,1,3.69,7.85v19.68H370V128c0-2.08-1.12-3-3.36-3h-6.72v57.46h-8.48a13.12,13.12,0,0,1-8.64-3.2,9.81,9.81,0,0,1-3.52-7.85Z"/><path d="M430.81,147.87a9.94,9.94,0,0,1-3.68,7.84,13.16,13.16,0,0,1-8.65,3.2H399.76a9.94,9.94,0,0,0,3.68,7.84,13.12,13.12,0,0,0,8.64,3.2h18.57v12.33H401.36a13.12,13.12,0,0,1-8.64-3.2,10.48,10.48,0,0,1-3.68-7.85V117h29.28a12.34,12.34,0,0,1,8.64,3.2,10.44,10.44,0,0,1,3.69,7.85v19.84Zm-20.81.64v-20.8c0-2.09-1.12-3-3.52-3h-6.72v26.89h6.72C408.88,151.55,410,150.59,410,148.51Z"/><path d="M480.9,182.28H470.33V127.71c0-2.08-1.12-3-3.36-3h-6.72v57.62h-8.48a13.12,13.12,0,0,1-8.64-3.2,10.48,10.48,0,0,1-3.68-7.85V116.82h29.28a13.14,13.14,0,0,1,6.88,1.92,13.35,13.35,0,0,1,7.05-1.92h3.52a12.34,12.34,0,0,1,8.64,3.2,9.8,9.8,0,0,1,3.52,7.85v54.25H487.62V127.71c0-2.08-1.12-3-3.36-3s-3.36,1-3.36,3Z"/><path d="M407.44,113.3H399.6a11.65,11.65,0,0,1-8-3,9.62,9.62,0,0,1-3.36-7.2V96h7.84a11.65,11.65,0,0,1,8,3,9.62,9.62,0,0,1,3.36,7.2Z"/><path d="M130.43,390.32H119.54V370c0-2.08-1.12-3.2-3.52-3.2h-6.88v33.13h21.13v9.6H109.14v37.61H100.5a12.88,12.88,0,0,1-8.8-3.36,10.26,10.26,0,0,1-3.68-8v-77h29.76a12.93,12.93,0,0,1,8.81,3.36,10.26,10.26,0,0,1,3.68,8l.16,20.17Z"/><path d="M181.8,412.08a10.26,10.26,0,0,1-3.68,8,12.93,12.93,0,0,1-8.81,3.36h-19.2a10.28,10.28,0,0,0,3.68,8,13,13,0,0,0,9,3.36H181.8v12.48H151.87a12.88,12.88,0,0,1-8.8-3.36,10.26,10.26,0,0,1-3.68-8V380.4h29.92a13.62,13.62,0,0,1,9,3.36,10.26,10.26,0,0,1,3.68,8Zm-21.13.64V391.6c0-2.08-1.12-3.2-3.52-3.2h-6.88v27.52h6.88c2.24,0,3.36-1.12,3.52-3.2Z"/><path d="M190.6,391.76a10.26,10.26,0,0,1,3.68-8,13,13,0,0,1,9-3.36H233v12.48H214a13.58,13.58,0,0,0-9,3.36,10.26,10.26,0,0,0-3.68,8h19a12.91,12.91,0,0,1,8.81,3.36,10.26,10.26,0,0,1,3.68,8v20.33a10.26,10.26,0,0,1-3.68,8,12.91,12.91,0,0,1-8.81,3.36H190.44V423.12h17.44a12.88,12.88,0,0,0,8.8-3.36,10.26,10.26,0,0,0,3.68-8H190.44v-20Z"/><path d="M284.22,411.92H254.29a10.26,10.26,0,0,0,3.68,8,12.88,12.88,0,0,0,8.8,3.36h17.45v24H254.45a12.88,12.88,0,0,1-8.8-3.36,10.26,10.26,0,0,1-3.68-8l-.16-20.33a10.26,10.26,0,0,1,3.68-8,12.88,12.88,0,0,1,8.8-3.36h19a10.26,10.26,0,0,0-3.68-8,12.88,12.88,0,0,0-8.8-3.36H242V380.4h29.76a12.91,12.91,0,0,1,8.81,3.36,10.26,10.26,0,0,1,3.68,8Z"/><path d="M335.59,435.93a10.26,10.26,0,0,1-3.68,8,12.91,12.91,0,0,1-8.81,3.36H293.34v-77a10.26,10.26,0,0,1,3.68-8,12.88,12.88,0,0,1,8.8-3.36h8.64v37.61h21v9.6h-21v33h6.88c2.4,0,3.52-1,3.52-3.2v-20h10.89Z"/><path d="M344.39,359H353a12.88,12.88,0,0,1,8.8,3.36,10.26,10.26,0,0,1,3.68,8v7.85h-8.64a12.85,12.85,0,0,1-8.8-3.37,10.26,10.26,0,0,1-3.68-8Z"/><path d="M468.25,359v7.84a11.65,11.65,0,0,1-3,8,9.63,9.63,0,0,1-7.2,3.37h-7v-7.85a11.65,11.65,0,0,1,3-8,9.62,9.62,0,0,1,7.2-3.36Z"/><path d="M365.67,447.29H357a12.88,12.88,0,0,1-8.8-3.36,10.26,10.26,0,0,1-3.68-8V383.6h8.64A12.88,12.88,0,0,1,362,387a10.26,10.26,0,0,1,3.68,8Z"/><path d="M395.92,380.56v58.89h6.72c2.4,0,3.52-1,3.52-3.2V380.56H417v55.37a10.26,10.26,0,0,1-3.68,8,12.88,12.88,0,0,1-8.8,3.36H374.79V391.92a10.23,10.23,0,0,1,3.69-8,12.88,12.88,0,0,1,8.8-3.36Z"/><path d="M468.25,447.29H438.49a12.88,12.88,0,0,1-8.8-3.36,10.27,10.27,0,0,1-3.69-8V415.6a10.27,10.27,0,0,1,3.69-8,12.88,12.88,0,0,1,8.8-3.36h19a10.26,10.26,0,0,0-3.68-8,12.88,12.88,0,0,0-8.8-3.36H426.16V380.4h29.77a12.88,12.88,0,0,1,8.8,3.36,10.26,10.26,0,0,1,3.68,8Zm-10.88-8V411.76h-6.72c-2.4,0-3.52,1.12-3.52,3.2v21.29c0,2.08,1.12,3.2,3.52,3.2Z"/><path d="M498.34,447.29H489.7a12.88,12.88,0,0,1-8.8-3.36,10.27,10.27,0,0,1-3.69-8V359h8.65a12.88,12.88,0,0,1,8.8,3.36,10.26,10.26,0,0,1,3.68,8Z"/><path d="M164.83,494.18H140.67V491a4.67,4.67,0,0,1,.32-1.44,5.68,5.68,0,0,1,.64-1.44c.32-.48.64-.8,1.12-1.44.64-.48,1.12-1,1.76-1.44a20.49,20.49,0,0,1,6.24-2.08c1-.16,2.08-.48,3.52-.8a7.92,7.92,0,0,0,2.08-.64.88.88,0,0,0,.48-.8.83.83,0,0,0-.32-.64c-.32-.16-.8-.32-1.12-.48a13.76,13.76,0,0,0-2.56-.16,9.12,9.12,0,0,0-2.08.16l-1.44.48a1.25,1.25,0,0,0-.64.64c-.16.32-.32.48-.32.64a.59.59,0,0,1-.16.48h-7.36v-.16c0-4.64,3.84-6.89,11.2-6.89h1.12c1.6,0,3.2.16,4.8.32a18.71,18.71,0,0,1,3.2.8,4.31,4.31,0,0,1,1.92,1.45,3.32,3.32,0,0,1,1,1.6,6.8,6.8,0,0,1,.32,1.76v.16a3.45,3.45,0,0,1-.64,2.56,5.69,5.69,0,0,1-2.56,1.76,32.39,32.39,0,0,1-5.28,1.44l-4.16.64c-3.36.64-5.12,1.44-5.12,2.08H158v-2.4h6.72Z"/><path d="M193.48,484.1v.8a9.84,9.84,0,0,1-.16,2.24,5.57,5.57,0,0,1-1.12,2.4,5.06,5.06,0,0,1-2.24,2.24,13.09,13.09,0,0,1-3.84,1.6,24,24,0,0,1-5.92.64h-1.12a24.94,24.94,0,0,1-5.93-.64,13.85,13.85,0,0,1-3.84-1.6,9.91,9.91,0,0,1-2.24-2.24,16.15,16.15,0,0,1-1.12-2.4c-.16-.8-.16-1.44-.32-2.24v-.64a5.44,5.44,0,0,1,.16-1.6,3.23,3.23,0,0,1,.48-1.76,3.81,3.81,0,0,1,1-1.76,7.58,7.58,0,0,1,1.6-1.6,9.31,9.31,0,0,1,2.4-1.45c1-.32,1.92-.64,3.2-1a39.68,39.68,0,0,1,4.49-.32H180c1.44,0,2.88.16,4.48.32a18.71,18.71,0,0,1,3.2.8,6.71,6.71,0,0,1,2.24,1.44,16.13,16.13,0,0,1,1.6,1.61c.32.64.64,1.12,1,1.76.16.48.32,1.12.48,1.6A3.23,3.23,0,0,1,193.48,484.1Zm-7.36.48v-.32a4.67,4.67,0,0,0-.32-1.44,2.33,2.33,0,0,0-1-1.44,6,6,0,0,0-1.92-1.12,9.85,9.85,0,0,0-3-.32,11.09,11.09,0,0,0-3.2.48,5.49,5.49,0,0,0-1.93,1.12,3.78,3.78,0,0,0-1,1.44,4.67,4.67,0,0,0-.32,1.44v.32a5.68,5.68,0,0,0,.32,1.6,2.33,2.33,0,0,0,1,1.44,13.42,13.42,0,0,0,1.93,1.28,10.38,10.38,0,0,0,6.24,0,5.53,5.53,0,0,0,1.92-1.12,3.78,3.78,0,0,0,1-1.44,8,8,0,0,0,.32-1.92Z"/><path d="M218.6,493.86H194.44v-3.2a4.67,4.67,0,0,1,.32-1.44,5.68,5.68,0,0,1,.64-1.44c.32-.48.64-.8,1.12-1.44a7.1,7.1,0,0,1,1.76-1.28,20.49,20.49,0,0,1,6.24-2.08c1-.16,2.08-.48,3.68-.8a7.92,7.92,0,0,0,2.08-.64.88.88,0,0,0,.48-.8.83.83,0,0,0-.32-.64c-.32-.16-.8-.32-1.12-.48a13.76,13.76,0,0,0-2.56-.16,9.12,9.12,0,0,0-2.08.16l-1.44.48a1.25,1.25,0,0,0-.64.64c-.16.32-.32.48-.32.64a.59.59,0,0,1-.16.48H194.6v-.16c0-4.65,3.84-6.89,11.2-6.89h1.12c1.6,0,3.2.16,4.8.32a18.71,18.71,0,0,1,3.2.8,4.31,4.31,0,0,1,1.92,1.45,3.32,3.32,0,0,1,1,1.6,6.8,6.8,0,0,1,.32,1.76v.16a3.45,3.45,0,0,1-.64,2.56,5.69,5.69,0,0,1-2.56,1.76,32.39,32.39,0,0,1-5.28,1.44l-4.16.64c-3.36.64-5.12,1.44-5.12,2.08h11.36v-2.56h6.72Z"/><path d="M232.85,494.34h-1.12a36.4,36.4,0,0,1-4.16-.32,11.8,11.8,0,0,1-3.21-.8,8.62,8.62,0,0,1-2.08-1.12,3.14,3.14,0,0,1-1.44-1.44,4.2,4.2,0,0,1-.8-1.44,4.67,4.67,0,0,1-.32-1.44c0-.32-.16-.64-.16-1.12v-.16h7.37a.59.59,0,0,0,.16.48c0,.16.16.32.32.64s.48.48.8.8l1.44.48a11.33,11.33,0,0,0,2.24.16,9.84,9.84,0,0,0,2.24-.16,4.67,4.67,0,0,0,1.44-.32,3.5,3.5,0,0,0,.8-.48c.16-.16.32-.32.32-.48v-.48c0-.8-.8-1.44-2.24-1.44h-6.4v-4.48h6.08c1.44,0,2.08-.32,2.08-1.12h0c0-.32-.16-.48-.16-.64a2.58,2.58,0,0,0-1.44-.48,22.53,22.53,0,0,0-3.2-.16,9.84,9.84,0,0,0-2.24.16,4.67,4.67,0,0,1-1.44.32,2.21,2.21,0,0,0-.64.48c-.16.16-.32.32-.32.48v.32H219.4v-1.44a3,3,0,0,1,.32-1.12,2.91,2.91,0,0,1,.8-1.13,5,5,0,0,1,1.44-1.12c.64-.32,1.44-.64,2.08-1a18.47,18.47,0,0,1,2.89-.64,31.07,31.07,0,0,1,3.84-.32h1.12c1.76,0,3.68.16,5.44.32a11.48,11.48,0,0,1,3.36.8,5.53,5.53,0,0,1,1.92,1.12,2.33,2.33,0,0,1,1,1.44,4.52,4.52,0,0,1,.16,1.45v.16a2.58,2.58,0,0,1-1,2.08,5.91,5.91,0,0,1-2.24,1.12,4.14,4.14,0,0,1,2.72,1.44,3.65,3.65,0,0,1,1.12,3V487C244.85,491.94,240.85,494.34,232.85,494.34Z"/><path d="M253,488.9v5h-7.2v-5Z"/><path d="M289.82,483.94v.8a9.84,9.84,0,0,1-.16,2.24,5.57,5.57,0,0,1-1.12,2.4,5.06,5.06,0,0,1-2.24,2.24,13.09,13.09,0,0,1-3.84,1.6,24,24,0,0,1-5.92.64h-1.13a24.85,24.85,0,0,1-5.92-.64,17.42,17.42,0,0,1-4-1.6,14.83,14.83,0,0,1-2.24-2.24,8.11,8.11,0,0,1-1.12-2.4c-.16-.8-.16-1.44-.32-2.24v-.8a5.44,5.44,0,0,1,.16-1.6,3.23,3.23,0,0,1,.48-1.76,3.81,3.81,0,0,1,1-1.76,7.87,7.87,0,0,1,1.6-1.61,9.55,9.55,0,0,1,2.4-1.44c1-.32,1.92-.64,3.2-1a20.39,20.39,0,0,1,4.48-.32h1.13c1.44,0,2.88.16,4.48.32a18.71,18.71,0,0,1,3.2.8,6.71,6.71,0,0,1,2.24,1.44,15.13,15.13,0,0,1,1.6,1.61c.32.64.64,1.12,1,1.76a7.21,7.21,0,0,1,.48,1.76A2.41,2.41,0,0,1,289.82,483.94Zm-7.36.48v-.32a4.67,4.67,0,0,0-.32-1.44,2.33,2.33,0,0,0-1-1.44,6,6,0,0,0-1.92-1.12,9.88,9.88,0,0,0-3.05-.32,9.32,9.32,0,0,0-3,.48,5.53,5.53,0,0,0-1.92,1.12,3.78,3.78,0,0,0-1,1.44,4.67,4.67,0,0,0-.32,1.44v.32a5.68,5.68,0,0,0,.32,1.6,2.33,2.33,0,0,0,1,1.44,6,6,0,0,0,1.92,1.12,10.41,10.41,0,0,0,6.25,0,5.53,5.53,0,0,0,1.92-1.12,3.78,3.78,0,0,0,1-1.44A3.46,3.46,0,0,1,282.46,484.42Z"/><path d="M290.78,486l13.12-11.37h7.84v10.41h4v5h-4v3.68h-7.2V490H290.62Zm13.92-.8v-5.6l-6.56,5.6Z"/><path d="M323.9,488.74v5h-7.2v-5Z"/><path d="M337.51,482.5h-4.64v-4c3-.16,5.12-1.45,5.92-3.85h5.6v18.89h-7.2Z"/><path d="M359.59,493.86h-1.12a36.4,36.4,0,0,1-4.16-.32,16.88,16.88,0,0,1-3-.8,8.62,8.62,0,0,1-2.08-1.12,3.14,3.14,0,0,1-1.44-1.44,4.2,4.2,0,0,1-.8-1.44,4.67,4.67,0,0,1-.32-1.44c0-.32-.16-.64-.16-1.12h7.36a.59.59,0,0,0,.16.48c0,.16.16.32.32.64s.48.48.8.8l1.44.48a11.33,11.33,0,0,0,2.24.16,9.84,9.84,0,0,0,2.24-.16,4.67,4.67,0,0,0,1.44-.32,3.5,3.5,0,0,0,.8-.48c.16-.16.32-.32.32-.48v-.48c0-.8-.8-1.44-2.24-1.44H355V480.9H361c1.44,0,2.08-.32,2.08-1.12h0c0-.32-.16-.48-.16-.64a2.58,2.58,0,0,0-1.44-.48,21.44,21.44,0,0,0-3.2-.16,9.84,9.84,0,0,0-2.24.16,4.67,4.67,0,0,1-1.44.32,2.21,2.21,0,0,0-.64.48c-.16.16-.32.32-.32.48v.32h-7.36v-1.44a3,3,0,0,1,.32-1.12,2.83,2.83,0,0,1,.8-1.13,5,5,0,0,1,1.44-1.12c.64-.32,1.44-.64,2.08-1a18.6,18.6,0,0,1,2.88-.64,31.17,31.17,0,0,1,4-.32H359c1.76,0,3.68.16,5.44.32a11.48,11.48,0,0,1,3.36.8,5.53,5.53,0,0,1,1.92,1.12,2.33,2.33,0,0,1,1,1.44,4.52,4.52,0,0,1,.16,1.45v.16a2.58,2.58,0,0,1-1,2.08,5.91,5.91,0,0,1-2.24,1.12,4.14,4.14,0,0,1,2.72,1.44,3.65,3.65,0,0,1,1.12,3v.16C371.59,491.62,367.43,493.86,359.59,493.86Z"/><path d="M380.56,483.62h8.32v4.8h-8.32Z"/><path d="M402.32,482.34h-4.64V478.5c3-.16,5.12-1.45,5.92-3.85h5.76v18.89h-7.2Z"/><path d="M424.88,493.7h-1.12a19.88,19.88,0,0,1-5.28-.64,13.58,13.58,0,0,1-3.52-1.44,9.13,9.13,0,0,1-2.08-2.24,7.54,7.54,0,0,1-1-2.4,12.35,12.35,0,0,1-.32-2.4v-.64a9.12,9.12,0,0,1,.16-2.08,7.92,7.92,0,0,1,.64-2.08,4.37,4.37,0,0,1,1.44-1.92,10.32,10.32,0,0,1,2.08-1.61,7.67,7.67,0,0,1,3.2-1.12,20.24,20.24,0,0,1,4.48-.48h1.12c1.6,0,3.21.16,4.81.32,1.12.32,2.24.64,3.2,1a4.31,4.31,0,0,1,1.92,1.45,3.32,3.32,0,0,1,1,1.6,5.68,5.68,0,0,1,.32,1.6v.16h-7.36a1.93,1.93,0,0,0-.8-.8,7.25,7.25,0,0,0-3.69-.64,7.47,7.47,0,0,0-2.72.48,6.61,6.61,0,0,0-1.76,1.12,2.38,2.38,0,0,0-.64,1.44,4.43,4.43,0,0,0-.16,1.44v.16a13.5,13.5,0,0,1,7.84-1.76H427a36.4,36.4,0,0,1,4.17.32,13.51,13.51,0,0,1,2.72.8,5,5,0,0,1,1.76,1.44,3.78,3.78,0,0,1,1,1.44,6.8,6.8,0,0,1,.32,1.76v.16a6,6,0,0,1-.16,1.76,6.21,6.21,0,0,1-1,1.76,4.7,4.7,0,0,1-1.92,1.6,6.72,6.72,0,0,1-3.36,1C428.73,493.54,427,493.7,424.88,493.7Zm-5.6-6.4h0c0,1.44,1.6,1.92,5.12,1.92s5-.64,5-1.92h0c0-.32,0-.48-.16-.64l-.64-.64-1.44-.48a13.92,13.92,0,0,0-2.57-.16c-3.68,0-5.28.48-5.28,1.92Z"/><path d="M445.05,488.42v5h-7.2v-5Z"/></g></g></svg>