<svg xmlns="http://www.w3.org/2000/svg" viewBox="0 0 256.39 221.61"><defs><style>.cls-1{fill:#fff;}</style></defs><g id="Layer_2" data-name="Layer 2"><g id="Layer_1-2" data-name="Layer 1"><path class="cls-1" d="M48,152.78H14.19a14.43,14.43,0,0,1-10-3.76A11.7,11.7,0,0,1,0,140V64.47H24V77.25h9.78a14.47,14.47,0,0,1,10,3.76A11.72,11.72,0,0,1,48,90ZM35.65,140.29V89.74c0-2.36-1.32-3.55-3.94-3.55H24v57.65h7.73C34.33,143.84,35.65,142.67,35.65,140.29Z"/><path class="cls-1" d="M82,152.78H72.25a14.47,14.47,0,0,1-10-3.76,11.7,11.7,0,0,1-4.18-9V64.47h9.78a14.47,14.47,0,0,1,10,3.76,11.7,11.7,0,0,1,4.18,9Z"/><path class="cls-1" d="M126.05,77.25a14.47,14.47,0,0,1,10,3.76,11.72,11.72,0,0,1,4.18,9v62.76H106.52a14.43,14.43,0,0,1-10-3.76,11.7,11.7,0,0,1-4.18-9V77.25h12.3V140.3q0,3.54,4,3.54h7.73V77.25Z"/><path class="cls-1" d="M198.31,113a11.7,11.7,0,0,1-4.18,9,14.44,14.44,0,0,1-10,3.77H162.52a11.66,11.66,0,0,0,4.2,9,14.58,14.58,0,0,0,10.06,3.77h21.56v14.19H164.43A14.55,14.55,0,0,1,154.38,149a11.71,11.71,0,0,1-4.19-9V77.25h33.87a14.52,14.52,0,0,1,10,3.76,11.69,11.69,0,0,1,4.2,9Zm-24,.69v-24c0-2.38-1.34-3.57-4-3.57h-7.79v31.1h7.84c2.63,0,4-1.15,4-3.53Z"/><path class="cls-1" d="M208.24,90a11.69,11.69,0,0,1,4.2-9,14.52,14.52,0,0,1,10.08-3.77h33.87V91.44H234.81a14.58,14.58,0,0,0-10.06,3.77,11.69,11.69,0,0,0-4.2,9h21.61a14.44,14.44,0,0,1,10,3.77,11.7,11.7,0,0,1,4.18,9v23a11.7,11.7,0,0,1-4.18,9,14.43,14.43,0,0,1-10,3.76H208.24V125.52H228a14.43,14.43,0,0,0,10-3.76,11.7,11.7,0,0,0,4.18-9H208.24Z"/><path class="cls-1" d="M13,13.17V49.23h4.18q2.13,0,2.13-1.92V13.17H25.9V47.08A6.34,6.34,0,0,1,23.65,52a7.84,7.84,0,0,1-5.42,2H0V20.05a6.34,6.34,0,0,1,2.25-4.87,7.82,7.82,0,0,1,5.42-2Z"/><path class="cls-1" d="M57.27,32.5A6.34,6.34,0,0,1,55,37.38a7.81,7.81,0,0,1-5.41,2H37.92a6.36,6.36,0,0,0,2.27,4.87,7.89,7.89,0,0,0,5.44,2H57.27v7.67H39a7.86,7.86,0,0,1-5.43-2,6.31,6.31,0,0,1-2.27-4.87V13.17h18.3a7.86,7.86,0,0,1,5.43,2A6.32,6.32,0,0,1,57.27,20Zm-13,.38v-13q0-1.92-2.16-1.92H37.92v16.8h4.23c1.44.05,2.16-.6,2.16-1.88Z"/><path class="cls-1" d="M62.64,20.08a6.31,6.31,0,0,1,2.26-4.87,7.86,7.86,0,0,1,5.43-2h18.3v7.67H77a7.89,7.89,0,0,0-5.44,2,6.31,6.31,0,0,0-2.26,4.87H81a7.81,7.81,0,0,1,5.41,2,6.31,6.31,0,0,1,2.26,4.87V47.05a6.31,6.31,0,0,1-2.26,4.87,7.81,7.81,0,0,1-5.41,2H62.64V39.25H73.29a7.77,7.77,0,0,0,5.41-2A6.31,6.31,0,0,0,81,32.38H62.64Z"/><path class="cls-1" d="M120,32.35H101.67a6.35,6.35,0,0,0,2.26,4.87,7.77,7.77,0,0,0,5.41,2H120V54H101.76a7.81,7.81,0,0,1-5.41-2,6.31,6.31,0,0,1-2.26-4.87L94,34.67a6.31,6.31,0,0,1,2.26-4.87,7.86,7.86,0,0,1,5.41-2h11.68a6.31,6.31,0,0,0-2.26-4.87,7.81,7.81,0,0,0-5.41-2H94.09V13.17h18.24a7.81,7.81,0,0,1,5.41,2A6.35,6.35,0,0,1,120,20Z"/><path class="cls-1" d="M125.37,68.56V13.17h18.3a7.84,7.84,0,0,1,5.42,2A6.28,6.28,0,0,1,151.36,20v33.9h-13V68.52Zm19.34-21.33V19.92c0-1.27-.72-1.91-2.16-1.91h-4.23V49.15h4.2Q144.71,49.15,144.71,47.23Z"/><path class="cls-1" d="M156.73,13.17h18.33a7.81,7.81,0,0,1,5.41,2A6.35,6.35,0,0,1,182.73,20V32.31h-6.65V20q0-1.92-2.13-1.92h-4.18V54h-5.25a7.86,7.86,0,0,1-5.42-2,6.34,6.34,0,0,1-2.25-4.87Z"/><path class="cls-1" d="M214.09,32.5a6.34,6.34,0,0,1-2.26,4.88,7.81,7.81,0,0,1-5.41,2H194.74A6.36,6.36,0,0,0,197,44.25a7.89,7.89,0,0,0,5.44,2h11.64v7.67h-18.3a7.86,7.86,0,0,1-5.43-2,6.31,6.31,0,0,1-2.26-4.87V13.17h18.29a7.86,7.86,0,0,1,5.43,2A6.32,6.32,0,0,1,214.09,20Zm-13,.38v-13Q201.14,18,199,18h-4.24v16.8H199C200.42,34.81,201.14,34.16,201.14,32.88Z"/><path class="cls-1" d="M245.45,54h-6.64v-34q0-1.92-2.13-1.92h-4.16V54h-5.3a7.86,7.86,0,0,1-5.42-2,6.35,6.35,0,0,1-2.26-4.87v-34h18.29a8,8,0,0,1,4.33,1.23,8,8,0,0,1,4.36-1.23h2.21a7.79,7.79,0,0,1,5.4,2A6.34,6.34,0,0,1,256.38,20v33.9h-6.66v-34c0-1.28-.72-1.92-2.14-1.92s-2.13.64-2.13,1.92Z"/><path class="cls-1" d="M199.52,10.84h-4.91a7.27,7.27,0,0,1-5-1.89,5.86,5.86,0,0,1-2.1-4.53V0h4.92a7.27,7.27,0,0,1,5,1.89,5.86,5.86,0,0,1,2.1,4.53Z"/><path class="cls-1" d="M26.46,186H19.67V173.29c0-1.31-.73-2-2.18-2H13.23V192H26.46v6H13.23v23.51H7.83a8,8,0,0,1-5.53-2.08,6.46,6.46,0,0,1-2.3-5v-48.1H18.62a8,8,0,0,1,5.53,2.07,6.5,6.5,0,0,1,2.31,5Z"/><path class="cls-1" d="M58.52,199.61a6.46,6.46,0,0,1-2.3,5,8,8,0,0,1-5.53,2.08h-12a6.43,6.43,0,0,0,2.32,5,8,8,0,0,0,5.55,2.08H58.52v7.84H39.8a8,8,0,0,1-5.54-2.08,6.43,6.43,0,0,1-2.32-5V179.86H50.63a8,8,0,0,1,5.55,2.08,6.47,6.47,0,0,1,2.31,5ZM45.29,200V186.77c0-1.31-.73-2-2.2-2H38.76v17.16h4.33c1.43,0,2.17-.63,2.17-1.94Z"/><path class="cls-1" d="M64,186.92a6.47,6.47,0,0,1,2.31-5,8,8,0,0,1,5.55-2.08H90.52v7.83H78.64a8.07,8.07,0,0,0-5.56,2.07,6.5,6.5,0,0,0-2.31,5H82.69a8,8,0,0,1,5.53,2.08,6.43,6.43,0,0,1,2.31,5v12.69a6.47,6.47,0,0,1-2.31,5,8,8,0,0,1-5.53,2.08H64V206.5H74.86a8,8,0,0,0,5.53-2.07,6.49,6.49,0,0,0,2.3-5H64Z"/><path class="cls-1" d="M122.52,199.45H103.85a6.5,6.5,0,0,0,2.31,5,8,8,0,0,0,5.52,2.07h10.84v15H103.94a8,8,0,0,1-5.53-2.08,6.47,6.47,0,0,1-2.31-5L96,201.8a6.43,6.43,0,0,1,2.31-5,8,8,0,0,1,5.53-2.08h11.92a6.52,6.52,0,0,0-2.3-5,8,8,0,0,0-5.53-2.07H96.1v-7.84h18.63a8,8,0,0,1,5.53,2.08,6.5,6.5,0,0,1,2.3,5Z"/><path class="cls-1" d="M154.6,214.49a6.47,6.47,0,0,1-2.31,5,8,8,0,0,1-5.52,2.08H128.14V173.44a6.5,6.5,0,0,1,2.3-5,8,8,0,0,1,5.53-2.07h5.4v23.5h13.15v6H141.37v20.6h4.26c1.45,0,2.18-.65,2.18-2V202h6.79Z"/><path class="cls-1" d="M160.17,166.39h5.4a8,8,0,0,1,5.53,2.07,6.52,6.52,0,0,1,2.3,5v4.86H168a8,8,0,0,1-5.53-2.08,6.43,6.43,0,0,1-2.31-5Z"/><path class="cls-1" d="M237.52,166.39v4.86a7.1,7.1,0,0,1-1.87,5,5.82,5.82,0,0,1-4.48,2.08H226.8v-4.86a7.22,7.22,0,0,1,1.87-5,5.81,5.81,0,0,1,4.48-2.07Z"/><path class="cls-1" d="M173.4,221.55H168a8,8,0,0,1-5.49-2.08,6.47,6.47,0,0,1-2.31-5V181.74h5.4a8,8,0,0,1,5.53,2.08,6.5,6.5,0,0,1,2.3,5Z"/><path class="cls-1" d="M192.29,179.86v36.81h4.23c1.45,0,2.18-.65,2.18-2V179.86h6.82v34.63a6.47,6.47,0,0,1-2.31,5,8,8,0,0,1-5.53,2.08H179.06V186.92a6.47,6.47,0,0,1,2.31-5,8,8,0,0,1,5.53-2.08Z"/><path class="cls-1" d="M237.52,221.55H218.93a8,8,0,0,1-5.53-2.08,6.49,6.49,0,0,1-2.3-5V201.8a6.46,6.46,0,0,1,2.29-5,7.9,7.9,0,0,1,5.51-2.08h11.87a6.5,6.5,0,0,0-2.31-5,8,8,0,0,0-5.52-2.07H211.1v-7.84h18.63a8,8,0,0,1,5.52,2.08,6.47,6.47,0,0,1,2.31,5Zm-6.79-4.94V199.45h-4.21c-1.45,0-2.17.66-2.17,2v13.22c0,1.31.72,2,2.17,2Z"/><path class="cls-1" d="M256.36,221.55H251a8,8,0,0,1-5.53-2.08,6.47,6.47,0,0,1-2.31-5v-48.1h5.39a8,8,0,0,1,5.53,2.07,6.52,6.52,0,0,1,2.3,5Z"/></g></g></svg>