<?xml version="1.0" encoding="utf-8"?>
<!-- Generator: Adobe Illustrator 26.0.3, SVG Export Plug-In . SVG Version: 6.00 Build 0)  -->
<svg version="1.1" id="Layer_1" xmlns="http://www.w3.org/2000/svg" xmlns:xlink="http://www.w3.org/1999/xlink" x="0px" y="0px"
	 viewBox="0 0 135 135" style="enable-background:new 0 0 135 135;" xml:space="preserve">
<style type="text/css">
	.st0{fill:#FFFFFF;}
</style>
<g id="Layer_2_00000075882465176701838440000017236287263118720669_">
	<g id="Graphic_Elements">
		<path class="st0" d="M135,67.5C135,30.2,104.8,0,67.5,0S0,30.2,0,67.5c0,33.2,24.2,61.5,57,66.7V87H39.8V67.5H57V52.6
			c0-16.9,10-26.3,25.4-26.3c5.1,0.1,10.1,0.5,15.1,1.3v16.6h-8.5c-8.4,0-11,5.2-11,10.5v12.7h18.7l-3,19.5H78.1v47.2
			C110.8,129,135,100.7,135,67.5z"/>
		<path d="M93.8,87l3-19.5H78.1V54.8c0-5.3,2.6-10.5,11-10.5h8.5V27.7c-5-0.8-10-1.2-15.1-1.3C67,26.4,57,35.7,57,52.6v14.9H39.8V87
			H57v47.2c7,1.1,14.1,1.1,21.1,0V87H93.8z"/>
	</g>
</g>
</svg>
