<?xml version="1.0" encoding="utf-8"?>
<!-- Generator: Adobe Illustrator 26.0.3, SVG Export Plug-In . SVG Version: 6.00 Build 0)  -->
<svg version="1.1" id="Layer_1" xmlns="http://www.w3.org/2000/svg" xmlns:xlink="http://www.w3.org/1999/xlink" x="0px" y="0px"
	 viewBox="0 0 135 135" style="enable-background:new 0 0 135 135;" xml:space="preserve">
<style type="text/css">
	.st0{fill:#808080;}
</style>
<g id="Layer_2_00000072280064647934654170000017924120246508547510_">
	<g id="Graphic_Elements">
		<path class="st0" d="M102.2,50.4c-0.1-2.7-0.6-5.4-1.5-7.9c-1.5-3.7-4.4-6.7-8.1-8.1c-2.5-1-5.2-1.5-7.9-1.5
			c-4.5-0.2-5.9-0.2-17.2-0.2s-12.7,0-17.2,0.2c-2.7,0.1-5.4,0.6-7.9,1.5c-3.7,1.5-6.7,4.4-8.1,8.1c-1,2.5-1.5,5.2-1.5,7.9
			c-0.2,4.5-0.2,5.8-0.2,17.2c0,11.4,0,12.7,0.2,17.2c0.1,2.7,0.6,5.4,1.5,7.9c1.5,3.7,4.4,6.7,8.1,8.1c2.5,1,5.2,1.5,7.9,1.5
			c4.5,0.2,5.8,0.2,17.2,0.2s12.7,0,17.2-0.2c2.7-0.1,5.4-0.6,7.9-1.5c3.7-1.5,6.7-4.4,8.1-8.1c1-2.5,1.5-5.2,1.5-7.9
			c0.2-4.5,0.2-5.8,0.2-17.2C102.4,56.2,102.4,54.9,102.2,50.4z M67.5,89.3c-12,0-21.8-9.8-21.8-21.8s9.7-21.8,21.8-21.8
			c6,0,11.5,2.4,15.4,6.4s6.4,9.4,6.4,15.4C89.3,79.5,79.5,89.3,67.5,89.3z M90.2,49.9c-2.8,0-5.1-2.3-5.1-5.1s2.3-5.1,5.1-5.1
			s5.1,2.3,5.1,5.1S93,49.9,90.2,49.9z M67.5,53.3c-7.9,0-14.2,6.3-14.2,14.2s6.4,14.2,14.2,14.2s14.2-6.4,14.2-14.2
			C81.7,59.6,75.3,53.3,67.5,53.3z"/>
		<path class="st0" d="M67.5,0C30.2,0,0,30.2,0,67.5S30.2,135,67.5,135S135,104.8,135,67.5S104.8,0,67.5,0z M109.7,85
			c-0.1,3.5-0.8,7-2,10.3c-2.2,5.7-6.7,10.2-12.4,12.4c-3.3,1.2-6.8,1.9-10.3,2c-4.5,0.3-6,0.3-17.5,0.3s-13-0.1-17.5-0.3
			c-3.5-0.1-7-0.8-10.3-2c-5.7-2.2-10.2-6.7-12.4-12.4c-1.2-3.3-1.9-6.8-2-10.3C25,80.5,25,79,25,67.5s0-13,0.2-17.5
			c0.1-3.5,0.8-7,2-10.3C29.4,34,34,29.5,39.7,27.3c3.3-1.2,6.8-1.9,10.3-2C54.5,25,56,25,67.5,25s13,0,17.4,0.3
			c3.5,0.1,7,0.8,10.3,2c5.8,2.2,10.3,6.7,12.5,12.4c1.2,3.3,1.9,6.8,2,10.3c0.3,4.5,0.3,6,0.3,17.5S109.9,80.5,109.7,85z"/>
	</g>
</g>
</svg>
