<?xml version="1.0" encoding="utf-8"?>
<!-- Generator: Adobe Illustrator 26.0.3, SVG Export Plug-In . SVG Version: 6.00 Build 0)  -->
<svg version="1.1" id="Layer_1" xmlns="http://www.w3.org/2000/svg" xmlns:xlink="http://www.w3.org/1999/xlink" x="0px" y="0px"
	 viewBox="0 0 135 135" style="enable-background:new 0 0 135 135;" xml:space="preserve">
<style type="text/css">
	.st0{fill:#808080;}
</style>
<g id="Layer_2_00000166665003584296650050000000858693903454306434_">
	<g id="Graphic_Elements">
		<polygon class="st0" points="58.5,54 81.9,67.5 58.5,81 		"/>
		<path class="st0" d="M67.5,0C30.2,0,0,30.2,0,67.5S30.2,135,67.5,135S135,104.8,135,67.5S104.8,0,67.5,0z M110.7,89.2
			c-1,3.9-4.1,7-8,8c-7.1,1.9-35.2,1.9-35.2,1.9s-28.2,0-35.2-1.8c-3.9-1-7-4.1-8-8c-1.9-7.1-1.9-21.7-1.9-21.7s0-14.7,1.9-21.7
			c1-3.9,4.1-7,8-8C39.4,36,67.5,36,67.5,36s28.1,0,35.1,1.8c3.9,1,7,4.1,8,8c1.9,7.1,2,21.7,2,21.7S112.6,82.2,110.7,89.2z"/>
	</g>
</g>
</svg>
