<?xml version="1.0" encoding="utf-8"?>
<!-- Generator: Adobe Illustrator 26.0.3, SVG Export Plug-In . SVG Version: 6.00 Build 0)  -->
<svg version="1.1" id="Layer_1" xmlns="http://www.w3.org/2000/svg" xmlns:xlink="http://www.w3.org/1999/xlink" x="0px" y="0px"
	 viewBox="0 0 135 135" style="enable-background:new 0 0 135 135;" xml:space="preserve">
<style type="text/css">
	.st0{fill:#FFFFFF;}
</style>
<g id="Layer_2_00000166665003584296650050000000858693903454306434_">
	<g id="Graphic_Elements">
		<circle class="st0" cx="67.5" cy="67.5" r="67.5"/>
		<path d="M110.6,45.8c-1-3.9-4.1-7-8-8C95.6,36,67.5,36,67.5,36s-28.1,0-35.2,1.9c-3.9,1-7,4.1-8,8c-1.9,7-1.9,21.7-1.9,21.7
			s0,14.6,1.9,21.7c1,3.9,4.1,7,8,8c7,1.8,35.2,1.8,35.2,1.8s28.1,0,35.2-1.9c3.9-1,7-4.1,8-8c1.9-7,1.9-21.7,1.9-21.7
			S112.5,52.9,110.6,45.8z M58.5,81V54l23.4,13.5L58.5,81z"/>
	</g>
</g>
</svg>
