<?xml version="1.0" encoding="utf-8"?>
<!-- Generator: Adobe Illustrator 26.0.3, SVG Export Plug-In . SVG Version: 6.00 Build 0)  -->
<svg version="1.1" id="Layer_1" xmlns="http://www.w3.org/2000/svg" xmlns:xlink="http://www.w3.org/1999/xlink" x="0px" y="0px"
	 viewBox="0 0 314.3 52" style="enable-background:new 0 0 314.3 52;" xml:space="preserve">
<style type="text/css">
	.st0{fill:#FFFFFF;}
</style>
<g id="Layer_2_00000116940816968439273320000010058381251871013036_">
	<g id="Layer_1-2">
		<polygon points="52.1,0 314.3,0 304.4,52 36.6,52 		"/>
		<path class="st0" d="M77.2,40.6h-4.8l-4.8-9.4h4.1l3.1,6.5l3-6.5h3.7L77.2,40.6z"/>
		<path class="st0" d="M82,31.3h10.3v2.3h-6.8v1.2h6.7V37h-6.7v1.3h7v2.4H82V31.3z"/>
		<path class="st0" d="M100,40.7h-1.2c-3.8,0-5.8-1.1-5.8-3.4v-0.1h4c0.1,0.8,0.8,1.3,2.4,1.3h0.1c0.4,0,0.8,0,1.2-0.1
			c0.3,0,0.5-0.1,0.7-0.2c0.1-0.1,0.2-0.2,0.4-0.2s0.1-0.2,0.1-0.4l0,0c0-0.2,0-0.3-0.1-0.5c-0.1-0.2-0.4-0.3-0.6-0.2
			c-0.5-0.1-1-0.2-1.4-0.1h-1.7c-3.1-0.1-4.6-1-4.6-2.8v-0.1c0-0.3,0-0.6,0.1-0.8c0.1-0.3,0.3-0.5,0.5-0.7c0.3-0.3,0.6-0.5,1-0.6
			c0.5-0.2,1-0.3,1.6-0.4c0.8-0.1,1.5-0.1,2.3-0.1h1c3.8,0,5.6,0.9,5.6,3v0.1h-3.8c-0.1-0.7-0.8-1-2.3-1h-0.1c-0.4,0-0.9,0-1.3,0.1
			c-0.4,0.1-0.5,0.1-0.6,0.2c-0.1,0.1-0.1,0.2-0.1,0.4l0,0c0,0.1,0,0.3,0.1,0.4c0.1,0.1,0.2,0.1,0.6,0.2c0.4,0.1,0.9,0.2,1.3,0.1
			h1.7c1.3-0.1,2.6,0.2,3.8,0.7c0.7,0.4,1.2,1.2,1.2,2v0.1c0,0.3,0,0.7-0.1,1c-0.1,0.3-0.3,0.6-0.5,0.8c-0.3,0.3-0.6,0.5-1,0.7
			c-0.5,0.3-1.1,0.4-1.7,0.5C101.9,40.7,100.9,40.7,100,40.7z"/>
		<path class="st0" d="M106.2,31.1h11.2v1.9l-6.1,4.9h6.2v2.5h-11.3v-1.9l6-5h-5.9L106.2,31.1z"/>
		<path class="st0" d="M126.3,37.5h-4.2v2.9h-3.6V31h7.8c3,0,4.4,1.1,4.4,3.1v0.2C130.7,36.4,129.3,37.5,126.3,37.5z M122.1,33.4
			v1.8h3.8c0.8,0,1.2-0.2,1.2-0.8l0,0c0-0.6-0.4-0.8-1.2-0.8L122.1,33.4z"/>
		<path class="st0" d="M135,37.3v3.2h-3.6v-9.4h8.5c2.6,0,4,0.8,4,2.4v0.1c0,0.3-0.1,0.6-0.2,0.8c-0.1,0.2-0.3,0.5-0.5,0.6
			c-0.2,0.1-0.4,0.2-0.6,0.4s-0.4,0.1-0.6,0.2c0.5,0.1,1,0.3,1.4,0.7c0.4,0.4,0.5,0.9,0.5,1.4v1.4c0,0.5,0.1,0.8,0.1,1.1v0.1h-3.6
			c-0.1-0.1-0.1-0.2-0.1-0.5v-1.1c0.1-0.5-0.1-0.9-0.5-1.2c-0.4-0.3-0.9-0.4-1.4-0.4L135,37.3z M135,33.3v1.6h4.1
			c0.7,0,1.1-0.2,1.1-0.8l0,0c0-0.5-0.4-0.8-1.1-0.8L135,33.3z"/>
		<path class="st0" d="M145,31h10.3v2.3h-6.8v1.2h6.7v2.3h-6.7v1.3h7v2.4H145V31z M148.5,30.4l1-1.9h3.5l-1.3,1.9H148.5z"/>
		<path class="st0" d="M156.5,40.4V31h4.9l2.9,5.3l2.9-5.3h4.7v9.3h-3.5v-5.8l-3.2,5.9h-1.8l-3.2-5.9v5.9H156.5z"/>
		<path class="st0" d="M175.7,41.7h-1.8c0.3-0.4,0.4-0.9,0.5-1.4h-1.4v-2.4h3.6v2C176.3,40.5,176.1,41.1,175.7,41.7z"/>
		<path class="st0" d="M181.2,40.4V31h3.6v3.3h5.9V31h3.6v9.3h-3.6v-3.6h-5.9v3.6L181.2,40.4z"/>
		<path class="st0" d="M205.1,40.3l-0.7-1.6h-5.4l-0.7,1.6h-3.6l4.6-9.4h4.8l4.9,9.4H205.1z M203.1,36.4l-1.6-3.2l-1.6,3.2H203.1z"
			/>
		<path class="st0" d="M209.2,30.9h4l5.4,5.3v-5.3h3.6v9.4h-3.6l-5.9-5.6v5.6h-3.6L209.2,30.9z"/>
		<path class="st0" d="M229.8,40.4h-0.2c-0.9,0-1.8-0.1-2.6-0.4c-0.6-0.2-1.2-0.4-1.8-0.7c-0.4-0.3-0.8-0.7-1.1-1.1
			c-0.2-0.4-0.4-0.8-0.6-1.2c-0.1-0.4-0.1-0.8-0.1-1.2v-0.4c0-0.4,0-0.9,0.1-1.3c0.1-0.4,0.3-0.9,0.6-1.2c0.3-0.5,0.7-0.9,1.2-1.1
			c0.6-0.4,1.2-0.6,1.9-0.7c0.9-0.2,1.8-0.4,2.8-0.4h0.5c1,0,1.9,0.1,2.9,0.2c0.7,0.1,1.3,0.3,1.9,0.6c0.4,0.2,0.8,0.5,1.1,0.8
			c0.2,0.3,0.4,0.6,0.6,1c0.1,0.3,0.1,0.6,0.1,0.8h-3.7c0-0.1,0-0.1-0.1-0.2s-0.1-0.1-0.2-0.2s-0.4-0.2-0.5-0.4
			c-0.3-0.1-0.6-0.2-0.8-0.2c-0.4-0.1-0.9-0.1-1.3-0.1c-2.1,0-3.2,0.7-3.2,2.3v0.1c0,0.7,0.3,1.3,0.8,1.7c0.7,0.5,1.5,0.8,2.4,0.7
			c0.4,0,0.8,0,1.2-0.1c0.4-0.1,0.7-0.1,1-0.2c0.2-0.1,0.4-0.2,0.6-0.4l0.4-0.4c0.1-0.1,0.1-0.1,0.1-0.2h-3.2v-1.8h7V40H235
			c-0.1-0.5-0.2-0.9-0.5-1.3C233.4,39.9,231.9,40.4,229.8,40.4z"/>
		<path class="st0" d="M245.9,40.1h-4.8l-4.8-9.4h4.1l3.1,6.5l3-6.5h3.7L245.9,40.1z"/>
		<path class="st0" d="M254.3,30.8v9.3h-3.6v-9.3H254.3z"/>
		<path class="st0" d="M255.5,30.8h3.6v6.7h6.5v2.6h-10.1V30.8z"/>
		<path class="st0" d="M266.6,30.8h3.6v6.7h6.5v2.6h-10.1V30.8z"/>
		<path class="st0" d="M287.3,40l-0.7-1.6h-5.4l-0.7,1.6h-3.6l4.6-9.4h4.8l4.9,9.4H287.3z M285.4,36.2l-1.6-3.2l-1.5,3.2H285.4z"/>
		<path class="st0" d="M85.4,24.7H67.6v-2.4c0-0.3,0.1-0.7,0.2-1c0.1-0.4,0.3-0.7,0.5-1.1c0.2-0.4,0.5-0.6,0.8-1.1
			c0.4-0.4,0.9-0.7,1.3-1.1c1.4-0.7,3-1.3,4.6-1.5c0.7-0.1,1.6-0.4,2.6-0.6c0.5-0.1,1.1-0.2,1.6-0.5c0.2-0.1,0.4-0.3,0.4-0.6
			c0-0.2-0.1-0.4-0.2-0.5c-0.3-0.2-0.5-0.3-0.8-0.4c-0.6-0.1-1.3-0.2-1.9-0.1c-0.5,0-1,0-1.6,0.1c-0.3,0.1-0.7,0.2-1,0.4
			c-0.2,0.1-0.4,0.3-0.5,0.5c-0.1,0.2-0.2,0.4-0.2,0.5c0,0.1,0,0.3-0.1,0.4h-5.4v-0.1c0-3.4,2.8-5,8.2-5h0.8c1.2,0,2.3,0.1,3.5,0.2
			c0.8,0.1,1.6,0.3,2.4,0.6c0.5,0.2,1,0.6,1.4,1c0.3,0.3,0.6,0.7,0.7,1.2c0.1,0.4,0.2,0.9,0.2,1.3V15c0.1,0.7-0.1,1.4-0.5,1.9
			c-0.5,0.6-1.2,1.1-1.9,1.3c-1.2,0.5-2.5,0.8-3.8,1l-3,0.5c-2.5,0.5-3.7,1-3.7,1.6h8.3v-1.8h4.9L85.4,24.7z"/>
		<path class="st0" d="M106.4,17.4V18c0,0.6,0,1.1-0.1,1.7c-0.1,0.7-0.4,1.3-0.8,1.8c-0.4,0.7-1,1.3-1.7,1.7c-0.9,0.6-1.9,1-2.9,1.2
			c-1.4,0.4-2.9,0.5-4.3,0.5h-0.8c-1.5,0-2.9-0.1-4.3-0.5c-1-0.3-2-0.7-2.9-1.2c-0.6-0.5-1.2-1-1.7-1.7c-0.3-0.6-0.6-1.2-0.8-1.8
			c-0.1-0.6-0.1-1.1-0.2-1.7v-0.6c0-0.4,0-0.8,0.1-1.2c0-0.5,0.1-0.9,0.4-1.3c0.1-0.5,0.4-1,0.7-1.3c0.3-0.5,0.7-0.9,1.2-1.2
			c0.5-0.4,1.1-0.8,1.8-1c0.7-0.2,1.4-0.5,2.4-0.7c1.1-0.1,2.2-0.2,3.2-0.2h0.8c1.1,0,2.2,0.1,3.2,0.2c0.8,0.1,1.6,0.3,2.4,0.6
			c0.6,0.3,1.2,0.6,1.7,1c0.4,0.4,0.8,0.8,1.2,1.2c0.3,0.4,0.5,0.9,0.7,1.3c0.2,0.4,0.3,0.8,0.4,1.2
			C106.3,16.4,106.4,16.9,106.4,17.4z M101,17.7v-0.2c0-0.4-0.1-0.7-0.2-1.1c-0.2-0.4-0.4-0.8-0.7-1.1c-0.4-0.4-0.9-0.7-1.4-0.8
			c-0.7-0.2-1.5-0.3-2.3-0.2c-0.8,0-1.6,0.1-2.3,0.4c-0.5,0.2-1,0.5-1.4,0.8c-0.3,0.3-0.6,0.7-0.7,1.1c-0.1,0.3-0.2,0.7-0.2,1.1v0.2
			c0,0.4,0.1,0.8,0.2,1.2c0.2,0.4,0.4,0.8,0.7,1.1c0.4,0.4,0.9,0.7,1.4,0.9c1.5,0.5,3.1,0.5,4.6,0c0.5-0.2,1-0.5,1.4-0.8
			c0.3-0.3,0.6-0.7,0.7-1.1C100.9,18.6,101,18.2,101,17.7L101,17.7z"/>
		<path class="st0" d="M124.7,24.5H107v-2.4c0-0.3,0.1-0.7,0.2-1c0.1-0.4,0.3-0.7,0.5-1.1c0.2-0.4,0.5-0.6,0.8-1.1
			c0.4-0.4,0.8-0.7,1.3-1c1.4-0.7,3-1.3,4.6-1.5c0.7-0.1,1.6-0.4,2.6-0.6c0.5-0.1,1.1-0.2,1.6-0.5c0.2-0.1,0.4-0.3,0.4-0.6
			c0-0.2-0.1-0.4-0.2-0.5c-0.3-0.2-0.5-0.3-0.8-0.4c-0.6-0.1-1.3-0.2-1.9-0.1c-0.5,0-1,0-1.6,0.1c-0.3,0.1-0.7,0.2-1,0.4
			c-0.2,0.1-0.4,0.3-0.5,0.5c-0.1,0.2-0.2,0.4-0.2,0.5c0,0.1,0,0.3-0.1,0.4h-5.4v-0.1c0-3.4,2.8-5,8.2-5h0.8c1.2,0,2.3,0.1,3.5,0.2
			c0.8,0.1,1.6,0.3,2.4,0.6c0.5,0.2,1,0.6,1.4,1c0.3,0.3,0.6,0.7,0.7,1.2c0.1,0.4,0.2,0.9,0.2,1.3V15c0.1,0.7-0.1,1.4-0.5,1.9
			c-0.5,0.6-1.2,1.1-1.9,1.3c-1.2,0.5-2.5,0.8-3.8,1l-3,0.5c-2.5,0.5-3.7,1-3.7,1.6h8.3v-1.8h4.9L124.7,24.5z"/>
		<path class="st0" d="M135.1,24.8h-0.8c-1,0-2-0.1-3-0.2c-0.8-0.1-1.6-0.3-2.3-0.6c-0.6-0.2-1.1-0.5-1.6-0.8
			c-0.4-0.3-0.8-0.6-1.1-1c-0.2-0.3-0.4-0.6-0.6-1c-0.1-0.3-0.2-0.7-0.2-1c0-0.2-0.1-0.5-0.1-0.8v-0.1h5.4c0,0.1,0,0.3,0.1,0.4
			c0,0.1,0.1,0.2,0.2,0.5s0.4,0.4,0.6,0.6c0.3,0.2,0.7,0.3,1.1,0.4c0.6,0.1,1.1,0.1,1.7,0.1c0.6,0,1.1,0,1.7-0.1
			c0.4-0.1,0.7-0.1,1.1-0.2c0.2-0.1,0.4-0.2,0.6-0.4c0.1-0.1,0.2-0.2,0.2-0.4v-0.4c0-0.6-0.6-1-1.7-1h-4.7v-3.2h4.4
			c1.1,0,1.6-0.2,1.6-0.8l0,0c0-0.2-0.1-0.4-0.1-0.5c-0.3-0.2-0.7-0.3-1.1-0.4c-0.8-0.1-1.6-0.1-2.4-0.1c-0.6,0-1.1,0-1.7,0.1
			c-0.4,0.1-0.7,0.2-1.1,0.2c-0.2,0.1-0.3,0.2-0.5,0.4c-0.1,0.1-0.2,0.2-0.2,0.4V15h-5.4v-1c0-0.3,0.1-0.6,0.2-0.8
			c0.1-0.3,0.3-0.6,0.6-0.8c0.3-0.3,0.6-0.6,1-0.8c0.5-0.2,1-0.5,1.6-0.7c0.7-0.2,1.4-0.4,2.2-0.5c0.9-0.2,1.9-0.3,2.9-0.3h0.8
			c1.3,0,2.7,0.1,4,0.2c0.9,0.1,1.7,0.3,2.5,0.6c0.5,0.2,1,0.5,1.4,0.8c0.3,0.3,0.6,0.6,0.7,1c0.1,0.3,0.1,0.7,0.1,1v0.1
			c0,0.6-0.2,1.2-0.7,1.6c-0.5,0.4-1.1,0.7-1.7,0.8c0.8,0.1,1.5,0.5,2,1.1c0.6,0.6,0.9,1.4,0.8,2.3v0.1
			C144,23.1,141,24.8,135.1,24.8z"/>
		<path class="st0" d="M150,20.8v3.6h-5.3v-3.6H150z"/>
		<path class="st0" d="M176.9,17.2v0.6c0,0.6,0,1.1-0.1,1.7c-0.1,0.7-0.4,1.3-0.8,1.8c-0.4,0.7-1,1.3-1.7,1.7
			c-0.9,0.6-1.9,1-2.9,1.2c-1.4,0.4-2.9,0.5-4.3,0.5h-0.8c-1.5,0-2.9-0.1-4.3-0.5c-1-0.3-2-0.7-2.9-1.2c-0.6-0.5-1.2-1-1.7-1.7
			c-0.4-0.5-0.7-1.1-0.8-1.8c-0.1-0.6-0.1-1.1-0.2-1.7v-0.6c0-0.4,0-0.8,0.1-1.2c0-0.5,0.1-0.9,0.4-1.3c0.1-0.5,0.4-1,0.7-1.3
			c0.3-0.5,0.7-0.9,1.2-1.2c0.5-0.4,1.1-0.8,1.8-1c0.7-0.2,1.4-0.5,2.4-0.7c1.1-0.2,2.2-0.3,3.2-0.2h0.8c1.1,0,2.2,0.1,3.2,0.2
			c0.8,0.1,1.6,0.3,2.4,0.6c0.6,0.3,1.2,0.6,1.7,1c0.4,0.4,0.8,0.8,1.2,1.2c0.3,0.4,0.5,0.9,0.7,1.3c0.2,0.4,0.3,0.9,0.4,1.3
			C176.8,16.3,176.9,16.8,176.9,17.2z M171.5,17.6v-0.2c0-0.4-0.1-0.7-0.2-1.1c-0.2-0.4-0.4-0.8-0.7-1.1c-0.4-0.4-0.9-0.7-1.4-0.8
			c-0.7-0.2-1.5-0.3-2.3-0.2c-0.8,0-1.6,0.1-2.3,0.4c-0.5,0.2-1,0.5-1.4,0.8c-0.3,0.3-0.6,0.7-0.7,1.1c-0.1,0.3-0.2,0.7-0.2,1.1v0.2
			c0,0.4,0.1,0.8,0.2,1.2c0.2,0.4,0.4,0.8,0.7,1.1c0.4,0.4,0.9,0.7,1.4,0.8c1.5,0.5,3.1,0.5,4.6,0c0.5-0.2,1-0.5,1.4-0.8
			c0.3-0.3,0.6-0.7,0.7-1.1C171.4,18.5,171.4,18,171.5,17.6z"/>
		<path class="st0" d="M177.6,18.8l9.6-8.3h5.8v7.7h2.9v3.6h-2.9v2.6h-5.3v-2.6h-10.2L177.6,18.8z M187.8,18.2v-4.1l-4.8,4.1H187.8z
			"/>
		<path class="st0" d="M201.9,20.7v3.6h-5.3v-3.6H201.9z"/>
		<path class="st0" d="M211.9,16.2h-3.4v-2.9c2.3-0.1,3.7-1.1,4.3-2.8h4.1v13.8h-5.3L211.9,16.2z"/>
		<path class="st0" d="M228,24.5h-0.8c-1,0-2-0.1-3-0.2c-0.8-0.1-1.5-0.3-2.3-0.6c-0.6-0.2-1.1-0.5-1.6-0.8c-0.4-0.3-0.8-0.6-1.1-1
			c-0.2-0.3-0.4-0.6-0.6-1c-0.1-0.3-0.2-0.7-0.2-1c0-0.2-0.1-0.5-0.1-0.8v0h5.4c0,0.1,0,0.3,0.1,0.4c0,0.1,0.1,0.2,0.2,0.5
			s0.4,0.4,0.6,0.6c0.3,0.2,0.7,0.3,1.1,0.4c0.6,0.1,1.1,0.1,1.7,0.1c0.6,0,1.1,0,1.7-0.1c0.4-0.1,0.7-0.1,1.1-0.2
			c0.2-0.1,0.4-0.2,0.6-0.4c0.1-0.1,0.2-0.2,0.2-0.4v-0.4c0-0.6-0.6-1-1.7-1h-4.7v-3.3h4.4c1.1,0,1.6-0.2,1.6-0.8l0,0
			c0-0.2-0.1-0.4-0.1-0.5c-0.3-0.2-0.7-0.3-1.1-0.4c-0.8-0.1-1.6-0.1-2.4-0.1c-0.6,0-1.1,0-1.7,0.1c-0.4,0.1-0.7,0.2-1.1,0.2
			c-0.2,0.1-0.3,0.2-0.5,0.4c-0.1,0.1-0.2,0.2-0.2,0.4v0.2h-5.4v-1c0-0.3,0.1-0.6,0.2-0.8c0.1-0.3,0.3-0.6,0.6-0.8
			c0.3-0.3,0.6-0.6,1-0.8c0.5-0.2,1-0.5,1.6-0.7c0.7-0.2,1.4-0.4,2.2-0.5c1-0.1,1.9-0.2,2.9-0.2h0.8c1.3,0,2.6,0.1,3.9,0.2
			c0.9,0.1,1.7,0.3,2.5,0.6c0.5,0.2,1,0.5,1.4,0.8c0.3,0.3,0.6,0.6,0.7,1c0.1,0.3,0.2,0.7,0.1,1v0.1c0,0.6-0.2,1.2-0.7,1.6
			c-0.5,0.4-1.1,0.7-1.7,0.8c0.8,0.1,1.5,0.5,2,1.1c0.6,0.6,0.9,1.4,0.8,2.3v0.1C236.8,22.9,233.8,24.5,228,24.5z"/>
		<path class="st0" d="M243.4,17h6.1v3.5h-6.1V17z"/>
		<path class="st0" d="M259.4,16H256v-2.8c2.3-0.1,3.7-1.1,4.3-2.8h4.2v13.8h-5.3L259.4,16z"/>
		<path class="st0" d="M275.9,24.4h-0.8c-1.3,0-2.6-0.1-3.8-0.5c-0.9-0.3-1.8-0.6-2.6-1.1c-0.6-0.4-1.2-1-1.6-1.7
			c-0.3-0.6-0.6-1.2-0.7-1.8c-0.1-0.6-0.2-1.2-0.2-1.8v-0.5c0-0.5,0-1,0.1-1.6c0.1-0.5,0.3-1.1,0.5-1.6c0.2-0.5,0.6-1,1-1.4
			c0.5-0.5,1-0.9,1.6-1.2c0.7-0.4,1.5-0.7,2.4-0.8c1.1-0.3,2.1-0.4,3.2-0.4h0.8c1.2,0,2.3,0.1,3.5,0.2c0.8,0.2,1.6,0.4,2.4,0.7
			c0.6,0.2,1,0.6,1.4,1.1c0.3,0.3,0.6,0.8,0.7,1.2c0.1,0.4,0.2,0.8,0.2,1.2v0.1h-5.4c-0.1-0.3-0.3-0.5-0.6-0.6
			c-0.8-0.4-1.7-0.6-2.6-0.5c-0.7,0-1.4,0.1-2,0.4c-0.5,0.2-0.9,0.5-1.3,0.8c-0.2,0.4-0.5,0.6-0.5,1c-0.1,0.3-0.2,0.7-0.1,1V17
			c1.7-1,3.8-1.5,5.8-1.3h0.2c1,0,2,0.1,3,0.2c0.7,0.1,1.4,0.3,2,0.6c0.5,0.3,0.9,0.6,1.3,1c0.3,0.3,0.6,0.7,0.7,1.1
			c0.1,0.4,0.2,0.9,0.2,1.3V20c0,0.4,0,0.9-0.1,1.3c-0.2,0.5-0.4,0.9-0.7,1.3c-0.4,0.5-0.9,0.9-1.4,1.2c-0.8,0.4-1.6,0.7-2.5,0.7
			C278.7,24.3,277.4,24.4,275.9,24.4z M271.8,19.6L271.8,19.6c0,1,1.2,1.4,3.7,1.4s3.6-0.5,3.6-1.4l0,0c0-0.2,0-0.4-0.1-0.5
			l-0.5-0.5c-0.3-0.2-0.7-0.3-1.1-0.4c-0.6-0.1-1.3-0.2-1.9-0.1C273,18.3,271.8,18.7,271.8,19.6L271.8,19.6z"/>
		<path class="st0" d="M290.7,20.5v3.6h-5.3v-3.6H290.7z"/>
	</g>
</g>
</svg>
