<?xml version="1.0" encoding="utf-8"?>
<!-- Generator: Adobe Illustrator 26.0.3, SVG Export Plug-In . SVG Version: 6.00 Build 0)  -->
<svg version="1.1" id="Layer_1" xmlns="http://www.w3.org/2000/svg" xmlns:xlink="http://www.w3.org/1999/xlink" x="0px" y="0px"
	 viewBox="0 0 780.7 1029.3" style="enable-background:new 0 0 780.7 1029.3;" xml:space="preserve">
<style type="text/css">
	.st0{fill:#898989;}
	.st1{fill:#C1C1C1;}
	.st2{fill:#9E9E9E;}
	.st3{fill:none;}
	.st4{fill:#CFE4FF;}
	.st5{enable-background:new    ;}
	.st6{fill:#FFFFFF;}
</style>
<g id="Layer_2_00000003075054842826112400000014260347823806265477_">
	<g id="Layer_1-2">
		<g>
			<path class="st0" d="M478.7,249H31.3c-0.9,0.1-1.6-0.6-1.7-1.4v-23.3c0.1-0.9,0.8-1.5,1.7-1.4H504c0.6,0,1.2,0.3,1.5,0.8
				c0.3,0.5,0.2,1.1-0.3,1.5l-25.3,23.3C479.6,248.8,479.1,249,478.7,249z M33,246.2h444.9l22.3-20.5H33V246.2z"/>
		</g>
		<g>
			<path class="st0" d="M31.3,249c-0.5,0-0.9-0.2-1.3-0.5c-0.5-0.5-0.6-1.3-0.1-1.8c0.1-0.1,0.2-0.2,0.3-0.2L62,224.1
				c0.7-0.5,1.7-0.4,2.4,0.2c0.5,0.5,0.6,1.3,0.1,1.8c-0.1,0.1-0.2,0.2-0.3,0.2l-31.8,22.4C32.1,248.9,31.7,249,31.3,249z"/>
		</g>
		<g>
			<path class="st0" d="M63.2,249c-0.4,0-0.8-0.1-1.1-0.3l-31.8-22.5c-0.6-0.4-0.8-1.1-0.4-1.7c0.1-0.1,0.1-0.2,0.2-0.3
				c0.7-0.6,1.6-0.7,2.4-0.2l31.8,22.5c0.6,0.4,0.8,1.1,0.4,1.7c-0.1,0.1-0.1,0.2-0.2,0.3C64.1,248.8,63.7,249,63.2,249z"/>
		</g>
		<g>
			<path class="st0" d="M62.9,249c-0.5,0-0.9-0.2-1.3-0.5c-0.5-0.5-0.6-1.3-0.1-1.8c0.1-0.1,0.2-0.2,0.3-0.2l31.8-22.4
				c0.7-0.5,1.7-0.4,2.4,0.2c0.5,0.5,0.6,1.3,0.1,1.8c-0.1,0.1-0.2,0.2-0.3,0.2L64,248.6C63.7,248.9,63.3,249,62.9,249z"/>
		</g>
		<g>
			<path class="st0" d="M94.7,249c-0.4,0-0.8-0.1-1.1-0.3l-31.8-22.5c-0.6-0.4-0.8-1.1-0.4-1.7c0.1-0.1,0.1-0.2,0.2-0.3
				c0.7-0.6,1.6-0.7,2.4-0.2l31.8,22.5c0.6,0.4,0.8,1.1,0.4,1.7c-0.1,0.1-0.1,0.2-0.2,0.3C95.7,248.8,95.2,249,94.7,249z"/>
		</g>
		<g>
			<path class="st0" d="M94.4,249c-0.5,0-0.9-0.2-1.3-0.5c-0.5-0.5-0.6-1.3-0.1-1.8c0.1-0.1,0.2-0.2,0.3-0.2l31.8-22.4
				c0.7-0.5,1.7-0.4,2.4,0.2c0.5,0.5,0.6,1.3,0.1,1.8c-0.1,0.1-0.2,0.2-0.3,0.2l-31.8,22.4C95.2,248.9,94.8,249,94.4,249z"/>
		</g>
		<g>
			<path class="st0" d="M126.3,249c-0.4,0-0.8-0.1-1.1-0.3l-31.8-22.5c-0.6-0.4-0.8-1.1-0.4-1.7c0.1-0.1,0.1-0.2,0.2-0.3
				c0.7-0.6,1.6-0.7,2.4-0.2l31.8,22.4c0.6,0.4,0.8,1.1,0.4,1.7c-0.1,0.1-0.1,0.2-0.2,0.3C127.2,248.8,126.8,249,126.3,249z"/>
		</g>
		<g>
			<path class="st0" d="M126,249c-0.5,0-0.9-0.2-1.3-0.5c-0.5-0.5-0.6-1.3-0.1-1.8c0.1-0.1,0.2-0.2,0.3-0.2l31.8-22.4
				c0.7-0.5,1.7-0.4,2.4,0.2c0.5,0.5,0.6,1.3,0.1,1.8c-0.1,0.1-0.2,0.2-0.3,0.2l-31.8,22.4C126.8,248.9,126.4,249,126,249z"/>
		</g>
		<g>
			<path class="st0" d="M157.8,249c-0.4,0-0.8-0.1-1.1-0.3L125,226.2c-0.6-0.4-0.8-1.1-0.4-1.7c0.1-0.1,0.1-0.2,0.2-0.3
				c0.7-0.6,1.6-0.7,2.4-0.2l31.8,22.4c0.6,0.4,0.8,1.1,0.4,1.7c-0.1,0.1-0.1,0.2-0.2,0.3C158.8,248.8,158.3,249,157.8,249z"/>
		</g>
		<g>
			<path class="st0" d="M157.5,249c-0.5,0-0.9-0.2-1.3-0.5c-0.5-0.5-0.6-1.3-0.1-1.8c0.1-0.1,0.2-0.2,0.3-0.2l31.8-22.4
				c0.7-0.5,1.7-0.4,2.4,0.2c0.5,0.5,0.6,1.3,0.1,1.8c-0.1,0.1-0.2,0.2-0.3,0.2l-31.8,22.4C158.3,248.9,157.9,249,157.5,249z"/>
		</g>
		<g>
			<path class="st0" d="M189.4,249c-0.4,0-0.8-0.1-1.1-0.3l-31.8-22.5c-0.6-0.4-0.8-1.1-0.4-1.7c0.1-0.1,0.1-0.2,0.2-0.3
				c0.7-0.6,1.6-0.7,2.4-0.2l31.8,22.4c0.6,0.4,0.8,1.1,0.4,1.7c-0.1,0.1-0.1,0.2-0.2,0.3C190.3,248.8,189.9,249,189.4,249z"/>
		</g>
		<g>
			<path class="st0" d="M189.1,249c-0.5,0-0.9-0.2-1.3-0.5c-0.5-0.5-0.6-1.3-0.1-1.8c0.1-0.1,0.2-0.2,0.3-0.2l31.8-22.4
				c0.7-0.5,1.7-0.4,2.4,0.2c0.5,0.5,0.6,1.3,0.1,1.8c-0.1,0.1-0.2,0.2-0.3,0.2l-31.8,22.4C189.8,248.9,189.5,249,189.1,249z"/>
		</g>
		<g>
			<path class="st0" d="M220.9,249c-0.4,0-0.8-0.1-1.1-0.3l-31.8-22.5c-0.6-0.4-0.8-1.1-0.4-1.7c0.1-0.1,0.1-0.2,0.2-0.3
				c0.7-0.6,1.6-0.7,2.4-0.2l31.7,22.5c0.6,0.4,0.8,1.1,0.4,1.7c-0.1,0.1-0.1,0.2-0.2,0.3C221.8,248.8,221.4,249,220.9,249z"/>
		</g>
		<g>
			<path class="st0" d="M220.6,249c-0.5,0-0.9-0.2-1.3-0.5c-0.5-0.5-0.6-1.3-0.1-1.8c0.1-0.1,0.2-0.2,0.3-0.2l31.8-22.4
				c0.7-0.5,1.7-0.4,2.4,0.2c0.5,0.5,0.6,1.3,0.1,1.8c-0.1,0.1-0.2,0.2-0.3,0.2l-31.8,22.4C221.4,248.9,221,249,220.6,249z"/>
		</g>
		<g>
			<path class="st0" d="M252.5,249c-0.4,0-0.8-0.1-1.1-0.3l-31.8-22.5c-0.6-0.4-0.8-1.1-0.4-1.7c0.1-0.1,0.1-0.2,0.2-0.3
				c0.7-0.6,1.6-0.7,2.4-0.2l31.8,22.4c0.6,0.4,0.8,1.1,0.4,1.7c-0.1,0.1-0.1,0.2-0.2,0.3C253.4,248.8,253,249,252.5,249z"/>
		</g>
		<g>
			<path class="st0" d="M252.2,249c-0.5,0-0.9-0.2-1.3-0.5c-0.5-0.5-0.6-1.3-0.1-1.8c0.1-0.1,0.2-0.2,0.3-0.2l31.8-22.4
				c0.7-0.5,1.7-0.4,2.4,0.2c0.5,0.5,0.6,1.3,0.1,1.8c-0.1,0.1-0.2,0.2-0.3,0.2l-31.8,22.4C252.9,248.9,252.5,249,252.2,249z"/>
		</g>
		<g>
			<path class="st0" d="M284,249c-0.4,0-0.8-0.1-1.1-0.3l-31.7-22.5c-0.6-0.4-0.8-1.1-0.4-1.7c0.1-0.1,0.1-0.2,0.2-0.3
				c0.7-0.6,1.6-0.7,2.4-0.2l31.8,22.4c0.6,0.4,0.8,1.1,0.4,1.7c-0.1,0.1-0.1,0.2-0.2,0.3C285,248.8,284.5,249,284,249z"/>
		</g>
		<g>
			<path class="st0" d="M283.7,249c-0.5,0-0.9-0.2-1.3-0.5c-0.5-0.5-0.6-1.3-0.1-1.8c0.1-0.1,0.2-0.2,0.3-0.2l31.8-22.4
				c0.7-0.5,1.7-0.4,2.4,0.2c0.5,0.5,0.6,1.3,0.1,1.8c-0.1,0.1-0.2,0.2-0.3,0.2l-31.8,22.4C284.5,248.9,284.1,249,283.7,249z"/>
		</g>
		<g>
			<path class="st0" d="M315.6,249c-0.4,0-0.8-0.1-1.1-0.3l-31.8-22.5c-0.6-0.4-0.8-1.1-0.4-1.7c0.1-0.1,0.1-0.2,0.2-0.3
				c0.7-0.6,1.6-0.7,2.4-0.2l31.8,22.4c0.6,0.4,0.8,1.1,0.4,1.7c-0.1,0.1-0.1,0.2-0.2,0.3C316.5,248.8,316,249,315.6,249z"/>
		</g>
		<g>
			<path class="st0" d="M315.2,249c-0.5,0-0.9-0.2-1.3-0.5c-0.5-0.5-0.6-1.3-0.1-1.8c0.1-0.1,0.2-0.2,0.3-0.2l31.8-22.4
				c0.7-0.5,1.7-0.4,2.4,0.2c0.5,0.5,0.6,1.3,0.1,1.8c-0.1,0.1-0.2,0.2-0.3,0.2l-31.8,22.4C316,248.9,315.6,249,315.2,249z"/>
		</g>
		<g>
			<path class="st0" d="M347.1,249c-0.4,0-0.8-0.1-1.1-0.3l-31.8-22.5c-0.6-0.4-0.8-1.1-0.4-1.7c0.1-0.1,0.1-0.2,0.2-0.3
				c0.7-0.6,1.6-0.7,2.4-0.2l31.8,22.5c0.6,0.4,0.8,1.1,0.4,1.7c-0.1,0.1-0.1,0.2-0.2,0.3C348.1,248.8,347.6,249,347.1,249z"/>
		</g>
		<g>
			<path class="st0" d="M346.8,249c-0.5,0-0.9-0.2-1.3-0.5c-0.5-0.5-0.6-1.3-0.1-1.8c0.1-0.1,0.2-0.2,0.3-0.2l31.8-22.4
				c0.7-0.5,1.7-0.4,2.4,0.2c0.5,0.5,0.6,1.3,0.1,1.8c-0.1,0.1-0.2,0.2-0.3,0.2l-31.8,22.4C347.6,248.9,347.2,249,346.8,249z"/>
		</g>
		<g>
			<path class="st0" d="M378.7,249c-0.4,0-0.8-0.1-1.1-0.3l-31.8-22.5c-0.6-0.4-0.8-1.1-0.4-1.7c0.1-0.1,0.1-0.2,0.2-0.3
				c0.7-0.6,1.6-0.7,2.4-0.2l31.8,22.4c0.6,0.4,0.8,1.1,0.4,1.7c-0.1,0.1-0.1,0.2-0.2,0.3C379.6,248.8,379.1,249,378.7,249z"/>
		</g>
		<g>
			<path class="st0" d="M378.3,249c-0.5,0-0.9-0.2-1.3-0.5c-0.5-0.5-0.6-1.3-0.1-1.8c0.1-0.1,0.2-0.2,0.3-0.2l31.8-22.4
				c0.7-0.5,1.7-0.4,2.4,0.2c0.5,0.5,0.6,1.3,0.1,1.8c-0.1,0.1-0.2,0.2-0.3,0.2l-31.8,22.4C379.1,248.9,378.7,249,378.3,249z"/>
		</g>
		<g>
			<path class="st0" d="M410.2,249c-0.4,0-0.8-0.1-1.1-0.3l-31.8-22.5c-0.6-0.4-0.8-1.1-0.4-1.7c0.1-0.1,0.1-0.2,0.2-0.3
				c0.7-0.6,1.6-0.7,2.4-0.2l31.8,22.5c0.6,0.4,0.8,1.1,0.4,1.7c-0.1,0.1-0.1,0.2-0.2,0.3C411.1,248.8,410.7,249,410.2,249z"/>
		</g>
		<g>
			<path class="st0" d="M409.9,249c-0.5,0-0.9-0.2-1.3-0.5c-0.5-0.5-0.6-1.3-0.1-1.8c0.1-0.1,0.2-0.2,0.3-0.2l31.8-22.4
				c0.7-0.5,1.7-0.4,2.4,0.2c0.5,0.5,0.6,1.3,0.1,1.8c-0.1,0.1-0.2,0.2-0.3,0.2L411,248.6C410.7,248.9,410.3,249,409.9,249z"/>
		</g>
		<g>
			<path class="st0" d="M441.8,249c-0.4,0-0.8-0.1-1.1-0.3l-31.8-22.5c-0.6-0.4-0.8-1.1-0.4-1.7c0.1-0.1,0.1-0.2,0.2-0.3
				c0.7-0.6,1.6-0.7,2.4-0.2l31.8,22.4c0.6,0.4,0.8,1.1,0.4,1.7c-0.1,0.1-0.1,0.2-0.2,0.3C442.7,248.8,442.2,249,441.8,249z"/>
		</g>
		<g>
			<path class="st0" d="M441.4,249c-0.5,0-0.9-0.2-1.3-0.5c-0.5-0.5-0.6-1.3-0.1-1.8c0.1-0.1,0.2-0.2,0.3-0.2l31.8-22.4
				c0.7-0.5,1.7-0.4,2.4,0.2c0.5,0.5,0.6,1.3,0.1,1.8c-0.1,0.1-0.2,0.2-0.3,0.2l-31.8,22.4C442.2,248.9,441.8,249,441.4,249z"/>
		</g>
		<g>
			<path class="st0" d="M473.3,249c-0.4,0-0.8-0.1-1.1-0.3l-31.7-22.5c-0.6-0.4-0.8-1.1-0.4-1.7c0.1-0.1,0.1-0.2,0.2-0.3
				c0.7-0.6,1.6-0.7,2.4-0.2l31.8,22.4c0.6,0.4,0.8,1.1,0.4,1.7c-0.1,0.1-0.1,0.2-0.2,0.3C474.2,248.8,473.8,249,473.3,249z"/>
		</g>
		<g>
			<path class="st0" d="M157.2,532.5h-32.9c-0.9,0.1-1.6-0.6-1.7-1.4V158.5c0.1-0.8,0.8-1.5,1.7-1.4h32.9c0.9-0.1,1.6,0.6,1.7,1.4
				v372.5C158.8,531.9,158.1,532.5,157.2,532.5z M126,529.7h29.5V160H126V529.7z"/>
		</g>
		<g>
			<path class="st0" d="M156,186.4c-0.4,0-0.9-0.1-1.2-0.4L123,159.5c-0.6-0.4-0.7-1.2-0.2-1.8c0.1-0.1,0.2-0.2,0.2-0.2
				c0.7-0.5,1.7-0.5,2.4,0l31.8,26.5c0.6,0.4,0.7,1.2,0.2,1.8c-0.1,0.1-0.2,0.2-0.2,0.2C156.9,186.3,156.4,186.4,156,186.4z"/>
		</g>
		<g>
			<path class="st0" d="M124.3,186.5c-0.4,0-0.9-0.1-1.2-0.4c-0.6-0.4-0.7-1.2-0.2-1.8c0.1-0.1,0.2-0.2,0.2-0.2l31.8-26.4
				c0.7-0.6,1.7-0.6,2.4,0c0.6,0.4,0.7,1.2,0.2,1.8c-0.1,0.1-0.2,0.2-0.2,0.2l-31.8,26.4C125.1,186.3,124.7,186.5,124.3,186.5z"/>
		</g>
		<g>
			<path class="st0" d="M156,212.7c-0.4,0-0.9-0.1-1.2-0.4L123,185.8c-0.6-0.4-0.7-1.2-0.2-1.8c0.1-0.1,0.2-0.2,0.2-0.2
				c0.7-0.5,1.7-0.5,2.4,0l31.8,26.4c0.6,0.4,0.7,1.2,0.2,1.8c-0.1,0.1-0.2,0.2-0.2,0.2C156.9,212.5,156.4,212.7,156,212.7z"/>
		</g>
		<g>
			<path class="st0" d="M124.3,212.8c-0.4,0-0.9-0.1-1.2-0.4c-0.6-0.4-0.7-1.2-0.2-1.8c0.1-0.1,0.2-0.2,0.2-0.2l31.8-26.4
				c0.7-0.6,1.7-0.6,2.4,0c0.6,0.4,0.7,1.2,0.3,1.7c-0.1,0.1-0.2,0.2-0.3,0.3l-31.8,26.4C125.1,212.6,124.7,212.8,124.3,212.8z"/>
		</g>
		<g>
			<path class="st0" d="M156,238.9c-0.4,0-0.9-0.1-1.2-0.4L123,212.1c-0.6-0.4-0.7-1.2-0.2-1.8c0.1-0.1,0.2-0.2,0.2-0.2
				c0.7-0.5,1.7-0.5,2.4,0l31.8,26.4c0.6,0.4,0.7,1.2,0.2,1.8c-0.1,0.1-0.2,0.2-0.2,0.2C156.9,238.8,156.4,238.9,156,238.9z"/>
		</g>
		<g>
			<path class="st0" d="M124.3,239c-0.4,0-0.9-0.1-1.2-0.4c-0.6-0.4-0.7-1.2-0.2-1.8c0.1-0.1,0.2-0.2,0.2-0.2l31.8-26.4
				c0.7-0.6,1.7-0.6,2.4,0c0.6,0.4,0.7,1.2,0.3,1.7c-0.1,0.1-0.2,0.2-0.3,0.3l-31.8,26.4C125.1,238.9,124.7,239,124.3,239z"/>
		</g>
		<g>
			<path class="st0" d="M156,265.2c-0.4,0-0.9-0.1-1.2-0.4L123,238.3c-0.6-0.4-0.7-1.2-0.3-1.7c0.1-0.1,0.2-0.2,0.3-0.3
				c0.7-0.5,1.7-0.5,2.4,0l31.8,26.4c0.6,0.4,0.7,1.2,0.2,1.8c-0.1,0.1-0.2,0.2-0.2,0.2C156.9,265.1,156.4,265.2,156,265.2z"/>
		</g>
		<g>
			<path class="st0" d="M124.3,265.3c-0.4,0-0.9-0.1-1.2-0.4c-0.6-0.4-0.7-1.2-0.2-1.8c0.1-0.1,0.2-0.2,0.2-0.2l31.8-26.4
				c0.7-0.5,1.7-0.5,2.4,0c0.6,0.4,0.7,1.2,0.2,1.8c-0.1,0.1-0.2,0.2-0.2,0.2l-31.8,26.4C125.1,265.1,124.7,265.3,124.3,265.3z"/>
		</g>
		<g>
			<path class="st0" d="M156,291.5c-0.4,0-0.9-0.1-1.2-0.4L123,264.6c-0.6-0.4-0.7-1.2-0.3-1.7c0.1-0.1,0.2-0.2,0.3-0.3
				c0.7-0.5,1.7-0.5,2.4,0l31.8,26.4c0.6,0.4,0.7,1.2,0.2,1.8c-0.1,0.1-0.2,0.2-0.2,0.2C156.9,291.3,156.4,291.5,156,291.5z"/>
		</g>
		<g>
			<path class="st0" d="M124.3,291.6c-0.4,0-0.9-0.1-1.2-0.4c-0.6-0.4-0.7-1.2-0.2-1.8c0.1-0.1,0.2-0.2,0.2-0.2l31.8-26.5
				c0.7-0.6,1.7-0.6,2.4,0c0.6,0.4,0.7,1.2,0.2,1.8c-0.1,0.1-0.2,0.2-0.2,0.2l-31.8,26.5C125.1,291.4,124.7,291.6,124.3,291.6z"/>
		</g>
		<g>
			<path class="st0" d="M156,317.7c-0.4,0-0.9-0.1-1.2-0.4L123,290.9c-0.6-0.4-0.7-1.2-0.3-1.7c0.1-0.1,0.2-0.2,0.3-0.3
				c0.7-0.5,1.7-0.5,2.4,0l31.8,26.4c0.6,0.4,0.7,1.2,0.2,1.8c-0.1,0.1-0.2,0.2-0.2,0.2C156.9,317.6,156.4,317.7,156,317.7z"/>
		</g>
		<g>
			<path class="st0" d="M124.3,317.8c-0.4,0-0.9-0.1-1.2-0.4c-0.6-0.4-0.7-1.2-0.2-1.8c0.1-0.1,0.2-0.2,0.2-0.2l31.8-26.4
				c0.7-0.5,1.7-0.5,2.4,0c0.6,0.4,0.7,1.2,0.2,1.8c-0.1,0.1-0.2,0.2-0.2,0.2l-31.8,26.5C125.1,317.7,124.7,317.8,124.3,317.8z"/>
		</g>
		<g>
			<path class="st0" d="M156,344c-0.4,0-0.9-0.1-1.2-0.4L123,317.1c-0.6-0.4-0.7-1.2-0.3-1.7c0.1-0.1,0.2-0.2,0.3-0.3
				c0.7-0.5,1.7-0.5,2.4,0l31.8,26.4c0.6,0.4,0.7,1.2,0.2,1.8c-0.1,0.1-0.2,0.2-0.2,0.2C156.9,343.9,156.4,344,156,344z"/>
		</g>
		<g>
			<path class="st0" d="M124.3,344.1c-0.4,0-0.9-0.1-1.2-0.4c-0.6-0.4-0.7-1.2-0.2-1.8c0.1-0.1,0.2-0.2,0.2-0.2l31.8-26.5
				c0.7-0.6,1.7-0.6,2.4,0c0.6,0.4,0.7,1.2,0.2,1.8c-0.1,0.1-0.2,0.2-0.2,0.2l-31.8,26.5C125.1,344,124.7,344.1,124.3,344.1z"/>
		</g>
		<g>
			<path class="st0" d="M156,370.3c-0.4,0-0.9-0.1-1.2-0.4L123,343.4c-0.6-0.4-0.7-1.2-0.3-1.7c0.1-0.1,0.2-0.2,0.3-0.3
				c0.7-0.6,1.7-0.6,2.4,0l31.8,26.4c0.6,0.4,0.7,1.2,0.2,1.8c-0.1,0.1-0.2,0.2-0.2,0.2C156.9,370.1,156.4,370.3,156,370.3z"/>
		</g>
		<g>
			<path class="st0" d="M124.3,370.4c-0.4,0-0.9-0.1-1.2-0.4c-0.6-0.4-0.7-1.2-0.2-1.8c0.1-0.1,0.2-0.2,0.2-0.2l31.8-26.5
				c0.7-0.6,1.7-0.6,2.4,0c0.6,0.4,0.7,1.2,0.2,1.8c-0.1,0.1-0.2,0.2-0.2,0.2L125.5,370C125.1,370.3,124.7,370.4,124.3,370.4z"/>
		</g>
		<g>
			<path class="st0" d="M156,396.5c-0.4,0-0.9-0.1-1.2-0.4L123,369.7c-0.6-0.4-0.7-1.2-0.2-1.8c0.1-0.1,0.2-0.2,0.2-0.2
				c0.7-0.5,1.7-0.5,2.4,0l31.8,26.5c0.6,0.4,0.7,1.2,0.2,1.8c-0.1,0.1-0.2,0.2-0.2,0.2C156.9,396.4,156.4,396.6,156,396.5z"/>
		</g>
		<g>
			<path class="st0" d="M124.3,396.6c-0.4,0-0.9-0.1-1.2-0.4c-0.6-0.4-0.7-1.2-0.3-1.7c0.1-0.1,0.2-0.2,0.3-0.3l31.8-26.5
				c0.7-0.6,1.7-0.6,2.4,0c0.6,0.4,0.7,1.2,0.2,1.8c-0.1,0.1-0.2,0.2-0.2,0.2l-31.8,26.4C125.1,396.5,124.7,396.6,124.3,396.6z"/>
		</g>
		<g>
			<path class="st0" d="M156,422.8c-0.4,0-0.9-0.1-1.2-0.4L123.1,396c-0.6-0.4-0.7-1.2-0.2-1.8c0.1-0.1,0.2-0.2,0.2-0.2
				c0.7-0.5,1.7-0.5,2.4,0l31.8,26.5c0.6,0.4,0.7,1.2,0.2,1.8c-0.1,0.1-0.2,0.2-0.2,0.2C156.9,422.7,156.4,422.8,156,422.8z"/>
		</g>
		<g>
			<path class="st0" d="M124.3,422.9c-0.4,0-0.9-0.1-1.2-0.4c-0.6-0.4-0.7-1.2-0.3-1.7c0.1-0.1,0.2-0.2,0.3-0.3l31.8-26.5
				c0.7-0.6,1.7-0.6,2.4,0c0.6,0.4,0.7,1.2,0.2,1.8c-0.1,0.1-0.2,0.2-0.2,0.2l-31.8,26.4C125.1,422.8,124.7,422.9,124.3,422.9z"/>
		</g>
		<g>
			<path class="st0" d="M156,449.1c-0.4,0-0.9-0.1-1.2-0.4L123,422.2c-0.6-0.4-0.7-1.2-0.2-1.8c0.1-0.1,0.2-0.2,0.2-0.2
				c0.7-0.5,1.7-0.5,2.4,0l31.8,26.5c0.6,0.4,0.7,1.2,0.3,1.7c-0.1,0.1-0.2,0.2-0.3,0.3C156.9,449,156.4,449.1,156,449.1z"/>
		</g>
		<g>
			<path class="st0" d="M124.3,449.2c-0.4,0-0.9-0.1-1.2-0.4c-0.6-0.4-0.7-1.2-0.2-1.8c0.1-0.1,0.2-0.2,0.2-0.2l31.8-26.4
				c0.7-0.6,1.7-0.6,2.4,0c0.6,0.4,0.7,1.2,0.2,1.8c-0.1,0.1-0.2,0.2-0.2,0.2l-31.8,26.4C125.1,449,124.7,449.2,124.3,449.2z"/>
		</g>
		<g>
			<path class="st0" d="M156,475.4c-0.4,0-0.9-0.1-1.2-0.4l-31.7-26.4c-0.6-0.4-0.7-1.2-0.2-1.8c0.1-0.1,0.2-0.2,0.2-0.2
				c0.7-0.5,1.7-0.5,2.4,0l31.8,26.5c0.6,0.4,0.7,1.2,0.3,1.7c-0.1,0.1-0.2,0.2-0.3,0.3C156.9,475.3,156.4,475.4,156,475.4z"/>
		</g>
		<g>
			<path class="st0" d="M124.3,475.4c-0.4,0-0.9-0.1-1.2-0.4c-0.6-0.4-0.7-1.2-0.2-1.8c0.1-0.1,0.2-0.2,0.2-0.2l31.8-26.4
				c0.7-0.6,1.7-0.6,2.4,0c0.6,0.4,0.7,1.2,0.2,1.8c-0.1,0.1-0.2,0.2-0.2,0.2L125.5,475C125.1,475.3,124.7,475.4,124.3,475.4z"/>
		</g>
		<g>
			<path class="st0" d="M156,501.6c-0.4,0-0.9-0.1-1.2-0.4L123,474.8c-0.6-0.4-0.7-1.2-0.2-1.8c0.1-0.1,0.2-0.2,0.2-0.2
				c0.7-0.5,1.7-0.5,2.4,0l31.8,26.4c0.6,0.4,0.7,1.2,0.2,1.8c-0.1,0.1-0.2,0.2-0.2,0.2C156.9,501.5,156.4,501.6,156,501.6z"/>
		</g>
		<g>
			<path class="st0" d="M124.3,501.7c-0.4,0-0.9-0.1-1.2-0.4c-0.6-0.4-0.7-1.2-0.2-1.8c0.1-0.1,0.2-0.2,0.2-0.2l31.8-26.4
				c0.7-0.6,1.7-0.6,2.4,0c0.6,0.4,0.7,1.2,0.2,1.8c-0.1,0.1-0.2,0.2-0.2,0.2l-31.7,26.4C125.1,501.6,124.7,501.7,124.3,501.7z"/>
		</g>
		<g>
			<path class="st0" d="M156,527.9c-0.4,0-0.9-0.1-1.2-0.4L123.1,501c-0.6-0.4-0.7-1.2-0.2-1.8c0.1-0.1,0.2-0.2,0.2-0.2
				c0.7-0.5,1.7-0.5,2.4,0l31.8,26.4c0.6,0.4,0.7,1.2,0.2,1.8c-0.1,0.1-0.2,0.2-0.2,0.2C156.9,527.7,156.5,527.9,156,527.9z"/>
		</g>
		<g>
			<path class="st0" d="M124.3,528c-0.4,0-0.9-0.1-1.2-0.4c-0.6-0.4-0.7-1.2-0.2-1.8c0.1-0.1,0.2-0.2,0.2-0.2l31.8-26.4
				c0.7-0.6,1.7-0.6,2.4,0c0.6,0.4,0.7,1.2,0.2,1.8c-0.1,0.1-0.2,0.2-0.2,0.2l-31.8,26.4C125.1,527.9,124.7,528,124.3,528z"/>
		</g>
		<g>
			<path class="st0" d="M166.9,189.8H118v57.8h69.2v-23.2L166.9,189.8z M131.2,224.4v-22.6h25.9l13.3,22.6L131.2,224.4z"/>
		</g>
		<g>
			<rect x="19.8" y="218.7" class="st0" width="54.6" height="34.5"/>
		</g>
		<g>
			<path class="st0" d="M42.3,206.1c0,4.3-4.1,7.7-9.2,7.7s-9.2-3.4-9.2-7.7s4.1-7.7,9.2-7.7S42.3,201.9,42.3,206.1z"/>
		</g>
		<g>
			<path class="st0" d="M133.5,145c0,4.2-4.1,7.7-9.2,7.7s-9.3-3.5-9.3-7.7s4.1-7.7,9.2-7.7S133.5,140.7,133.5,145z"/>
		</g>
		<g>
			<path class="st0" d="M513.2,216.6c0,4.3-4.1,7.7-9.2,7.7s-9.2-3.4-9.2-7.7s4.1-7.7,9.2-7.7S513.2,212.4,513.2,216.6z"/>
		</g>
		<g>
			<rect x="30.5" y="204" class="st0" width="5.1" height="20.4"/>
		</g>
		<g>
			<polygon class="st0" points="34,205.1 32,202.9 123.2,143.9 125.3,146.1 			"/>
		</g>
		<g>
			<polygon class="st0" points="501.1,218 123.9,146.3 124.7,143.6 501.8,215.3 			"/>
		</g>
		<g>
			<rect x="122.6" y="145" class="st0" width="5.1" height="13.6"/>
		</g>
		<g>
			<path class="st0" d="M461.8,294.3c-0.5,0-0.9-0.2-1.2-0.5l-8.7-7.8c-0.3-0.2-0.5-0.6-0.5-1v-37.4c0.1-0.8,0.8-1.5,1.7-1.4h17.4
				c0.9-0.1,1.6,0.6,1.7,1.4v37.5c0,0.4-0.2,0.7-0.5,1l-8.7,7.8C462.7,294.1,462.2,294.3,461.8,294.3z M454.8,284.5l7,6.3l7-6.3V249
				h-14L454.8,284.5z M470.5,285.1L470.5,285.1z"/>
		</g>
		<g>
			<rect x="425.3" y="301.9" class="st0" width="72.9" height="48"/>
		</g>
		<g>
			<path class="st0" d="M461.8,304.7c-0.9,0.1-1.6-0.6-1.7-1.4v-10.5c0.2-0.9,1-1.6,2-1.4c0.7,0.1,1.3,0.7,1.4,1.4v10.5
				C463.4,304.2,462.6,304.8,461.8,304.7z"/>
		</g>
		<g>
			<polygon class="st0" points="89.2,270.2 89.2,276.8 96.6,276.8 96.6,296.7 89.2,296.7 89.2,303.3 115,303.3 115,270.2 			"/>
		</g>
		<g>
			<polygon class="st0" points="92,273.4 89.9,271.2 125.2,246.5 127.4,248.6 			"/>
		</g>
		<g>
			<rect x="91.8" y="298.1" class="st0" width="3.4" height="218"/>
		</g>
		<g>
			<path class="st1" d="M255.9,125.7l-28.6-26.3c-0.5-0.4-0.6-1.1-0.3-1.7c0.4-0.6,1-1,1.7-0.9h533.9c1-0.1,1.8,0.6,1.9,1.6v26.3
				c-0.1,1-0.9,1.7-1.9,1.6H257.3C256.7,126.2,256.2,126,255.9,125.7z M760.7,99.9H233l25.1,23.1h502.5V99.9z"/>
		</g>
		<g>
			<path class="st1" d="M762.5,126.2c0.5,0,1.1-0.2,1.5-0.6c0.6-0.5,0.6-1.4,0.1-2c-0.1-0.1-0.2-0.2-0.3-0.2L727.9,98
				c-0.8-0.6-1.9-0.5-2.7,0.2c-0.6,0.5-0.6,1.4-0.1,2c0.1,0.1,0.2,0.2,0.3,0.3l35.9,25.4C761.7,126,762.1,126.2,762.5,126.2z"/>
		</g>
		<g>
			<path class="st1" d="M726.6,126.2c0.4,0,0.9-0.1,1.2-0.4l35.9-25.4c0.7-0.4,0.9-1.3,0.5-1.9c-0.1-0.1-0.1-0.2-0.2-0.3
				c-0.7-0.7-1.8-0.8-2.7-0.2l-35.9,25.4c-0.7,0.4-0.9,1.3-0.5,1.9c0.1,0.1,0.2,0.2,0.2,0.3C725.5,126,726,126.2,726.6,126.2z"/>
		</g>
		<g>
			<path class="st1" d="M726.9,126.2c0.5,0,1.1-0.2,1.5-0.6c0.6-0.5,0.6-1.4,0.1-2c-0.1-0.1-0.2-0.2-0.3-0.2L692.3,98
				c-0.8-0.6-1.9-0.5-2.7,0.2c-0.6,0.5-0.6,1.4-0.1,2c0.1,0.1,0.2,0.2,0.3,0.3l35.9,25.4C726,126,726.5,126.2,726.9,126.2z"/>
		</g>
		<g>
			<path class="st1" d="M690.9,126.2c0.4,0,0.9-0.1,1.2-0.4l35.8-25.4c0.7-0.4,0.9-1.3,0.5-1.9c-0.1-0.1-0.2-0.2-0.3-0.3
				c-0.7-0.7-1.8-0.8-2.7-0.2l-35.8,25.4c-0.7,0.4-0.9,1.3-0.5,1.9c0.1,0.1,0.2,0.2,0.3,0.3C689.9,126,690.4,126.2,690.9,126.2z"/>
		</g>
		<g>
			<path class="st1" d="M691.3,126.2c0.5,0,1.1-0.2,1.5-0.6c0.6-0.5,0.6-1.4,0.1-2c-0.1-0.1-0.2-0.2-0.3-0.2L656.7,98
				c-0.8-0.6-1.9-0.5-2.7,0.2c-0.6,0.5-0.6,1.4-0.1,2c0.1,0.1,0.2,0.2,0.3,0.2l35.9,25.4C690.4,126,690.8,126.2,691.3,126.2z"/>
		</g>
		<g>
			<path class="st1" d="M655.3,126.2c0.4,0,0.9-0.1,1.2-0.4l35.9-25.4c0.7-0.4,0.9-1.3,0.5-1.9c-0.1-0.1-0.2-0.2-0.3-0.3
				c-0.7-0.7-1.9-0.8-2.7-0.2l-35.9,25.4c-0.7,0.4-0.9,1.3-0.5,1.9c0.1,0.1,0.2,0.2,0.2,0.3C654.2,126,654.8,126.2,655.3,126.2z"/>
		</g>
		<g>
			<path class="st1" d="M655.7,126.2c0.5,0,1.1-0.2,1.5-0.6c0.6-0.5,0.6-1.4,0.1-2c-0.1-0.1-0.2-0.2-0.3-0.2L621,98
				c-0.8-0.6-1.9-0.5-2.7,0.2c-0.6,0.5-0.6,1.4-0.1,2c0.1,0.1,0.2,0.2,0.3,0.2l35.9,25.4C654.8,126,655.2,126.2,655.7,126.2z"/>
		</g>
		<g>
			<path class="st1" d="M619.7,126.2c0.4,0,0.9-0.1,1.2-0.4l35.9-25.4c0.7-0.4,0.9-1.3,0.5-1.9c-0.1-0.1-0.2-0.2-0.3-0.3
				c-0.7-0.7-1.8-0.8-2.7-0.2l-35.9,25.4c-0.7,0.4-0.9,1.3-0.5,2c0.1,0.1,0.1,0.2,0.2,0.3C618.6,126,619.1,126.2,619.7,126.2z"/>
		</g>
		<g>
			<path class="st1" d="M620,126.2c0.5,0,1.1-0.2,1.5-0.6c0.6-0.5,0.6-1.4,0.1-2c-0.1-0.1-0.2-0.2-0.3-0.2L585.4,98
				c-0.8-0.6-1.9-0.5-2.7,0.2c-0.6,0.5-0.6,1.4-0.1,2c0.1,0.1,0.2,0.2,0.3,0.2l35.9,25.4C619.1,126,619.6,126.2,620,126.2z"/>
		</g>
		<g>
			<path class="st1" d="M584,126.2c0.4,0,0.9-0.1,1.2-0.4l35.9-25.4c0.7-0.4,0.9-1.3,0.5-1.9c-0.1-0.1-0.1-0.2-0.2-0.3
				c-0.7-0.7-1.9-0.8-2.7-0.2l-35.8,25.4c-0.7,0.4-0.9,1.3-0.5,2c0.1,0.1,0.1,0.2,0.2,0.3C583,126,583.5,126.2,584,126.2z"/>
		</g>
		<g>
			<path class="st1" d="M584.4,126.2c0.5,0,1.1-0.2,1.5-0.6c0.6-0.5,0.6-1.4,0.1-2c-0.1-0.1-0.2-0.2-0.3-0.2L549.8,98
				c-0.8-0.6-1.9-0.5-2.7,0.2c-0.6,0.5-0.6,1.4-0.1,2c0.1,0.1,0.2,0.2,0.3,0.3l35.9,25.4C583.5,126,583.9,126.2,584.4,126.2z"/>
		</g>
		<g>
			<path class="st1" d="M548.4,126.2c0.4,0,0.9-0.1,1.2-0.4l35.9-25.4c0.7-0.4,0.9-1.3,0.5-1.9c-0.1-0.1-0.1-0.2-0.2-0.3
				c-0.7-0.7-1.9-0.8-2.7-0.2l-35.8,25.4c-0.7,0.4-0.9,1.3-0.5,1.9c0.1,0.1,0.2,0.2,0.2,0.3C547.3,126,547.9,126.2,548.4,126.2z"/>
		</g>
		<g>
			<path class="st1" d="M548.8,126.2c0.5,0,1.1-0.2,1.5-0.6c0.6-0.5,0.6-1.4,0.1-2c-0.1-0.1-0.2-0.2-0.3-0.2L514.1,98
				c-0.8-0.6-1.9-0.5-2.7,0.2c-0.6,0.5-0.6,1.4-0.1,2c0.1,0.1,0.2,0.2,0.3,0.3l35.9,25.4C547.9,126,548.3,126.2,548.8,126.2z"/>
		</g>
		<g>
			<path class="st1" d="M512.8,126.2c0.4,0,0.9-0.1,1.2-0.4l35.9-25.4c0.7-0.4,0.9-1.3,0.5-1.9c-0.1-0.1-0.2-0.2-0.3-0.3
				c-0.7-0.7-1.8-0.8-2.7-0.2l-35.9,25.4c-0.7,0.4-0.9,1.3-0.5,1.9c0.1,0.1,0.2,0.2,0.2,0.3C511.7,126,512.2,126.2,512.8,126.2z"/>
		</g>
		<g>
			<path class="st1" d="M513.1,126.2c0.5,0,1.1-0.2,1.5-0.6c0.6-0.5,0.6-1.4,0.1-2c-0.1-0.1-0.2-0.2-0.3-0.2L478.5,98
				c-0.8-0.6-1.9-0.5-2.7,0.2c-0.6,0.5-0.6,1.4-0.1,2c0.1,0.1,0.2,0.2,0.3,0.2l35.9,25.4C512.3,126,512.7,126.2,513.1,126.2z"/>
		</g>
		<g>
			<path class="st1" d="M477.1,126.2c0.4,0,0.9-0.1,1.2-0.4l35.9-25.4c0.7-0.4,0.9-1.3,0.5-1.9c-0.1-0.1-0.1-0.2-0.2-0.3
				c-0.7-0.7-1.8-0.8-2.7-0.2l-35.9,25.4c-0.7,0.4-0.9,1.3-0.5,2c0.1,0.1,0.1,0.2,0.2,0.3C476.1,126,476.6,126.2,477.1,126.2z"/>
		</g>
		<g>
			<path class="st1" d="M477.5,126.2c0.5,0,1.1-0.2,1.5-0.6c0.6-0.5,0.6-1.4,0.1-2c-0.1-0.1-0.2-0.2-0.3-0.2L442.9,98
				c-0.8-0.6-1.9-0.5-2.7,0.2c-0.6,0.5-0.6,1.4-0.1,2c0.1,0.1,0.2,0.2,0.3,0.2l35.9,25.4C476.6,126,477,126.2,477.5,126.2z"/>
		</g>
		<g>
			<path class="st1" d="M441.5,126.2c0.4,0,0.9-0.1,1.2-0.4l35.9-25.4c0.7-0.4,0.9-1.3,0.5-1.9c-0.1-0.1-0.1-0.2-0.2-0.3
				c-0.7-0.7-1.9-0.8-2.7-0.2l-35.9,25.4c-0.7,0.4-0.9,1.3-0.5,2c0.1,0.1,0.1,0.2,0.2,0.3C440.4,126,441,126.2,441.5,126.2z"/>
		</g>
		<g>
			<path class="st1" d="M441.9,126.2c0.5,0,1.1-0.2,1.5-0.6c0.6-0.5,0.6-1.4,0.1-2c-0.1-0.1-0.2-0.2-0.3-0.2L407.2,98
				c-0.8-0.6-1.9-0.5-2.7,0.2c-0.6,0.5-0.6,1.4-0.1,2c0.1,0.1,0.2,0.2,0.3,0.2l35.9,25.4C441,126,441.4,126.2,441.9,126.2z"/>
		</g>
		<g>
			<path class="st1" d="M405.9,126.2c0.4,0,0.9-0.1,1.2-0.4l35.9-25.4c0.7-0.4,0.9-1.3,0.5-1.9c-0.1-0.1-0.1-0.2-0.2-0.3
				c-0.7-0.7-1.9-0.8-2.7-0.2l-35.9,25.4c-0.7,0.4-0.9,1.3-0.5,2c0.1,0.1,0.1,0.2,0.2,0.3C404.8,126,405.3,126.2,405.9,126.2z"/>
		</g>
		<g>
			<path class="st1" d="M406.2,126.2c0.5,0,1.1-0.2,1.5-0.6c0.6-0.5,0.6-1.4,0.1-2c-0.1-0.1-0.2-0.2-0.3-0.3L371.6,98
				c-0.8-0.6-1.9-0.5-2.7,0.2c-0.6,0.5-0.6,1.4-0.1,2c0.1,0.1,0.2,0.2,0.3,0.2l35.9,25.4C405.4,126.1,405.8,126.2,406.2,126.2z"/>
		</g>
		<g>
			<path class="st1" d="M370.2,126.2c0.4,0,0.9-0.1,1.2-0.4l35.9-25.4c0.7-0.4,0.9-1.3,0.5-1.9c-0.1-0.1-0.2-0.2-0.3-0.3
				c-0.7-0.7-1.8-0.8-2.7-0.2L369,123.4c-0.7,0.4-0.9,1.3-0.5,1.9c0.1,0.1,0.2,0.2,0.2,0.3C369.2,126,369.7,126.2,370.2,126.2z"/>
		</g>
		<g>
			<path class="st1" d="M370.6,126.2c0.5,0,1.1-0.2,1.5-0.6c0.6-0.5,0.6-1.4,0.1-2c-0.1-0.1-0.2-0.2-0.3-0.2L336,98
				c-0.8-0.6-1.9-0.5-2.7,0.2c-0.6,0.5-0.6,1.4-0.1,2c0.1,0.1,0.2,0.2,0.3,0.2l35.9,25.4C369.8,126,370.2,126.2,370.6,126.2z"/>
		</g>
		<g>
			<path class="st1" d="M334.6,126.2c0.4,0,0.9-0.1,1.2-0.4l35.9-25.4c0.7-0.4,0.9-1.3,0.5-1.9c-0.1-0.1-0.2-0.2-0.3-0.3
				c-0.7-0.7-1.8-0.8-2.7-0.2l-35.9,25.4c-0.7,0.4-0.9,1.3-0.5,1.9c0.1,0.1,0.2,0.2,0.2,0.3C333.5,126,334.1,126.2,334.6,126.2z"/>
		</g>
		<g>
			<path class="st1" d="M335,126.2c0.5,0,1.1-0.2,1.5-0.6c0.6-0.5,0.6-1.4,0.1-2c-0.1-0.1-0.2-0.2-0.3-0.2L300.3,98
				c-0.8-0.6-1.9-0.5-2.7,0.2c-0.6,0.5-0.6,1.4-0.1,2c0.1,0.1,0.2,0.2,0.3,0.2l35.9,25.4C334.1,126,334.5,126.2,335,126.2z"/>
		</g>
		<g>
			<path class="st1" d="M299,126.2c0.4,0,0.9-0.1,1.2-0.4l35.9-25.4c0.7-0.4,0.9-1.3,0.5-1.9c-0.1-0.1-0.1-0.2-0.2-0.3
				c-0.7-0.7-1.9-0.8-2.7-0.2l-35.9,25.4c-0.7,0.4-0.9,1.3-0.5,2c0.1,0.1,0.1,0.2,0.2,0.3C297.9,126,298.5,126.2,299,126.2z"/>
		</g>
		<g>
			<path class="st1" d="M299.3,126.2c0.5,0,1.1-0.2,1.5-0.6c0.6-0.5,0.6-1.4,0.1-2c-0.1-0.1-0.2-0.2-0.3-0.2L264.7,98
				c-0.8-0.6-1.9-0.5-2.7,0.2c-0.6,0.5-0.6,1.4-0.1,2c0.1,0.1,0.2,0.2,0.3,0.3l35.9,25.4C298.5,126,298.9,126.2,299.3,126.2z"/>
		</g>
		<g>
			<path class="st1" d="M263.3,126.2c0.4,0,0.9-0.1,1.2-0.4l35.9-25.4c0.7-0.4,0.9-1.3,0.5-1.9c-0.1-0.1-0.1-0.2-0.2-0.3
				c-0.7-0.7-1.8-0.8-2.7-0.2l-35.9,25.4c-0.7,0.4-0.9,1.3-0.5,2c0.1,0.1,0.1,0.2,0.2,0.3C262.3,126,262.8,126.2,263.3,126.2z"/>
		</g>
		<g>
			<path class="st1" d="M618.5,444.8V24c0.1-1,0.9-1.7,1.9-1.6h37.2c1-0.1,1.8,0.6,1.9,1.6v420.8c-0.1,1-0.9,1.7-1.9,1.6h-37.2
				C619.4,446.5,618.6,445.8,618.5,444.8z M655.7,25.6h-33.4v417.6h33.4L655.7,25.6z"/>
		</g>
		<g>
			<path class="st1" d="M621.7,55.5c0.5,0,0.9-0.2,1.3-0.5l35.9-29.9c0.6-0.5,0.7-1.3,0.3-2c-0.1-0.1-0.2-0.2-0.3-0.3
				c-0.8-0.6-1.9-0.6-2.7,0l-35.8,29.9c-0.6,0.5-0.7,1.4-0.3,2c0.1,0.1,0.2,0.2,0.3,0.3C620.7,55.3,621.2,55.5,621.7,55.5z"/>
		</g>
		<g>
			<path class="st1" d="M657.6,55.6c0.5,0,1-0.2,1.3-0.5c0.6-0.5,0.7-1.3,0.3-2c-0.1-0.1-0.2-0.2-0.3-0.3L623,23
				c-0.8-0.6-1.9-0.6-2.7,0c-0.6,0.5-0.7,1.4-0.3,2c0.1,0.1,0.2,0.2,0.3,0.3l35.9,29.9C656.6,55.4,657.1,55.6,657.6,55.6z"/>
		</g>
		<g>
			<path class="st1" d="M621.7,85.2c0.5,0,1-0.2,1.3-0.5l35.9-29.9c0.6-0.5,0.7-1.3,0.3-2c-0.1-0.1-0.2-0.2-0.3-0.3
				c-0.8-0.6-1.9-0.6-2.7,0l-35.9,29.9c-0.6,0.5-0.7,1.4-0.3,2c0.1,0.1,0.2,0.2,0.3,0.3C620.7,85,621.2,85.2,621.7,85.2z"/>
		</g>
		<g>
			<path class="st1" d="M657.6,85.3c0.5,0,1-0.2,1.3-0.5c0.6-0.5,0.7-1.3,0.3-2c-0.1-0.1-0.2-0.2-0.3-0.3L623,52.7
				c-0.8-0.6-1.9-0.6-2.7,0c-0.6,0.5-0.7,1.4-0.3,2c0.1,0.1,0.2,0.2,0.3,0.3l35.9,29.9C656.6,85.1,657.1,85.3,657.6,85.3z"/>
		</g>
		<g>
			<path class="st1" d="M621.7,114.8c0.5,0,1-0.2,1.3-0.5l35.9-29.9c0.6-0.5,0.7-1.3,0.3-2c-0.1-0.1-0.2-0.2-0.3-0.3
				c-0.8-0.6-1.9-0.6-2.7,0l-35.9,29.9c-0.6,0.5-0.7,1.4-0.3,2c0.1,0.1,0.2,0.2,0.3,0.3C620.7,114.7,621.2,114.9,621.7,114.8z"/>
		</g>
		<g>
			<path class="st1" d="M657.6,115c0.5,0,1-0.2,1.3-0.5c0.6-0.5,0.7-1.3,0.3-2c-0.1-0.1-0.2-0.2-0.3-0.3L623,82.4
				c-0.8-0.6-1.9-0.6-2.7,0c-0.6,0.5-0.7,1.4-0.3,2c0.1,0.1,0.2,0.2,0.3,0.3l35.9,29.9C656.6,114.8,657,115,657.6,115z"/>
		</g>
		<g>
			<path class="st1" d="M621.7,144.5c0.5,0,1-0.2,1.3-0.5l35.9-29.9c0.6-0.5,0.7-1.4,0.3-2c-0.1-0.1-0.2-0.2-0.3-0.3
				c-0.8-0.6-1.9-0.6-2.7,0l-35.9,29.9c-0.6,0.5-0.7,1.4-0.3,2c0.1,0.1,0.2,0.2,0.3,0.3C620.7,144.4,621.2,144.5,621.7,144.5z"/>
		</g>
		<g>
			<path class="st1" d="M657.6,144.6c0.5,0,1-0.2,1.3-0.5c0.6-0.5,0.7-1.3,0.3-2c-0.1-0.1-0.2-0.2-0.3-0.3L623,112
				c-0.8-0.6-1.9-0.6-2.7,0c-0.6,0.5-0.7,1.4-0.3,2c0.1,0.1,0.2,0.2,0.3,0.3l35.9,29.9C656.6,144.4,657.1,144.6,657.6,144.6z"/>
		</g>
		<g>
			<path class="st1" d="M621.7,174.2c0.5,0,1-0.2,1.3-0.5l35.9-29.9c0.6-0.5,0.7-1.4,0.3-2c-0.1-0.1-0.2-0.2-0.3-0.3
				c-0.8-0.6-1.9-0.6-2.7,0l-35.9,29.9c-0.6,0.5-0.7,1.4-0.3,2c0.1,0.1,0.2,0.2,0.3,0.3C620.7,174,621.2,174.2,621.7,174.2z"/>
		</g>
		<g>
			<path class="st1" d="M657.6,174.3c0.5,0,1-0.2,1.3-0.5c0.6-0.5,0.7-1.4,0.3-2c-0.1-0.1-0.2-0.2-0.3-0.3L623,141.7
				c-0.8-0.6-1.9-0.6-2.7,0c-0.6,0.5-0.7,1.4-0.3,2c0.1,0.1,0.2,0.2,0.3,0.3l35.9,29.9C656.6,174.1,657.1,174.3,657.6,174.3z"/>
		</g>
		<g>
			<path class="st1" d="M621.7,203.9c0.5,0,1-0.2,1.3-0.5l35.9-29.9c0.6-0.5,0.7-1.4,0.3-2c-0.1-0.1-0.2-0.2-0.3-0.3
				c-0.8-0.6-1.9-0.6-2.7,0l-35.9,29.9c-0.6,0.5-0.7,1.4-0.3,2c0.1,0.1,0.2,0.2,0.3,0.3C620.7,203.7,621.2,203.9,621.7,203.9z"/>
		</g>
		<g>
			<path class="st1" d="M657.6,204c0.5,0,1-0.2,1.3-0.5c0.6-0.5,0.7-1.4,0.3-2c-0.1-0.1-0.2-0.2-0.3-0.3L623,171.4
				c-0.8-0.6-1.9-0.6-2.7,0c-0.6,0.5-0.7,1.4-0.3,2c0.1,0.1,0.2,0.2,0.3,0.3l35.9,29.9C656.6,203.8,657.1,204,657.6,204z"/>
		</g>
		<g>
			<path class="st1" d="M621.7,233.5c0.5,0,1-0.2,1.3-0.5l35.9-29.9c0.6-0.5,0.7-1.4,0.3-2c-0.1-0.1-0.2-0.2-0.3-0.3
				c-0.8-0.6-1.9-0.6-2.7,0l-35.9,29.9c-0.6,0.5-0.7,1.4-0.3,2c0.1,0.1,0.2,0.2,0.3,0.3C620.7,233.4,621.2,233.5,621.7,233.5z"/>
		</g>
		<g>
			<path class="st1" d="M657.6,233.6c0.5,0,1-0.2,1.3-0.5c0.6-0.5,0.7-1.4,0.3-2c-0.1-0.1-0.2-0.2-0.3-0.3L623,201.1
				c-0.8-0.6-1.9-0.6-2.7,0c-0.6,0.5-0.7,1.4-0.3,2c0.1,0.1,0.2,0.2,0.3,0.3l35.9,29.9C656.6,233.5,657.1,233.7,657.6,233.6z"/>
		</g>
		<g>
			<path class="st1" d="M621.7,263.2c0.5,0,1-0.2,1.3-0.5l35.9-29.9c0.6-0.5,0.7-1.3,0.3-2c-0.1-0.1-0.2-0.2-0.3-0.3
				c-0.8-0.6-1.9-0.6-2.7,0l-35.9,29.9c-0.6,0.5-0.7,1.4-0.3,2c0.1,0.1,0.2,0.2,0.3,0.3C620.7,263,621.2,263.2,621.7,263.2z"/>
		</g>
		<g>
			<path class="st1" d="M657.6,263.3c0.5,0,1-0.2,1.3-0.5c0.6-0.5,0.7-1.3,0.3-2c-0.1-0.1-0.2-0.2-0.3-0.3L623,230.7
				c-0.8-0.6-1.9-0.6-2.7,0c-0.6,0.5-0.7,1.4-0.3,2c0.1,0.1,0.2,0.2,0.3,0.3l35.9,29.9C656.6,263.2,657.1,263.3,657.6,263.3z"/>
		</g>
		<g>
			<path class="st1" d="M621.7,292.9c0.5,0,1-0.2,1.3-0.5l35.9-29.9c0.6-0.5,0.7-1.3,0.3-2c-0.1-0.1-0.2-0.2-0.3-0.3
				c-0.8-0.6-1.9-0.6-2.7,0l-35.9,29.9c-0.6,0.5-0.7,1.4-0.3,2c0.1,0.1,0.2,0.2,0.3,0.3C620.7,292.7,621.2,292.9,621.7,292.9z"/>
		</g>
		<g>
			<path class="st1" d="M657.6,293c0.5,0,1-0.2,1.3-0.5c0.6-0.5,0.7-1.3,0.3-2c-0.1-0.1-0.2-0.2-0.3-0.3L623,260.4
				c-0.8-0.6-1.9-0.6-2.7,0c-0.6,0.5-0.7,1.4-0.3,2c0.1,0.1,0.2,0.2,0.3,0.3l35.9,29.9C656.6,292.8,657.1,293,657.6,293z"/>
		</g>
		<g>
			<path class="st1" d="M621.7,322.5c0.5,0,1-0.2,1.3-0.5l35.9-29.9c0.6-0.5,0.7-1.3,0.3-2c-0.1-0.1-0.2-0.2-0.3-0.3
				c-0.8-0.6-1.9-0.6-2.7,0l-35.9,29.9c-0.6,0.5-0.7,1.4-0.3,2c0.1,0.1,0.2,0.2,0.3,0.3C620.7,322.4,621.2,322.6,621.7,322.5z"/>
		</g>
		<g>
			<path class="st1" d="M657.6,322.6c0.5,0,1-0.2,1.3-0.5c0.6-0.5,0.7-1.3,0.3-2c-0.1-0.1-0.2-0.2-0.3-0.3L623,290.1
				c-0.8-0.6-1.9-0.6-2.7,0c-0.6,0.5-0.7,1.4-0.3,2c0.1,0.1,0.2,0.2,0.3,0.3l35.9,29.9C656.6,322.5,657.1,322.7,657.6,322.6z"/>
		</g>
		<g>
			<path class="st1" d="M621.7,352.2c0.5,0,1-0.2,1.3-0.5l35.9-29.9c0.6-0.5,0.7-1.4,0.3-2c-0.1-0.1-0.2-0.2-0.3-0.3
				c-0.8-0.6-1.9-0.6-2.7,0l-35.9,29.9c-0.6,0.5-0.7,1.4-0.3,2c0.1,0.1,0.2,0.2,0.3,0.3C620.7,352.1,621.2,352.2,621.7,352.2z"/>
		</g>
		<g>
			<path class="st1" d="M657.6,352.3c0.5,0,1-0.2,1.3-0.5c0.6-0.5,0.7-1.4,0.3-2c-0.1-0.1-0.2-0.2-0.3-0.3L623,319.7
				c-0.8-0.6-1.9-0.6-2.7,0c-0.6,0.5-0.7,1.4-0.3,2c0.1,0.1,0.2,0.2,0.3,0.3l35.9,29.9C656.6,352.2,657.1,352.3,657.6,352.3z"/>
		</g>
		<g>
			<path class="st1" d="M621.7,381.9c0.5,0,1-0.2,1.3-0.5l35.9-29.9c0.6-0.5,0.7-1.4,0.3-2c-0.1-0.1-0.2-0.2-0.3-0.3
				c-0.8-0.6-1.9-0.6-2.7,0l-35.9,29.9c-0.6,0.5-0.7,1.4-0.3,2c0.1,0.1,0.2,0.2,0.3,0.3C620.7,381.7,621.2,381.9,621.7,381.9z"/>
		</g>
		<g>
			<path class="st1" d="M657.6,382c0.5,0,1-0.2,1.3-0.5c0.6-0.5,0.7-1.4,0.3-2c-0.1-0.1-0.2-0.2-0.3-0.3L623,349.4
				c-0.8-0.6-1.9-0.6-2.7,0c-0.6,0.5-0.7,1.4-0.3,2c0.1,0.1,0.2,0.2,0.3,0.3l35.9,29.9C656.6,381.8,657.1,382,657.6,382z"/>
		</g>
		<g>
			<path class="st1" d="M621.7,411.6c0.5,0,1-0.2,1.3-0.5l35.9-29.9c0.6-0.5,0.7-1.4,0.3-2c-0.1-0.1-0.2-0.2-0.3-0.3
				c-0.8-0.6-1.9-0.6-2.7,0l-35.9,29.9c-0.6,0.5-0.7,1.4-0.3,2c0.1,0.1,0.2,0.2,0.3,0.3C620.7,411.4,621.2,411.6,621.7,411.6z"/>
		</g>
		<g>
			<path class="st1" d="M657.6,411.7c0.5,0,1-0.2,1.3-0.5c0.6-0.5,0.7-1.4,0.3-2c-0.1-0.1-0.2-0.2-0.3-0.3L623,379.1
				c-0.8-0.6-1.9-0.6-2.7,0c-0.6,0.5-0.7,1.4-0.3,2c0.1,0.1,0.2,0.2,0.3,0.3l35.9,29.9C656.6,411.5,657.1,411.7,657.6,411.7z"/>
		</g>
		<g>
			<path class="st1" d="M621.7,441.2c0.5,0,1-0.2,1.3-0.5l35.9-29.9c0.6-0.5,0.7-1.3,0.3-2c-0.1-0.1-0.2-0.2-0.3-0.3
				c-0.8-0.6-1.9-0.6-2.7,0l-35.9,29.9c-0.6,0.5-0.7,1.4-0.3,2c0.1,0.1,0.2,0.2,0.3,0.3C620.7,441.1,621.2,441.2,621.7,441.2z"/>
		</g>
		<g>
			<path class="st1" d="M657.6,441.3c0.5,0,1-0.2,1.3-0.5c0.6-0.5,0.7-1.3,0.3-2c-0.1-0.1-0.2-0.2-0.3-0.3L623,408.8
				c-0.8-0.6-1.9-0.6-2.7,0c-0.6,0.5-0.7,1.4-0.3,2c0.1,0.1,0.2,0.2,0.3,0.3l35.9,29.9C656.6,441.2,657.1,441.4,657.6,441.3z"/>
		</g>
		<g>
			<path class="st1" d="M586.5,98.4v26.2h78.2V59.4h-55.3L586.5,98.4z M605.5,98.4l15-25.6h29.3v25.6H605.5z"/>
		</g>
		<g>
			<rect x="714" y="92" class="st1" width="61.7" height="39"/>
		</g>
		<g>
			<path class="st1" d="M750.2,77.8c0,4.8,4.7,8.7,10.5,8.7s10.4-3.9,10.4-8.7s-4.7-8.7-10.4-8.7S750.2,73,750.2,77.8z"/>
		</g>
		<g>
			<path class="st1" d="M647.1,8.7c0,4.8,4.7,8.7,10.4,8.7S668,13.5,668,8.7S663.3,0,657.6,0S647.1,3.9,647.1,8.7z"/>
		</g>
		<g>
			<path class="st1" d="M218.2,89.6c0,4.8,4.7,8.7,10.4,8.7s10.4-3.9,10.4-8.7s-4.7-8.7-10.4-8.7S218.2,84.8,218.2,89.6z"/>
		</g>
		<g>
			<rect x="757.8" y="75.4" class="st1" width="5.7" height="23"/>
		</g>
		<g>
			<polygon class="st1" points="759.5,76.6 761.8,74.1 658.7,7.4 656.4,9.9 			"/>
		</g>
		<g>
			<polygon class="st1" points="232,91.2 658,10.2 657.1,7.2 231.1,88.1 			"/>
		</g>
		<g>
			<rect x="653.8" y="8.7" class="st1" width="5.7" height="15.3"/>
		</g>
		<g>
			<path class="st1" d="M275.3,164.4l-7.6-6.8c-0.2-0.2-0.4-0.5-0.4-0.8v-32.5c0.1-0.7,0.7-1.3,1.5-1.2h15.1
				c0.7-0.1,1.4,0.5,1.5,1.2v32.6c0,0.3-0.1,0.6-0.4,0.8l-7.6,6.8c-0.3,0.3-0.7,0.4-1.1,0.4C276,164.8,275.6,164.6,275.3,164.4z
				 M282.5,125.5h-12.2v30.9l6.1,5.5l6.1-5.5V125.5z M268.8,156.8L268.8,156.8z"/>
		</g>
		<g>
			<rect x="244.7" y="171.4" class="st1" width="63.3" height="41.6"/>
		</g>
		<g>
			<path class="st1" d="M276.4,173.9c0.7,0.1,1.4-0.5,1.5-1.2v-9.1c-0.2-0.8-0.9-1.3-1.7-1.2c-0.6,0.1-1.1,0.6-1.2,1.2v9.1
				C275,173.4,275.6,173.9,276.4,173.9z"/>
		</g>
		<g>
			<polygon class="st1" points="697.1,150.2 697.1,157.7 688.8,157.7 688.8,180.1 697.1,180.1 697.1,187.6 668,187.6 668,150.2 			
				"/>
		</g>
		<g>
			<polygon class="st1" points="694,153.8 696.5,151.4 656.5,123.4 654.1,125.8 			"/>
		</g>
		<g>
			<rect x="690.5" y="181.7" class="st1" width="3.8" height="246.2"/>
		</g>
		<g>
			<path class="st1" d="M778.1,427c-6.1-4.1-12.1-8.3-18.2-12.6l-18.2-12.6c-6.8-4.7-13.5-9.4-20.2-14.1c-1.3-1.2-3.2-1.2-4.5-0.1
				c-0.3,0.3-0.7,0.5-1.1,0.6l-21.4,15L674.9,417c-0.9,1-2.5,1.1-3.5,0.1c0,0-0.1-0.1-0.1-0.1l0,0c-0.5-0.5-0.9-0.8-1.4-1.2
				l-8.2-7.4l-16.4-14.6c-5.5-5-11.1-10-16.5-15c-3-2.7-2.7-2.7-6.4-0.3c-3.5,2.3-6.8,4.5-10.3,6.8c-0.7,0.4-1.4,0.7-2.1,0.9
				c0.3-3.3,0.8-6.2,1.1-9.1c0.5-3.9,0.9-8,1.5-12c0.5-3.6,1.1-7.1,1.5-10.8c0.3-1.4-0.2-2.9-1.2-3.9c-5-5.5-9-11.9-11.7-18.8
				c-4.1-10.3-7-21.1-8.5-32.1c-0.2-0.6-0.4-1.2-0.8-1.8c-0.3,0.8-0.6,1.7-0.8,2.6c-0.8,2.9-1.4,5.8-2.3,8.5
				c-2.7,9.4-6.2,18.4-10.6,27.1c-3.3,6.6-7.2,13-11.7,18.9c-0.9,1.1-1.3,2.5-1.1,3.9c0.3,2,0.3,4.1,0.5,6.1s0,3.8,0.2,5.8
				c0.6,7.6,1.2,15.3,1.2,23c0,0.9,0,1.8,0.2,2.7c0.8,3.8,0.3,7.6,0.5,11.5c0,1.4-0.7,2.6-1.8,3.3c-2.1,1.7-4.4,3.5-6.5,5.2
				l-2.7,1.9c-1.5-0.6-1.8-1.8-2.6-2.7c-6.7-9.7-13.3-19.5-20-29.2c-1-1.8-3-2.7-5-2.3c-1.4,0.3-2.8,0.5-4.2,0.5
				c-5,0.1-10.2,0-15.1,0.5c-5.5,0.5-10.9,0.1-16.4,0.6c-4.9,0.5-9.7,0.1-14.5,0.6c-5.6,0.5-11.4,0.2-17,0.6
				c-4.9,0.5-9.7,0.1-14.5,0.5c-6.7,0.5-13.2,0.3-19.9,0.8c-3.8,0.3-7.6-0.1-11.4,0.5c-1.7,0.2-3.3,0.2-5,0c-1.7,0-2.1-0.5-2.3-2
				c-0.3-3.2-0.5-6.2-0.6-9.4c-0.3-8.8,0-17.6-0.5-26.4c-0.6-10.2,0-20.2-0.8-30.3c0-2.2-0.4-4.4-1.2-6.5c-3-8.3-6.1-16.7-9.2-25.2
				c-2.6-7.1-5.1-14.1-7.9-21.1c-0.3-0.6-0.7-1.2-1.2-1.7c-1.7,3.8-3,7.3-4.4,10.8s-2.9,7.1-4.2,10.8s-2.7,7-4.2,10.5
				c-1.3,3.7-2.9,7.4-4.7,10.9c-0.8-1.2-1.2-1.8-1.7-2.6c-4.7-9.1-9.5-18.2-14.2-27.3c-1.5-2.7-3-5.6-4.5-8.3
				c-0.1-0.3-0.6-0.5-1.1-0.9c-0.7,0.8-1.3,1.7-1.8,2.6c-8,12.3-16.1,24.4-24.2,36.7c-0.9,1.7-1.3,3.6-1.1,5.5
				c0.2,2.3,0.3,4.5,0.5,7c0,0.9,0,1.8,0.1,2.7c0.3,5.5,0.8,10.9,1.1,16.4c0.3,4.7,0.5,9.4,0.8,14.2c0,0.2,0,0.4,0.1,0.6
				c0.3,4.7,0.8,9.4,1.1,14.2c0.3,5.2,0.5,10.5,0.6,15.8v0.5c0.6,6.2,1.2,12.4,1.2,18.6c0,1.2,0.1,2.4,0.3,3.6c0.3,2,0.2,4-0.5,5.9
				c-3.2-8.8-6.5-17.6-9.7-26.7c-2.6,0.5-4.9,0.6-7.3,1.1c-15.1,2.7-30.3,5.6-45.5,8.5c-12.7,2.4-25.5,4.7-38,7.3
				c-2.6,0.6-5.4,0.4-7.9-0.5l-25-9.1c-11.4-4.1-22.6-8.3-34-12.4c-12.3-4.4-24.4-8.8-36.7-13.3c-1.5-0.6-3.2-0.5-4.6,0.5
				c-3.3,2.1-6.5,4.2-9.8,6.2L77,395.8c-9.4,5.9-18.6,12-28,17.9c-4.5,2.9-9.1,5.6-13.6,8.5c-2.3,1.4-4.5,2.9-6.7,4.4
				c-0.8,0.5-1.4,1.1-1.2,2L49.7,820h710.8l20.2-388.3C780.7,429.8,779.7,428,778.1,427z"/>
		</g>
		<g>
			<rect x="62" y="486.5" class="st0" width="195.5" height="333.5"/>
		</g>
		<g>
			<polygon class="st2" points="268,467.9 51.7,467.9 62,486.5 257.5,486.5 			"/>
		</g>
		<g>
			<rect x="51.7" y="455.6" class="st0" width="216.3" height="12.3"/>
		</g>
		<g>
			<rect x="76.1" y="496.2" class="st2" width="22.8" height="323.8"/>
		</g>
		<g>
			<rect x="166.2" y="496.2" class="st2" width="22.9" height="323.8"/>
		</g>
		<g>
			<rect x="199.1" y="496.2" class="st2" width="22.9" height="323.8"/>
		</g>
		<g>
			<rect x="232" y="496.2" class="st2" width="15.4" height="323.8"/>
		</g>
		<g>
			<rect x="108.1" y="496.2" class="st2" width="38.2" height="38.1"/>
		</g>
		<g>
			<rect x="108.1" y="543.9" class="st2" width="38.2" height="38.1"/>
		</g>
		<g>
			<rect x="108.1" y="591.5" class="st2" width="38.2" height="38.1"/>
		</g>
		<g>
			<rect x="108.1" y="639.1" class="st2" width="38.2" height="38.1"/>
		</g>
		<g>
			<rect x="108.1" y="686.7" class="st2" width="38.2" height="38.1"/>
		</g>
		<g>
			<rect x="108.1" y="734.3" class="st2" width="38.2" height="38.1"/>
		</g>
		<g>
			<rect x="108.1" y="781.9" class="st2" width="38.2" height="38.1"/>
		</g>
		<g>
			<rect x="6.3" y="665.2" class="st2" width="56.1" height="154.8"/>
		</g>
		<g>
			<rect x="257.5" y="665.2" class="st2" width="50.7" height="154.8"/>
		</g>
		<g>
			<rect x="297.7" y="474.6" class="st0" width="7.2" height="345.3"/>
		</g>
		<g>
			<rect x="360.8" y="474.6" class="st0" width="3.6" height="345.3"/>
		</g>
		<g>
			<rect x="415.8" y="474.6" class="st0" width="16.1" height="345.3"/>
		</g>
		<g>
			<rect x="483.3" y="474.6" class="st0" width="3.6" height="345.3"/>
		</g>
		<g>
			<rect x="542.8" y="474.6" class="st0" width="7.2" height="345.3"/>
		</g>
		<g>
			<rect x="301.2" y="576.5" class="st0" width="245.2" height="3"/>
		</g>
		<g>
			<rect x="301.2" y="627.8" class="st0" width="245.2" height="3"/>
		</g>
		<g>
			<line class="st3" x1="301.2" y1="680.6" x2="546.3" y2="680.6"/>
		</g>
		<g>
			<line class="st3" x1="301.2" y1="732" x2="546.3" y2="732"/>
		</g>
		<g>
			<rect x="415.8" y="446.4" class="st0" width="134.2" height="39"/>
		</g>
		<g>
			<rect x="379.2" y="461.8" class="st0" width="36.6" height="23.6"/>
		</g>
		<g>
			<rect x="315.4" y="550.5" class="st0" width="27.1" height="26"/>
		</g>
		<g>
			<rect x="373.8" y="561.9" class="st0" width="23.7" height="14.6"/>
		</g>
		<g>
			<rect x="381" y="609" class="st0" width="86.9" height="18.9"/>
		</g>
		<g>
			<rect x="310" y="662.5" class="st0" width="20" height="16.6"/>
		</g>
		<g>
			<rect x="322.5" y="645.9" class="st0" width="20" height="16.6"/>
		</g>
		<g>
			<rect x="332.5" y="662.5" class="st0" width="20" height="16.6"/>
		</g>
		<g>
			<rect x="439.8" y="710" class="st0" width="23.3" height="21.1"/>
		</g>
		<g>
			<rect x="495.5" y="717" class="st0" width="16.9" height="14"/>
		</g>
		<g>
			<rect x="332.5" y="717" class="st0" width="52.1" height="14"/>
		</g>
		<g>
			<rect x="751.8" y="525.5" class="st0" width="6.1" height="294.5"/>
		</g>
		<g>
			<rect x="701.1" y="525.5" class="st0" width="3" height="294.5"/>
		</g>
		<g>
			<rect x="643.5" y="525.5" class="st0" width="13.7" height="294.5"/>
		</g>
		<g>
			<rect x="596.6" y="525.5" class="st0" width="3" height="294.5"/>
		</g>
		<g>
			<rect x="542.8" y="525.5" class="st0" width="6.1" height="294.5"/>
		</g>
		<g>
			<rect x="545.8" y="612.3" class="st0" width="209.1" height="2.5"/>
		</g>
		<g>
			<rect x="545.8" y="656.1" class="st0" width="209.1" height="2.5"/>
		</g>
		<g>
			<line class="st3" x1="754.9" y1="701.1" x2="545.8" y2="701.1"/>
		</g>
		<g>
			<line class="st3" x1="754.9" y1="744.9" x2="545.8" y2="744.9"/>
		</g>
		<g>
			<rect x="542.8" y="501.4" class="st0" width="114.4" height="33.3"/>
		</g>
		<g>
			<rect x="657.2" y="514.5" class="st0" width="31.2" height="20.2"/>
		</g>
		<g>
			<rect x="719.7" y="590.2" class="st0" width="23.1" height="22.1"/>
		</g>
		<g>
			<rect x="672.8" y="599.9" class="st0" width="20.2" height="12.5"/>
		</g>
		<g>
			<rect x="612.8" y="640" class="st0" width="74.1" height="16.1"/>
		</g>
		<g>
			<rect x="730.4" y="685.7" class="st0" width="17" height="14.2"/>
		</g>
		<g>
			<rect x="719.7" y="671.5" class="st0" width="17" height="14.2"/>
		</g>
		<g>
			<rect x="711.2" y="685.7" class="st0" width="17" height="14.2"/>
		</g>
		<g>
			<rect x="616.9" y="726.1" class="st0" width="19.8" height="18"/>
		</g>
		<g>
			<rect x="574.8" y="732.2" class="st0" width="14.4" height="12"/>
		</g>
		<g>
			<rect x="683.8" y="732.2" class="st0" width="44.4" height="12"/>
		</g>
		<g>
			<path class="st4" d="M131.3,521.7l426.2-198.8L399.2,878.2c-0.3,1.2-1.4,1.9-2.6,1.6c-0.5-0.1-1-0.4-1.3-0.9L131.3,521.7z"/>
		</g>
		<g>
			<path d="M278.6,627h-48.3c-5.3,0.1-10.4-1.8-14.3-5.4c-3.8-3.2-6-7.9-6-12.9v-108h34.3V519h14c5.3-0.1,10.4,1.8,14.3,5.4
				c3.8,3.2,6,7.9,6,12.9L278.6,627z M261,609.2V537c0-3.4-1.9-5-5.6-5h-11v82.4h11C259.2,614.3,261,612.6,261,609.2z"/>
		</g>
		<g>
			<path d="M327.4,627h-14c-5.3,0.1-10.4-1.8-14.3-5.4c-3.8-3.2-6-7.9-6-12.9v-108h14c5.3-0.1,10.4,1.8,14.3,5.4
				c3.8,3.2,6,7.9,6,12.9V627z"/>
		</g>
		<g>
			<path d="M390.3,519.1c5.3-0.1,10.4,1.8,14.3,5.4c3.8,3.2,6,7.9,6,12.9v89.8h-48.2c-5.3,0.1-10.4-1.8-14.3-5.4
				c-3.8-3.2-6-7.9-6-12.9v-89.8h17.6v90.1c0,3.4,1.9,5,5.7,5h11v-95.2h13.9L390.3,519.1z"/>
		</g>
		<g>
			<path d="M493.7,570.3c0,5-2.2,9.7-6,12.9c-3.9,3.5-9,5.5-14.3,5.4h-30.9c0,5,2.2,9.7,6,12.9c4,3.6,9.1,5.5,14.5,5.4h30.9v20.3
				h-48.5c-5.3,0.1-10.4-1.8-14.3-5.4c-3.8-3.2-6-7.9-6-12.9v-89.7h48.5c5.3-0.1,10.4,1.8,14.3,5.4c3.8,3.2,6,7.9,6,12.9
				L493.7,570.3z M459.4,571.1v-34.3c0-3.4-1.9-5.2-5.7-5.2h-11.2v44.5h11.1C457.5,576.3,459.4,574.6,459.4,571.1L459.4,571.1z"/>
		</g>
		<g>
			<path d="M507.9,537.4c0-5,2.2-9.7,6-12.9c3.9-3.6,9.1-5.5,14.5-5.4h48.5v20.3h-30.9c-5.3-0.1-10.5,1.9-14.5,5.4
				c-3.8,3.2-6,7.9-6,12.9h30.9c5.3-0.1,10.4,1.8,14.3,5.4c3.8,3.2,6,7.9,6,12.9v32.9c0,5-2.2,9.7-6,12.9c-3.9,3.5-9,5.5-14.3,5.4
				h-48.5v-38.9h28.2c5.3,0.1,10.4-1.8,14.3-5.4c3.8-3.2,6-7.9,6-12.9h-48.5V537.4z"/>
		</g>
		<g>
			<path d="M228.6,427.4V479h6c2,0,3-0.9,3-2.7v-48.7h9.4V476c0,2.7-1.1,5.2-3.1,7c-2.1,1.9-4.9,2.9-7.7,2.9h-26v-48.4
				c0-2.7,1.1-5.2,3.1-7c2.1-1.9,4.9-2.9,7.7-2.9L228.6,427.4z"/>
		</g>
		<g>
			<path d="M292.1,455c0,2.7-1.2,5.3-3.3,7c-2.1,1.9-4.9,2.9-7.7,2.9h-16.7c0,2.7,1.2,5.3,3.3,7c2.1,1.9,4.9,2.9,7.7,2.9h16.6v11
				h-26.2c-2.8,0-5.6-1-7.7-2.9c-2.1-1.8-3.2-4.3-3.3-7v-48.5h26.2c2.8-0.1,5.6,0.9,7.7,2.9c2.1,1.7,3.3,4.3,3.3,7L292.1,455
				L292.1,455z M273.5,455.6V437c0-1.9-1-2.7-3.1-2.7h-6v24h6C272.5,458.3,273.5,457.4,273.5,455.6L273.5,455.6z"/>
		</g>
		<g>
			<path d="M299.6,437.3c0-2.7,1.2-5.3,3.3-7c2.1-1.9,4.9-2.9,7.7-2.9h26.2v11h-16.6c-2.8,0-5.6,1-7.7,2.9c-2.1,1.7-3.3,4.3-3.3,7
				H326c2.8,0,5.6,1,7.7,2.9c2.1,1.7,3.3,4.3,3.3,7v17.7c0,2.7-1.2,5.3-3.3,7c-2.1,1.9-4.9,2.9-7.7,2.9h-26.2v-21H315
				c2.8,0.1,5.6-0.9,7.7-2.9c2.1-1.7,3.3-4.3,3.3-7h-26.2L299.6,437.3z"/>
		</g>
		<g>
			<path d="M381.7,454.9h-26.2c0,2.7,1.2,5.3,3.3,7c2.1,1.9,4.9,2.9,7.7,2.9h15.3v21h-26c-2.8,0-5.6-1-7.7-2.9
				c-2.1-1.7-3.3-4.3-3.3-7l-0.1-17.7c0-2.7,1.2-5.3,3.3-7c2.1-1.9,4.9-2.9,7.7-2.9h16.7c0-2.7-1.2-5.3-3.3-7
				c-2.1-1.9-4.9-2.9-7.7-2.9h-16.6v-11.1h26c2.8,0,5.6,1,7.7,2.9c2.1,1.7,3.3,4.3,3.3,7L381.7,454.9z"/>
		</g>
		<g>
			<path d="M389.5,506.6v-79.2h26.2c2.8,0,5.6,1,7.7,2.9c2.1,1.7,3.3,4.3,3.3,7v48.5h-18.6v20.9L389.5,506.6z M417.1,476.2v-39.1
				c0-1.9-1-2.7-3.1-2.7h-6v44.5h6C416.1,478.9,417.1,477.9,417.1,476.2z"/>
		</g>
		<g>
			<path d="M434.2,427.4h26.2c2.8,0,5.6,1,7.7,2.9c2.1,1.7,3.3,4.3,3.3,7v17.6H462v-17.6c0-1.9-1-2.7-3-2.7h-6v51.3h-7.6
				c-2.8,0-5.6-1-7.7-2.9c-2.1-1.7-3.2-4.3-3.1-7L434.2,427.4z"/>
		</g>
		<g>
			<path d="M516.3,455c0,2.7-1.2,5.3-3.3,7c-2.1,1.9-4.9,2.9-7.7,2.9h-16.7c0,2.7,1.2,5.3,3.3,7c2.1,1.9,4.9,2.9,7.7,2.9h16.6v11
				H490c-2.8,0-5.6-1-7.7-2.9c-2.1-1.7-3.3-4.3-3.3-7v-48.5h26.2c2.8-0.1,5.6,0.9,7.7,2.9c2.1,1.7,3.3,4.3,3.3,7V455H516.3z
				 M497.7,455.6V437c0-1.9-1-2.7-3.1-2.7h-6v24h6C496.7,458.3,497.7,457.4,497.7,455.6z"/>
		</g>
		<g>
			<path d="M561.1,485.8h-9.4V437c0-1.9-1-2.7-3-2.7h-6v51.5h-7.6c-2.8,0-5.6-1-7.7-2.9c-2.1-1.7-3.3-4.3-3.3-7v-48.6h26.2
				c2.2,0,4.3,0.6,6.2,1.7c1.9-1.1,4.1-1.7,6.3-1.7h3.2c2.8-0.1,5.6,0.9,7.7,2.9c2.1,1.7,3.2,4.3,3.2,7v48.5h-9.6V437
				c0-1.9-1-2.7-3-2.7s-3,0.9-3,2.7L561.1,485.8z"/>
		</g>
		<g>
			<path d="M495.4,424.1h-7c-2.6,0-5.2-0.9-7.1-2.7c-1.9-1.6-3-4-3-6.4v-6.3h7c2.6,0,5.2,0.9,7.1,2.7c1.9,1.6,3,4,3,6.4V424.1z"/>
		</g>
		<g>
			<path d="M247.9,671.7h-9.7v-18.2c0-1.9-1-2.9-3.1-2.9h-6.1v29.6h18.9v8.6h-18.9v33.6h-7.7c-2.9,0-5.7-1-7.9-3
				c-2.1-1.8-3.3-4.4-3.3-7.2v-68.8h26.6c2.9,0,5.7,1,7.9,3c2.1,1.8,3.3,4.4,3.3,7.2L247.9,671.7L247.9,671.7z"/>
		</g>
		<g>
			<path d="M293.8,691.1c0,2.8-1.2,5.4-3.3,7.2c-2.1,2-5,3-7.9,3h-17.2c0,2.8,1.2,5.4,3.3,7.2c2.2,2,5,3.1,8,3h17v11.2H267
				c-2.9,0-5.7-1-7.9-3c-2.1-1.8-3.3-4.4-3.3-7.2v-49.6h26.7c2.9,0,5.8,1.1,8,3c2.1,1.8,3.3,4.4,3.3,7.2L293.8,691.1z M274.9,691.7
				v-18.9c0-1.9-1-2.9-3.1-2.9h-6.1v24.6h6.1c1.5,0.2,2.9-0.9,3.1-2.4C274.9,692,274.9,691.9,274.9,691.7z"/>
		</g>
		<g>
			<path d="M301.7,673c0-2.8,1.2-5.4,3.3-7.2c2.2-2,5-3.1,8-3h26.6V674h-17c-2.9,0-5.8,1.1-8,3c-2.1,1.8-3.3,4.4-3.3,7.2h17
				c2.9,0,5.7,1,7.9,3c2.1,1.8,3.3,4.4,3.3,7.2v18.2c0,2.8-1.2,5.4-3.3,7.2c-2.1,2-5,3-7.9,3h-26.7V701h15.6c2.9,0,5.7-1,7.9-3
				c2.1-1.8,3.3-4.4,3.3-7.2h-26.8V673H301.7z"/>
		</g>
		<g>
			<path d="M385.3,691h-26.7c0,2.8,1.2,5.4,3.3,7.2c2.1,2,5,3,7.9,3h15.6v21.5h-26.6c-2.9,0-5.7-1-7.9-3c-2.1-1.8-3.3-4.4-3.3-7.2
				l-0.1-18.2c0-2.8,1.2-5.4,3.3-7.2c2.2-2,5-3,7.9-3h17c0-2.8-1.2-5.4-3.3-7.2c-2.2-2-5-3-7.9-3h-16.9v-11.2h26.6
				c2.9,0,5.7,1,7.9,3c2.1,1.8,3.3,4.4,3.3,7.2V691z"/>
		</g>
		<g>
			<path d="M431.2,712.4c0,2.8-1.2,5.4-3.3,7.2c-2.1,2-5,3-7.9,3h-26.6v-68.8c0-2.8,1.2-5.4,3.3-7.2c2.1-2,5-3,7.9-3h7.7v33.6h18.7
				v8.6h-18.7v29.5h6.1c2.1,0,3.1-0.8,3.1-2.9v-17.9h9.7L431.2,712.4z"/>
		</g>
		<g>
			<path d="M439.1,643.6h7.7c2.9,0,5.7,1,7.9,3c2.1,1.8,3.4,4.4,3.3,7.2v7h-7.7c-2.9,0-5.7-1-7.9-3c-2.1-1.8-3.3-4.4-3.3-7.2
				L439.1,643.6z"/>
		</g>
		<g>
			<path d="M549.8,643.6v7c0,2.6-0.9,5.2-2.7,7.2c-1.6,1.9-4,3-6.4,3h-6.3v-7c0-2.6,0.9-5.2,2.7-7.2c1.6-1.9,4-3,6.4-3H549.8z"/>
		</g>
		<g>
			<path d="M458.1,722.6h-7.7c-2.9,0-5.7-1-7.9-3c-2.1-1.8-3.3-4.4-3.3-7.2v-46.8h7.8c2.9,0,5.7,1,7.9,3c2.1,1.8,3.3,4.4,3.3,7.2
				L458.1,722.6z"/>
		</g>
		<g>
			<path d="M485.1,663v52.6h6c2.1,0,3.1-0.9,3.1-2.9V663h9.7v49.5c0,2.8-1.2,5.4-3.3,7.2c-2.1,2-5,3-7.9,3h-26.6v-49.5
				c0-2.8,1.2-5.4,3.3-7.2c2.1-2,5-3,7.9-3L485.1,663z"/>
		</g>
		<g>
			<path d="M549.8,722.6h-26.6c-2.9,0-5.7-1-7.9-3c-2.1-1.8-3.3-4.4-3.3-7.2v-18.2c0-2.8,1.2-5.4,3.3-7.2c2.2-2,5-3,7.9-3h17
				c0-2.8-1.2-5.4-3.3-7.2c-2.2-2-5-3-7.9-3h-16.9v-11.2h26.6c2.9,0,5.7,1,7.9,3c2.1,1.8,3.3,4.4,3.3,7.2L549.8,722.6z M540.1,715.4
				v-24.6h-6c-2.2,0-3.2,1-3.2,2.9v19c0,1.9,1,2.9,3.2,2.9L540.1,715.4z"/>
		</g>
		<g>
			<path d="M576.7,722.6H569c-2.9,0-5.7-1-7.9-3c-2.1-1.8-3.3-4.4-3.3-7.2v-68.8h7.7c2.9,0,5.7,1,7.9,3c2.1,1.8,3.3,4.4,3.3,7.2
				L576.7,722.6z"/>
		</g>
		<g>
			<path d="M278.6,764.5H257v-2.9c0-0.4,0.1-0.9,0.3-1.3c0.1-0.5,0.3-0.9,0.6-1.3c0.3-0.4,0.6-0.7,1-1.3s1-0.9,1.6-1.3
				c1.7-0.9,3.6-1.5,5.6-1.9c0.9-0.1,1.9-0.4,3.1-0.7c0.6-0.1,1.3-0.3,1.9-0.6c0.3-0.1,0.4-0.4,0.4-0.7c0-0.2-0.1-0.4-0.3-0.6
				c-0.3-0.1-0.7-0.3-1-0.4c-0.8-0.1-1.5-0.2-2.3-0.1c-0.6,0-1.2,0-1.9,0.1l-1.3,0.4c-0.3,0.1-0.5,0.3-0.6,0.6
				c-0.1,0.3-0.3,0.4-0.3,0.6c0,0.2,0,0.3-0.1,0.4h-6.6v-0.1c0-4.2,3.4-6.2,10-6.2h1c1.4,0,2.9,0.1,4.3,0.3c1,0.1,1.9,0.4,2.9,0.7
				c0.7,0.3,1.3,0.7,1.7,1.3c0.4,0.4,0.7,0.9,0.9,1.4c0.2,0.5,0.3,1,0.3,1.6v0.1c0.1,0.8-0.1,1.6-0.6,2.3c-0.6,0.7-1.4,1.3-2.3,1.6
				c-1.5,0.6-3.1,1-4.7,1.3l-3.7,0.6c-3,0.6-4.6,1.3-4.6,1.9h10.1v-2.1h6L278.6,764.5z"/>
		</g>
		<g>
			<path d="M304.2,755.5v0.7c0,0.7,0,1.3-0.1,2c-0.2,0.8-0.5,1.5-1,2.1c-0.4,0.9-1.1,1.6-2,2c-1.1,0.7-2.2,1.1-3.4,1.4
				c-1.7,0.4-3.5,0.6-5.3,0.6h-1c-1.8,0-3.6-0.2-5.3-0.6c-1.2-0.3-2.4-0.8-3.4-1.4c-0.8-0.6-1.4-1.2-2-2c-0.4-0.7-0.7-1.4-1-2.1
				c-0.1-0.7-0.1-1.3-0.3-2v-0.6c0-0.5,0-1,0.1-1.4c0-0.6,0.1-1.1,0.4-1.6c0.1-0.6,0.4-1.1,0.9-1.6c0.4-0.5,0.9-1,1.4-1.4
				c0.7-0.5,1.4-1,2.1-1.3c0.9-0.3,1.7-0.6,2.9-0.9c1.3-0.2,2.7-0.3,4-0.3h1c1.3,0,2.6,0.1,4,0.3c1,0.2,1.9,0.4,2.9,0.7
				c0.7,0.3,1.4,0.7,2,1.3c0.5,0.4,1,0.9,1.4,1.4c0.3,0.6,0.6,1,0.9,1.6s0.3,1,0.4,1.4C304.1,754.4,304.2,754.9,304.2,755.5z
				 M297.7,755.9v-0.3c0-0.4-0.1-0.9-0.3-1.3c-0.1-0.5-0.4-1-0.9-1.3c-0.5-0.4-1.1-0.8-1.7-1c-0.9-0.2-1.8-0.3-2.7-0.3
				c-1,0-1.9,0.2-2.9,0.4c-0.6,0.2-1.2,0.6-1.7,1c-0.4,0.4-0.7,0.8-0.9,1.3c-0.2,0.4-0.3,0.8-0.3,1.3v0.3c0,0.5,0.1,1,0.3,1.4
				c0.1,0.5,0.4,1,0.9,1.3c0.5,0.4,1.1,0.8,1.7,1.2c1.8,0.6,3.8,0.6,5.6,0c0.6-0.2,1.2-0.6,1.7-1c0.4-0.4,0.7-0.8,0.9-1.3
				C297.5,757.1,297.6,756.5,297.7,755.9L297.7,755.9z"/>
		</g>
		<g>
			<path d="M326.7,764.2h-21.6v-2.9c0-0.4,0.1-0.9,0.3-1.3c0.1-0.5,0.3-0.9,0.6-1.3c0.3-0.4,0.6-0.7,1-1.3c0.5-0.5,1-0.8,1.6-1.1
				c1.7-0.9,3.6-1.5,5.6-1.9c0.9-0.1,1.9-0.4,3.3-0.7c0.6-0.1,1.3-0.3,1.9-0.6c0.3-0.1,0.4-0.4,0.4-0.7c0-0.2-0.1-0.4-0.3-0.6
				c-0.3-0.2-0.7-0.3-1-0.4c-0.8-0.1-1.5-0.2-2.3-0.2c-0.6,0-1.2,0-1.9,0.2l-1.3,0.4c-0.3,0.1-0.5,0.3-0.6,0.6
				c-0.1,0.3-0.3,0.4-0.3,0.6c0,0.2,0,0.3-0.1,0.4h-6.7v-0.1c0-4.2,3.4-6.2,10-6.2h1c1.4,0,2.9,0.1,4.3,0.3c1,0.2,1.9,0.4,2.9,0.7
				c0.7,0.3,1.3,0.7,1.7,1.3c0.4,0.4,0.7,0.9,0.9,1.4c0.2,0.5,0.3,1,0.3,1.6v0.1c0.1,0.8-0.1,1.6-0.6,2.3c-0.6,0.7-1.4,1.3-2.3,1.6
				c-1.5,0.6-3.1,1-4.7,1.3l-3.7,0.6c-3,0.6-4.6,1.3-4.6,1.9h10.1v-2.3h6L326.7,764.2z"/>
		</g>
		<g>
			<path d="M339.4,764.6h-1c-1.2,0-2.5-0.1-3.7-0.3c-1-0.1-1.9-0.3-2.9-0.7c-0.7-0.2-1.3-0.6-1.9-1c-0.6-0.3-1-0.7-1.3-1.3
				c-0.3-0.4-0.6-0.8-0.7-1.3c-0.2-0.4-0.3-0.8-0.3-1.3c0-0.3-0.1-0.6-0.1-1v-0.1h6.6c0,0.2,0,0.3,0.1,0.4c0,0.1,0.1,0.3,0.3,0.6
				s0.4,0.4,0.7,0.7l1.3,0.4c0.7,0.1,1.3,0.2,2,0.1c0.7,0,1.3,0,2-0.1c0.4,0,0.9-0.1,1.3-0.3c0.3-0.1,0.5-0.3,0.7-0.4
				c0.1-0.2,0.3-0.3,0.3-0.4v-0.4c0-0.7-0.7-1.3-2-1.3h-5.7v-4h5.4c1.3,0,1.9-0.3,1.9-1l0,0c0-0.3-0.1-0.4-0.1-0.6
				c-0.4-0.3-0.8-0.4-1.3-0.4c-0.9-0.1-1.9-0.2-2.9-0.1c-0.7,0-1.3,0-2,0.1c-0.4,0.2-0.8,0.3-1.3,0.3c-0.2,0.1-0.4,0.3-0.6,0.4
				c-0.1,0.1-0.3,0.3-0.3,0.4v0.3h-6.6V751c0-0.3,0.1-0.7,0.3-1c0.2-0.4,0.4-0.7,0.7-1c0.4-0.4,0.8-0.7,1.3-1
				c0.6-0.3,1.3-0.6,1.9-0.8c0.8-0.3,1.7-0.5,2.6-0.6c1.1-0.2,2.3-0.3,3.4-0.3h1c1.6,0,3.3,0.1,4.9,0.3c1,0.1,2,0.3,3,0.7
				c0.6,0.2,1.2,0.6,1.7,1c0.4,0.3,0.7,0.8,0.9,1.3c0.1,0.4,0.2,0.8,0.1,1.3v0.2c0,0.7-0.3,1.4-0.9,1.9c-0.6,0.5-1.3,0.8-2,1
				c0.9,0.1,1.8,0.6,2.4,1.3c0.7,0.7,1.1,1.7,1,2.7v0.2C350.1,762.5,346.6,764.6,339.4,764.6z"/>
		</g>
		<g>
			<path d="M357.4,759.8v4.4H351v-4.4H357.4z"/>
		</g>
		<g>
			<path d="M390.3,755.3v0.7c0,0.7,0,1.3-0.1,2c-0.2,0.8-0.5,1.5-1,2.1c-0.4,0.9-1.1,1.6-2,2c-1.1,0.7-2.2,1.1-3.4,1.4
				c-1.7,0.4-3.5,0.6-5.3,0.6h-1c-1.8,0-3.6-0.2-5.3-0.6c-1.2-0.3-2.4-0.8-3.6-1.4c-0.7-0.6-1.4-1.3-2-2c-0.4-0.7-0.8-1.4-1-2.1
				c-0.1-0.7-0.1-1.3-0.3-2v-0.7c0-0.5,0-1,0.1-1.4c0-0.6,0.1-1.1,0.4-1.6c0.1-0.6,0.4-1.1,0.9-1.6c0.4-0.5,0.9-1,1.4-1.4
				c0.6-0.5,1.4-1,2.1-1.3c0.9-0.3,1.7-0.6,2.9-0.8c1.3-0.2,2.7-0.3,4-0.3h1c1.3,0,2.7,0.1,4,0.3c1,0.2,1.9,0.4,2.9,0.7
				c0.7,0.3,1.4,0.7,2,1.3c0.5,0.4,1,0.9,1.4,1.4c0.3,0.6,0.6,1,0.9,1.6c0.2,0.5,0.4,1,0.4,1.6C390.1,754.2,390.4,754.7,390.3,755.3
				z M383.8,755.8v-0.3c0-0.4-0.1-0.9-0.3-1.3c-0.1-0.5-0.4-1-0.9-1.3c-0.5-0.4-1.1-0.8-1.7-1c-0.9-0.2-1.8-0.3-2.7-0.3
				c-0.9,0-1.8,0.1-2.7,0.4c-0.6,0.2-1.2,0.6-1.7,1c-0.4,0.4-0.7,0.8-0.9,1.3c-0.2,0.4-0.3,0.8-0.3,1.3v0.3c0,0.5,0.1,1,0.3,1.4
				c0.1,0.5,0.4,1,0.9,1.3c0.5,0.4,1.1,0.8,1.7,1c1.8,0.6,3.8,0.6,5.6,0c0.6-0.2,1.2-0.6,1.7-1c0.4-0.4,0.7-0.8,0.9-1.3
				C383.5,756.8,383.6,756.3,383.8,755.8z"/>
		</g>
		<g>
			<path d="M391.2,757.2l11.7-10.2h7v9.3h3.6v4.4h-3.6v3.3h-6.4v-3.3H391L391.2,757.2z M403.6,756.5v-5l-5.9,5H403.6z"/>
		</g>
		<g>
			<path d="M420.8,759.6v4.4h-6.4v-4.4H420.8z"/>
		</g>
		<g>
			<path d="M433,754h-4.2v-3.6c2.7-0.2,4.6-1.3,5.3-3.4h5v16.9h-6.4L433,754z"/>
		</g>
		<g>
			<path d="M452.7,764.2h-1c-1.2,0-2.5-0.1-3.7-0.3c-0.9-0.2-1.8-0.4-2.7-0.7c-0.7-0.2-1.3-0.6-1.9-1c-0.6-0.3-1-0.7-1.3-1.3
				c-0.3-0.4-0.6-0.8-0.7-1.3c-0.2-0.4-0.3-0.8-0.3-1.3c0-0.3-0.1-0.6-0.1-1h6.6c0,0.2,0,0.3,0.1,0.4c0,0.1,0.1,0.3,0.3,0.6
				s0.4,0.4,0.7,0.7l1.3,0.4c0.7,0.1,1.3,0.2,2,0.1c0.7,0,1.3,0,2-0.1c0.4,0,0.9-0.1,1.3-0.3c0.3-0.1,0.5-0.3,0.7-0.4
				c0.1-0.1,0.3-0.3,0.3-0.4v-0.4c0-0.7-0.7-1.3-2-1.3h-5.7v-4h5.5c1.3,0,1.9-0.3,1.9-1l0,0c0-0.3-0.1-0.4-0.1-0.6
				c-0.4-0.3-0.8-0.4-1.3-0.4c-0.9-0.1-1.9-0.2-2.9-0.1c-0.7,0-1.3,0-2,0.1c-0.4,0.2-0.8,0.3-1.3,0.3c-0.2,0.1-0.4,0.3-0.6,0.4
				c-0.1,0.2-0.3,0.3-0.3,0.4v0.3h-6.6v-1.3c0.1-0.8,0.5-1.5,1-2c0.4-0.4,0.8-0.8,1.3-1c0.6-0.3,1.3-0.6,1.9-0.9
				c0.8-0.3,1.7-0.5,2.6-0.6c1.2-0.2,2.4-0.3,3.6-0.3h1c1.6,0,3.3,0.2,4.9,0.3c1,0.1,2,0.3,3,0.7c0.6,0.2,1.2,0.6,1.7,1
				c0.4,0.3,0.7,0.8,0.9,1.3c0.1,0.4,0.2,0.9,0.1,1.3v0.1c0,0.7-0.3,1.4-0.9,1.9c-0.6,0.5-1.3,0.8-2,1c0.9,0.1,1.8,0.6,2.4,1.3
				c0.7,0.7,1.1,1.7,1,2.7v0.1C463.4,762.2,459.7,764.2,452.7,764.2z"/>
		</g>
		<g>
			<path d="M471.4,755h7.4v4.3h-7.4V755z"/>
		</g>
		<g>
			<path d="M490.9,753.9h-4.1v-3.4c2.7-0.2,4.6-1.3,5.3-3.4h5.1v16.9h-6.4L490.9,753.9z"/>
		</g>
		<g>
			<path d="M511,764.1h-1c-1.6,0-3.2-0.2-4.7-0.6c-1.1-0.3-2.2-0.7-3.1-1.3c-0.7-0.6-1.4-1.2-1.9-2c-0.4-0.7-0.7-1.4-0.9-2.1
				c-0.2-0.7-0.3-1.4-0.3-2.2v-0.6c0-0.6,0-1.2,0.1-1.9c0.1-0.6,0.3-1.3,0.6-1.9c0.3-0.7,0.7-1.3,1.3-1.7c0.6-0.6,1.2-1,1.9-1.4
				c0.9-0.5,1.8-0.9,2.9-1c1.3-0.3,2.7-0.4,4-0.4h1c1.4,0,2.9,0.2,4.3,0.3c1,0.3,2,0.6,2.9,0.9c0.7,0.3,1.3,0.7,1.7,1.3
				c0.4,0.4,0.7,0.9,0.9,1.4c0.2,0.5,0.3,0.9,0.3,1.4v0.1h-6.6c-0.2-0.3-0.4-0.6-0.7-0.7c-1-0.5-2.2-0.7-3.3-0.6
				c-0.8,0-1.7,0.1-2.4,0.4c-0.6,0.2-1.1,0.6-1.6,1c-0.3,0.4-0.5,0.8-0.6,1.3c-0.1,0.4-0.2,0.9-0.1,1.3v0.1c2.1-1.2,4.6-1.8,7-1.6
				h0.3c1.2,0,2.5,0.1,3.7,0.3c0.8,0.1,1.6,0.4,2.4,0.7c0.6,0.3,1.2,0.7,1.6,1.3c0.4,0.4,0.7,0.8,0.8,1.3c0.2,0.5,0.3,1,0.3,1.6v0.2
				c0,0.5,0,1.1-0.1,1.6c-0.2,0.6-0.5,1.1-0.9,1.6c-0.4,0.6-1,1.1-1.7,1.4c-0.9,0.5-1.9,0.8-3,0.9
				C514.4,764.1,512.7,763.9,511,764.1z M506,758.3L506,758.3c0,1.3,1.4,1.7,4.6,1.7s4.4-0.6,4.4-1.7l0,0c0-0.3,0-0.4-0.2-0.6
				l-0.6-0.6l-1.3-0.4c-0.8-0.1-1.5-0.2-2.3-0.1C507.4,756.6,506,757,506,758.3L506,758.3z"/>
		</g>
		<g>
			<path d="M529,759.3v4.4h-6.4v-4.4H529z"/>
		</g>
		<g>
			<polygon points="42,1029.3 0,814.9 773.6,788.6 729.5,1023 			"/>
		</g>
		<g class="st5">
			<path class="st6" d="M143.1,965.1v-18.9h6.9v7.6c1.8-1.8,4.1-2.7,7-2.7h0.2c1.2,0,2.3,0.2,3.2,0.5c0.9,0.3,1.6,0.8,2.1,1.3
				c0.5,0.5,0.9,1.1,1.1,1.7s0.3,1.1,0.3,1.7v8.8h-6.9v-6.5c0-1-0.3-1.7-0.8-2.3s-1.4-0.9-2.5-0.9s-2,0.3-2.7,0.9
				c-0.6,0.6-1,1.4-1,2.4v6.3H143.1z"/>
			<path class="st6" d="M178.2,963.3c-1.4,1.4-3.5,2.1-6.4,2.1h-0.3c-2.1,0-3.7-0.4-4.8-1.3s-1.6-1.9-1.6-3.1v-0.3
				c0-1.2,0.4-2.1,1.3-2.8c0.9-0.7,2.3-1.1,4.3-1.2l6.6-0.6c0.5-0.1,0.8-0.3,0.8-0.7c0-0.2-0.1-0.4-0.2-0.5s-0.4-0.3-0.9-0.4
				s-1.1-0.2-2-0.2H175c-0.7,0-1.2,0-1.7,0.1c-0.4,0.1-0.8,0.2-0.9,0.4s-0.3,0.3-0.3,0.4c0,0.1-0.1,0.2-0.1,0.4h-6.4v-0.2
				c0-0.5,0-0.9,0.1-1.2s0.3-0.7,0.6-1.2c0.3-0.5,0.8-0.8,1.4-1.1s1.4-0.5,2.6-0.7s2.5-0.3,4-0.3h1.4c1.6,0,3,0.1,4.2,0.3
				c1.2,0.2,2.1,0.4,2.7,0.7s1.1,0.6,1.4,1.1s0.6,0.8,0.6,1.1s0.1,0.7,0.1,1.2v5.1c0,0.4,0.2,0.6,0.6,0.6h0.7v4h-5.7
				C179.1,965.1,178.4,964.5,178.2,963.3z M178.1,959.3v-0.6l-4.6,0.8c-0.6,0.1-1,0.2-1.3,0.4s-0.4,0.4-0.4,0.8v0
				c0,0.4,0.2,0.7,0.5,1s0.9,0.4,1.7,0.4c1.2,0,2.2-0.3,3-0.9S178.1,960,178.1,959.3z"/>
			<path class="st6" d="M194.2,965.1h-6.9v-13.7h6.9v2.4c1.8-1.8,4.1-2.7,6.8-2.7h0.2c2.7,0,4.6,0.9,5.6,2.8c2-1.9,4.4-2.8,7.2-2.8
				h0.2c1.2,0,2.2,0.2,3,0.5s1.5,0.8,2,1.3s0.8,1.1,1,1.7c0.2,0.6,0.3,1.1,0.3,1.7v8.8h-6.9v-6.6c0-2.1-0.9-3.1-2.8-3.1
				c-1,0-1.9,0.3-2.5,0.9c-0.6,0.6-0.9,1.4-0.9,2.4v6.4h-6.9v-6.6c0-2.1-0.9-3.1-2.8-3.1c-1,0-1.9,0.3-2.5,0.9
				c-0.6,0.6-0.9,1.4-0.9,2.4V965.1z"/>
			<path class="st6" d="M234.8,963.3c-1.4,1.4-3.5,2.1-6.4,2.1h-0.3c-2.1,0-3.7-0.4-4.8-1.3s-1.6-1.9-1.6-3.1v-0.3
				c0-1.2,0.4-2.1,1.3-2.8c0.9-0.7,2.3-1.1,4.3-1.2l6.6-0.6c0.5-0.1,0.8-0.3,0.8-0.7c0-0.2-0.1-0.4-0.2-0.5s-0.4-0.3-0.9-0.4
				s-1.1-0.2-2-0.2h-0.1c-0.7,0-1.2,0-1.7,0.1c-0.4,0.1-0.8,0.2-0.9,0.4s-0.3,0.3-0.3,0.4c0,0.1-0.1,0.2-0.1,0.4h-6.4v-0.2
				c0-0.5,0-0.9,0.1-1.2s0.3-0.7,0.6-1.2c0.3-0.5,0.8-0.8,1.4-1.1s1.4-0.5,2.6-0.7s2.5-0.3,4-0.3h1.4c1.6,0,3,0.1,4.2,0.3
				c1.2,0.2,2.1,0.4,2.7,0.7s1.1,0.6,1.4,1.1s0.6,0.8,0.6,1.1s0.1,0.7,0.1,1.2v5.1c0,0.4,0.2,0.6,0.6,0.6h0.7v4H237
				C235.7,965.1,235,964.5,234.8,963.3z M234.6,959.3v-0.6l-4.6,0.8c-0.6,0.1-1,0.2-1.3,0.4s-0.4,0.4-0.4,0.8v0c0,0.4,0.2,0.7,0.5,1
				s0.9,0.4,1.7,0.4c1.2,0,2.2-0.3,3-0.9S234.6,960,234.6,959.3z"/>
			<path class="st6" d="M250.8,951.5v2.5c0.3-0.4,0.6-0.7,1-1.1s1-0.7,1.9-1.1c0.9-0.4,1.8-0.6,2.9-0.6h0.3c1.1,0,2,0.2,2.8,0.5
				c0.8,0.3,1.4,0.8,1.8,1.4s0.7,1.2,0.9,1.9c0.2,0.7,0.3,1.4,0.3,2.2v1.4h-6.7v-0.5c0-0.8-0.2-1.5-0.6-2s-1-0.8-1.9-0.8
				c-0.8,0-1.4,0.3-1.9,0.8c-0.4,0.5-0.7,1.3-0.7,2.1v6.9h-6.9v-13.7H250.8z"/>
		</g>
		<g class="st5">
			<path class="st6" d="M275.7,965.5h-1.9c-1.7,0-3.1-0.2-4.4-0.5s-2.3-0.7-3-1.2s-1.3-1-1.8-1.7s-0.8-1.3-0.9-1.9s-0.2-1.2-0.2-1.9
				V958c0-0.6,0.1-1.3,0.2-1.8s0.5-1.2,0.9-1.8c0.4-0.6,1-1.2,1.8-1.7c0.7-0.5,1.7-0.8,3-1.1c1.3-0.3,2.8-0.5,4.4-0.5h1.9
				c6.9,0,10.3,2.3,10.3,6.9v0.5c0,0.7-0.1,1.3-0.2,1.9c-0.1,0.6-0.4,1.2-0.8,1.9s-1,1.2-1.7,1.7s-1.7,0.8-3,1.2
				C279,965.4,277.4,965.5,275.7,965.5z M274.8,954.9L274.8,954.9c-1.6,0-2.7,0.3-3.3,0.9c-0.7,0.6-1,1.4-1,2.3v0.1
				c0,0.9,0.3,1.7,1,2.4c0.7,0.7,1.8,1,3.3,1h0c1.5,0,2.6-0.3,3.3-1c0.7-0.7,1-1.5,1-2.3v-0.1c0-0.9-0.3-1.7-1-2.3
				C277.4,955.3,276.3,954.9,274.8,954.9z"/>
		</g>
		<g class="st5">
			<path class="st6" d="M297.3,965.5h-1.4c-6.1,0-9.1-1.6-9.1-4.8v-0.2h7c0,0.2,0,0.3,0.1,0.5c0.1,0.2,0.2,0.3,0.3,0.5
				c0.2,0.2,0.5,0.4,0.9,0.5c0.4,0.1,0.9,0.2,1.5,0.2h0.1c1.1,0,1.8-0.1,2.2-0.3s0.6-0.5,0.6-0.8V961c0-0.4-0.2-0.6-0.5-0.8
				s-1-0.3-2.1-0.3l-2.9-0.1c-4.7-0.2-7.1-1.6-7.1-4.3v-0.2c0-0.6,0.1-1.1,0.4-1.6c0.2-0.5,0.7-0.9,1.3-1.3c0.6-0.4,1.5-0.7,2.8-1
				c1.2-0.2,2.7-0.3,4.6-0.3h1.3c6,0,9,1.4,9,4.2v0.2h-6.9c0-0.2-0.1-0.4-0.2-0.5s-0.3-0.3-0.8-0.5s-1-0.3-1.8-0.3h0
				c-1,0-1.8,0.1-2.1,0.2c-0.4,0.1-0.5,0.4-0.5,0.7v0c0,0.3,0.2,0.5,0.5,0.7s1,0.3,2,0.3l2.9,0.1c2,0.1,3.6,0.3,4.7,0.6
				c1.1,0.4,1.8,0.8,2.2,1.4c0.4,0.6,0.6,1.3,0.6,2.3v0.2c0,0.5-0.1,1-0.2,1.5c-0.1,0.4-0.4,0.9-0.8,1.3s-0.9,0.8-1.6,1
				c-0.7,0.3-1.6,0.5-2.7,0.7C300.2,965.4,298.8,965.5,297.3,965.5z"/>
		</g>
		<g class="st5">
			<path class="st6" d="M320.5,963.3c-1.4,1.4-3.5,2.1-6.4,2.1h-0.3c-2.1,0-3.7-0.4-4.8-1.3s-1.6-1.9-1.6-3.1v-0.3
				c0-1.2,0.4-2.1,1.3-2.8c0.9-0.7,2.3-1.1,4.3-1.2l6.6-0.6c0.5-0.1,0.8-0.3,0.8-0.7c0-0.2-0.1-0.4-0.2-0.5s-0.4-0.3-0.9-0.4
				s-1.1-0.2-2-0.2h-0.1c-0.7,0-1.2,0-1.7,0.1c-0.4,0.1-0.8,0.2-0.9,0.4s-0.3,0.3-0.3,0.4c0,0.1-0.1,0.2-0.1,0.4h-6.4v-0.2
				c0-0.5,0-0.9,0.1-1.2s0.3-0.7,0.6-1.2c0.3-0.5,0.8-0.8,1.4-1.1s1.4-0.5,2.6-0.7s2.5-0.3,4-0.3h1.4c1.6,0,3,0.1,4.2,0.3
				c1.2,0.2,2.1,0.4,2.7,0.7s1.1,0.6,1.4,1.1s0.6,0.8,0.6,1.1s0.1,0.7,0.1,1.2v5.1c0,0.4,0.2,0.6,0.6,0.6h0.7v4h-5.7
				C321.4,965.1,320.7,964.5,320.5,963.3z M320.4,959.3v-0.6l-4.6,0.8c-0.6,0.1-1,0.2-1.3,0.4s-0.4,0.4-0.4,0.8v0
				c0,0.4,0.2,0.7,0.5,1s0.9,0.4,1.7,0.4c1.2,0,2.2-0.3,3-0.9S320.4,960,320.4,959.3z"/>
			<path class="st6" d="M329.6,965.1v-13.7h6.9v2.4c0.3-0.2,0.5-0.4,0.6-0.5c0.1-0.1,0.5-0.4,0.9-0.7s1-0.6,1.4-0.7s1.1-0.3,1.8-0.5
				s1.5-0.2,2.3-0.2h0.2c1.2,0,2.3,0.2,3.2,0.5c0.9,0.3,1.6,0.8,2.1,1.3c0.5,0.5,0.9,1.1,1.1,1.7s0.3,1.1,0.3,1.7v8.8h-6.9v-6.5
				c0-1-0.3-1.7-0.8-2.3s-1.4-0.9-2.5-0.9s-2,0.3-2.7,0.9c-0.6,0.6-1,1.4-1,2.4v6.3H329.6z"/>
			<path class="st6" d="M358.4,965.8h0.9c0.3,0,0.5-0.1,0.6-0.2c0.1-0.1,0.2-0.4,0.2-0.8v-13.4h6.9v14.7c0,1.3-0.3,2.3-0.8,2.9
				c-0.5,0.6-1.2,0.9-2.1,0.9h-5.8V965.8z M367,946.2v4.1h-6.9v-4.1H367z"/>
			<path class="st6" d="M390.1,960.2L390.1,960.2c0,0.5-0.1,0.9-0.2,1.3c-0.1,0.4-0.4,0.9-0.8,1.4c-0.4,0.5-1,1-1.7,1.3
				c-0.7,0.4-1.7,0.7-3,0.9c-1.3,0.3-2.8,0.4-4.5,0.4h-1.3c-1.6,0-3-0.1-4.3-0.4c-1.2-0.3-2.2-0.7-2.9-1.1c-0.7-0.5-1.3-1-1.8-1.6
				s-0.8-1.3-0.9-1.9c-0.2-0.6-0.2-1.3-0.2-2V958c0-4.6,3.4-6.9,10.1-6.9h1.4c1.2,0,2.4,0.1,3.4,0.2c1,0.2,1.9,0.4,2.6,0.6
				c0.7,0.3,1.3,0.6,1.8,1c0.5,0.4,0.9,0.8,1.2,1.2s0.5,0.9,0.7,1.4c0.2,0.5,0.3,1,0.4,1.4c0.1,0.4,0.1,0.9,0.1,1.5v0.8h-14.9
				c0.2,1.7,1.6,2.5,4.1,2.5h0c0.6,0,1.2-0.1,1.6-0.2s0.9-0.2,1.1-0.3c0.3-0.1,0.5-0.3,0.6-0.4c0.2-0.2,0.3-0.3,0.3-0.4
				s0.1-0.2,0.1-0.3H390.1z M379.3,954.4c-2.3,0-3.6,0.7-3.9,2.1h7.9C383,955.1,381.7,954.4,379.3,954.4z"/>
			<path class="st6" d="M398.5,946.2v18.9h-6.9v-18.9H398.5z"/>
			<path class="st6" d="M421.6,960.2L421.6,960.2c0,0.5-0.1,0.9-0.2,1.3s-0.4,0.9-0.8,1.4s-1,1-1.7,1.3s-1.7,0.7-3,0.9
				s-2.8,0.4-4.5,0.4h-1.3c-1.6,0-3-0.1-4.3-0.4c-1.2-0.3-2.2-0.7-2.9-1.1c-0.7-0.5-1.3-1-1.8-1.6s-0.8-1.3-0.9-1.9
				c-0.2-0.6-0.2-1.3-0.2-2V958c0-4.6,3.4-6.9,10.1-6.9h1.4c1.2,0,2.4,0.1,3.4,0.2s1.9,0.4,2.6,0.6s1.3,0.6,1.8,1s0.9,0.8,1.2,1.2
				s0.5,0.9,0.7,1.4s0.3,1,0.4,1.4s0.1,0.9,0.1,1.5v0.8h-14.9c0.2,1.7,1.6,2.5,4.1,2.5h0c0.6,0,1.2-0.1,1.6-0.2s0.9-0.2,1.1-0.3
				s0.5-0.3,0.6-0.4s0.3-0.3,0.3-0.4s0.1-0.2,0.1-0.3H421.6z M410.8,954.4c-2.3,0-3.6,0.7-3.9,2.1h7.9
				C414.5,955.1,413.1,954.4,410.8,954.4z"/>
		</g>
		<g class="st5">
			<path class="st6" d="M423.1,965.1v-13.7h6.9v2.4c0.3-0.2,0.5-0.4,0.6-0.5c0.1-0.1,0.5-0.4,0.9-0.7s1-0.6,1.4-0.7s1.1-0.3,1.8-0.5
				s1.5-0.2,2.3-0.2h0.2c1.2,0,2.3,0.2,3.2,0.5s1.6,0.8,2.1,1.3s0.9,1.1,1.1,1.7s0.3,1.1,0.3,1.7v8.8h-6.9v-6.5c0-1-0.3-1.7-0.8-2.3
				s-1.4-0.9-2.5-0.9c-1.1,0-2,0.3-2.7,0.9c-0.6,0.6-1,1.4-1,2.4v6.3H423.1z"/>
		</g>
		<g class="st5">
			<path class="st6" d="M457,965.1h-5.8c-2.4,0-3.6-1.3-3.6-3.9v-5.6h-2.6v-4.2h2.6v-4h6.9v4h2.6v4.2h-2.6v4c0,0.4,0.1,0.7,0.2,0.9
				s0.5,0.3,0.9,0.3h1.5V965.1z"/>
		</g>
		<g class="st5">
			<path class="st6" d="M465.5,965.1h-6.9v-18.9h6.9v10.6l4.7-5.3h7.4l-5.6,6l6.4,7.6h-7.8l-5.1-6.1V965.1z"/>
		</g>
		<g class="st5">
			<path class="st6" d="M498.6,960.2L498.6,960.2c0,0.5-0.1,0.9-0.2,1.3s-0.4,0.9-0.8,1.4s-1,1-1.7,1.3s-1.7,0.7-3,0.9
				s-2.8,0.4-4.5,0.4h-1.3c-1.6,0-3-0.1-4.3-0.4c-1.2-0.3-2.2-0.7-2.9-1.1c-0.7-0.5-1.3-1-1.8-1.6s-0.8-1.3-0.9-1.9
				c-0.2-0.6-0.2-1.3-0.2-2V958c0-4.6,3.4-6.9,10.1-6.9h1.4c1.2,0,2.4,0.1,3.4,0.2s1.9,0.4,2.6,0.6s1.3,0.6,1.8,1s0.9,0.8,1.2,1.2
				s0.5,0.9,0.7,1.4s0.3,1,0.4,1.4s0.1,0.9,0.1,1.5v0.8h-14.9c0.2,1.7,1.6,2.5,4.1,2.5h0c0.6,0,1.2-0.1,1.6-0.2s0.9-0.2,1.1-0.3
				s0.5-0.3,0.6-0.4s0.3-0.3,0.3-0.4s0.1-0.2,0.1-0.3H498.6z M487.8,954.4c-2.3,0-3.6,0.7-3.9,2.1h7.9
				C491.4,955.1,490.1,954.4,487.8,954.4z"/>
		</g>
		<g class="st5">
			<path class="st6" d="M517.5,965.1h-18v-3.7l9.1-5.9h-9.1v-4h18v3.6l-9.4,5.8h9.4V965.1z"/>
			<path class="st6" d="M539.6,951.5v13.7h-6.9v-2.4c-1.8,1.8-4.1,2.7-6.9,2.7h-0.2c-1.2,0-2.3-0.2-3.1-0.5s-1.6-0.8-2-1.3
				s-0.8-1.1-1-1.7s-0.3-1.2-0.3-1.8v-8.6h6.9v6.5c0,0.9,0.3,1.7,0.8,2.3s1.3,0.9,2.4,0.9c1.1,0,2-0.3,2.6-0.9
				c0.6-0.6,0.9-1.4,0.9-2.4v-6.3H539.6z M528.7,946.2v4.1h-6v-4.1H528.7z M535.9,946.2v4.1h-6v-4.1H535.9z"/>
			<path class="st6" d="M541.6,965.1v-13.7h6.9v2.4c0.3-0.2,0.5-0.4,0.6-0.5s0.5-0.4,0.9-0.7s1-0.6,1.4-0.7s1.1-0.3,1.8-0.5
				s1.5-0.2,2.3-0.2h0.2c1.2,0,2.3,0.2,3.2,0.5c0.9,0.3,1.6,0.8,2.1,1.3c0.5,0.5,0.9,1.1,1.1,1.7s0.3,1.1,0.3,1.7v8.8h-6.9v-6.5
				c0-1-0.3-1.7-0.8-2.3s-1.4-0.9-2.5-0.9c-1.1,0-2,0.3-2.7,0.9s-1,1.4-1,2.4v6.3H541.6z"/>
		</g>
		<g class="st5">
			<path class="st6" d="M571.3,965.1h-6.9v-18.9h6.9v10.6l4.7-5.3h7.4l-5.6,6l6.4,7.6h-7.8l-5.1-6.1V965.1z"/>
		</g>
		<g class="st5">
			<path class="st6" d="M591.9,960.2v5h-7.2v-5H591.9z"/>
			<path class="st6" d="M600.6,960.2v5h-7.2v-5H600.6z"/>
			<path class="st6" d="M609.4,960.2v5h-7.2v-5H609.4z"/>
		</g>
		<g class="st5">
			<path class="st6" d="M132.5,852.4h30.3v6.7h-20v3.4h19.6v6.7h-19.6v3.8H163v6.8h-30.6V852.4z"/>
			<path class="st6" d="M165.6,852.4h32.6v5.6l-18,14.4h18.1v7.5h-33v-5.6l17.4-14.6h-17.2V852.4z"/>
		</g>
		<g class="st5">
			<path class="st6" d="M240.5,879.8l-2.1-4.4h-15.6l-2.1,4.4H210l13.5-27.4h14.1l14.3,27.4H240.5z M235,868.6l-4.6-9.4l-4.5,9.4
				H235z"/>
		</g>
		<g class="st5">
			<path class="st6" d="M252.7,852.4h32.6v5.6l-18,14.4h18.1v7.5h-33v-5.6l17.4-14.6h-17.2V852.4z"/>
			<path class="st6" d="M318.6,851.9h1.7c2.4,0,4.6,0.2,6.6,0.5c2,0.3,3.7,0.8,5,1.3s2.6,1.2,3.6,2c1,0.8,1.8,1.6,2.4,2.3
				c0.6,0.8,1.1,1.6,1.4,2.6c0.4,0.9,0.6,1.8,0.7,2.5s0.2,1.6,0.2,2.4v1.1c0,0.8-0.1,1.6-0.2,2.4s-0.3,1.6-0.7,2.6
				c-0.4,0.9-0.8,1.8-1.4,2.6c-0.6,0.8-1.4,1.6-2.4,2.4c-1,0.8-2.2,1.4-3.6,2s-3,1-5,1.3c-2,0.3-4.2,0.5-6.7,0.5h-1.7
				c-2.5,0-4.7-0.2-6.7-0.5c-2-0.3-3.7-0.8-5-1.3c-1.4-0.5-2.6-1.2-3.6-2c-1-0.8-1.8-1.6-2.4-2.4c-0.6-0.8-1-1.7-1.4-2.6
				c-0.4-0.9-0.6-1.8-0.7-2.6s-0.2-1.6-0.2-2.4v-1.1c0-0.8,0.1-1.6,0.2-2.4s0.3-1.6,0.7-2.5c0.4-0.9,0.8-1.8,1.4-2.6
				c0.6-0.8,1.4-1.6,2.4-2.3c1-0.8,2.2-1.4,3.6-2c1.4-0.5,3-1,5-1.3C313.9,852.1,316.1,851.9,318.6,851.9z M329.3,866.3v-0.5
				c0-0.8-0.1-1.6-0.4-2.3s-0.8-1.4-1.5-2c-0.7-0.7-1.7-1.2-3.1-1.6c-1.4-0.4-3-0.6-4.9-0.6c-2,0-3.6,0.2-5,0.6
				c-1.4,0.4-2.4,0.9-3.1,1.6c-0.7,0.7-1.2,1.3-1.5,2c-0.3,0.7-0.4,1.5-0.4,2.3v0.4c0,0.8,0.1,1.6,0.4,2.3s0.8,1.4,1.5,2.1
				c0.7,0.7,1.7,1.3,3.1,1.7c1.4,0.4,3,0.6,5,0.6s3.6-0.2,5-0.6c1.4-0.4,2.4-1,3.1-1.6c0.7-0.7,1.2-1.4,1.5-2.1
				C329.2,867.9,329.3,867.1,329.3,866.3z"/>
			<path class="st6" d="M342.8,852.4h10.5V872h19v7.8h-29.4V852.4z"/>
		</g>
		<g class="st5">
			<path class="st6" d="M375,879.8v-27.4h19.4c3,0,5.7,0.2,8.1,0.7c2.4,0.5,4.3,1.1,5.7,2s2.6,1.8,3.6,2.9c0.9,1.2,1.6,2.3,1.9,3.5
				c0.3,1.2,0.5,2.5,0.5,3.8v1.1c0,1.3-0.2,2.6-0.5,3.8s-0.9,2.4-1.8,3.6s-2,2.2-3.5,3.1s-3.3,1.5-5.7,2.1s-5.2,0.8-8.3,0.8H375z
				 M385.4,859.6v13h7.8c6.7,0,10.1-2.1,10.1-6.4V866c0-4.2-3.4-6.3-10.1-6.3H385.4z"/>
		</g>
		<g class="st5">
			<path class="st6" d="M442.5,879.8l-2.1-4.4h-15.6l-2.1,4.4H412l13.5-27.4h14.1l14.3,27.4H442.5z M437,868.6l-4.6-9.4l-4.5,9.4
				H437z"/>
			<path class="st6" d="M455.1,852.4h10.5V872h19v7.8h-29.4V852.4z"/>
			<path class="st6" d="M498.5,879.8v-27.4h14.4l8.4,15.4l8.5-15.4h13.8v27.4h-10.3v-17.1l-9.6,17.1h-5.3l-9.6-17.1v17.1H498.5z"/>
		</g>
		<g class="st5">
			<path class="st6" d="M547.1,852.4h30.3v6.7h-20v3.4H577v6.7h-19.6v3.8h20.3v6.8h-30.6V852.4z M557.4,850.8l2.9-5.7h10.3l-3.7,5.7
				H557.4z"/>
		</g>
		<g class="st5">
			<path class="st6" d="M599,880.3h-0.8c-2.9,0-5.4-0.3-7.7-0.9c-2.2-0.6-4-1.4-5.3-2.3c-1.3-0.9-2.4-2-3.3-3.3
				c-0.9-1.3-1.4-2.5-1.7-3.7c-0.3-1.2-0.5-2.4-0.5-3.7v-1c0-1.3,0.1-2.5,0.4-3.7c0.3-1.2,0.9-2.4,1.7-3.6s2-2.3,3.4-3.2
				c1.4-0.9,3.3-1.6,5.6-2.2c2.4-0.6,5.1-0.9,8.2-0.9h1.4c3.2,0,6,0.3,8.4,0.8c2.4,0.5,4.3,1.1,5.6,1.8c1.3,0.7,2.4,1.6,3.2,2.6
				c0.8,1,1.4,1.9,1.6,2.8c0.2,0.8,0.4,1.7,0.4,2.6v0h-10.9c0-0.2-0.1-0.4-0.2-0.6c-0.1-0.2-0.4-0.5-0.8-0.9
				c-0.4-0.4-0.9-0.7-1.5-0.9c-0.6-0.3-1.4-0.5-2.6-0.7c-1.1-0.2-2.4-0.3-3.9-0.3c-6.3,0-9.5,2.3-9.5,6.8v0.4c0,1.9,0.8,3.6,2.3,4.9
				c1.5,1.3,3.9,2,7.1,2c1.3,0,2.6-0.1,3.7-0.3c1.1-0.2,2-0.4,2.7-0.7c0.7-0.3,1.3-0.6,1.7-0.9c0.5-0.3,0.8-0.6,1-0.9
				c0.2-0.3,0.3-0.5,0.3-0.7h-9.6v-5.3h20.3v15.4h-6.6c-0.3-1.4-0.7-2.7-1.3-3.8C609.5,878.9,605.1,880.3,599,880.3z"/>
		</g>
		<g class="st5">
			<path class="st6" d="M50.1,896.6h29.7v6.7H60.5v3.4h19v6.7h-19V924H50.1V896.6z"/>
		</g>
		<g class="st5">
			<path class="st6" d="M82.9,896.6h30.3v6.7h-20v3.4h19.6v6.7H93.2v3.8h20.3v6.8H82.9V896.6z"/>
		</g>
		<g class="st5">
			<path class="st6" d="M132.4,924.4h-2.2c-2.5,0-4.7-0.3-6.6-0.8c-1.9-0.6-3.4-1.3-4.4-2.1c-1.1-0.8-1.9-1.9-2.6-3
				c-0.7-1.2-1.1-2.2-1.3-3.2c-0.2-1-0.3-2-0.3-3.1v-0.2h10.3c0.3,3.1,2.3,4.7,6,4.7h0.3c2.1,0,3.6-0.6,4.6-1.7
				c1-1.1,1.5-2.6,1.5-4.5v-13.8h10.5v14c0,0.9,0,1.8-0.1,2.6c-0.1,0.8-0.3,1.7-0.6,2.6c-0.3,0.9-0.7,1.8-1.1,2.6
				c-0.5,0.8-1.1,1.6-1.9,2.3c-0.8,0.7-1.7,1.4-2.8,1.9s-2.4,0.9-3.9,1.3C136,924.2,134.3,924.4,132.4,924.4z"/>
			<path class="st6" d="M151.3,896.6h10.5v19.5h19v7.8h-29.4V896.6z"/>
			<path class="st6" d="M183.5,896.6h30.3v6.7h-20v3.4h19.6v6.7h-19.6v3.8h20.3v6.8h-30.6V896.6z"/>
		</g>
		<g class="st5">
			<path class="st6" d="M236,924.5h-3.3c-11.1,0-16.7-3.2-16.7-9.7v-0.4h11.5c0.2,2.6,2.5,3.9,6.8,3.9h0.3c1.4,0,2.6-0.1,3.5-0.2
				c0.9-0.1,1.6-0.3,2.1-0.6c0.4-0.3,0.7-0.5,0.9-0.8c0.2-0.3,0.2-0.6,0.2-1v0c0-0.5-0.1-0.9-0.4-1.2c-0.3-0.3-0.9-0.6-1.8-0.8
				c-1-0.2-2.4-0.4-4.2-0.4l-5.1-0.1c-9-0.2-13.4-3-13.4-8.2v-0.3c0-1,0.1-1.8,0.4-2.6c0.3-0.8,0.8-1.5,1.5-2.3
				c0.7-0.7,1.6-1.3,2.8-1.8c1.2-0.5,2.7-0.9,4.5-1.2c1.9-0.3,4.1-0.5,6.5-0.5h3.3c11.1,0,16.6,2.9,16.6,8.7v0.3h-11.4
				c-0.2-1.9-2.4-2.9-6.6-2.9h-0.4c-1.7,0-3,0.1-4,0.3c-0.9,0.2-1.5,0.4-1.7,0.7c-0.2,0.3-0.3,0.6-0.3,1v0c0,0.4,0.1,0.8,0.4,1
				c0.3,0.3,0.8,0.5,1.7,0.7c0.9,0.2,2.2,0.3,3.8,0.3l4.9,0.1c5.2,0.1,8.9,0.9,11.1,2.2s3.3,3.3,3.3,6.1v0.5c0,1-0.1,1.9-0.4,2.7
				c-0.2,0.8-0.7,1.7-1.5,2.5c-0.7,0.8-1.7,1.6-2.9,2.1c-1.2,0.6-2.9,1-4.9,1.4C241.2,924.3,238.7,924.5,236,924.5z"/>
		</g>
		<g class="st5">
			<path class="st6" d="M254.5,896.6h32.6v5.6l-18,14.4h18.1v7.5h-33v-5.6l17.4-14.6h-17.2V896.6z"/>
		</g>
		<g class="st5">
			<path class="st6" d="M301,924v-19.9h-11.8v-7.5h34.1v7.5h-11.8V924H301z"/>
			<path class="st6" d="M326,896.6h30.3v6.7h-20v3.4h19.6v6.7h-19.6v3.8h20.3v6.8H326V896.6z M336.3,895l2.9-5.7h10.3l-3.7,5.7
				H336.3z"/>
			<path class="st6" d="M378.4,924.5H375c-11.1,0-16.7-3.2-16.7-9.7v-0.4h11.5c0.2,2.6,2.5,3.9,6.8,3.9h0.3c1.4,0,2.6-0.1,3.5-0.2
				c0.9-0.1,1.6-0.3,2.1-0.6c0.4-0.3,0.7-0.5,0.9-0.8c0.2-0.3,0.2-0.6,0.2-1v0c0-0.5-0.1-0.9-0.4-1.2c-0.3-0.3-0.9-0.6-1.8-0.8
				c-1-0.2-2.4-0.4-4.2-0.4l-5.1-0.1c-9-0.2-13.4-3-13.4-8.2v-0.3c0-1,0.1-1.8,0.4-2.6c0.3-0.8,0.8-1.5,1.5-2.3
				c0.7-0.7,1.6-1.3,2.8-1.8c1.2-0.5,2.7-0.9,4.5-1.2c1.9-0.3,4.1-0.5,6.5-0.5h3.3c11.1,0,16.6,2.9,16.6,8.7v0.3H383
				c-0.2-1.9-2.4-2.9-6.6-2.9H376c-1.7,0-3,0.1-4,0.3c-0.9,0.2-1.5,0.4-1.7,0.7c-0.2,0.3-0.3,0.6-0.3,1v0c0,0.4,0.1,0.8,0.4,1
				c0.3,0.3,0.8,0.5,1.7,0.7c0.9,0.2,2.2,0.3,3.8,0.3l4.9,0.1c5.2,0.1,8.9,0.9,11.1,2.2c2.2,1.3,3.3,3.3,3.3,6.1v0.5
				c0,1-0.1,1.9-0.4,2.7c-0.2,0.8-0.7,1.7-1.5,2.5s-1.7,1.6-2.9,2.1c-1.2,0.6-2.9,1-4.9,1.4C383.6,924.3,381.1,924.5,378.4,924.5z"
				/>
			<path class="st6" d="M437,924l-2.1-4.4h-15.6l-2.1,4.4h-10.6l13.5-27.4h14.1l14.3,27.4H437z M431.5,912.7l-4.6-9.4l-4.5,9.4
				H431.5z"/>
		</g>
		<g class="st5">
			<path class="st6" d="M449.6,896.6h10.5v19.5h19v7.8h-29.4V896.6z"/>
		</g>
		<g class="st5">
			<path class="st6" d="M510.4,924l-2.1-4.4h-15.6l-2.1,4.4h-10.6l13.5-27.4h14.1l14.3,27.4H510.4z M504.9,912.7l-4.6-9.4l-4.5,9.4
				H504.9z"/>
		</g>
		<g class="st5">
			<path class="st6" d="M528.3,924v-19.9h-11.8v-7.5h34.1v7.5h-11.8V924H528.3z"/>
			<path class="st6" d="M564.3,924v-19.9h-11.8v-7.5h34.1v7.5h-11.8V924H564.3z"/>
			<path class="st6" d="M628.6,924l-2.1-4.4h-15.6l-2.1,4.4h-10.6l13.5-27.4h14.1L640,924H628.6z M623.1,912.7l-4.6-9.4l-4.5,9.4
				H623.1z M614.1,895l2.9-5.7h10.3l-3.7,5.7H614.1z"/>
			<path class="st6" d="M641.2,896.6h10.5v19.5h19v7.8h-29.4V896.6z"/>
			<path class="st6" d="M673.4,896.6h10.5v19.5h19v7.8h-29.4V896.6z"/>
		</g>
	</g>
</g>
</svg>
